{"header":{"tempo":216,"timeSignature":[2,4]},"notes":[{"time":"0i","midiNote":43,"note":"G2","velocity":1,"duration":"24i"},{"time":"0i","midiNote":55,"note":"G3","velocity":1,"duration":"24i"},{"time":"0i","midiNote":67,"note":"G4","velocity":1,"duration":"24i"},{"time":"24i","midiNote":43,"note":"G2","velocity":1,"duration":"24i"},{"time":"24i","midiNote":55,"note":"G3","velocity":1,"duration":"24i"},{"time":"24i","midiNote":67,"note":"G4","velocity":1,"duration":"24i"},{"time":"48i","midiNote":43,"note":"G2","velocity":1,"duration":"24i"},{"time":"48i","midiNote":55,"note":"G3","velocity":1,"duration":"24i"},{"time":"48i","midiNote":67,"note":"G4","velocity":1,"duration":"24i"},{"time":"72i","midiNote":39,"note":"D#2","velocity":1,"duration":"114i"},{"time":"72i","midiNote":51,"note":"D#3","velocity":1,"duration":"114i"},{"time":"72i","midiNote":63,"note":"D#4","velocity":1,"duration":"114i"},{"time":"288i","midiNote":41,"note":"F2","velocity":1,"duration":"24i"},{"time":"288i","midiNote":53,"note":"F3","velocity":1,"duration":"24i"},{"time":"288i","midiNote":65,"note":"F4","velocity":1,"duration":"24i"},{"time":"312i","midiNote":41,"note":"F2","velocity":1,"duration":"24i"},{"time":"312i","midiNote":53,"note":"F3","velocity":1,"duration":"24i"},{"time":"312i","midiNote":65,"note":"F4","velocity":1,"duration":"24i"},{"time":"336i","midiNote":41,"note":"F2","velocity":1,"duration":"24i"},{"time":"336i","midiNote":53,"note":"F3","velocity":1,"duration":"24i"},{"time":"336i","midiNote":65,"note":"F4","velocity":1,"duration":"24i"},{"time":"360i","midiNote":38,"note":"D2","velocity":1,"duration":"192i"},{"time":"360i","midiNote":50,"note":"D3","velocity":1,"duration":"192i"},{"time":"360i","midiNote":62,"note":"D4","velocity":1,"duration":"192i"},{"time":"624i","midiNote":67,"note":"G4","velocity":1,"duration":"24i"},{"time":"648i","midiNote":67,"note":"G4","velocity":1,"duration":"24i"},{"time":"672i","midiNote":67,"note":"G4","velocity":1,"duration":"24i"},{"time":"696i","midiNote":60,"note":"C4","velocity":1,"duration":"384i"},{"time":"696i","midiNote":63,"note":"D#4","velocity":1,"duration":"336i"},{"time":"720i","midiNote":68,"note":"G#4","velocity":1,"duration":"24i"},{"time":"744i","midiNote":68,"note":"G#4","velocity":1,"duration":"24i"},{"time":"768i","midiNote":68,"note":"G#4","velocity":1,"duration":"24i"},{"time":"792i","midiNote":67,"note":"G4","velocity":1,"duration":"216i"},{"time":"816i","midiNote":75,"note":"D#5","velocity":1,"duration":"24i"},{"time":"840i","midiNote":75,"note":"D#5","velocity":1,"duration":"24i"},{"time":"864i","midiNote":75,"note":"D#5","velocity":1,"duration":"24i"},{"time":"888i","midiNote":72,"note":"C5","velocity":1,"duration":"144i"},{"time":"1008i","midiNote":67,"note":"G4","velocity":1,"duration":"24i"},{"time":"1032i","midiNote":67,"note":"G4","velocity":1,"duration":"24i"},{"time":"1056i","midiNote":67,"note":"G4","velocity":1,"duration":"24i"},{"time":"1080i","midiNote":59,"note":"B3","velocity":1,"duration":"384i"},{"time":"1080i","midiNote":62,"note":"D4","velocity":1,"duration":"384i"},{"time":"1104i","midiNote":68,"note":"G#4","velocity":1,"duration":"24i"},{"time":"1128i","midiNote":68,"note":"G#4","velocity":1,"duration":"24i"},{"time":"1152i","midiNote":68,"note":"G#4","velocity":1,"duration":"24i"},{"time":"1176i","midiNote":67,"note":"G4","velocity":1,"duration":"288i"},{"time":"1200i","midiNote":77,"note":"F5","velocity":1,"duration":"24i"},{"time":"1224i","midiNote":77,"note":"F5","velocity":1,"duration":"24i"},{"time":"1248i","midiNote":77,"note":"F5","velocity":1,"duration":"24i"},{"time":"1272i","midiNote":74,"note":"D5","velocity":1,"duration":"120i"},{"time":"1392i","midiNote":79,"note":"G5","velocity":1,"duration":"24i"},{"time":"1416i","midiNote":79,"note":"G5","velocity":1,"duration":"24i"},{"time":"1440i","midiNote":77,"note":"F5","velocity":1,"duration":"24i"},{"time":"1464i","midiNote":60,"note":"C4","velocity":1,"duration":"96i"},{"time":"1464i","midiNote":63,"note":"D#4","velocity":1,"duration":"24i"},{"time":"1464i","midiNote":75,"note":"D#5","velocity":1,"duration":"96i"},{"time":"1488i","midiNote":63,"note":"D#4","velocity":1,"duration":"24i"},{"time":"1512i","midiNote":63,"note":"D#4","velocity":1,"duration":"24i"},{"time":"1536i","midiNote":65,"note":"F4","velocity":1,"duration":"24i"},{"time":"1560i","midiNote":59,"note":"B3","velocity":1,"duration":"96i"},{"time":"1560i","midiNote":67,"note":"G4","velocity":1,"duration":"120i"},{"time":"1560i","midiNote":74,"note":"D5","velocity":1,"duration":"24i"},{"time":"1584i","midiNote":79,"note":"G5","velocity":1,"duration":"24i"},{"time":"1608i","midiNote":79,"note":"G5","velocity":1,"duration":"24i"},{"time":"1632i","midiNote":77,"note":"F5","velocity":1,"duration":"24i"},{"time":"1656i","midiNote":60,"note":"C4","velocity":1,"duration":"96i"},{"time":"1656i","midiNote":75,"note":"D#5","velocity":1,"duration":"96i"},{"time":"1680i","midiNote":63,"note":"D#4","velocity":1,"duration":"24i"},{"time":"1704i","midiNote":63,"note":"D#4","velocity":1,"duration":"24i"},{"time":"1728i","midiNote":65,"note":"F4","velocity":1,"duration":"24i"},{"time":"1752i","midiNote":59,"note":"B3","velocity":1,"duration":"24i"},{"time":"1752i","midiNote":67,"note":"G4","velocity":1,"duration":"24i"},{"time":"1752i","midiNote":74,"note":"D5","velocity":1,"duration":"24i"},{"time":"1776i","midiNote":35,"note":"B1","velocity":1,"duration":"24i"},{"time":"1776i","midiNote":43,"note":"G2","velocity":1,"duration":"24i"},{"time":"1776i","midiNote":47,"note":"B2","velocity":1,"duration":"24i"},{"time":"1776i","midiNote":67,"note":"G4","velocity":1,"duration":"24i"},{"time":"1776i","midiNote":74,"note":"D5","velocity":1,"duration":"24i"},{"time":"1776i","midiNote":79,"note":"G5","velocity":1,"duration":"24i"},{"time":"1800i","midiNote":35,"note":"B1","velocity":1,"duration":"24i"},{"time":"1800i","midiNote":43,"note":"G2","velocity":1,"duration":"24i"},{"time":"1800i","midiNote":47,"note":"B2","velocity":1,"duration":"24i"},{"time":"1800i","midiNote":67,"note":"G4","velocity":1,"duration":"24i"},{"time":"1800i","midiNote":74,"note":"D5","velocity":1,"duration":"24i"},{"time":"1800i","midiNote":79,"note":"G5","velocity":1,"duration":"24i"},{"time":"1824i","midiNote":35,"note":"B1","velocity":1,"duration":"24i"},{"time":"1824i","midiNote":43,"note":"G2","velocity":1,"duration":"24i"},{"time":"1824i","midiNote":47,"note":"B2","velocity":1,"duration":"24i"},{"time":"1824i","midiNote":67,"note":"G4","velocity":1,"duration":"24i"},{"time":"1824i","midiNote":74,"note":"D5","velocity":1,"duration":"24i"},{"time":"1824i","midiNote":77,"note":"F5","velocity":1,"duration":"24i"},{"time":"1848i","midiNote":36,"note":"C2","velocity":1,"duration":"48i"},{"time":"1848i","midiNote":43,"note":"G2","velocity":1,"duration":"48i"},{"time":"1848i","midiNote":48,"note":"C3","velocity":1,"duration":"48i"},{"time":"1848i","midiNote":67,"note":"G4","velocity":1,"duration":"48i"},{"time":"1848i","midiNote":72,"note":"C5","velocity":1,"duration":"48i"},{"time":"1848i","midiNote":75,"note":"D#5","velocity":1,"duration":"48i"},{"time":"1944i","midiNote":32,"note":"G#1","velocity":1,"duration":"48i"},{"time":"1944i","midiNote":44,"note":"G#2","velocity":1,"duration":"48i"},{"time":"1944i","midiNote":60,"note":"C4","velocity":1,"duration":"48i"},{"time":"1944i","midiNote":66,"note":"F#4","velocity":1,"duration":"48i"},{"time":"1944i","midiNote":72,"note":"C5","velocity":1,"duration":"48i"},{"time":"2040i","midiNote":31,"note":"G1","velocity":1,"duration":"48i"},{"time":"2040i","midiNote":43,"note":"G2","velocity":1,"duration":"48i"},{"time":"2040i","midiNote":67,"note":"G4","velocity":1,"duration":"48i"},{"time":"2040i","midiNote":71,"note":"B4","velocity":1,"duration":"48i"},{"time":"2040i","midiNote":79,"note":"G5","velocity":1,"duration":"96i"},{"time":"2160i","midiNote":44,"note":"G#2","velocity":1,"duration":"24i"},{"time":"2160i","midiNote":56,"note":"G#3","velocity":1,"duration":"24i"},{"time":"2160i","midiNote":68,"note":"G#4","velocity":1,"duration":"24i"},{"time":"2160i","midiNote":80,"note":"G#5","velocity":1,"duration":"24i"},{"time":"2184i","midiNote":44,"note":"G#2","velocity":1,"duration":"24i"},{"time":"2184i","midiNote":56,"note":"G#3","velocity":1,"duration":"24i"},{"time":"2184i","midiNote":68,"note":"G#4","velocity":1,"duration":"24i"},{"time":"2184i","midiNote":80,"note":"G#5","velocity":1,"duration":"24i"},{"time":"2208i","midiNote":44,"note":"G#2","velocity":1,"duration":"24i"},{"time":"2208i","midiNote":56,"note":"G#3","velocity":1,"duration":"24i"},{"time":"2208i","midiNote":68,"note":"G#4","velocity":1,"duration":"24i"},{"time":"2208i","midiNote":80,"note":"G#5","velocity":1,"duration":"24i"},{"time":"2232i","midiNote":41,"note":"F2","velocity":1,"duration":"192i"},{"time":"2232i","midiNote":53,"note":"F3","velocity":1,"duration":"192i"},{"time":"2232i","midiNote":65,"note":"F4","velocity":1,"duration":"192i"},{"time":"2232i","midiNote":77,"note":"F5","velocity":1,"duration":"192i"},{"time":"2448i","midiNote":68,"note":"G#4","velocity":1,"duration":"24i"},{"time":"2472i","midiNote":68,"note":"G#4","velocity":1,"duration":"24i"},{"time":"2496i","midiNote":68,"note":"G#4","velocity":1,"duration":"24i"},{"time":"2520i","midiNote":65,"note":"F4","velocity":1,"duration":"288i"},{"time":"2544i","midiNote":62,"note":"D4","velocity":1,"duration":"24i"},{"time":"2568i","midiNote":62,"note":"D4","velocity":1,"duration":"24i"},{"time":"2592i","midiNote":62,"note":"D4","velocity":1,"duration":"24i"},{"time":"2616i","midiNote":59,"note":"B3","velocity":1,"duration":"192i"},{"time":"2640i","midiNote":56,"note":"G#3","velocity":1,"duration":"24i"},{"time":"2664i","midiNote":56,"note":"G#3","velocity":1,"duration":"24i"},{"time":"2688i","midiNote":56,"note":"G#3","velocity":1,"duration":"24i"},{"time":"2712i","midiNote":55,"note":"G3","velocity":1,"duration":"144i"},{"time":"2736i","midiNote":31,"note":"G1","velocity":1,"duration":"24i"},{"time":"2736i","midiNote":43,"note":"G2","velocity":1,"duration":"24i"},{"time":"2760i","midiNote":31,"note":"G1","velocity":1,"duration":"24i"},{"time":"2760i","midiNote":43,"note":"G2","velocity":1,"duration":"24i"},{"time":"2784i","midiNote":31,"note":"G1","velocity":1,"duration":"24i"},{"time":"2784i","midiNote":43,"note":"G2","velocity":1,"duration":"24i"},{"time":"2808i","midiNote":36,"note":"C2","velocity":1,"duration":"48i"},{"time":"2808i","midiNote":60,"note":"C4","velocity":1,"duration":"48i"},{"time":"2808i","midiNote":63,"note":"D#4","velocity":1,"duration":"24i"},{"time":"2832i","midiNote":68,"note":"G#4","velocity":1,"duration":"24i"},{"time":"2856i","midiNote":68,"note":"G#4","velocity":1,"duration":"24i"},{"time":"2880i","midiNote":68,"note":"G#4","velocity":1,"duration":"24i"},{"time":"2904i","midiNote":65,"note":"F4","velocity":1,"duration":"216i"},{"time":"2928i","midiNote":62,"note":"D4","velocity":1,"duration":"24i"},{"time":"2952i","midiNote":62,"note":"D4","velocity":1,"duration":"24i"},{"time":"2976i","midiNote":62,"note":"D4","velocity":1,"duration":"24i"},{"time":"3000i","midiNote":59,"note":"B3","velocity":1,"duration":"120i"},{"time":"3024i","midiNote":56,"note":"G#3","velocity":1,"duration":"24i"},{"time":"3048i","midiNote":56,"note":"G#3","velocity":1,"duration":"24i"},{"time":"3072i","midiNote":56,"note":"G#3","velocity":1,"duration":"24i"},{"time":"3096i","midiNote":55,"note":"G3","velocity":1,"duration":"144i"},{"time":"3120i","midiNote":43,"note":"G2","velocity":1,"duration":"24i"},{"time":"3120i","midiNote":74,"note":"D5","velocity":1,"duration":"24i"},{"time":"3120i","midiNote":77,"note":"F5","velocity":1,"duration":"24i"},{"time":"3144i","midiNote":43,"note":"G2","velocity":1,"duration":"24i"},{"time":"3144i","midiNote":74,"note":"D5","velocity":1,"duration":"24i"},{"time":"3144i","midiNote":77,"note":"F5","velocity":1,"duration":"24i"},{"time":"3168i","midiNote":43,"note":"G2","velocity":1,"duration":"24i"},{"time":"3168i","midiNote":74,"note":"D5","velocity":1,"duration":"24i"},{"time":"3168i","midiNote":77,"note":"F5","velocity":1,"duration":"24i"},{"time":"3192i","midiNote":48,"note":"C3","velocity":1,"duration":"48i"},{"time":"3192i","midiNote":72,"note":"C5","velocity":1,"duration":"24i"},{"time":"3192i","midiNote":75,"note":"D#5","velocity":1,"duration":"24i"},{"time":"3216i","midiNote":63,"note":"D#4","velocity":1,"duration":"24i"},{"time":"3216i","midiNote":67,"note":"G4","velocity":1,"duration":"24i"},{"time":"3240i","midiNote":63,"note":"D#4","velocity":1,"duration":"24i"},{"time":"3240i","midiNote":67,"note":"G4","velocity":1,"duration":"24i"},{"time":"3240i","midiNote":72,"note":"C5","velocity":1,"duration":"24i"},{"time":"3264i","midiNote":63,"note":"D#4","velocity":1,"duration":"24i"},{"time":"3264i","midiNote":72,"note":"C5","velocity":1,"duration":"24i"},{"time":"3288i","midiNote":62,"note":"D4","velocity":1,"duration":"120i"},{"time":"3288i","midiNote":65,"note":"F4","velocity":1,"duration":"120i"},{"time":"3288i","midiNote":68,"note":"G#4","velocity":1,"duration":"120i"},{"time":"3288i","midiNote":72,"note":"C5","velocity":1,"duration":"96i"},{"time":"3312i","midiNote":36,"note":"C2","velocity":1,"duration":"24i"},{"time":"3312i","midiNote":48,"note":"C3","velocity":1,"duration":"24i"},{"time":"3336i","midiNote":36,"note":"C2","velocity":1,"duration":"24i"},{"time":"3336i","midiNote":48,"note":"C3","velocity":1,"duration":"24i"},{"time":"3360i","midiNote":36,"note":"C2","velocity":1,"duration":"24i"},{"time":"3360i","midiNote":48,"note":"C3","velocity":1,"duration":"24i"},{"time":"3384i","midiNote":36,"note":"C2","velocity":1,"duration":"48i"},{"time":"3384i","midiNote":48,"note":"C3","velocity":1,"duration":"48i"},{"time":"3384i","midiNote":71,"note":"B4","velocity":1,"duration":"24i"},{"time":"3408i","midiNote":65,"note":"F4","velocity":1,"duration":"24i"},{"time":"3408i","midiNote":68,"note":"G#4","velocity":1,"duration":"24i"},{"time":"3408i","midiNote":71,"note":"B4","velocity":1,"duration":"24i"},{"time":"3432i","midiNote":65,"note":"F4","velocity":1,"duration":"24i"},{"time":"3432i","midiNote":68,"note":"G#4","velocity":1,"duration":"24i"},{"time":"3432i","midiNote":71,"note":"B4","velocity":1,"duration":"24i"},{"time":"3456i","midiNote":65,"note":"F4","velocity":1,"duration":"24i"},{"time":"3456i","midiNote":74,"note":"D5","velocity":1,"duration":"24i"},{"time":"3480i","midiNote":63,"note":"D#4","velocity":1,"duration":"120i"},{"time":"3480i","midiNote":67,"note":"G4","velocity":1,"duration":"120i"},{"time":"3480i","midiNote":74,"note":"D5","velocity":1,"duration":"96i"},{"time":"3504i","midiNote":36,"note":"C2","velocity":1,"duration":"24i"},{"time":"3504i","midiNote":48,"note":"C3","velocity":1,"duration":"24i"},{"time":"3528i","midiNote":36,"note":"C2","velocity":1,"duration":"24i"},{"time":"3528i","midiNote":48,"note":"C3","velocity":1,"duration":"24i"},{"time":"3552i","midiNote":36,"note":"C2","velocity":1,"duration":"24i"},{"time":"3552i","midiNote":48,"note":"C3","velocity":1,"duration":"24i"},{"time":"3576i","midiNote":36,"note":"C2","velocity":1,"duration":"48i"},{"time":"3576i","midiNote":48,"note":"C3","velocity":1,"duration":"48i"},{"time":"3576i","midiNote":72,"note":"C5","velocity":1,"duration":"24i"},{"time":"3600i","midiNote":63,"note":"D#4","velocity":1,"duration":"24i"},{"time":"3600i","midiNote":67,"note":"G4","velocity":1,"duration":"24i"},{"time":"3600i","midiNote":72,"note":"C5","velocity":1,"duration":"24i"},{"time":"3624i","midiNote":63,"note":"D#4","velocity":1,"duration":"24i"},{"time":"3624i","midiNote":67,"note":"G4","velocity":1,"duration":"24i"},{"time":"3624i","midiNote":72,"note":"C5","velocity":1,"duration":"24i"},{"time":"3648i","midiNote":75,"note":"D#5","velocity":1,"duration":"24i"},{"time":"3672i","midiNote":48,"note":"C3","velocity":1,"duration":"48i"},{"time":"3672i","midiNote":59,"note":"B3","velocity":1,"duration":"48i"},{"time":"3672i","midiNote":65,"note":"F4","velocity":1,"duration":"24i"},{"time":"3672i","midiNote":68,"note":"G#4","velocity":1,"duration":"24i"},{"time":"3672i","midiNote":75,"note":"D#5","velocity":1,"duration":"24i"},{"time":"3696i","midiNote":74,"note":"D5","velocity":1,"duration":"24i"},{"time":"3720i","midiNote":74,"note":"D5","velocity":1,"duration":"24i"},{"time":"3744i","midiNote":77,"note":"F5","velocity":1,"duration":"24i"},{"time":"3768i","midiNote":48,"note":"C3","velocity":1,"duration":"48i"},{"time":"3768i","midiNote":58,"note":"A#3","velocity":1,"duration":"48i"},{"time":"3768i","midiNote":67,"note":"G4","velocity":1,"duration":"24i"},{"time":"3768i","midiNote":70,"note":"A#4","velocity":1,"duration":"24i"},{"time":"3768i","midiNote":77,"note":"F5","velocity":1,"duration":"24i"},{"time":"3792i","midiNote":76,"note":"E5","velocity":1,"duration":"24i"},{"time":"3816i","midiNote":76,"note":"E5","velocity":1,"duration":"24i"},{"time":"3840i","midiNote":79,"note":"G5","velocity":1,"duration":"24i"},{"time":"3864i","midiNote":48,"note":"C3","velocity":1,"duration":"48i"},{"time":"3864i","midiNote":56,"note":"G#3","velocity":1,"duration":"48i"},{"time":"3864i","midiNote":68,"note":"G#4","velocity":1,"duration":"24i"},{"time":"3864i","midiNote":72,"note":"C5","velocity":1,"duration":"24i"},{"time":"3864i","midiNote":79,"note":"G5","velocity":1,"duration":"24i"},{"time":"3888i","midiNote":77,"note":"F5","velocity":1,"duration":"24i"},{"time":"3912i","midiNote":77,"note":"F5","velocity":1,"duration":"24i"},{"time":"3936i","midiNote":80,"note":"G#5","velocity":1,"duration":"24i"},{"time":"3960i","midiNote":48,"note":"C3","velocity":1,"duration":"48i"},{"time":"3960i","midiNote":55,"note":"G3","velocity":1,"duration":"48i"},{"time":"3960i","midiNote":58,"note":"A#3","velocity":1,"duration":"48i"},{"time":"3960i","midiNote":70,"note":"A#4","velocity":1,"duration":"24i"},{"time":"3960i","midiNote":76,"note":"E5","velocity":1,"duration":"24i"},{"time":"3960i","midiNote":80,"note":"G#5","velocity":1,"duration":"24i"},{"time":"3984i","midiNote":79,"note":"G5","velocity":1,"duration":"24i"},{"time":"4008i","midiNote":79,"note":"G5","velocity":1,"duration":"24i"},{"time":"4032i","midiNote":82,"note":"A#5","velocity":1,"duration":"24i"},{"time":"4056i","midiNote":48,"note":"C3","velocity":1,"duration":"48i"},{"time":"4056i","midiNote":53,"note":"F3","velocity":1,"duration":"48i"},{"time":"4056i","midiNote":56,"note":"G#3","velocity":1,"duration":"48i"},{"time":"4056i","midiNote":77,"note":"F5","velocity":1,"duration":"24i"},{"time":"4056i","midiNote":82,"note":"A#5","velocity":1,"duration":"24i"},{"time":"4080i","midiNote":80,"note":"G#5","velocity":1,"duration":"24i"},{"time":"4104i","midiNote":80,"note":"G#5","velocity":1,"duration":"24i"},{"time":"4128i","midiNote":84,"note":"C6","velocity":1,"duration":"24i"},{"time":"4152i","midiNote":48,"note":"C3","velocity":1,"duration":"48i"},{"time":"4152i","midiNote":53,"note":"F3","velocity":1,"duration":"48i"},{"time":"4152i","midiNote":56,"note":"G#3","velocity":1,"duration":"48i"},{"time":"4152i","midiNote":77,"note":"F5","velocity":1,"duration":"24i"},{"time":"4152i","midiNote":80,"note":"G#5","velocity":1,"duration":"24i"},{"time":"4152i","midiNote":84,"note":"C6","velocity":1,"duration":"24i"},{"time":"4176i","midiNote":83,"note":"B5","velocity":1,"duration":"24i"},{"time":"4200i","midiNote":83,"note":"B5","velocity":1,"duration":"24i"},{"time":"4224i","midiNote":86,"note":"D6","velocity":1,"duration":"24i"},{"time":"4248i","midiNote":36,"note":"C2","velocity":1,"duration":"48i"},{"time":"4248i","midiNote":48,"note":"C3","velocity":1,"duration":"48i"},{"time":"4248i","midiNote":75,"note":"D#5","velocity":1,"duration":"24i"},{"time":"4248i","midiNote":79,"note":"G5","velocity":1,"duration":"24i"},{"time":"4248i","midiNote":84,"note":"C6","velocity":1,"duration":"24i"},{"time":"4272i","midiNote":87,"note":"D#6","velocity":1,"duration":"24i"},{"time":"4296i","midiNote":48,"note":"C3","velocity":1,"duration":"24i"},{"time":"4296i","midiNote":51,"note":"D#3","velocity":1,"duration":"24i"},{"time":"4296i","midiNote":55,"note":"G3","velocity":1,"duration":"24i"},{"time":"4296i","midiNote":87,"note":"D#6","velocity":1,"duration":"24i"},{"time":"4320i","midiNote":60,"note":"C4","velocity":1,"duration":"24i"},{"time":"4320i","midiNote":87,"note":"D#6","velocity":1,"duration":"24i"},{"time":"4344i","midiNote":48,"note":"C3","velocity":1,"duration":"24i"},{"time":"4344i","midiNote":51,"note":"D#3","velocity":1,"duration":"24i"},{"time":"4344i","midiNote":55,"note":"G3","velocity":1,"duration":"24i"},{"time":"4344i","midiNote":84,"note":"C6","velocity":1,"duration":"24i"},{"time":"4368i","midiNote":60,"note":"C4","velocity":1,"duration":"24i"},{"time":"4368i","midiNote":79,"note":"G5","velocity":1,"duration":"24i"},{"time":"4392i","midiNote":48,"note":"C3","velocity":1,"duration":"24i"},{"time":"4392i","midiNote":51,"note":"D#3","velocity":1,"duration":"24i"},{"time":"4392i","midiNote":55,"note":"G3","velocity":1,"duration":"24i"},{"time":"4392i","midiNote":79,"note":"G5","velocity":1,"duration":"24i"},{"time":"4416i","midiNote":60,"note":"C4","velocity":1,"duration":"24i"},{"time":"4416i","midiNote":79,"note":"G5","velocity":1,"duration":"24i"},{"time":"4440i","midiNote":48,"note":"C3","velocity":1,"duration":"24i"},{"time":"4440i","midiNote":51,"note":"D#3","velocity":1,"duration":"24i"},{"time":"4440i","midiNote":55,"note":"G3","velocity":1,"duration":"24i"},{"time":"4440i","midiNote":75,"note":"D#5","velocity":1,"duration":"24i"},{"time":"4464i","midiNote":60,"note":"C4","velocity":1,"duration":"24i"},{"time":"4464i","midiNote":72,"note":"C5","velocity":1,"duration":"24i"},{"time":"4488i","midiNote":48,"note":"C3","velocity":1,"duration":"24i"},{"time":"4488i","midiNote":51,"note":"D#3","velocity":1,"duration":"24i"},{"time":"4488i","midiNote":55,"note":"G3","velocity":1,"duration":"24i"},{"time":"4488i","midiNote":67,"note":"G4","velocity":1,"duration":"24i"},{"time":"4512i","midiNote":60,"note":"C4","velocity":1,"duration":"24i"},{"time":"4512i","midiNote":67,"note":"G4","velocity":1,"duration":"24i"},{"time":"4536i","midiNote":48,"note":"C3","velocity":1,"duration":"24i"},{"time":"4536i","midiNote":51,"note":"D#3","velocity":1,"duration":"24i"},{"time":"4536i","midiNote":63,"note":"D#4","velocity":1,"duration":"24i"},{"time":"4560i","midiNote":48,"note":"C3","velocity":1,"duration":"24i"},{"time":"4560i","midiNote":51,"note":"D#3","velocity":1,"duration":"24i"},{"time":"4560i","midiNote":55,"note":"G3","velocity":1,"duration":"24i"},{"time":"4560i","midiNote":60,"note":"C4","velocity":1,"duration":"24i"},{"time":"4584i","midiNote":48,"note":"C3","velocity":1,"duration":"24i"},{"time":"4584i","midiNote":51,"note":"D#3","velocity":1,"duration":"24i"},{"time":"4584i","midiNote":55,"note":"G3","velocity":1,"duration":"24i"},{"time":"4584i","midiNote":60,"note":"C4","velocity":1,"duration":"24i"},{"time":"4608i","midiNote":48,"note":"C3","velocity":1,"duration":"24i"},{"time":"4608i","midiNote":51,"note":"D#3","velocity":1,"duration":"24i"},{"time":"4608i","midiNote":55,"note":"G3","velocity":1,"duration":"24i"},{"time":"4608i","midiNote":60,"note":"C4","velocity":1,"duration":"24i"},{"time":"4632i","midiNote":43,"note":"G2","velocity":1,"duration":"24i"},{"time":"4632i","midiNote":50,"note":"D3","velocity":1,"duration":"24i"},{"time":"4632i","midiNote":53,"note":"F3","velocity":1,"duration":"24i"},{"time":"4632i","midiNote":59,"note":"B3","velocity":1,"duration":"24i"},{"time":"4656i","midiNote":55,"note":"G3","velocity":1,"duration":"24i"},{"time":"4656i","midiNote":86,"note":"D6","velocity":1,"duration":"24i"},{"time":"4680i","midiNote":43,"note":"G2","velocity":1,"duration":"24i"},{"time":"4680i","midiNote":50,"note":"D3","velocity":1,"duration":"24i"},{"time":"4680i","midiNote":53,"note":"F3","velocity":1,"duration":"24i"},{"time":"4680i","midiNote":86,"note":"D6","velocity":1,"duration":"24i"},{"time":"4704i","midiNote":55,"note":"G3","velocity":1,"duration":"24i"},{"time":"4704i","midiNote":86,"note":"D6","velocity":1,"duration":"24i"},{"time":"4728i","midiNote":43,"note":"G2","velocity":1,"duration":"24i"},{"time":"4728i","midiNote":50,"note":"D3","velocity":1,"duration":"24i"},{"time":"4728i","midiNote":53,"note":"F3","velocity":1,"duration":"24i"},{"time":"4728i","midiNote":83,"note":"B5","velocity":1,"duration":"24i"},{"time":"4752i","midiNote":55,"note":"G3","velocity":1,"duration":"24i"},{"time":"4752i","midiNote":79,"note":"G5","velocity":1,"duration":"24i"},{"time":"4776i","midiNote":43,"note":"G2","velocity":1,"duration":"24i"},{"time":"4776i","midiNote":50,"note":"D3","velocity":1,"duration":"24i"},{"time":"4776i","midiNote":53,"note":"F3","velocity":1,"duration":"24i"},{"time":"4776i","midiNote":77,"note":"F5","velocity":1,"duration":"24i"},{"time":"4800i","midiNote":55,"note":"G3","velocity":1,"duration":"24i"},{"time":"4800i","midiNote":77,"note":"F5","velocity":1,"duration":"24i"},{"time":"4824i","midiNote":43,"note":"G2","velocity":1,"duration":"24i"},{"time":"4824i","midiNote":50,"note":"D3","velocity":1,"duration":"24i"},{"time":"4824i","midiNote":53,"note":"F3","velocity":1,"duration":"24i"},{"time":"4824i","midiNote":74,"note":"D5","velocity":1,"duration":"24i"},{"time":"4848i","midiNote":55,"note":"G3","velocity":1,"duration":"24i"},{"time":"4848i","midiNote":71,"note":"B4","velocity":1,"duration":"24i"},{"time":"4872i","midiNote":43,"note":"G2","velocity":1,"duration":"24i"},{"time":"4872i","midiNote":50,"note":"D3","velocity":1,"duration":"24i"},{"time":"4872i","midiNote":53,"note":"F3","velocity":1,"duration":"24i"},{"time":"4872i","midiNote":67,"note":"G4","velocity":1,"duration":"24i"},{"time":"4896i","midiNote":55,"note":"G3","velocity":1,"duration":"24i"},{"time":"4896i","midiNote":65,"note":"F4","velocity":1,"duration":"24i"},{"time":"4920i","midiNote":43,"note":"G2","velocity":1,"duration":"24i"},{"time":"4920i","midiNote":50,"note":"D3","velocity":1,"duration":"24i"},{"time":"4920i","midiNote":53,"note":"F3","velocity":1,"duration":"24i"},{"time":"4920i","midiNote":62,"note":"D4","velocity":1,"duration":"24i"},{"time":"4944i","midiNote":55,"note":"G3","velocity":1,"duration":"24i"},{"time":"4944i","midiNote":59,"note":"B3","velocity":1,"duration":"24i"},{"time":"4968i","midiNote":48,"note":"C3","velocity":1,"duration":"24i"},{"time":"4968i","midiNote":51,"note":"D#3","velocity":1,"duration":"24i"},{"time":"4968i","midiNote":55,"note":"G3","velocity":1,"duration":"24i"},{"time":"4968i","midiNote":60,"note":"C4","velocity":1,"duration":"24i"},{"time":"4992i","midiNote":48,"note":"C3","velocity":1,"duration":"24i"},{"time":"4992i","midiNote":51,"note":"D#3","velocity":1,"duration":"24i"},{"time":"4992i","midiNote":55,"note":"G3","velocity":1,"duration":"24i"},{"time":"4992i","midiNote":60,"note":"C4","velocity":1,"duration":"24i"},{"time":"5016i","midiNote":48,"note":"C3","velocity":1,"duration":"24i"},{"time":"5016i","midiNote":51,"note":"D#3","velocity":1,"duration":"24i"},{"time":"5016i","midiNote":54,"note":"F#3","velocity":1,"duration":"24i"},{"time":"5016i","midiNote":60,"note":"C4","velocity":1,"duration":"24i"},{"time":"5040i","midiNote":57,"note":"A3","velocity":1,"duration":"24i"},{"time":"5040i","midiNote":87,"note":"D#6","velocity":1,"duration":"24i"},{"time":"5064i","midiNote":48,"note":"C3","velocity":1,"duration":"24i"},{"time":"5064i","midiNote":51,"note":"D#3","velocity":1,"duration":"24i"},{"time":"5064i","midiNote":54,"note":"F#3","velocity":1,"duration":"24i"},{"time":"5064i","midiNote":87,"note":"D#6","velocity":1,"duration":"24i"},{"time":"5088i","midiNote":57,"note":"A3","velocity":1,"duration":"24i"},{"time":"5088i","midiNote":87,"note":"D#6","velocity":1,"duration":"24i"},{"time":"5112i","midiNote":48,"note":"C3","velocity":1,"duration":"24i"},{"time":"5112i","midiNote":51,"note":"D#3","velocity":1,"duration":"24i"},{"time":"5112i","midiNote":54,"note":"F#3","velocity":1,"duration":"24i"},{"time":"5112i","midiNote":84,"note":"C6","velocity":1,"duration":"24i"},{"time":"5136i","midiNote":57,"note":"A3","velocity":1,"duration":"24i"},{"time":"5136i","midiNote":81,"note":"A5","velocity":1,"duration":"24i"},{"time":"5160i","midiNote":48,"note":"C3","velocity":1,"duration":"24i"},{"time":"5160i","midiNote":51,"note":"D#3","velocity":1,"duration":"24i"},{"time":"5160i","midiNote":54,"note":"F#3","velocity":1,"duration":"24i"},{"time":"5160i","midiNote":81,"note":"A5","velocity":1,"duration":"24i"},{"time":"5184i","midiNote":57,"note":"A3","velocity":1,"duration":"24i"},{"time":"5184i","midiNote":81,"note":"A5","velocity":1,"duration":"24i"},{"time":"5208i","midiNote":48,"note":"C3","velocity":1,"duration":"24i"},{"time":"5208i","midiNote":51,"note":"D#3","velocity":1,"duration":"24i"},{"time":"5208i","midiNote":54,"note":"F#3","velocity":1,"duration":"24i"},{"time":"5208i","midiNote":78,"note":"F#5","velocity":1,"duration":"24i"},{"time":"5232i","midiNote":57,"note":"A3","velocity":1,"duration":"24i"},{"time":"5232i","midiNote":75,"note":"D#5","velocity":1,"duration":"24i"},{"time":"5256i","midiNote":48,"note":"C3","velocity":1,"duration":"24i"},{"time":"5256i","midiNote":51,"note":"D#3","velocity":1,"duration":"24i"},{"time":"5256i","midiNote":54,"note":"F#3","velocity":1,"duration":"24i"},{"time":"5256i","midiNote":75,"note":"D#5","velocity":1,"duration":"24i"},{"time":"5280i","midiNote":57,"note":"A3","velocity":1,"duration":"24i"},{"time":"5280i","midiNote":75,"note":"D#5","velocity":1,"duration":"24i"},{"time":"5304i","midiNote":48,"note":"C3","velocity":1,"duration":"24i"},{"time":"5304i","midiNote":51,"note":"D#3","velocity":1,"duration":"24i"},{"time":"5304i","midiNote":54,"note":"F#3","velocity":1,"duration":"24i"},{"time":"5304i","midiNote":72,"note":"C5","velocity":1,"duration":"24i"},{"time":"5328i","midiNote":57,"note":"A3","velocity":1,"duration":"24i"},{"time":"5328i","midiNote":69,"note":"A4","velocity":1,"duration":"24i"},{"time":"5352i","midiNote":48,"note":"C3","velocity":1,"duration":"24i"},{"time":"5352i","midiNote":51,"note":"D#3","velocity":1,"duration":"24i"},{"time":"5352i","midiNote":54,"note":"F#3","velocity":1,"duration":"24i"},{"time":"5352i","midiNote":57,"note":"A3","velocity":1,"duration":"24i"},{"time":"5352i","midiNote":69,"note":"A4","velocity":1,"duration":"24i"},{"time":"5376i","midiNote":48,"note":"C3","velocity":1,"duration":"24i"},{"time":"5376i","midiNote":51,"note":"D#3","velocity":1,"duration":"24i"},{"time":"5376i","midiNote":54,"note":"F#3","velocity":1,"duration":"24i"},{"time":"5376i","midiNote":57,"note":"A3","velocity":1,"duration":"24i"},{"time":"5376i","midiNote":69,"note":"A4","velocity":1,"duration":"24i"},{"time":"5400i","midiNote":48,"note":"C3","velocity":1,"duration":"48i"},{"time":"5400i","midiNote":51,"note":"D#3","velocity":1,"duration":"48i"},{"time":"5400i","midiNote":54,"note":"F#3","velocity":1,"duration":"48i"},{"time":"5400i","midiNote":57,"note":"A3","velocity":1,"duration":"48i"},{"time":"5400i","midiNote":69,"note":"A4","velocity":1,"duration":"48i"},{"time":"5400i","midiNote":75,"note":"D#5","velocity":1,"duration":"48i"},{"time":"5400i","midiNote":78,"note":"F#5","velocity":1,"duration":"48i"},{"time":"5400i","midiNote":81,"note":"A5","velocity":1,"duration":"48i"},{"time":"5592i","midiNote":50,"note":"D3","velocity":1,"duration":"48i"},{"time":"5592i","midiNote":53,"note":"F3","velocity":1,"duration":"48i"},{"time":"5592i","midiNote":58,"note":"A#3","velocity":1,"duration":"48i"},{"time":"5592i","midiNote":70,"note":"A#4","velocity":1,"duration":"48i"},{"time":"5592i","midiNote":77,"note":"F5","velocity":1,"duration":"48i"},{"time":"5592i","midiNote":82,"note":"A#5","velocity":1,"duration":"48i"},{"time":"5712i","midiNote":70,"note":"A#4","velocity":1,"duration":"24i"},{"time":"5736i","midiNote":70,"note":"A#4","velocity":1,"duration":"24i"},{"time":"5760i","midiNote":70,"note":"A#4","velocity":1,"duration":"24i"},{"time":"5784i","midiNote":63,"note":"D#4","velocity":1,"duration":"96i"},{"time":"5880i","midiNote":65,"note":"F4","velocity":1,"duration":"96i"},{"time":"5976i","midiNote":58,"note":"A#3","velocity":1,"duration":"312i"},{"time":"6072i","midiNote":63,"note":"D#4","velocity":1,"duration":"96i"},{"time":"6072i","midiNote":67,"note":"G4","velocity":1,"duration":"96i"},{"time":"6072i","midiNote":70,"note":"A#4","velocity":1,"duration":"48i"},{"time":"6120i","midiNote":75,"note":"D#5","velocity":1,"duration":"48i"},{"time":"6168i","midiNote":65,"note":"F4","velocity":1,"duration":"96i"},{"time":"6168i","midiNote":68,"note":"G#4","velocity":1,"duration":"96i"},{"time":"6168i","midiNote":74,"note":"D5","velocity":1,"duration":"48i"},{"time":"6216i","midiNote":75,"note":"D#5","velocity":1,"duration":"48i"},{"time":"6264i","midiNote":62,"note":"D4","velocity":1,"duration":"24i"},{"time":"6264i","midiNote":68,"note":"G#4","velocity":1,"duration":"96i"},{"time":"6264i","midiNote":77,"note":"F5","velocity":1,"duration":"48i"},{"time":"6288i","midiNote":34,"note":"A#1","velocity":1,"duration":"24i"},{"time":"6288i","midiNote":46,"note":"A#2","velocity":1,"duration":"24i"},{"time":"6312i","midiNote":34,"note":"A#1","velocity":1,"duration":"24i"},{"time":"6312i","midiNote":46,"note":"A#2","velocity":1,"duration":"24i"},{"time":"6312i","midiNote":72,"note":"C5","velocity":1,"duration":"48i"},{"time":"6336i","midiNote":34,"note":"A#1","velocity":1,"duration":"24i"},{"time":"6336i","midiNote":46,"note":"A#2","velocity":1,"duration":"24i"},{"time":"6360i","midiNote":39,"note":"D#2","velocity":1,"duration":"48i"},{"time":"6360i","midiNote":51,"note":"D#3","velocity":1,"duration":"48i"},{"time":"6360i","midiNote":63,"note":"D#4","velocity":1,"duration":"96i"},{"time":"6360i","midiNote":67,"note":"G4","velocity":1,"duration":"96i"},{"time":"6360i","midiNote":72,"note":"C5","velocity":1,"duration":"48i"},{"time":"6408i","midiNote":70,"note":"A#4","velocity":1,"duration":"48i"},{"time":"6456i","midiNote":58,"note":"A#3","velocity":1,"duration":"216i"},{"time":"6456i","midiNote":63,"note":"D#4","velocity":1,"duration":"96i"},{"time":"6456i","midiNote":67,"note":"G4","velocity":1,"duration":"96i"},{"time":"6456i","midiNote":70,"note":"A#4","velocity":1,"duration":"48i"},{"time":"6504i","midiNote":75,"note":"D#5","velocity":1,"duration":"48i"},{"time":"6552i","midiNote":65,"note":"F4","velocity":1,"duration":"96i"},{"time":"6552i","midiNote":68,"note":"G#4","velocity":1,"duration":"96i"},{"time":"6552i","midiNote":74,"note":"D5","velocity":1,"duration":"48i"},{"time":"6600i","midiNote":75,"note":"D#5","velocity":1,"duration":"48i"},{"time":"6648i","midiNote":62,"note":"D4","velocity":1,"duration":"24i"},{"time":"6648i","midiNote":68,"note":"G#4","velocity":1,"duration":"96i"},{"time":"6648i","midiNote":77,"note":"F5","velocity":1,"duration":"48i"},{"time":"6672i","midiNote":34,"note":"A#1","velocity":1,"duration":"24i"},{"time":"6672i","midiNote":46,"note":"A#2","velocity":1,"duration":"24i"},{"time":"6696i","midiNote":34,"note":"A#1","velocity":1,"duration":"24i"},{"time":"6696i","midiNote":46,"note":"A#2","velocity":1,"duration":"24i"},{"time":"6696i","midiNote":72,"note":"C5","velocity":1,"duration":"48i"},{"time":"6720i","midiNote":34,"note":"A#1","velocity":1,"duration":"24i"},{"time":"6720i","midiNote":46,"note":"A#2","velocity":1,"duration":"24i"},{"time":"6744i","midiNote":39,"note":"D#2","velocity":1,"duration":"48i"},{"time":"6744i","midiNote":51,"note":"D#3","velocity":1,"duration":"48i"},{"time":"6744i","midiNote":63,"note":"D#4","velocity":1,"duration":"96i"},{"time":"6744i","midiNote":67,"note":"G4","velocity":1,"duration":"96i"},{"time":"6744i","midiNote":72,"note":"C5","velocity":1,"duration":"48i"},{"time":"6792i","midiNote":70,"note":"A#4","velocity":1,"duration":"48i"},{"time":"6840i","midiNote":46,"note":"A#2","velocity":1,"duration":"216i"},{"time":"6840i","midiNote":55,"note":"G3","velocity":1,"duration":"96i"},{"time":"6840i","midiNote":58,"note":"A#3","velocity":1,"duration":"96i"},{"time":"6840i","midiNote":70,"note":"A#4","velocity":1,"duration":"48i"},{"time":"6840i","midiNote":82,"note":"A#5","velocity":1,"duration":"48i"},{"time":"6888i","midiNote":75,"note":"D#5","velocity":1,"duration":"48i"},{"time":"6888i","midiNote":87,"note":"D#6","velocity":1,"duration":"48i"},{"time":"6936i","midiNote":53,"note":"F3","velocity":1,"duration":"96i"},{"time":"6936i","midiNote":56,"note":"G#3","velocity":1,"duration":"96i"},{"time":"6936i","midiNote":74,"note":"D5","velocity":1,"duration":"48i"},{"time":"6936i","midiNote":86,"note":"D6","velocity":1,"duration":"48i"},{"time":"6984i","midiNote":75,"note":"D#5","velocity":1,"duration":"48i"},{"time":"6984i","midiNote":87,"note":"D#6","velocity":1,"duration":"48i"},{"time":"7032i","midiNote":50,"note":"D3","velocity":1,"duration":"96i"},{"time":"7032i","midiNote":56,"note":"G#3","velocity":1,"duration":"96i"},{"time":"7032i","midiNote":77,"note":"F5","velocity":1,"duration":"48i"},{"time":"7032i","midiNote":89,"note":"F6","velocity":1,"duration":"48i"},{"time":"7056i","midiNote":46,"note":"A#2","velocity":1,"duration":"24i"},{"time":"7080i","midiNote":46,"note":"A#2","velocity":1,"duration":"24i"},{"time":"7080i","midiNote":72,"note":"C5","velocity":1,"duration":"48i"},{"time":"7080i","midiNote":84,"note":"C6","velocity":1,"duration":"48i"},{"time":"7104i","midiNote":46,"note":"A#2","velocity":1,"duration":"24i"},{"time":"7128i","midiNote":51,"note":"D#3","velocity":1,"duration":"96i"},{"time":"7128i","midiNote":55,"note":"G3","velocity":1,"duration":"96i"},{"time":"7128i","midiNote":72,"note":"C5","velocity":1,"duration":"48i"},{"time":"7128i","midiNote":84,"note":"C6","velocity":1,"duration":"48i"},{"time":"7176i","midiNote":70,"note":"A#4","velocity":1,"duration":"48i"},{"time":"7176i","midiNote":82,"note":"A#5","velocity":1,"duration":"48i"},{"time":"7224i","midiNote":55,"note":"G3","velocity":1,"duration":"96i"},{"time":"7224i","midiNote":58,"note":"A#3","velocity":1,"duration":"96i"},{"time":"7224i","midiNote":63,"note":"D#4","velocity":1,"duration":"96i"},{"time":"7224i","midiNote":67,"note":"G4","velocity":1,"duration":"96i"},{"time":"7224i","midiNote":70,"note":"A#4","velocity":1,"duration":"48i"},{"time":"7272i","midiNote":72,"note":"C5","velocity":1,"duration":"48i"},{"time":"7320i","midiNote":52,"note":"E3","velocity":1,"duration":"96i"},{"time":"7320i","midiNote":55,"note":"G3","velocity":1,"duration":"96i"},{"time":"7320i","midiNote":64,"note":"E4","velocity":1,"duration":"96i"},{"time":"7320i","midiNote":67,"note":"G4","velocity":1,"duration":"96i"},{"time":"7320i","midiNote":73,"note":"C#5","velocity":1,"duration":"48i"},{"time":"7368i","midiNote":72,"note":"C5","velocity":1,"duration":"48i"},{"time":"7416i","midiNote":64,"note":"E4","velocity":1,"duration":"96i"},{"time":"7416i","midiNote":67,"note":"G4","velocity":1,"duration":"96i"},{"time":"7416i","midiNote":70,"note":"A#4","velocity":1,"duration":"48i"},{"time":"7440i","midiNote":36,"note":"C2","velocity":1,"duration":"24i"},{"time":"7440i","midiNote":48,"note":"C3","velocity":1,"duration":"24i"},{"time":"7464i","midiNote":36,"note":"C2","velocity":1,"duration":"24i"},{"time":"7464i","midiNote":48,"note":"C3","velocity":1,"duration":"24i"},{"time":"7464i","midiNote":72,"note":"C5","velocity":1,"duration":"48i"},{"time":"7488i","midiNote":36,"note":"C2","velocity":1,"duration":"24i"},{"time":"7488i","midiNote":48,"note":"C3","velocity":1,"duration":"24i"},{"time":"7512i","midiNote":41,"note":"F2","velocity":1,"duration":"48i"},{"time":"7512i","midiNote":53,"note":"F3","velocity":1,"duration":"48i"},{"time":"7512i","midiNote":60,"note":"C4","velocity":1,"duration":"96i"},{"time":"7512i","midiNote":65,"note":"F4","velocity":1,"duration":"96i"},{"time":"7512i","midiNote":70,"note":"A#4","velocity":1,"duration":"48i"},{"time":"7560i","midiNote":68,"note":"G#4","velocity":1,"duration":"48i"},{"time":"7608i","midiNote":56,"note":"G#3","velocity":1,"duration":"96i"},{"time":"7608i","midiNote":61,"note":"C#4","velocity":1,"duration":"96i"},{"time":"7608i","midiNote":65,"note":"F4","velocity":1,"duration":"96i"},{"time":"7608i","midiNote":68,"note":"G#4","velocity":1,"duration":"96i"},{"time":"7608i","midiNote":73,"note":"C#5","velocity":1,"duration":"48i"},{"time":"7656i","midiNote":75,"note":"D#5","velocity":1,"duration":"48i"},{"time":"7704i","midiNote":55,"note":"G3","velocity":1,"duration":"96i"},{"time":"7704i","midiNote":58,"note":"A#3","velocity":1,"duration":"96i"},{"time":"7704i","midiNote":67,"note":"G4","velocity":1,"duration":"96i"},{"time":"7704i","midiNote":70,"note":"A#4","velocity":1,"duration":"96i"},{"time":"7704i","midiNote":77,"note":"F5","velocity":1,"duration":"48i"},{"time":"7752i","midiNote":75,"note":"D#5","velocity":1,"duration":"48i"},{"time":"7800i","midiNote":67,"note":"G4","velocity":1,"duration":"96i"},{"time":"7800i","midiNote":70,"note":"A#4","velocity":1,"duration":"96i"},{"time":"7800i","midiNote":73,"note":"C#5","velocity":1,"duration":"48i"},{"time":"7824i","midiNote":39,"note":"D#2","velocity":1,"duration":"24i"},{"time":"7824i","midiNote":51,"note":"D#3","velocity":1,"duration":"24i"},{"time":"7848i","midiNote":39,"note":"D#2","velocity":1,"duration":"24i"},{"time":"7848i","midiNote":51,"note":"D#3","velocity":1,"duration":"24i"},{"time":"7848i","midiNote":75,"note":"D#5","velocity":1,"duration":"48i"},{"time":"7872i","midiNote":39,"note":"D#2","velocity":1,"duration":"24i"},{"time":"7872i","midiNote":51,"note":"D#3","velocity":1,"duration":"24i"},{"time":"7896i","midiNote":44,"note":"G#2","velocity":1,"duration":"48i"},{"time":"7896i","midiNote":56,"note":"G#3","velocity":1,"duration":"48i"},{"time":"7896i","midiNote":63,"note":"D#4","velocity":1,"duration":"96i"},{"time":"7896i","midiNote":68,"note":"G#4","velocity":1,"duration":"96i"},{"time":"7896i","midiNote":73,"note":"C#5","velocity":1,"duration":"48i"},{"time":"7944i","midiNote":72,"note":"C5","velocity":1,"duration":"48i"},{"time":"7992i","midiNote":56,"note":"G#3","velocity":1,"duration":"96i"},{"time":"7992i","midiNote":63,"note":"D#4","velocity":1,"duration":"48i"},{"time":"7992i","midiNote":72,"note":"C5","velocity":1,"duration":"96i"},{"time":"7992i","midiNote":75,"note":"D#5","velocity":1,"duration":"48i"},{"time":"8040i","midiNote":65,"note":"F4","velocity":1,"duration":"48i"},{"time":"8040i","midiNote":77,"note":"F5","velocity":1,"duration":"48i"},{"time":"8088i","midiNote":66,"note":"F#4","velocity":1,"duration":"48i"},{"time":"8088i","midiNote":72,"note":"C5","velocity":1,"duration":"96i"},{"time":"8088i","midiNote":75,"note":"D#5","velocity":1,"duration":"96i"},{"time":"8088i","midiNote":78,"note":"F#5","velocity":1,"duration":"48i"},{"time":"8112i","midiNote":45,"note":"A2","velocity":1,"duration":"24i"},{"time":"8112i","midiNote":57,"note":"A3","velocity":1,"duration":"24i"},{"time":"8136i","midiNote":45,"note":"A2","velocity":1,"duration":"24i"},{"time":"8136i","midiNote":57,"note":"A3","velocity":1,"duration":"24i"},{"time":"8136i","midiNote":65,"note":"F4","velocity":1,"duration":"48i"},{"time":"8136i","midiNote":77,"note":"F5","velocity":1,"duration":"48i"},{"time":"8160i","midiNote":45,"note":"A2","velocity":1,"duration":"24i"},{"time":"8160i","midiNote":57,"note":"A3","velocity":1,"duration":"24i"},{"time":"8184i","midiNote":45,"note":"A2","velocity":1,"duration":"48i"},{"time":"8184i","midiNote":57,"note":"A3","velocity":1,"duration":"48i"},{"time":"8184i","midiNote":63,"note":"D#4","velocity":1,"duration":"48i"},{"time":"8184i","midiNote":75,"note":"D#5","velocity":1,"duration":"48i"},{"time":"8232i","midiNote":65,"note":"F4","velocity":1,"duration":"48i"},{"time":"8232i","midiNote":77,"note":"F5","velocity":1,"duration":"48i"},{"time":"8280i","midiNote":66,"note":"F#4","velocity":1,"duration":"48i"},{"time":"8280i","midiNote":70,"note":"A#4","velocity":1,"duration":"96i"},{"time":"8280i","midiNote":75,"note":"D#5","velocity":1,"duration":"96i"},{"time":"8280i","midiNote":78,"note":"F#5","velocity":1,"duration":"48i"},{"time":"8304i","midiNote":46,"note":"A#2","velocity":1,"duration":"24i"},{"time":"8304i","midiNote":58,"note":"A#3","velocity":1,"duration":"24i"},{"time":"8328i","midiNote":46,"note":"A#2","velocity":1,"duration":"24i"},{"time":"8328i","midiNote":58,"note":"A#3","velocity":1,"duration":"24i"},{"time":"8328i","midiNote":65,"note":"F4","velocity":1,"duration":"48i"},{"time":"8328i","midiNote":77,"note":"F5","velocity":1,"duration":"48i"},{"time":"8352i","midiNote":46,"note":"A#2","velocity":1,"duration":"24i"},{"time":"8352i","midiNote":58,"note":"A#3","velocity":1,"duration":"24i"},{"time":"8376i","midiNote":46,"note":"A#2","velocity":1,"duration":"48i"},{"time":"8376i","midiNote":58,"note":"A#3","velocity":1,"duration":"48i"},{"time":"8376i","midiNote":63,"note":"D#4","velocity":1,"duration":"48i"},{"time":"8376i","midiNote":75,"note":"D#5","velocity":1,"duration":"48i"},{"time":"8424i","midiNote":65,"note":"F4","velocity":1,"duration":"48i"},{"time":"8424i","midiNote":77,"note":"F5","velocity":1,"duration":"48i"},{"time":"8472i","midiNote":66,"note":"F#4","velocity":1,"duration":"48i"},{"time":"8472i","midiNote":69,"note":"A4","velocity":1,"duration":"96i"},{"time":"8472i","midiNote":75,"note":"D#5","velocity":1,"duration":"96i"},{"time":"8472i","midiNote":78,"note":"F#5","velocity":1,"duration":"48i"},{"time":"8496i","midiNote":47,"note":"B2","velocity":1,"duration":"24i"},{"time":"8496i","midiNote":59,"note":"B3","velocity":1,"duration":"24i"},{"time":"8520i","midiNote":47,"note":"B2","velocity":1,"duration":"24i"},{"time":"8520i","midiNote":59,"note":"B3","velocity":1,"duration":"24i"},{"time":"8520i","midiNote":65,"note":"F4","velocity":1,"duration":"48i"},{"time":"8520i","midiNote":77,"note":"F5","velocity":1,"duration":"48i"},{"time":"8544i","midiNote":47,"note":"B2","velocity":1,"duration":"24i"},{"time":"8544i","midiNote":59,"note":"B3","velocity":1,"duration":"24i"},{"time":"8568i","midiNote":47,"note":"B2","velocity":1,"duration":"48i"},{"time":"8568i","midiNote":59,"note":"B3","velocity":1,"duration":"48i"},{"time":"8568i","midiNote":63,"note":"D#4","velocity":1,"duration":"48i"},{"time":"8568i","midiNote":75,"note":"D#5","velocity":1,"duration":"48i"},{"time":"8616i","midiNote":65,"note":"F4","velocity":1,"duration":"48i"},{"time":"8616i","midiNote":77,"note":"F5","velocity":1,"duration":"48i"},{"time":"8664i","midiNote":66,"note":"F#4","velocity":1,"duration":"48i"},{"time":"8664i","midiNote":69,"note":"A4","velocity":1,"duration":"96i"},{"time":"8664i","midiNote":75,"note":"D#5","velocity":1,"duration":"96i"},{"time":"8664i","midiNote":78,"note":"F#5","velocity":1,"duration":"48i"},{"time":"8688i","midiNote":48,"note":"C3","velocity":1,"duration":"24i"},{"time":"8688i","midiNote":60,"note":"C4","velocity":1,"duration":"24i"},{"time":"8712i","midiNote":48,"note":"C3","velocity":1,"duration":"24i"},{"time":"8712i","midiNote":60,"note":"C4","velocity":1,"duration":"24i"},{"time":"8712i","midiNote":65,"note":"F4","velocity":1,"duration":"48i"},{"time":"8712i","midiNote":77,"note":"F5","velocity":1,"duration":"48i"},{"time":"8736i","midiNote":48,"note":"C3","velocity":1,"duration":"24i"},{"time":"8736i","midiNote":60,"note":"C4","velocity":1,"duration":"24i"},{"time":"8760i","midiNote":48,"note":"C3","velocity":1,"duration":"48i"},{"time":"8760i","midiNote":60,"note":"C4","velocity":1,"duration":"48i"},{"time":"8760i","midiNote":63,"note":"D#4","velocity":1,"duration":"48i"},{"time":"8760i","midiNote":75,"note":"D#5","velocity":1,"duration":"48i"},{"time":"8808i","midiNote":65,"note":"F4","velocity":1,"duration":"48i"},{"time":"8808i","midiNote":77,"note":"F5","velocity":1,"duration":"48i"},{"time":"8856i","midiNote":66,"note":"F#4","velocity":1,"duration":"48i"},{"time":"8856i","midiNote":69,"note":"A4","velocity":1,"duration":"96i"},{"time":"8856i","midiNote":75,"note":"D#5","velocity":1,"duration":"96i"},{"time":"8856i","midiNote":78,"note":"F#5","velocity":1,"duration":"48i"},{"time":"8880i","midiNote":48,"note":"C3","velocity":1,"duration":"24i"},{"time":"8880i","midiNote":60,"note":"C4","velocity":1,"duration":"24i"},{"time":"8904i","midiNote":48,"note":"C3","velocity":1,"duration":"24i"},{"time":"8904i","midiNote":60,"note":"C4","velocity":1,"duration":"24i"},{"time":"8904i","midiNote":65,"note":"F4","velocity":1,"duration":"48i"},{"time":"8904i","midiNote":77,"note":"F5","velocity":1,"duration":"48i"},{"time":"8928i","midiNote":48,"note":"C3","velocity":1,"duration":"24i"},{"time":"8928i","midiNote":60,"note":"C4","velocity":1,"duration":"24i"},{"time":"8952i","midiNote":48,"note":"C3","velocity":1,"duration":"48i"},{"time":"8952i","midiNote":60,"note":"C4","velocity":1,"duration":"48i"},{"time":"8952i","midiNote":66,"note":"F#4","velocity":1,"duration":"48i"},{"time":"8952i","midiNote":78,"note":"F#5","velocity":1,"duration":"48i"},{"time":"9000i","midiNote":48,"note":"C3","velocity":1,"duration":"24i"},{"time":"9000i","midiNote":60,"note":"C4","velocity":1,"duration":"24i"},{"time":"9000i","midiNote":69,"note":"A4","velocity":1,"duration":"48i"},{"time":"9000i","midiNote":75,"note":"D#5","velocity":1,"duration":"48i"},{"time":"9000i","midiNote":78,"note":"F#5","velocity":1,"duration":"48i"},{"time":"9000i","midiNote":81,"note":"A5","velocity":1,"duration":"48i"},{"time":"9024i","midiNote":48,"note":"C3","velocity":1,"duration":"24i"},{"time":"9024i","midiNote":60,"note":"C4","velocity":1,"duration":"24i"},{"time":"9048i","midiNote":50,"note":"D3","velocity":1,"duration":"144i"},{"time":"9048i","midiNote":58,"note":"A#3","velocity":1,"duration":"144i"},{"time":"9048i","midiNote":62,"note":"D4","velocity":1,"duration":"144i"},{"time":"9048i","midiNote":70,"note":"A#4","velocity":1,"duration":"120i"},{"time":"9048i","midiNote":77,"note":"F5","velocity":1,"duration":"120i"},{"time":"9048i","midiNote":80,"note":"G#5","velocity":1,"duration":"120i"},{"time":"9048i","midiNote":82,"note":"A#5","velocity":1,"duration":"120i"},{"time":"9168i","midiNote":84,"note":"C6","velocity":1,"duration":"24i"},{"time":"9192i","midiNote":38,"note":"D2","velocity":1,"duration":"48i"},{"time":"9192i","midiNote":50,"note":"D3","velocity":1,"duration":"48i"},{"time":"9192i","midiNote":82,"note":"A#5","velocity":1,"duration":"24i"},{"time":"9216i","midiNote":80,"note":"G#5","velocity":1,"duration":"24i"},{"time":"9240i","midiNote":39,"note":"D#2","velocity":1,"duration":"48i"},{"time":"9240i","midiNote":46,"note":"A#2","velocity":1,"duration":"48i"},{"time":"9240i","midiNote":51,"note":"D#3","velocity":1,"duration":"48i"},{"time":"9240i","midiNote":70,"note":"A#4","velocity":1,"duration":"24i"},{"time":"9240i","midiNote":75,"note":"D#5","velocity":1,"duration":"24i"},{"time":"9240i","midiNote":80,"note":"G#5","velocity":1,"duration":"24i"},{"time":"9264i","midiNote":79,"note":"G5","velocity":1,"duration":"24i"},{"time":"9288i","midiNote":77,"note":"F5","velocity":1,"duration":"24i"},{"time":"9312i","midiNote":75,"note":"D#5","velocity":1,"duration":"24i"},{"time":"9336i","midiNote":41,"note":"F2","velocity":1,"duration":"48i"},{"time":"9336i","midiNote":44,"note":"G#2","velocity":1,"duration":"48i"},{"time":"9336i","midiNote":46,"note":"A#2","velocity":1,"duration":"48i"},{"time":"9336i","midiNote":53,"note":"F3","velocity":1,"duration":"48i"},{"time":"9336i","midiNote":68,"note":"G#4","velocity":1,"duration":"24i"},{"time":"9336i","midiNote":75,"note":"D#5","velocity":1,"duration":"24i"},{"time":"9360i","midiNote":74,"note":"D5","velocity":1,"duration":"24i"},{"time":"9384i","midiNote":72,"note":"C5","velocity":1,"duration":"24i"},{"time":"9408i","midiNote":74,"note":"D5","velocity":1,"duration":"24i"},{"time":"9432i","midiNote":43,"note":"G2","velocity":1,"duration":"48i"},{"time":"9432i","midiNote":46,"note":"A#2","velocity":1,"duration":"48i"},{"time":"9432i","midiNote":51,"note":"D#3","velocity":1,"duration":"48i"},{"time":"9432i","midiNote":55,"note":"G3","velocity":1,"duration":"48i"},{"time":"9432i","midiNote":67,"note":"G4","velocity":1,"duration":"24i"},{"time":"9432i","midiNote":77,"note":"F5","velocity":1,"duration":"24i"},{"time":"9456i","midiNote":75,"note":"D#5","velocity":1,"duration":"24i"},{"time":"9480i","midiNote":70,"note":"A#4","velocity":1,"duration":"24i"},{"time":"9504i","midiNote":67,"note":"G4","velocity":1,"duration":"24i"},{"time":"9528i","midiNote":44,"note":"G#2","velocity":1,"duration":"48i"},{"time":"9528i","midiNote":48,"note":"C3","velocity":1,"duration":"48i"},{"time":"9528i","midiNote":51,"note":"D#3","velocity":1,"duration":"48i"},{"time":"9528i","midiNote":53,"note":"F3","velocity":1,"duration":"48i"},{"time":"9528i","midiNote":65,"note":"F4","velocity":1,"duration":"24i"},{"time":"9528i","midiNote":74,"note":"D5","velocity":1,"duration":"24i"},{"time":"9552i","midiNote":72,"note":"C5","velocity":1,"duration":"24i"},{"time":"9576i","midiNote":68,"note":"G#4","velocity":1,"duration":"24i"},{"time":"9600i","midiNote":65,"note":"F4","velocity":1,"duration":"24i"},{"time":"9624i","midiNote":46,"note":"A#2","velocity":1,"duration":"48i"},{"time":"9624i","midiNote":51,"note":"D#3","velocity":1,"duration":"48i"},{"time":"9624i","midiNote":55,"note":"G3","velocity":1,"duration":"48i"},{"time":"9624i","midiNote":63,"note":"D#4","velocity":1,"duration":"24i"},{"time":"9624i","midiNote":72,"note":"C5","velocity":1,"duration":"24i"},{"time":"9648i","midiNote":70,"note":"A#4","velocity":1,"duration":"24i"},{"time":"9672i","midiNote":67,"note":"G4","velocity":1,"duration":"24i"},{"time":"9696i","midiNote":63,"note":"D#4","velocity":1,"duration":"24i"},{"time":"9720i","midiNote":46,"note":"A#2","velocity":1,"duration":"48i"},{"time":"9720i","midiNote":50,"note":"D3","velocity":1,"duration":"48i"},{"time":"9720i","midiNote":53,"note":"F3","velocity":1,"duration":"48i"},{"time":"9720i","midiNote":58,"note":"A#3","velocity":1,"duration":"48i"},{"time":"9744i","midiNote":81,"note":"A5","velocity":1,"duration":"24i"},{"time":"9768i","midiNote":82,"note":"A#5","velocity":1,"duration":"24i"},{"time":"9792i","midiNote":81,"note":"A5","velocity":1,"duration":"24i"},{"time":"9816i","midiNote":38,"note":"D2","velocity":1,"duration":"48i"},{"time":"9816i","midiNote":44,"note":"G#2","velocity":1,"duration":"48i"},{"time":"9816i","midiNote":50,"note":"D3","velocity":1,"duration":"48i"},{"time":"9816i","midiNote":77,"note":"F5","velocity":1,"duration":"144i"},{"time":"9816i","midiNote":82,"note":"A#5","velocity":1,"duration":"24i"},{"time":"9840i","midiNote":81,"note":"A5","velocity":1,"duration":"24i"},{"time":"9864i","midiNote":41,"note":"F2","velocity":1,"duration":"48i"},{"time":"9864i","midiNote":53,"note":"F3","velocity":1,"duration":"48i"},{"time":"9864i","midiNote":82,"note":"A#5","velocity":1,"duration":"24i"},{"time":"9888i","midiNote":81,"note":"A5","velocity":1,"duration":"24i"},{"time":"9912i","midiNote":38,"note":"D2","velocity":1,"duration":"48i"},{"time":"9912i","midiNote":44,"note":"G#2","velocity":1,"duration":"48i"},{"time":"9912i","midiNote":50,"note":"D3","velocity":1,"duration":"48i"},{"time":"9912i","midiNote":82,"note":"A#5","velocity":1,"duration":"24i"},{"time":"9936i","midiNote":84,"note":"C6","velocity":1,"duration":"24i"},{"time":"9960i","midiNote":41,"note":"F2","velocity":1,"duration":"48i"},{"time":"9960i","midiNote":53,"note":"F3","velocity":1,"duration":"48i"},{"time":"9960i","midiNote":82,"note":"A#5","velocity":1,"duration":"24i"},{"time":"9984i","midiNote":80,"note":"G#5","velocity":1,"duration":"24i"},{"time":"10008i","midiNote":39,"note":"D#2","velocity":1,"duration":"48i"},{"time":"10008i","midiNote":51,"note":"D#3","velocity":1,"duration":"48i"},{"time":"10008i","midiNote":70,"note":"A#4","velocity":1,"duration":"48i"},{"time":"10008i","midiNote":75,"note":"D#5","velocity":1,"duration":"24i"},{"time":"10008i","midiNote":80,"note":"G#5","velocity":1,"duration":"24i"},{"time":"10032i","midiNote":79,"note":"G5","velocity":1,"duration":"24i"},{"time":"10056i","midiNote":43,"note":"G2","velocity":1,"duration":"48i"},{"time":"10056i","midiNote":55,"note":"G3","velocity":1,"duration":"48i"},{"time":"10056i","midiNote":70,"note":"A#4","velocity":1,"duration":"48i"},{"time":"10056i","midiNote":77,"note":"F5","velocity":1,"duration":"24i"},{"time":"10080i","midiNote":75,"note":"D#5","velocity":1,"duration":"24i"},{"time":"10104i","midiNote":41,"note":"F2","velocity":1,"duration":"48i"},{"time":"10104i","midiNote":53,"note":"F3","velocity":1,"duration":"48i"},{"time":"10104i","midiNote":75,"note":"D#5","velocity":1,"duration":"24i"},{"time":"10128i","midiNote":74,"note":"D5","velocity":1,"duration":"24i"},{"time":"10152i","midiNote":44,"note":"G#2","velocity":1,"duration":"48i"},{"time":"10152i","midiNote":56,"note":"G#3","velocity":1,"duration":"48i"},{"time":"10152i","midiNote":70,"note":"A#4","velocity":1,"duration":"48i"},{"time":"10152i","midiNote":72,"note":"C5","velocity":1,"duration":"24i"},{"time":"10176i","midiNote":74,"note":"D5","velocity":1,"duration":"24i"},{"time":"10200i","midiNote":43,"note":"G2","velocity":1,"duration":"48i"},{"time":"10200i","midiNote":55,"note":"G3","velocity":1,"duration":"48i"},{"time":"10200i","midiNote":77,"note":"F5","velocity":1,"duration":"24i"},{"time":"10224i","midiNote":75,"note":"D#5","velocity":1,"duration":"24i"},{"time":"10248i","midiNote":46,"note":"A#2","velocity":1,"duration":"48i"},{"time":"10248i","midiNote":58,"note":"A#3","velocity":1,"duration":"48i"},{"time":"10248i","midiNote":63,"note":"D#4","velocity":1,"duration":"48i"},{"time":"10248i","midiNote":70,"note":"A#4","velocity":1,"duration":"24i"},{"time":"10272i","midiNote":67,"note":"G4","velocity":1,"duration":"24i"},{"time":"10296i","midiNote":44,"note":"G#2","velocity":1,"duration":"48i"},{"time":"10296i","midiNote":56,"note":"G#3","velocity":1,"duration":"48i"},{"time":"10296i","midiNote":74,"note":"D5","velocity":1,"duration":"24i"},{"time":"10320i","midiNote":72,"note":"C5","velocity":1,"duration":"24i"},{"time":"10344i","midiNote":48,"note":"C3","velocity":1,"duration":"48i"},{"time":"10344i","midiNote":60,"note":"C4","velocity":1,"duration":"48i"},{"time":"10344i","midiNote":68,"note":"G#4","velocity":1,"duration":"24i"},{"time":"10368i","midiNote":65,"note":"F4","velocity":1,"duration":"24i"},{"time":"10392i","midiNote":46,"note":"A#2","velocity":1,"duration":"48i"},{"time":"10392i","midiNote":58,"note":"A#3","velocity":1,"duration":"48i"},{"time":"10392i","midiNote":72,"note":"C5","velocity":1,"duration":"24i"},{"time":"10416i","midiNote":70,"note":"A#4","velocity":1,"duration":"24i"},{"time":"10440i","midiNote":34,"note":"A#1","velocity":1,"duration":"48i"},{"time":"10440i","midiNote":46,"note":"A#2","velocity":1,"duration":"48i"},{"time":"10440i","midiNote":67,"note":"G4","velocity":1,"duration":"24i"},{"time":"10464i","midiNote":63,"note":"D#4","velocity":1,"duration":"24i"},{"time":"10488i","midiNote":46,"note":"A#2","velocity":1,"duration":"48i"},{"time":"10488i","midiNote":58,"note":"A#3","velocity":1,"duration":"48i"},{"time":"10488i","midiNote":62,"note":"D4","velocity":1,"duration":"24i"},{"time":"10512i","midiNote":70,"note":"A#4","velocity":1,"duration":"24i"},{"time":"10536i","midiNote":53,"note":"F3","velocity":1,"duration":"48i"},{"time":"10536i","midiNote":56,"note":"G#3","velocity":1,"duration":"48i"},{"time":"10536i","midiNote":58,"note":"A#3","velocity":1,"duration":"48i"},{"time":"10536i","midiNote":62,"note":"D4","velocity":1,"duration":"48i"},{"time":"10536i","midiNote":82,"note":"A#5","velocity":1,"duration":"24i"},{"time":"10560i","midiNote":82,"note":"A#5","velocity":1,"duration":"24i"},{"time":"10584i","midiNote":51,"note":"D#3","velocity":1,"duration":"24i"},{"time":"10584i","midiNote":55,"note":"G3","velocity":1,"duration":"24i"},{"time":"10584i","midiNote":58,"note":"A#3","velocity":1,"duration":"24i"},{"time":"10584i","midiNote":63,"note":"D#4","velocity":1,"duration":"24i"},{"time":"10584i","midiNote":75,"note":"D#5","velocity":1,"duration":"24i"},{"time":"10608i","midiNote":67,"note":"G4","velocity":1,"duration":"24i"},{"time":"10608i","midiNote":79,"note":"G5","velocity":1,"duration":"24i"},{"time":"10608i","midiNote":91,"note":"G6","velocity":1,"duration":"24i"},{"time":"10632i","midiNote":67,"note":"G4","velocity":1,"duration":"24i"},{"time":"10632i","midiNote":79,"note":"G5","velocity":1,"duration":"24i"},{"time":"10632i","midiNote":91,"note":"G6","velocity":1,"duration":"24i"},{"time":"10656i","midiNote":67,"note":"G4","velocity":1,"duration":"24i"},{"time":"10656i","midiNote":79,"note":"G5","velocity":1,"duration":"24i"},{"time":"10656i","midiNote":91,"note":"G6","velocity":1,"duration":"24i"},{"time":"10680i","midiNote":63,"note":"D#4","velocity":1,"duration":"24i"},{"time":"10680i","midiNote":87,"note":"D#6","velocity":1,"duration":"24i"},{"time":"10704i","midiNote":58,"note":"A#3","velocity":1,"duration":"24i"},{"time":"10704i","midiNote":70,"note":"A#4","velocity":1,"duration":"24i"},{"time":"10704i","midiNote":82,"note":"A#5","velocity":1,"duration":"24i"},{"time":"10728i","midiNote":58,"note":"A#3","velocity":1,"duration":"24i"},{"time":"10728i","midiNote":70,"note":"A#4","velocity":1,"duration":"24i"},{"time":"10728i","midiNote":82,"note":"A#5","velocity":1,"duration":"24i"},{"time":"10752i","midiNote":58,"note":"A#3","velocity":1,"duration":"24i"},{"time":"10752i","midiNote":70,"note":"A#4","velocity":1,"duration":"24i"},{"time":"10752i","midiNote":82,"note":"A#5","velocity":1,"duration":"24i"},{"time":"10776i","midiNote":55,"note":"G3","velocity":1,"duration":"24i"},{"time":"10776i","midiNote":67,"note":"G4","velocity":1,"duration":"24i"},{"time":"10776i","midiNote":79,"note":"G5","velocity":1,"duration":"24i"},{"time":"10800i","midiNote":51,"note":"D#3","velocity":1,"duration":"24i"},{"time":"10800i","midiNote":63,"note":"D#4","velocity":1,"duration":"24i"},{"time":"10800i","midiNote":75,"note":"D#5","velocity":1,"duration":"24i"},{"time":"10824i","midiNote":51,"note":"D#3","velocity":1,"duration":"24i"},{"time":"10824i","midiNote":63,"note":"D#4","velocity":1,"duration":"24i"},{"time":"10824i","midiNote":75,"note":"D#5","velocity":1,"duration":"24i"},{"time":"10848i","midiNote":51,"note":"D#3","velocity":1,"duration":"24i"},{"time":"10848i","midiNote":63,"note":"D#4","velocity":1,"duration":"24i"},{"time":"10848i","midiNote":75,"note":"D#5","velocity":1,"duration":"24i"},{"time":"10872i","midiNote":46,"note":"A#2","velocity":1,"duration":"24i"},{"time":"10872i","midiNote":58,"note":"A#3","velocity":1,"duration":"24i"},{"time":"10872i","midiNote":70,"note":"A#4","velocity":1,"duration":"24i"},{"time":"10896i","midiNote":34,"note":"A#1","velocity":1,"duration":"24i"},{"time":"10896i","midiNote":46,"note":"A#2","velocity":1,"duration":"24i"},{"time":"10896i","midiNote":65,"note":"F4","velocity":1,"duration":"24i"},{"time":"10896i","midiNote":74,"note":"D5","velocity":1,"duration":"24i"},{"time":"10896i","midiNote":77,"note":"F5","velocity":1,"duration":"24i"},{"time":"10920i","midiNote":34,"note":"A#1","velocity":1,"duration":"24i"},{"time":"10920i","midiNote":46,"note":"A#2","velocity":1,"duration":"24i"},{"time":"10920i","midiNote":65,"note":"F4","velocity":1,"duration":"24i"},{"time":"10920i","midiNote":74,"note":"D5","velocity":1,"duration":"24i"},{"time":"10920i","midiNote":77,"note":"F5","velocity":1,"duration":"24i"},{"time":"10944i","midiNote":34,"note":"A#1","velocity":1,"duration":"24i"},{"time":"10944i","midiNote":46,"note":"A#2","velocity":1,"duration":"24i"},{"time":"10944i","midiNote":65,"note":"F4","velocity":1,"duration":"24i"},{"time":"10944i","midiNote":74,"note":"D5","velocity":1,"duration":"24i"},{"time":"10944i","midiNote":77,"note":"F5","velocity":1,"duration":"24i"},{"time":"10968i","midiNote":39,"note":"D#2","velocity":1,"duration":"24i"},{"time":"10968i","midiNote":51,"note":"D#3","velocity":1,"duration":"24i"},{"time":"10968i","midiNote":67,"note":"G4","velocity":1,"duration":"24i"},{"time":"10968i","midiNote":75,"note":"D#5","velocity":1,"duration":"24i"},{"time":"10968i","midiNote":79,"note":"G5","velocity":1,"duration":"24i"},{"time":"10992i","midiNote":67,"note":"G4","velocity":1,"duration":"24i"},{"time":"10992i","midiNote":79,"note":"G5","velocity":1,"duration":"24i"},{"time":"10992i","midiNote":91,"note":"G6","velocity":1,"duration":"24i"},{"time":"11016i","midiNote":67,"note":"G4","velocity":1,"duration":"24i"},{"time":"11016i","midiNote":79,"note":"G5","velocity":1,"duration":"24i"},{"time":"11016i","midiNote":91,"note":"G6","velocity":1,"duration":"24i"},{"time":"11040i","midiNote":67,"note":"G4","velocity":1,"duration":"24i"},{"time":"11040i","midiNote":79,"note":"G5","velocity":1,"duration":"24i"},{"time":"11040i","midiNote":91,"note":"G6","velocity":1,"duration":"24i"},{"time":"11064i","midiNote":63,"note":"D#4","velocity":1,"duration":"24i"},{"time":"11064i","midiNote":87,"note":"D#6","velocity":1,"duration":"24i"},{"time":"11088i","midiNote":58,"note":"A#3","velocity":1,"duration":"24i"},{"time":"11088i","midiNote":70,"note":"A#4","velocity":1,"duration":"24i"},{"time":"11088i","midiNote":82,"note":"A#5","velocity":1,"duration":"24i"},{"time":"11112i","midiNote":58,"note":"A#3","velocity":1,"duration":"24i"},{"time":"11112i","midiNote":70,"note":"A#4","velocity":1,"duration":"24i"},{"time":"11112i","midiNote":82,"note":"A#5","velocity":1,"duration":"24i"},{"time":"11136i","midiNote":58,"note":"A#3","velocity":1,"duration":"24i"},{"time":"11136i","midiNote":70,"note":"A#4","velocity":1,"duration":"24i"},{"time":"11136i","midiNote":82,"note":"A#5","velocity":1,"duration":"24i"},{"time":"11160i","midiNote":55,"note":"G3","velocity":1,"duration":"24i"},{"time":"11160i","midiNote":67,"note":"G4","velocity":1,"duration":"24i"},{"time":"11160i","midiNote":79,"note":"G5","velocity":1,"duration":"24i"},{"time":"11184i","midiNote":51,"note":"D#3","velocity":1,"duration":"24i"},{"time":"11184i","midiNote":63,"note":"D#4","velocity":1,"duration":"24i"},{"time":"11184i","midiNote":75,"note":"D#5","velocity":1,"duration":"24i"},{"time":"11208i","midiNote":51,"note":"D#3","velocity":1,"duration":"24i"},{"time":"11208i","midiNote":63,"note":"D#4","velocity":1,"duration":"24i"},{"time":"11208i","midiNote":75,"note":"D#5","velocity":1,"duration":"24i"},{"time":"11232i","midiNote":51,"note":"D#3","velocity":1,"duration":"24i"},{"time":"11232i","midiNote":63,"note":"D#4","velocity":1,"duration":"24i"},{"time":"11232i","midiNote":75,"note":"D#5","velocity":1,"duration":"24i"},{"time":"11256i","midiNote":46,"note":"A#2","velocity":1,"duration":"24i"},{"time":"11256i","midiNote":58,"note":"A#3","velocity":1,"duration":"24i"},{"time":"11256i","midiNote":70,"note":"A#4","velocity":1,"duration":"24i"},{"time":"11280i","midiNote":34,"note":"A#1","velocity":1,"duration":"24i"},{"time":"11280i","midiNote":46,"note":"A#2","velocity":1,"duration":"24i"},{"time":"11280i","midiNote":70,"note":"A#4","velocity":1,"duration":"24i"},{"time":"11280i","midiNote":74,"note":"D5","velocity":1,"duration":"24i"},{"time":"11280i","midiNote":77,"note":"F5","velocity":1,"duration":"24i"},{"time":"11280i","midiNote":82,"note":"A#5","velocity":1,"duration":"24i"},{"time":"11304i","midiNote":34,"note":"A#1","velocity":1,"duration":"24i"},{"time":"11304i","midiNote":46,"note":"A#2","velocity":1,"duration":"24i"},{"time":"11304i","midiNote":70,"note":"A#4","velocity":1,"duration":"24i"},{"time":"11304i","midiNote":74,"note":"D5","velocity":1,"duration":"24i"},{"time":"11304i","midiNote":77,"note":"F5","velocity":1,"duration":"24i"},{"time":"11304i","midiNote":82,"note":"A#5","velocity":1,"duration":"24i"},{"time":"11328i","midiNote":34,"note":"A#1","velocity":1,"duration":"24i"},{"time":"11328i","midiNote":46,"note":"A#2","velocity":1,"duration":"24i"},{"time":"11328i","midiNote":70,"note":"A#4","velocity":1,"duration":"24i"},{"time":"11328i","midiNote":74,"note":"D5","velocity":1,"duration":"24i"},{"time":"11328i","midiNote":77,"note":"F5","velocity":1,"duration":"24i"},{"time":"11328i","midiNote":82,"note":"A#5","velocity":1,"duration":"24i"},{"time":"11352i","midiNote":39,"note":"D#2","velocity":1,"duration":"48i"},{"time":"11352i","midiNote":51,"note":"D#3","velocity":1,"duration":"48i"},{"time":"11352i","midiNote":70,"note":"A#4","velocity":1,"duration":"48i"},{"time":"11352i","midiNote":75,"note":"D#5","velocity":1,"duration":"48i"},{"time":"11352i","midiNote":79,"note":"G5","velocity":1,"duration":"48i"},{"time":"11352i","midiNote":82,"note":"A#5","velocity":1,"duration":"48i"},{"time":"11472i","midiNote":34,"note":"A#1","velocity":1,"duration":"24i"},{"time":"11472i","midiNote":46,"note":"A#2","velocity":1,"duration":"24i"},{"time":"11472i","midiNote":70,"note":"A#4","velocity":1,"duration":"24i"},{"time":"11472i","midiNote":74,"note":"D5","velocity":1,"duration":"24i"},{"time":"11472i","midiNote":77,"note":"F5","velocity":1,"duration":"24i"},{"time":"11472i","midiNote":82,"note":"A#5","velocity":1,"duration":"24i"},{"time":"11496i","midiNote":34,"note":"A#1","velocity":1,"duration":"24i"},{"time":"11496i","midiNote":46,"note":"A#2","velocity":1,"duration":"24i"},{"time":"11496i","midiNote":70,"note":"A#4","velocity":1,"duration":"24i"},{"time":"11496i","midiNote":74,"note":"D5","velocity":1,"duration":"24i"},{"time":"11496i","midiNote":77,"note":"F5","velocity":1,"duration":"24i"},{"time":"11496i","midiNote":82,"note":"A#5","velocity":1,"duration":"24i"},{"time":"11520i","midiNote":34,"note":"A#1","velocity":1,"duration":"24i"},{"time":"11520i","midiNote":46,"note":"A#2","velocity":1,"duration":"24i"},{"time":"11520i","midiNote":70,"note":"A#4","velocity":1,"duration":"24i"},{"time":"11520i","midiNote":74,"note":"D5","velocity":1,"duration":"24i"},{"time":"11520i","midiNote":77,"note":"F5","velocity":1,"duration":"24i"},{"time":"11520i","midiNote":82,"note":"A#5","velocity":1,"duration":"24i"},{"time":"11544i","midiNote":39,"note":"D#2","velocity":1,"duration":"48i"},{"time":"11544i","midiNote":51,"note":"D#3","velocity":1,"duration":"48i"},{"time":"11544i","midiNote":70,"note":"A#4","velocity":1,"duration":"48i"},{"time":"11544i","midiNote":75,"note":"D#5","velocity":1,"duration":"48i"},{"time":"11544i","midiNote":79,"note":"G5","velocity":1,"duration":"48i"},{"time":"11544i","midiNote":82,"note":"A#5","velocity":1,"duration":"48i"},{"time":"11664i","midiNote":34,"note":"A#1","velocity":1,"duration":"24i"},{"time":"11664i","midiNote":46,"note":"A#2","velocity":1,"duration":"24i"},{"time":"11664i","midiNote":77,"note":"F5","velocity":1,"duration":"24i"},{"time":"11664i","midiNote":82,"note":"A#5","velocity":1,"duration":"24i"},{"time":"11664i","midiNote":86,"note":"D6","velocity":1,"duration":"24i"},{"time":"11688i","midiNote":34,"note":"A#1","velocity":1,"duration":"24i"},{"time":"11688i","midiNote":46,"note":"A#2","velocity":1,"duration":"24i"},{"time":"11688i","midiNote":77,"note":"F5","velocity":1,"duration":"24i"},{"time":"11688i","midiNote":82,"note":"A#5","velocity":1,"duration":"24i"},{"time":"11688i","midiNote":86,"note":"D6","velocity":1,"duration":"24i"},{"time":"11712i","midiNote":34,"note":"A#1","velocity":1,"duration":"24i"},{"time":"11712i","midiNote":46,"note":"A#2","velocity":1,"duration":"24i"},{"time":"11712i","midiNote":77,"note":"F5","velocity":1,"duration":"24i"},{"time":"11712i","midiNote":82,"note":"A#5","velocity":1,"duration":"24i"},{"time":"11712i","midiNote":86,"note":"D6","velocity":1,"duration":"24i"},{"time":"11736i","midiNote":39,"note":"D#2","velocity":1,"duration":"48i"},{"time":"11736i","midiNote":51,"note":"D#3","velocity":1,"duration":"48i"},{"time":"11736i","midiNote":79,"note":"G5","velocity":1,"duration":"48i"},{"time":"11736i","midiNote":82,"note":"A#5","velocity":1,"duration":"48i"},{"time":"11736i","midiNote":87,"note":"D#6","velocity":1,"duration":"48i"},{"time":"12048i","midiNote":70,"note":"A#4","velocity":1,"duration":"24i"},{"time":"12072i","midiNote":70,"note":"A#4","velocity":1,"duration":"24i"},{"time":"12096i","midiNote":70,"note":"A#4","velocity":1,"duration":"24i"},{"time":"12120i","midiNote":67,"note":"G4","velocity":1,"duration":"288i"},{"time":"12144i","midiNote":37,"note":"C#2","velocity":1,"duration":"24i"},{"time":"12144i","midiNote":49,"note":"C#3","velocity":1,"duration":"24i"},{"time":"12144i","midiNote":61,"note":"C#4","velocity":1,"duration":"24i"},{"time":"12168i","midiNote":37,"note":"C#2","velocity":1,"duration":"24i"},{"time":"12168i","midiNote":49,"note":"C#3","velocity":1,"duration":"24i"},{"time":"12168i","midiNote":61,"note":"C#4","velocity":1,"duration":"24i"},{"time":"12192i","midiNote":37,"note":"C#2","velocity":1,"duration":"24i"},{"time":"12192i","midiNote":49,"note":"C#3","velocity":1,"duration":"24i"},{"time":"12192i","midiNote":61,"note":"C#4","velocity":1,"duration":"24i"},{"time":"12216i","midiNote":36,"note":"C2","velocity":1,"duration":"192i"},{"time":"12216i","midiNote":48,"note":"C3","velocity":1,"duration":"192i"},{"time":"12216i","midiNote":60,"note":"C4","velocity":1,"duration":"192i"},{"time":"12432i","midiNote":72,"note":"C5","velocity":1,"duration":"24i"},{"time":"12456i","midiNote":72,"note":"C5","velocity":1,"duration":"24i"},{"time":"12480i","midiNote":72,"note":"C5","velocity":1,"duration":"24i"},{"time":"12504i","midiNote":53,"note":"F3","velocity":1,"duration":"384i"},{"time":"12504i","midiNote":60,"note":"C4","velocity":1,"duration":"216i"},{"time":"12504i","midiNote":68,"note":"G#4","velocity":1,"duration":"312i"},{"time":"12528i","midiNote":73,"note":"C#5","velocity":1,"duration":"24i"},{"time":"12552i","midiNote":73,"note":"C#5","velocity":1,"duration":"24i"},{"time":"12576i","midiNote":73,"note":"C#5","velocity":1,"duration":"24i"},{"time":"12600i","midiNote":72,"note":"C5","velocity":1,"duration":"24i"},{"time":"12624i","midiNote":80,"note":"G#5","velocity":1,"duration":"24i"},{"time":"12648i","midiNote":80,"note":"G#5","velocity":1,"duration":"24i"},{"time":"12672i","midiNote":80,"note":"G#5","velocity":1,"duration":"24i"},{"time":"12696i","midiNote":77,"note":"F5","velocity":1,"duration":"120i"},{"time":"12720i","midiNote":61,"note":"C#4","velocity":1,"duration":"24i"},{"time":"12744i","midiNote":61,"note":"C#4","velocity":1,"duration":"24i"},{"time":"12768i","midiNote":61,"note":"C#4","velocity":1,"duration":"24i"},{"time":"12792i","midiNote":60,"note":"C4","velocity":1,"duration":"312i"},{"time":"12816i","midiNote":72,"note":"C5","velocity":1,"duration":"24i"},{"time":"12840i","midiNote":72,"note":"C5","velocity":1,"duration":"24i"},{"time":"12864i","midiNote":72,"note":"C5","velocity":1,"duration":"24i"},{"time":"12888i","midiNote":52,"note":"E3","velocity":1,"duration":"384i"},{"time":"12888i","midiNote":67,"note":"G4","velocity":1,"duration":"72i"},{"time":"12912i","midiNote":73,"note":"C#5","velocity":1,"duration":"24i"},{"time":"12936i","midiNote":73,"note":"C#5","velocity":1,"duration":"24i"},{"time":"12960i","midiNote":73,"note":"C#5","velocity":1,"duration":"24i"},{"time":"12984i","midiNote":72,"note":"C5","velocity":1,"duration":"312i"},{"time":"13008i","midiNote":82,"note":"A#5","velocity":1,"duration":"24i"},{"time":"13032i","midiNote":82,"note":"A#5","velocity":1,"duration":"24i"},{"time":"13056i","midiNote":82,"note":"A#5","velocity":1,"duration":"24i"},{"time":"13080i","midiNote":79,"note":"G5","velocity":1,"duration":"120i"},{"time":"13104i","midiNote":61,"note":"C#4","velocity":1,"duration":"24i"},{"time":"13128i","midiNote":61,"note":"C#4","velocity":1,"duration":"24i"},{"time":"13152i","midiNote":61,"note":"C#4","velocity":1,"duration":"24i"},{"time":"13176i","midiNote":60,"note":"C4","velocity":1,"duration":"576i"},{"time":"13200i","midiNote":84,"note":"C6","velocity":1,"duration":"24i"},{"time":"13224i","midiNote":84,"note":"C6","velocity":1,"duration":"24i"},{"time":"13248i","midiNote":82,"note":"A#5","velocity":1,"duration":"24i"},{"time":"13272i","midiNote":53,"note":"F3","velocity":1,"duration":"96i"},{"time":"13272i","midiNote":80,"note":"G#5","velocity":1,"duration":"96i"},{"time":"13296i","midiNote":68,"note":"G#4","velocity":1,"duration":"24i"},{"time":"13320i","midiNote":68,"note":"G#4","velocity":1,"duration":"24i"},{"time":"13344i","midiNote":70,"note":"A#4","velocity":1,"duration":"24i"},{"time":"13368i","midiNote":52,"note":"E3","velocity":1,"duration":"96i"},{"time":"13368i","midiNote":72,"note":"C5","velocity":1,"duration":"120i"},{"time":"13368i","midiNote":79,"note":"G5","velocity":1,"duration":"24i"},{"time":"13392i","midiNote":84,"note":"C6","velocity":1,"duration":"24i"},{"time":"13416i","midiNote":84,"note":"C6","velocity":1,"duration":"24i"},{"time":"13440i","midiNote":82,"note":"A#5","velocity":1,"duration":"24i"},{"time":"13464i","midiNote":53,"note":"F3","velocity":1,"duration":"96i"},{"time":"13464i","midiNote":80,"note":"G#5","velocity":1,"duration":"96i"},{"time":"13488i","midiNote":68,"note":"G#4","velocity":1,"duration":"24i"},{"time":"13512i","midiNote":68,"note":"G#4","velocity":1,"duration":"24i"},{"time":"13536i","midiNote":70,"note":"A#4","velocity":1,"duration":"24i"},{"time":"13560i","midiNote":52,"note":"E3","velocity":1,"duration":"96i"},{"time":"13560i","midiNote":72,"note":"C5","velocity":1,"duration":"96i"},{"time":"13560i","midiNote":79,"note":"G5","velocity":1,"duration":"24i"},{"time":"13584i","midiNote":84,"note":"C6","velocity":1,"duration":"24i"},{"time":"13608i","midiNote":84,"note":"C6","velocity":1,"duration":"24i"},{"time":"13632i","midiNote":82,"note":"A#5","velocity":1,"duration":"24i"},{"time":"13656i","midiNote":53,"note":"F3","velocity":1,"duration":"48i"},{"time":"13656i","midiNote":80,"note":"G#5","velocity":1,"duration":"24i"},{"time":"13680i","midiNote":80,"note":"G#5","velocity":1,"duration":"24i"},{"time":"13704i","midiNote":80,"note":"G#5","velocity":1,"duration":"24i"},{"time":"13728i","midiNote":79,"note":"G5","velocity":1,"duration":"24i"},{"time":"13752i","midiNote":62,"note":"D4","velocity":1,"duration":"48i"},{"time":"13752i","midiNote":77,"note":"F5","velocity":1,"duration":"24i"},{"time":"13776i","midiNote":77,"note":"F5","velocity":1,"duration":"24i"},{"time":"13800i","midiNote":63,"note":"D#4","velocity":1,"duration":"48i"},{"time":"13800i","midiNote":77,"note":"F5","velocity":1,"duration":"24i"},{"time":"13824i","midiNote":75,"note":"D#5","velocity":1,"duration":"24i"},{"time":"13848i","midiNote":65,"note":"F4","velocity":1,"duration":"48i"},{"time":"13848i","midiNote":74,"note":"D5","velocity":1,"duration":"24i"},{"time":"13872i","midiNote":74,"note":"D5","velocity":1,"duration":"24i"},{"time":"13896i","midiNote":66,"note":"F#4","velocity":1,"duration":"48i"},{"time":"13896i","midiNote":74,"note":"D5","velocity":1,"duration":"24i"},{"time":"13920i","midiNote":72,"note":"C5","velocity":1,"duration":"24i"},{"time":"13944i","midiNote":67,"note":"G4","velocity":1,"duration":"24i"},{"time":"13944i","midiNote":71,"note":"B4","velocity":1,"duration":"48i"},{"time":"13968i","midiNote":67,"note":"G4","velocity":1,"duration":"24i"},{"time":"13992i","midiNote":55,"note":"G3","velocity":1,"duration":"48i"},{"time":"13992i","midiNote":67,"note":"G4","velocity":1,"duration":"24i"},{"time":"14016i","midiNote":65,"note":"F4","velocity":1,"duration":"24i"},{"time":"14040i","midiNote":60,"note":"C4","velocity":1,"duration":"96i"},{"time":"14040i","midiNote":63,"note":"D#4","velocity":1,"duration":"96i"},{"time":"14064i","midiNote":75,"note":"D#5","velocity":1,"duration":"24i"},{"time":"14088i","midiNote":75,"note":"D#5","velocity":1,"duration":"24i"},{"time":"14112i","midiNote":77,"note":"F5","velocity":1,"duration":"24i"},{"time":"14136i","midiNote":55,"note":"G3","velocity":1,"duration":"48i"},{"time":"14136i","midiNote":59,"note":"B3","velocity":1,"duration":"48i"},{"time":"14136i","midiNote":62,"note":"D4","velocity":1,"duration":"24i"},{"time":"14136i","midiNote":79,"note":"G5","velocity":1,"duration":"120i"},{"time":"14160i","midiNote":67,"note":"G4","velocity":1,"duration":"24i"},{"time":"14184i","midiNote":67,"note":"G4","velocity":1,"duration":"24i"},{"time":"14208i","midiNote":65,"note":"F4","velocity":1,"duration":"24i"},{"time":"14232i","midiNote":60,"note":"C4","velocity":1,"duration":"96i"},{"time":"14232i","midiNote":63,"note":"D#4","velocity":1,"duration":"96i"},{"time":"14256i","midiNote":75,"note":"D#5","velocity":1,"duration":"24i"},{"time":"14280i","midiNote":75,"note":"D#5","velocity":1,"duration":"24i"},{"time":"14304i","midiNote":77,"note":"F5","velocity":1,"duration":"24i"},{"time":"14328i","midiNote":55,"note":"G3","velocity":1,"duration":"48i"},{"time":"14328i","midiNote":59,"note":"B3","velocity":1,"duration":"48i"},{"time":"14328i","midiNote":62,"note":"D4","velocity":1,"duration":"24i"},{"time":"14328i","midiNote":79,"note":"G5","velocity":1,"duration":"192i"},{"time":"14352i","midiNote":67,"note":"G4","velocity":1,"duration":"24i"},{"time":"14376i","midiNote":67,"note":"G4","velocity":1,"duration":"24i"},{"time":"14400i","midiNote":65,"note":"F4","velocity":1,"duration":"24i"},{"time":"14424i","midiNote":63,"note":"D#4","velocity":1,"duration":"24i"},{"time":"14424i","midiNote":67,"note":"G4","velocity":1,"duration":"96i"},{"time":"14448i","midiNote":63,"note":"D#4","velocity":1,"duration":"24i"},{"time":"14472i","midiNote":63,"note":"D#4","velocity":1,"duration":"24i"},{"time":"14496i","midiNote":62,"note":"D4","velocity":1,"duration":"24i"},{"time":"14520i","midiNote":60,"note":"C4","velocity":1,"duration":"24i"},{"time":"14520i","midiNote":69,"note":"A4","velocity":1,"duration":"48i"},{"time":"14520i","midiNote":81,"note":"A5","velocity":1,"duration":"48i"},{"time":"14544i","midiNote":60,"note":"C4","velocity":1,"duration":"24i"},{"time":"14544i","midiNote":63,"note":"D#4","velocity":1,"duration":"24i"},{"time":"14568i","midiNote":60,"note":"C4","velocity":1,"duration":"24i"},{"time":"14568i","midiNote":63,"note":"D#4","velocity":1,"duration":"24i"},{"time":"14568i","midiNote":70,"note":"A#4","velocity":1,"duration":"48i"},{"time":"14568i","midiNote":82,"note":"A#5","velocity":1,"duration":"48i"},{"time":"14592i","midiNote":58,"note":"A#3","velocity":1,"duration":"24i"},{"time":"14592i","midiNote":62,"note":"D4","velocity":1,"duration":"24i"},{"time":"14616i","midiNote":57,"note":"A3","velocity":1,"duration":"24i"},{"time":"14616i","midiNote":60,"note":"C4","velocity":1,"duration":"24i"},{"time":"14616i","midiNote":72,"note":"C5","velocity":1,"duration":"48i"},{"time":"14616i","midiNote":84,"note":"C6","velocity":1,"duration":"48i"},{"time":"14640i","midiNote":57,"note":"A3","velocity":1,"duration":"24i"},{"time":"14640i","midiNote":60,"note":"C4","velocity":1,"duration":"24i"},{"time":"14664i","midiNote":57,"note":"A3","velocity":1,"duration":"24i"},{"time":"14664i","midiNote":60,"note":"C4","velocity":1,"duration":"24i"},{"time":"14664i","midiNote":73,"note":"C#5","velocity":1,"duration":"48i"},{"time":"14664i","midiNote":85,"note":"C#6","velocity":1,"duration":"48i"},{"time":"14688i","midiNote":55,"note":"G3","velocity":1,"duration":"24i"},{"time":"14688i","midiNote":58,"note":"A#3","velocity":1,"duration":"24i"},{"time":"14712i","midiNote":50,"note":"D3","velocity":1,"duration":"48i"},{"time":"14712i","midiNote":54,"note":"F#3","velocity":1,"duration":"48i"},{"time":"14712i","midiNote":57,"note":"A3","velocity":1,"duration":"48i"},{"time":"14712i","midiNote":74,"note":"D5","velocity":1,"duration":"24i"},{"time":"14712i","midiNote":86,"note":"D6","velocity":1,"duration":"24i"},{"time":"14736i","midiNote":78,"note":"F#5","velocity":1,"duration":"24i"},{"time":"14736i","midiNote":86,"note":"D6","velocity":1,"duration":"24i"},{"time":"14760i","midiNote":78,"note":"F#5","velocity":1,"duration":"24i"},{"time":"14760i","midiNote":86,"note":"D6","velocity":1,"duration":"24i"},{"time":"14784i","midiNote":81,"note":"A5","velocity":1,"duration":"24i"},{"time":"14784i","midiNote":84,"note":"C6","velocity":1,"duration":"24i"},{"time":"14808i","midiNote":55,"note":"G3","velocity":1,"duration":"48i"},{"time":"14808i","midiNote":79,"note":"G5","velocity":1,"duration":"96i"},{"time":"14808i","midiNote":82,"note":"A#5","velocity":1,"duration":"96i"},{"time":"14832i","midiNote":58,"note":"A#3","velocity":1,"duration":"24i"},{"time":"14856i","midiNote":58,"note":"A#3","velocity":1,"duration":"24i"},{"time":"14880i","midiNote":60,"note":"C4","velocity":1,"duration":"24i"},{"time":"14904i","midiNote":50,"note":"D3","velocity":1,"duration":"48i"},{"time":"14904i","midiNote":62,"note":"D4","velocity":1,"duration":"96i"},{"time":"14904i","midiNote":78,"note":"F#5","velocity":1,"duration":"24i"},{"time":"14904i","midiNote":81,"note":"A5","velocity":1,"duration":"24i"},{"time":"14928i","midiNote":78,"note":"F#5","velocity":1,"duration":"24i"},{"time":"14928i","midiNote":86,"note":"D6","velocity":1,"duration":"24i"},{"time":"14952i","midiNote":78,"note":"F#5","velocity":1,"duration":"24i"},{"time":"14952i","midiNote":86,"note":"D6","velocity":1,"duration":"24i"},{"time":"14976i","midiNote":81,"note":"A5","velocity":1,"duration":"24i"},{"time":"14976i","midiNote":84,"note":"C6","velocity":1,"duration":"24i"},{"time":"15000i","midiNote":55,"note":"G3","velocity":1,"duration":"48i"},{"time":"15000i","midiNote":79,"note":"G5","velocity":1,"duration":"96i"},{"time":"15000i","midiNote":82,"note":"A#5","velocity":1,"duration":"96i"},{"time":"15024i","midiNote":58,"note":"A#3","velocity":1,"duration":"24i"},{"time":"15048i","midiNote":58,"note":"A#3","velocity":1,"duration":"24i"},{"time":"15072i","midiNote":60,"note":"C4","velocity":1,"duration":"24i"},{"time":"15096i","midiNote":50,"note":"D3","velocity":1,"duration":"48i"},{"time":"15096i","midiNote":62,"note":"D4","velocity":1,"duration":"24i"},{"time":"15096i","midiNote":78,"note":"F#5","velocity":1,"duration":"48i"},{"time":"15096i","midiNote":81,"note":"A5","velocity":1,"duration":"48i"},{"time":"15120i","midiNote":62,"note":"D4","velocity":1,"duration":"24i"},{"time":"15144i","midiNote":62,"note":"D4","velocity":1,"duration":"24i"},{"time":"15144i","midiNote":74,"note":"D5","velocity":1,"duration":"72i"},{"time":"15144i","midiNote":78,"note":"F#5","velocity":1,"duration":"48i"},{"time":"15144i","midiNote":81,"note":"A5","velocity":1,"duration":"48i"},{"time":"15144i","midiNote":86,"note":"D6","velocity":1,"duration":"72i"},{"time":"15168i","midiNote":60,"note":"C4","velocity":1,"duration":"24i"},{"time":"15192i","midiNote":55,"note":"G3","velocity":1,"duration":"24i"},{"time":"15192i","midiNote":58,"note":"A#3","velocity":1,"duration":"24i"},{"time":"15192i","midiNote":79,"note":"G5","velocity":1,"duration":"24i"},{"time":"15192i","midiNote":82,"note":"A#5","velocity":1,"duration":"24i"},{"time":"15216i","midiNote":58,"note":"A#3","velocity":1,"duration":"24i"},{"time":"15216i","midiNote":67,"note":"G4","velocity":1,"duration":"24i"},{"time":"15240i","midiNote":58,"note":"A#3","velocity":1,"duration":"24i"},{"time":"15240i","midiNote":67,"note":"G4","velocity":1,"duration":"24i"},{"time":"15264i","midiNote":57,"note":"A3","velocity":1,"duration":"24i"},{"time":"15264i","midiNote":69,"note":"A4","velocity":1,"duration":"24i"},{"time":"15288i","midiNote":55,"note":"G3","velocity":1,"duration":"24i"},{"time":"15288i","midiNote":70,"note":"A#4","velocity":1,"duration":"24i"},{"time":"15312i","midiNote":55,"note":"G3","velocity":1,"duration":"24i"},{"time":"15312i","midiNote":67,"note":"G4","velocity":1,"duration":"24i"},{"time":"15312i","midiNote":79,"note":"G5","velocity":1,"duration":"24i"},{"time":"15336i","midiNote":55,"note":"G3","velocity":1,"duration":"24i"},{"time":"15336i","midiNote":69,"note":"A4","velocity":1,"duration":"24i"},{"time":"15336i","midiNote":81,"note":"A5","velocity":1,"duration":"24i"},{"time":"15360i","midiNote":53,"note":"F3","velocity":1,"duration":"24i"},{"time":"15360i","midiNote":70,"note":"A#4","velocity":1,"duration":"24i"},{"time":"15360i","midiNote":82,"note":"A#5","velocity":1,"duration":"24i"},{"time":"15384i","midiNote":45,"note":"A2","velocity":1,"duration":"120i"},{"time":"15384i","midiNote":51,"note":"D#3","velocity":1,"duration":"24i"},{"time":"15384i","midiNote":72,"note":"C5","velocity":1,"duration":"24i"},{"time":"15384i","midiNote":78,"note":"F#5","velocity":1,"duration":"24i"},{"time":"15384i","midiNote":84,"note":"C6","velocity":1,"duration":"24i"},{"time":"15408i","midiNote":51,"note":"D#3","velocity":1,"duration":"24i"},{"time":"15408i","midiNote":63,"note":"D#4","velocity":1,"duration":"24i"},{"time":"15408i","midiNote":66,"note":"F#4","velocity":1,"duration":"24i"},{"time":"15432i","midiNote":51,"note":"D#3","velocity":1,"duration":"24i"},{"time":"15432i","midiNote":63,"note":"D#4","velocity":1,"duration":"24i"},{"time":"15432i","midiNote":69,"note":"A4","velocity":1,"duration":"24i"},{"time":"15456i","midiNote":50,"note":"D3","velocity":1,"duration":"24i"},{"time":"15456i","midiNote":63,"note":"D#4","velocity":1,"duration":"24i"},{"time":"15456i","midiNote":70,"note":"A#4","velocity":1,"duration":"24i"},{"time":"15480i","midiNote":48,"note":"C3","velocity":1,"duration":"24i"},{"time":"15480i","midiNote":63,"note":"D#4","velocity":1,"duration":"24i"},{"time":"15480i","midiNote":72,"note":"C5","velocity":1,"duration":"24i"},{"time":"15504i","midiNote":60,"note":"C4","velocity":1,"duration":"24i"},{"time":"15504i","midiNote":66,"note":"F#4","velocity":1,"duration":"24i"},{"time":"15504i","midiNote":78,"note":"F#5","velocity":1,"duration":"24i"},{"time":"15528i","midiNote":60,"note":"C4","velocity":1,"duration":"24i"},{"time":"15528i","midiNote":69,"note":"A4","velocity":1,"duration":"24i"},{"time":"15528i","midiNote":81,"note":"A5","velocity":1,"duration":"24i"},{"time":"15552i","midiNote":58,"note":"A#3","velocity":1,"duration":"24i"},{"time":"15552i","midiNote":70,"note":"A#4","velocity":1,"duration":"24i"},{"time":"15552i","midiNote":82,"note":"A#5","velocity":1,"duration":"24i"},{"time":"15576i","midiNote":45,"note":"A2","velocity":1,"duration":"192i"},{"time":"15576i","midiNote":57,"note":"A3","velocity":1,"duration":"24i"},{"time":"15576i","midiNote":72,"note":"C5","velocity":1,"duration":"24i"},{"time":"15576i","midiNote":78,"note":"F#5","velocity":1,"duration":"24i"},{"time":"15576i","midiNote":84,"note":"C6","velocity":1,"duration":"24i"},{"time":"15600i","midiNote":57,"note":"A3","velocity":1,"duration":"24i"},{"time":"15600i","midiNote":63,"note":"D#4","velocity":1,"duration":"24i"},{"time":"15600i","midiNote":66,"note":"F#4","velocity":1,"duration":"24i"},{"time":"15624i","midiNote":57,"note":"A3","velocity":1,"duration":"24i"},{"time":"15624i","midiNote":63,"note":"D#4","velocity":1,"duration":"24i"},{"time":"15624i","midiNote":69,"note":"A4","velocity":1,"duration":"24i"},{"time":"15648i","midiNote":55,"note":"G3","velocity":1,"duration":"24i"},{"time":"15648i","midiNote":63,"note":"D#4","velocity":1,"duration":"24i"},{"time":"15648i","midiNote":70,"note":"A#4","velocity":1,"duration":"24i"},{"time":"15672i","midiNote":54,"note":"F#3","velocity":1,"duration":"24i"},{"time":"15672i","midiNote":63,"note":"D#4","velocity":1,"duration":"24i"},{"time":"15672i","midiNote":72,"note":"C5","velocity":1,"duration":"24i"},{"time":"15696i","midiNote":54,"note":"F#3","velocity":1,"duration":"24i"},{"time":"15696i","midiNote":69,"note":"A4","velocity":1,"duration":"24i"},{"time":"15696i","midiNote":81,"note":"A5","velocity":1,"duration":"24i"},{"time":"15720i","midiNote":54,"note":"F#3","velocity":1,"duration":"24i"},{"time":"15720i","midiNote":70,"note":"A#4","velocity":1,"duration":"24i"},{"time":"15720i","midiNote":82,"note":"A#5","velocity":1,"duration":"24i"},{"time":"15744i","midiNote":51,"note":"D#3","velocity":1,"duration":"24i"},{"time":"15744i","midiNote":72,"note":"C5","velocity":1,"duration":"24i"},{"time":"15744i","midiNote":84,"note":"C6","velocity":1,"duration":"24i"},{"time":"15768i","midiNote":46,"note":"A#2","velocity":1,"duration":"24i"},{"time":"15768i","midiNote":50,"note":"D3","velocity":1,"duration":"24i"},{"time":"15768i","midiNote":74,"note":"D5","velocity":1,"duration":"24i"},{"time":"15768i","midiNote":79,"note":"G5","velocity":1,"duration":"24i"},{"time":"15768i","midiNote":86,"note":"D6","velocity":1,"duration":"24i"},{"time":"15792i","midiNote":50,"note":"D3","velocity":1,"duration":"24i"},{"time":"15792i","midiNote":67,"note":"G4","velocity":1,"duration":"24i"},{"time":"15816i","midiNote":50,"note":"D3","velocity":1,"duration":"24i"},{"time":"15816i","midiNote":67,"note":"G4","velocity":1,"duration":"24i"},{"time":"15816i","midiNote":70,"note":"A#4","velocity":1,"duration":"24i"},{"time":"15840i","midiNote":48,"note":"C3","velocity":1,"duration":"24i"},{"time":"15840i","midiNote":67,"note":"G4","velocity":1,"duration":"24i"},{"time":"15840i","midiNote":72,"note":"C5","velocity":1,"duration":"24i"},{"time":"15864i","midiNote":46,"note":"A#2","velocity":1,"duration":"24i"},{"time":"15864i","midiNote":67,"note":"G4","velocity":1,"duration":"24i"},{"time":"15864i","midiNote":74,"note":"D5","velocity":1,"duration":"24i"},{"time":"15888i","midiNote":62,"note":"D4","velocity":1,"duration":"24i"},{"time":"15888i","midiNote":67,"note":"G4","velocity":1,"duration":"24i"},{"time":"15888i","midiNote":79,"note":"G5","velocity":1,"duration":"24i"},{"time":"15912i","midiNote":62,"note":"D4","velocity":1,"duration":"24i"},{"time":"15912i","midiNote":70,"note":"A#4","velocity":1,"duration":"24i"},{"time":"15912i","midiNote":82,"note":"A#5","velocity":1,"duration":"24i"},{"time":"15936i","midiNote":60,"note":"C4","velocity":1,"duration":"24i"},{"time":"15936i","midiNote":72,"note":"C5","velocity":1,"duration":"24i"},{"time":"15936i","midiNote":84,"note":"C6","velocity":1,"duration":"24i"},{"time":"15960i","midiNote":58,"note":"A#3","velocity":1,"duration":"24i"},{"time":"15960i","midiNote":74,"note":"D5","velocity":1,"duration":"24i"},{"time":"15960i","midiNote":79,"note":"G5","velocity":1,"duration":"24i"},{"time":"15960i","midiNote":86,"note":"D6","velocity":1,"duration":"24i"},{"time":"15984i","midiNote":58,"note":"A#3","velocity":1,"duration":"24i"},{"time":"15984i","midiNote":67,"note":"G4","velocity":1,"duration":"24i"},{"time":"16008i","midiNote":58,"note":"A#3","velocity":1,"duration":"24i"},{"time":"16008i","midiNote":67,"note":"G4","velocity":1,"duration":"24i"},{"time":"16008i","midiNote":70,"note":"A#4","velocity":1,"duration":"24i"},{"time":"16032i","midiNote":57,"note":"A3","velocity":1,"duration":"24i"},{"time":"16032i","midiNote":67,"note":"G4","velocity":1,"duration":"24i"},{"time":"16032i","midiNote":72,"note":"C5","velocity":1,"duration":"24i"},{"time":"16056i","midiNote":46,"note":"A#2","velocity":1,"duration":"24i"},{"time":"16056i","midiNote":55,"note":"G3","velocity":1,"duration":"24i"},{"time":"16056i","midiNote":67,"note":"G4","velocity":1,"duration":"24i"},{"time":"16056i","midiNote":74,"note":"D5","velocity":1,"duration":"24i"},{"time":"16080i","midiNote":46,"note":"A#2","velocity":1,"duration":"24i"},{"time":"16080i","midiNote":53,"note":"F3","velocity":1,"duration":"24i"},{"time":"16080i","midiNote":79,"note":"G5","velocity":1,"duration":"24i"},{"time":"16080i","midiNote":82,"note":"A#5","velocity":1,"duration":"24i"},{"time":"16104i","midiNote":46,"note":"A#2","velocity":1,"duration":"24i"},{"time":"16104i","midiNote":51,"note":"D#3","velocity":1,"duration":"24i"},{"time":"16104i","midiNote":81,"note":"A5","velocity":1,"duration":"24i"},{"time":"16104i","midiNote":84,"note":"C6","velocity":1,"duration":"24i"},{"time":"16128i","midiNote":46,"note":"A#2","velocity":1,"duration":"24i"},{"time":"16128i","midiNote":50,"note":"D3","velocity":1,"duration":"24i"},{"time":"16128i","midiNote":82,"note":"A#5","velocity":1,"duration":"24i"},{"time":"16128i","midiNote":86,"note":"D6","velocity":1,"duration":"24i"},{"time":"16152i","midiNote":48,"note":"C3","velocity":1,"duration":"24i"},{"time":"16152i","midiNote":51,"note":"D#3","velocity":1,"duration":"24i"},{"time":"16152i","midiNote":54,"note":"F#3","velocity":1,"duration":"24i"},{"time":"16152i","midiNote":57,"note":"A3","velocity":1,"duration":"24i"},{"time":"16152i","midiNote":75,"note":"D#5","velocity":1,"duration":"24i"},{"time":"16152i","midiNote":78,"note":"F#5","velocity":1,"duration":"24i"},{"time":"16152i","midiNote":81,"note":"A5","velocity":1,"duration":"24i"},{"time":"16152i","midiNote":87,"note":"D#6","velocity":1,"duration":"24i"},{"time":"16176i","midiNote":48,"note":"C3","velocity":1,"duration":"24i"},{"time":"16176i","midiNote":51,"note":"D#3","velocity":1,"duration":"24i"},{"time":"16176i","midiNote":54,"note":"F#3","velocity":1,"duration":"24i"},{"time":"16176i","midiNote":57,"note":"A3","velocity":1,"duration":"24i"},{"time":"16176i","midiNote":75,"note":"D#5","velocity":1,"duration":"24i"},{"time":"16176i","midiNote":78,"note":"F#5","velocity":1,"duration":"24i"},{"time":"16176i","midiNote":81,"note":"A5","velocity":1,"duration":"24i"},{"time":"16176i","midiNote":87,"note":"D#6","velocity":1,"duration":"24i"},{"time":"16200i","midiNote":48,"note":"C3","velocity":1,"duration":"24i"},{"time":"16200i","midiNote":51,"note":"D#3","velocity":1,"duration":"24i"},{"time":"16200i","midiNote":54,"note":"F#3","velocity":1,"duration":"24i"},{"time":"16200i","midiNote":57,"note":"A3","velocity":1,"duration":"24i"},{"time":"16200i","midiNote":75,"note":"D#5","velocity":1,"duration":"24i"},{"time":"16200i","midiNote":78,"note":"F#5","velocity":1,"duration":"24i"},{"time":"16200i","midiNote":81,"note":"A5","velocity":1,"duration":"24i"},{"time":"16200i","midiNote":87,"note":"D#6","velocity":1,"duration":"24i"},{"time":"16224i","midiNote":48,"note":"C3","velocity":1,"duration":"24i"},{"time":"16224i","midiNote":51,"note":"D#3","velocity":1,"duration":"24i"},{"time":"16224i","midiNote":54,"note":"F#3","velocity":1,"duration":"24i"},{"time":"16224i","midiNote":57,"note":"A3","velocity":1,"duration":"24i"},{"time":"16224i","midiNote":75,"note":"D#5","velocity":1,"duration":"24i"},{"time":"16224i","midiNote":78,"note":"F#5","velocity":1,"duration":"24i"},{"time":"16224i","midiNote":81,"note":"A5","velocity":1,"duration":"24i"},{"time":"16224i","midiNote":87,"note":"D#6","velocity":1,"duration":"24i"},{"time":"16248i","midiNote":48,"note":"C3","velocity":1,"duration":"24i"},{"time":"16248i","midiNote":51,"note":"D#3","velocity":1,"duration":"24i"},{"time":"16248i","midiNote":54,"note":"F#3","velocity":1,"duration":"24i"},{"time":"16248i","midiNote":57,"note":"A3","velocity":1,"duration":"24i"},{"time":"16248i","midiNote":75,"note":"D#5","velocity":1,"duration":"24i"},{"time":"16248i","midiNote":78,"note":"F#5","velocity":1,"duration":"24i"},{"time":"16248i","midiNote":81,"note":"A5","velocity":1,"duration":"24i"},{"time":"16248i","midiNote":87,"note":"D#6","velocity":1,"duration":"24i"},{"time":"16272i","midiNote":48,"note":"C3","velocity":1,"duration":"24i"},{"time":"16272i","midiNote":51,"note":"D#3","velocity":1,"duration":"24i"},{"time":"16272i","midiNote":54,"note":"F#3","velocity":1,"duration":"24i"},{"time":"16272i","midiNote":57,"note":"A3","velocity":1,"duration":"24i"},{"time":"16272i","midiNote":75,"note":"D#5","velocity":1,"duration":"24i"},{"time":"16272i","midiNote":78,"note":"F#5","velocity":1,"duration":"24i"},{"time":"16272i","midiNote":81,"note":"A5","velocity":1,"duration":"24i"},{"time":"16272i","midiNote":87,"note":"D#6","velocity":1,"duration":"24i"},{"time":"16296i","midiNote":48,"note":"C3","velocity":1,"duration":"24i"},{"time":"16296i","midiNote":51,"note":"D#3","velocity":1,"duration":"24i"},{"time":"16296i","midiNote":54,"note":"F#3","velocity":1,"duration":"24i"},{"time":"16296i","midiNote":57,"note":"A3","velocity":1,"duration":"24i"},{"time":"16296i","midiNote":75,"note":"D#5","velocity":1,"duration":"24i"},{"time":"16296i","midiNote":78,"note":"F#5","velocity":1,"duration":"24i"},{"time":"16296i","midiNote":81,"note":"A5","velocity":1,"duration":"24i"},{"time":"16296i","midiNote":87,"note":"D#6","velocity":1,"duration":"24i"},{"time":"16320i","midiNote":48,"note":"C3","velocity":1,"duration":"24i"},{"time":"16320i","midiNote":51,"note":"D#3","velocity":1,"duration":"24i"},{"time":"16320i","midiNote":54,"note":"F#3","velocity":1,"duration":"24i"},{"time":"16320i","midiNote":57,"note":"A3","velocity":1,"duration":"24i"},{"time":"16320i","midiNote":75,"note":"D#5","velocity":1,"duration":"24i"},{"time":"16320i","midiNote":78,"note":"F#5","velocity":1,"duration":"24i"},{"time":"16320i","midiNote":81,"note":"A5","velocity":1,"duration":"24i"},{"time":"16320i","midiNote":87,"note":"D#6","velocity":1,"duration":"24i"},{"time":"16344i","midiNote":48,"note":"C3","velocity":1,"duration":"48i"},{"time":"16344i","midiNote":51,"note":"D#3","velocity":1,"duration":"48i"},{"time":"16344i","midiNote":54,"note":"F#3","velocity":1,"duration":"48i"},{"time":"16344i","midiNote":57,"note":"A3","velocity":1,"duration":"48i"},{"time":"16344i","midiNote":75,"note":"D#5","velocity":1,"duration":"48i"},{"time":"16344i","midiNote":78,"note":"F#5","velocity":1,"duration":"48i"},{"time":"16344i","midiNote":81,"note":"A5","velocity":1,"duration":"48i"},{"time":"16344i","midiNote":87,"note":"D#6","velocity":1,"duration":"48i"},{"time":"16464i","midiNote":37,"note":"C#2","velocity":1,"duration":"24i"},{"time":"16464i","midiNote":43,"note":"G2","velocity":1,"duration":"24i"},{"time":"16464i","midiNote":49,"note":"C#3","velocity":1,"duration":"24i"},{"time":"16464i","midiNote":76,"note":"E5","velocity":1,"duration":"24i"},{"time":"16464i","midiNote":79,"note":"G5","velocity":1,"duration":"24i"},{"time":"16464i","midiNote":82,"note":"A#5","velocity":1,"duration":"24i"},{"time":"16464i","midiNote":88,"note":"E6","velocity":1,"duration":"24i"},{"time":"16488i","midiNote":37,"note":"C#2","velocity":1,"duration":"24i"},{"time":"16488i","midiNote":43,"note":"G2","velocity":1,"duration":"24i"},{"time":"16488i","midiNote":49,"note":"C#3","velocity":1,"duration":"24i"},{"time":"16488i","midiNote":76,"note":"E5","velocity":1,"duration":"24i"},{"time":"16488i","midiNote":79,"note":"G5","velocity":1,"duration":"24i"},{"time":"16488i","midiNote":82,"note":"A#5","velocity":1,"duration":"24i"},{"time":"16488i","midiNote":88,"note":"E6","velocity":1,"duration":"24i"},{"time":"16512i","midiNote":37,"note":"C#2","velocity":1,"duration":"24i"},{"time":"16512i","midiNote":43,"note":"G2","velocity":1,"duration":"24i"},{"time":"16512i","midiNote":49,"note":"C#3","velocity":1,"duration":"24i"},{"time":"16512i","midiNote":76,"note":"E5","velocity":1,"duration":"24i"},{"time":"16512i","midiNote":79,"note":"G5","velocity":1,"duration":"24i"},{"time":"16512i","midiNote":82,"note":"A#5","velocity":1,"duration":"24i"},{"time":"16512i","midiNote":88,"note":"E6","velocity":1,"duration":"24i"},{"time":"16536i","midiNote":37,"note":"C#2","velocity":1,"duration":"24i"},{"time":"16536i","midiNote":43,"note":"G2","velocity":1,"duration":"24i"},{"time":"16536i","midiNote":49,"note":"C#3","velocity":1,"duration":"24i"},{"time":"16536i","midiNote":76,"note":"E5","velocity":1,"duration":"24i"},{"time":"16536i","midiNote":79,"note":"G5","velocity":1,"duration":"24i"},{"time":"16536i","midiNote":82,"note":"A#5","velocity":1,"duration":"24i"},{"time":"16536i","midiNote":88,"note":"E6","velocity":1,"duration":"24i"},{"time":"16560i","midiNote":37,"note":"C#2","velocity":1,"duration":"24i"},{"time":"16560i","midiNote":43,"note":"G2","velocity":1,"duration":"24i"},{"time":"16560i","midiNote":49,"note":"C#3","velocity":1,"duration":"24i"},{"time":"16560i","midiNote":76,"note":"E5","velocity":1,"duration":"24i"},{"time":"16560i","midiNote":79,"note":"G5","velocity":1,"duration":"24i"},{"time":"16560i","midiNote":82,"note":"A#5","velocity":1,"duration":"24i"},{"time":"16560i","midiNote":88,"note":"E6","velocity":1,"duration":"24i"},{"time":"16584i","midiNote":37,"note":"C#2","velocity":1,"duration":"24i"},{"time":"16584i","midiNote":43,"note":"G2","velocity":1,"duration":"24i"},{"time":"16584i","midiNote":49,"note":"C#3","velocity":1,"duration":"24i"},{"time":"16584i","midiNote":76,"note":"E5","velocity":1,"duration":"24i"},{"time":"16584i","midiNote":79,"note":"G5","velocity":1,"duration":"24i"},{"time":"16584i","midiNote":82,"note":"A#5","velocity":1,"duration":"24i"},{"time":"16584i","midiNote":88,"note":"E6","velocity":1,"duration":"24i"},{"time":"16608i","midiNote":37,"note":"C#2","velocity":1,"duration":"24i"},{"time":"16608i","midiNote":43,"note":"G2","velocity":1,"duration":"24i"},{"time":"16608i","midiNote":49,"note":"C#3","velocity":1,"duration":"24i"},{"time":"16608i","midiNote":76,"note":"E5","velocity":1,"duration":"24i"},{"time":"16608i","midiNote":79,"note":"G5","velocity":1,"duration":"24i"},{"time":"16608i","midiNote":82,"note":"A#5","velocity":1,"duration":"24i"},{"time":"16608i","midiNote":88,"note":"E6","velocity":1,"duration":"24i"},{"time":"16632i","midiNote":37,"note":"C#2","velocity":1,"duration":"24i"},{"time":"16632i","midiNote":43,"note":"G2","velocity":1,"duration":"24i"},{"time":"16632i","midiNote":49,"note":"C#3","velocity":1,"duration":"24i"},{"time":"16632i","midiNote":76,"note":"E5","velocity":1,"duration":"24i"},{"time":"16632i","midiNote":79,"note":"G5","velocity":1,"duration":"24i"},{"time":"16632i","midiNote":82,"note":"A#5","velocity":1,"duration":"24i"},{"time":"16632i","midiNote":88,"note":"E6","velocity":1,"duration":"24i"},{"time":"16656i","midiNote":37,"note":"C#2","velocity":1,"duration":"24i"},{"time":"16656i","midiNote":43,"note":"G2","velocity":1,"duration":"24i"},{"time":"16656i","midiNote":49,"note":"C#3","velocity":1,"duration":"24i"},{"time":"16656i","midiNote":76,"note":"E5","velocity":1,"duration":"24i"},{"time":"16656i","midiNote":79,"note":"G5","velocity":1,"duration":"24i"},{"time":"16656i","midiNote":82,"note":"A#5","velocity":1,"duration":"24i"},{"time":"16656i","midiNote":88,"note":"E6","velocity":1,"duration":"24i"},{"time":"16680i","midiNote":37,"note":"C#2","velocity":1,"duration":"24i"},{"time":"16680i","midiNote":43,"note":"G2","velocity":1,"duration":"24i"},{"time":"16680i","midiNote":49,"note":"C#3","velocity":1,"duration":"24i"},{"time":"16680i","midiNote":76,"note":"E5","velocity":1,"duration":"24i"},{"time":"16680i","midiNote":79,"note":"G5","velocity":1,"duration":"24i"},{"time":"16680i","midiNote":82,"note":"A#5","velocity":1,"duration":"24i"},{"time":"16680i","midiNote":88,"note":"E6","velocity":1,"duration":"24i"},{"time":"16704i","midiNote":37,"note":"C#2","velocity":1,"duration":"24i"},{"time":"16704i","midiNote":43,"note":"G2","velocity":1,"duration":"24i"},{"time":"16704i","midiNote":49,"note":"C#3","velocity":1,"duration":"24i"},{"time":"16704i","midiNote":76,"note":"E5","velocity":1,"duration":"24i"},{"time":"16704i","midiNote":79,"note":"G5","velocity":1,"duration":"24i"},{"time":"16704i","midiNote":82,"note":"A#5","velocity":1,"duration":"24i"},{"time":"16704i","midiNote":88,"note":"E6","velocity":1,"duration":"24i"},{"time":"16728i","midiNote":37,"note":"C#2","velocity":1,"duration":"48i"},{"time":"16728i","midiNote":43,"note":"G2","velocity":1,"duration":"48i"},{"time":"16728i","midiNote":49,"note":"C#3","velocity":1,"duration":"48i"},{"time":"16728i","midiNote":76,"note":"E5","velocity":1,"duration":"48i"},{"time":"16728i","midiNote":79,"note":"G5","velocity":1,"duration":"48i"},{"time":"16728i","midiNote":82,"note":"A#5","velocity":1,"duration":"48i"},{"time":"16728i","midiNote":88,"note":"E6","velocity":1,"duration":"48i"},{"time":"16848i","midiNote":38,"note":"D2","velocity":1,"duration":"24i"},{"time":"16848i","midiNote":50,"note":"D3","velocity":1,"duration":"24i"},{"time":"16848i","midiNote":74,"note":"D5","velocity":1,"duration":"24i"},{"time":"16848i","midiNote":79,"note":"G5","velocity":1,"duration":"24i"},{"time":"16848i","midiNote":82,"note":"A#5","velocity":1,"duration":"24i"},{"time":"16848i","midiNote":86,"note":"D6","velocity":1,"duration":"24i"},{"time":"16872i","midiNote":38,"note":"D2","velocity":1,"duration":"24i"},{"time":"16872i","midiNote":50,"note":"D3","velocity":1,"duration":"24i"},{"time":"16872i","midiNote":74,"note":"D5","velocity":1,"duration":"24i"},{"time":"16872i","midiNote":79,"note":"G5","velocity":1,"duration":"24i"},{"time":"16872i","midiNote":82,"note":"A#5","velocity":1,"duration":"24i"},{"time":"16872i","midiNote":86,"note":"D6","velocity":1,"duration":"24i"},{"time":"16896i","midiNote":38,"note":"D2","velocity":1,"duration":"24i"},{"time":"16896i","midiNote":50,"note":"D3","velocity":1,"duration":"24i"},{"time":"16896i","midiNote":74,"note":"D5","velocity":1,"duration":"24i"},{"time":"16896i","midiNote":79,"note":"G5","velocity":1,"duration":"24i"},{"time":"16896i","midiNote":82,"note":"A#5","velocity":1,"duration":"24i"},{"time":"16896i","midiNote":86,"note":"D6","velocity":1,"duration":"24i"},{"time":"16920i","midiNote":38,"note":"D2","velocity":1,"duration":"48i"},{"time":"16920i","midiNote":50,"note":"D3","velocity":1,"duration":"48i"},{"time":"16920i","midiNote":74,"note":"D5","velocity":1,"duration":"48i"},{"time":"16920i","midiNote":79,"note":"G5","velocity":1,"duration":"48i"},{"time":"16920i","midiNote":82,"note":"A#5","velocity":1,"duration":"48i"},{"time":"16920i","midiNote":86,"note":"D6","velocity":1,"duration":"48i"},{"time":"17064i","midiNote":40,"note":"E2","velocity":1,"duration":"24i"},{"time":"17064i","midiNote":52,"note":"E3","velocity":1,"duration":"24i"},{"time":"17064i","midiNote":73,"note":"C#5","velocity":1,"duration":"24i"},{"time":"17064i","midiNote":79,"note":"G5","velocity":1,"duration":"24i"},{"time":"17064i","midiNote":82,"note":"A#5","velocity":1,"duration":"24i"},{"time":"17064i","midiNote":85,"note":"C#6","velocity":1,"duration":"24i"},{"time":"17088i","midiNote":40,"note":"E2","velocity":1,"duration":"24i"},{"time":"17088i","midiNote":52,"note":"E3","velocity":1,"duration":"24i"},{"time":"17088i","midiNote":73,"note":"C#5","velocity":1,"duration":"24i"},{"time":"17088i","midiNote":79,"note":"G5","velocity":1,"duration":"24i"},{"time":"17088i","midiNote":82,"note":"A#5","velocity":1,"duration":"24i"},{"time":"17088i","midiNote":85,"note":"C#6","velocity":1,"duration":"24i"},{"time":"17112i","midiNote":40,"note":"E2","velocity":1,"duration":"48i"},{"time":"17112i","midiNote":52,"note":"E3","velocity":1,"duration":"48i"},{"time":"17112i","midiNote":73,"note":"C#5","velocity":1,"duration":"48i"},{"time":"17112i","midiNote":79,"note":"G5","velocity":1,"duration":"48i"},{"time":"17112i","midiNote":82,"note":"A#5","velocity":1,"duration":"48i"},{"time":"17112i","midiNote":85,"note":"C#6","velocity":1,"duration":"48i"},{"time":"17160i","midiNote":42,"note":"F#2","velocity":1,"duration":"24i"},{"time":"17160i","midiNote":54,"note":"F#3","velocity":1,"duration":"24i"},{"time":"17160i","midiNote":74,"note":"D5","velocity":1,"duration":"24i"},{"time":"17160i","midiNote":81,"note":"A5","velocity":1,"duration":"24i"},{"time":"17160i","midiNote":86,"note":"D6","velocity":1,"duration":"24i"},{"time":"17184i","midiNote":42,"note":"F#2","velocity":1,"duration":"24i"},{"time":"17184i","midiNote":54,"note":"F#3","velocity":1,"duration":"24i"},{"time":"17184i","midiNote":74,"note":"D5","velocity":1,"duration":"24i"},{"time":"17184i","midiNote":81,"note":"A5","velocity":1,"duration":"24i"},{"time":"17184i","midiNote":86,"note":"D6","velocity":1,"duration":"24i"},{"time":"17208i","midiNote":42,"note":"F#2","velocity":1,"duration":"48i"},{"time":"17208i","midiNote":54,"note":"F#3","velocity":1,"duration":"48i"},{"time":"17208i","midiNote":74,"note":"D5","velocity":1,"duration":"24i"},{"time":"17208i","midiNote":81,"note":"A5","velocity":1,"duration":"24i"},{"time":"17208i","midiNote":86,"note":"D6","velocity":1,"duration":"24i"},{"time":"17232i","midiNote":74,"note":"D5","velocity":1,"duration":"24i"},{"time":"17232i","midiNote":86,"note":"D6","velocity":1,"duration":"24i"},{"time":"17256i","midiNote":74,"note":"D5","velocity":1,"duration":"24i"},{"time":"17256i","midiNote":86,"note":"D6","velocity":1,"duration":"24i"},{"time":"17280i","midiNote":74,"note":"D5","velocity":1,"duration":"24i"},{"time":"17280i","midiNote":86,"note":"D6","velocity":1,"duration":"24i"},{"time":"17304i","midiNote":67,"note":"G4","velocity":1,"duration":"96i"},{"time":"17304i","midiNote":79,"note":"G5","velocity":1,"duration":"96i"},{"time":"17400i","midiNote":69,"note":"A4","velocity":1,"duration":"96i"},{"time":"17400i","midiNote":81,"note":"A5","velocity":1,"duration":"96i"},{"time":"17496i","midiNote":62,"note":"D4","velocity":1,"duration":"336i"},{"time":"17496i","midiNote":74,"note":"D5","velocity":1,"duration":"336i"},{"time":"17544i","midiNote":48,"note":"C3","velocity":1,"duration":"96i"},{"time":"17544i","midiNote":60,"note":"C4","velocity":1,"duration":"24i"},{"time":"17568i","midiNote":60,"note":"C4","velocity":1,"duration":"24i"},{"time":"17592i","midiNote":60,"note":"C4","velocity":1,"duration":"48i"},{"time":"17640i","midiNote":45,"note":"A2","velocity":1,"duration":"48i"},{"time":"17640i","midiNote":57,"note":"A3","velocity":1,"duration":"48i"},{"time":"17640i","midiNote":66,"note":"F#4","velocity":1,"duration":"24i"},{"time":"17664i","midiNote":66,"note":"F#4","velocity":1,"duration":"24i"},{"time":"17688i","midiNote":42,"note":"F#2","velocity":1,"duration":"48i"},{"time":"17688i","midiNote":54,"note":"F#3","velocity":1,"duration":"48i"},{"time":"17688i","midiNote":66,"note":"F#4","velocity":1,"duration":"48i"},{"time":"17736i","midiNote":38,"note":"D2","velocity":1,"duration":"48i"},{"time":"17736i","midiNote":50,"note":"D3","velocity":1,"duration":"48i"},{"time":"17736i","midiNote":72,"note":"C5","velocity":1,"duration":"24i"},{"time":"17760i","midiNote":72,"note":"C5","velocity":1,"duration":"24i"},{"time":"17784i","midiNote":36,"note":"C2","velocity":1,"duration":"48i"},{"time":"17784i","midiNote":48,"note":"C3","velocity":1,"duration":"48i"},{"time":"17784i","midiNote":72,"note":"C5","velocity":1,"duration":"48i"},{"time":"17832i","midiNote":33,"note":"A1","velocity":1,"duration":"48i"},{"time":"17832i","midiNote":45,"note":"A2","velocity":1,"duration":"48i"},{"time":"17832i","midiNote":66,"note":"F#4","velocity":1,"duration":"24i"},{"time":"17832i","midiNote":78,"note":"F#5","velocity":1,"duration":"24i"},{"time":"17856i","midiNote":66,"note":"F#4","velocity":1,"duration":"24i"},{"time":"17856i","midiNote":78,"note":"F#5","velocity":1,"duration":"24i"},{"time":"17880i","midiNote":30,"note":"F#1","velocity":1,"duration":"48i"},{"time":"17880i","midiNote":42,"note":"F#2","velocity":1,"duration":"48i"},{"time":"17880i","midiNote":69,"note":"A4","velocity":1,"duration":"48i"},{"time":"17880i","midiNote":81,"note":"A5","velocity":1,"duration":"48i"},{"time":"17928i","midiNote":26,"note":"D1","velocity":1,"duration":"48i"},{"time":"17928i","midiNote":38,"note":"D2","velocity":1,"duration":"48i"},{"time":"17928i","midiNote":74,"note":"D5","velocity":1,"duration":"24i"},{"time":"17928i","midiNote":78,"note":"F#5","velocity":1,"duration":"24i"},{"time":"17928i","midiNote":81,"note":"A5","velocity":1,"duration":"24i"},{"time":"17928i","midiNote":86,"note":"D6","velocity":1,"duration":"24i"},{"time":"17952i","midiNote":74,"note":"D5","velocity":1,"duration":"24i"},{"time":"17952i","midiNote":78,"note":"F#5","velocity":1,"duration":"24i"},{"time":"17952i","midiNote":81,"note":"A5","velocity":1,"duration":"24i"},{"time":"17952i","midiNote":86,"note":"D6","velocity":1,"duration":"24i"},{"time":"17976i","midiNote":31,"note":"G1","velocity":1,"duration":"24i"},{"time":"17976i","midiNote":43,"note":"G2","velocity":1,"duration":"24i"},{"time":"17976i","midiNote":74,"note":"D5","velocity":1,"duration":"24i"},{"time":"17976i","midiNote":79,"note":"G5","velocity":1,"duration":"24i"},{"time":"17976i","midiNote":83,"note":"B5","velocity":1,"duration":"24i"},{"time":"18000i","midiNote":67,"note":"G4","velocity":1,"duration":"24i"},{"time":"18000i","midiNote":79,"note":"G5","velocity":1,"duration":"24i"},{"time":"18024i","midiNote":67,"note":"G4","velocity":1,"duration":"24i"},{"time":"18024i","midiNote":79,"note":"G5","velocity":1,"duration":"24i"},{"time":"18048i","midiNote":67,"note":"G4","velocity":1,"duration":"24i"},{"time":"18048i","midiNote":79,"note":"G5","velocity":1,"duration":"24i"},{"time":"18072i","midiNote":60,"note":"C4","velocity":1,"duration":"96i"},{"time":"18072i","midiNote":72,"note":"C5","velocity":1,"duration":"96i"},{"time":"18168i","midiNote":62,"note":"D4","velocity":1,"duration":"96i"},{"time":"18168i","midiNote":74,"note":"D5","velocity":1,"duration":"96i"},{"time":"18264i","midiNote":55,"note":"G3","velocity":1,"duration":"48i"},{"time":"18264i","midiNote":67,"note":"G4","velocity":1,"duration":"336i"},{"time":"18312i","midiNote":53,"note":"F3","velocity":1,"duration":"96i"},{"time":"18312i","midiNote":59,"note":"B3","velocity":1,"duration":"24i"},{"time":"18336i","midiNote":59,"note":"B3","velocity":1,"duration":"24i"},{"time":"18360i","midiNote":59,"note":"B3","velocity":1,"duration":"48i"},{"time":"18408i","midiNote":50,"note":"D3","velocity":1,"duration":"48i"},{"time":"18408i","midiNote":62,"note":"D4","velocity":1,"duration":"48i"},{"time":"18408i","midiNote":65,"note":"F4","velocity":1,"duration":"24i"},{"time":"18432i","midiNote":65,"note":"F4","velocity":1,"duration":"24i"},{"time":"18456i","midiNote":47,"note":"B2","velocity":1,"duration":"48i"},{"time":"18456i","midiNote":59,"note":"B3","velocity":1,"duration":"48i"},{"time":"18456i","midiNote":65,"note":"F4","velocity":1,"duration":"48i"},{"time":"18504i","midiNote":43,"note":"G2","velocity":1,"duration":"48i"},{"time":"18504i","midiNote":55,"note":"G3","velocity":1,"duration":"48i"},{"time":"18504i","midiNote":71,"note":"B4","velocity":1,"duration":"24i"},{"time":"18528i","midiNote":71,"note":"B4","velocity":1,"duration":"24i"},{"time":"18552i","midiNote":41,"note":"F2","velocity":1,"duration":"48i"},{"time":"18552i","midiNote":53,"note":"F3","velocity":1,"duration":"48i"},{"time":"18552i","midiNote":71,"note":"B4","velocity":1,"duration":"48i"},{"time":"18600i","midiNote":38,"note":"D2","velocity":1,"duration":"48i"},{"time":"18600i","midiNote":50,"note":"D3","velocity":1,"duration":"48i"},{"time":"18600i","midiNote":71,"note":"B4","velocity":1,"duration":"24i"},{"time":"18600i","midiNote":77,"note":"F5","velocity":1,"duration":"24i"},{"time":"18624i","midiNote":71,"note":"B4","velocity":1,"duration":"24i"},{"time":"18624i","midiNote":77,"note":"F5","velocity":1,"duration":"24i"},{"time":"18648i","midiNote":35,"note":"B1","velocity":1,"duration":"48i"},{"time":"18648i","midiNote":47,"note":"B2","velocity":1,"duration":"48i"},{"time":"18648i","midiNote":74,"note":"D5","velocity":1,"duration":"48i"},{"time":"18648i","midiNote":77,"note":"F5","velocity":1,"duration":"48i"},{"time":"18696i","midiNote":31,"note":"G1","velocity":1,"duration":"48i"},{"time":"18696i","midiNote":43,"note":"G2","velocity":1,"duration":"48i"},{"time":"18696i","midiNote":74,"note":"D5","velocity":1,"duration":"24i"},{"time":"18696i","midiNote":83,"note":"B5","velocity":1,"duration":"24i"},{"time":"18696i","midiNote":86,"note":"D6","velocity":1,"duration":"24i"},{"time":"18720i","midiNote":74,"note":"D5","velocity":1,"duration":"24i"},{"time":"18720i","midiNote":83,"note":"B5","velocity":1,"duration":"24i"},{"time":"18720i","midiNote":86,"note":"D6","velocity":1,"duration":"24i"},{"time":"18744i","midiNote":36,"note":"C2","velocity":1,"duration":"48i"},{"time":"18744i","midiNote":48,"note":"C3","velocity":1,"duration":"48i"},{"time":"18744i","midiNote":76,"note":"E5","velocity":1,"duration":"24i"},{"time":"18744i","midiNote":84,"note":"C6","velocity":1,"duration":"24i"},{"time":"18744i","midiNote":88,"note":"E6","velocity":1,"duration":"24i"},{"time":"18768i","midiNote":72,"note":"C5","velocity":1,"duration":"24i"},{"time":"18768i","midiNote":84,"note":"C6","velocity":1,"duration":"24i"},{"time":"18792i","midiNote":72,"note":"C5","velocity":1,"duration":"24i"},{"time":"18792i","midiNote":84,"note":"C6","velocity":1,"duration":"24i"},{"time":"18816i","midiNote":72,"note":"C5","velocity":1,"duration":"24i"},{"time":"18816i","midiNote":84,"note":"C6","velocity":1,"duration":"24i"},{"time":"18840i","midiNote":56,"note":"G#3","velocity":1,"duration":"96i"},{"time":"18840i","midiNote":60,"note":"C4","velocity":1,"duration":"96i"},{"time":"18840i","midiNote":65,"note":"F4","velocity":1,"duration":"96i"},{"time":"18840i","midiNote":77,"note":"F5","velocity":1,"duration":"96i"},{"time":"18936i","midiNote":58,"note":"A#3","velocity":1,"duration":"96i"},{"time":"18936i","midiNote":61,"note":"C#4","velocity":1,"duration":"96i"},{"time":"18936i","midiNote":67,"note":"G4","velocity":1,"duration":"96i"},{"time":"18936i","midiNote":79,"note":"G5","velocity":1,"duration":"96i"},{"time":"19032i","midiNote":31,"note":"G1","velocity":1,"duration":"96i"},{"time":"19032i","midiNote":36,"note":"C2","velocity":1,"duration":"96i"},{"time":"19032i","midiNote":43,"note":"G2","velocity":1,"duration":"96i"},{"time":"19032i","midiNote":55,"note":"G3","velocity":1,"duration":"96i"},{"time":"19032i","midiNote":58,"note":"A#3","velocity":1,"duration":"96i"},{"time":"19032i","midiNote":60,"note":"C4","velocity":1,"duration":"96i"},{"time":"19032i","midiNote":64,"note":"E4","velocity":1,"duration":"96i"},{"time":"19128i","midiNote":32,"note":"G#1","velocity":1,"duration":"96i"},{"time":"19128i","midiNote":36,"note":"C2","velocity":1,"duration":"96i"},{"time":"19128i","midiNote":44,"note":"G#2","velocity":1,"duration":"96i"},{"time":"19128i","midiNote":56,"note":"G#3","velocity":1,"duration":"96i"},{"time":"19128i","midiNote":60,"note":"C4","velocity":1,"duration":"96i"},{"time":"19128i","midiNote":65,"note":"F4","velocity":1,"duration":"96i"},{"time":"19224i","midiNote":56,"note":"G#3","velocity":1,"duration":"96i"},{"time":"19224i","midiNote":60,"note":"C4","velocity":1,"duration":"96i"},{"time":"19224i","midiNote":65,"note":"F4","velocity":1,"duration":"96i"},{"time":"19224i","midiNote":77,"note":"F5","velocity":1,"duration":"96i"},{"time":"19320i","midiNote":58,"note":"A#3","velocity":1,"duration":"96i"},{"time":"19320i","midiNote":61,"note":"C#4","velocity":1,"duration":"96i"},{"time":"19320i","midiNote":67,"note":"G4","velocity":1,"duration":"96i"},{"time":"19320i","midiNote":79,"note":"G5","velocity":1,"duration":"96i"},{"time":"19416i","midiNote":31,"note":"G1","velocity":1,"duration":"96i"},{"time":"19416i","midiNote":36,"note":"C2","velocity":1,"duration":"96i"},{"time":"19416i","midiNote":43,"note":"G2","velocity":1,"duration":"96i"},{"time":"19416i","midiNote":55,"note":"G3","velocity":1,"duration":"96i"},{"time":"19416i","midiNote":58,"note":"A#3","velocity":1,"duration":"96i"},{"time":"19416i","midiNote":60,"note":"C4","velocity":1,"duration":"96i"},{"time":"19416i","midiNote":64,"note":"E4","velocity":1,"duration":"96i"},{"time":"19512i","midiNote":32,"note":"G#1","velocity":1,"duration":"96i"},{"time":"19512i","midiNote":36,"note":"C2","velocity":1,"duration":"96i"},{"time":"19512i","midiNote":44,"note":"G#2","velocity":1,"duration":"96i"},{"time":"19512i","midiNote":56,"note":"G#3","velocity":1,"duration":"96i"},{"time":"19512i","midiNote":60,"note":"C4","velocity":1,"duration":"96i"},{"time":"19512i","midiNote":65,"note":"F4","velocity":1,"duration":"96i"},{"time":"19608i","midiNote":56,"note":"G#3","velocity":1,"duration":"96i"},{"time":"19608i","midiNote":60,"note":"C4","velocity":1,"duration":"96i"},{"time":"19608i","midiNote":65,"note":"F4","velocity":1,"duration":"96i"},{"time":"19608i","midiNote":77,"note":"F5","velocity":1,"duration":"96i"},{"time":"19704i","midiNote":58,"note":"A#3","velocity":1,"duration":"96i"},{"time":"19704i","midiNote":61,"note":"C#4","velocity":1,"duration":"96i"},{"time":"19704i","midiNote":66,"note":"F#4","velocity":1,"duration":"96i"},{"time":"19704i","midiNote":78,"note":"F#5","velocity":1,"duration":"96i"},{"time":"19800i","midiNote":34,"note":"A#1","velocity":1,"duration":"96i"},{"time":"19800i","midiNote":46,"note":"A#2","velocity":1,"duration":"96i"},{"time":"19800i","midiNote":58,"note":"A#3","velocity":1,"duration":"96i"},{"time":"19800i","midiNote":61,"note":"C#4","velocity":1,"duration":"96i"},{"time":"19800i","midiNote":66,"note":"F#4","velocity":1,"duration":"96i"},{"time":"19896i","midiNote":36,"note":"C2","velocity":1,"duration":"96i"},{"time":"19896i","midiNote":48,"note":"C3","velocity":1,"duration":"96i"},{"time":"19896i","midiNote":57,"note":"A3","velocity":1,"duration":"96i"},{"time":"19896i","midiNote":63,"note":"D#4","velocity":1,"duration":"96i"},{"time":"19896i","midiNote":69,"note":"A4","velocity":1,"duration":"96i"},{"time":"19992i","midiNote":60,"note":"C4","velocity":1,"duration":"96i"},{"time":"19992i","midiNote":63,"note":"D#4","velocity":1,"duration":"96i"},{"time":"19992i","midiNote":65,"note":"F4","velocity":1,"duration":"96i"},{"time":"19992i","midiNote":69,"note":"A4","velocity":1,"duration":"96i"},{"time":"19992i","midiNote":75,"note":"D#5","velocity":1,"duration":"96i"},{"time":"19992i","midiNote":81,"note":"A5","velocity":1,"duration":"96i"},{"time":"20088i","midiNote":61,"note":"C#4","velocity":1,"duration":"96i"},{"time":"20088i","midiNote":65,"note":"F4","velocity":1,"duration":"96i"},{"time":"20088i","midiNote":70,"note":"A#4","velocity":1,"duration":"96i"},{"time":"20088i","midiNote":73,"note":"C#5","velocity":1,"duration":"96i"},{"time":"20088i","midiNote":82,"note":"A#5","velocity":1,"duration":"96i"},{"time":"20184i","midiNote":37,"note":"C#2","velocity":1,"duration":"96i"},{"time":"20184i","midiNote":49,"note":"C#3","velocity":1,"duration":"96i"},{"time":"20184i","midiNote":61,"note":"C#4","velocity":1,"duration":"96i"},{"time":"20184i","midiNote":65,"note":"F4","velocity":1,"duration":"96i"},{"time":"20184i","midiNote":70,"note":"A#4","velocity":1,"duration":"96i"},{"time":"20280i","midiNote":63,"note":"D#4","velocity":1,"duration":"96i"},{"time":"20280i","midiNote":66,"note":"F#4","velocity":1,"duration":"96i"},{"time":"20280i","midiNote":71,"note":"B4","velocity":1,"duration":"96i"},{"time":"20280i","midiNote":83,"note":"B5","velocity":1,"duration":"96i"},{"time":"20376i","midiNote":39,"note":"D#2","velocity":1,"duration":"96i"},{"time":"20376i","midiNote":51,"note":"D#3","velocity":1,"duration":"96i"},{"time":"20376i","midiNote":59,"note":"B3","velocity":1,"duration":"96i"},{"time":"20376i","midiNote":66,"note":"F#4","velocity":1,"duration":"96i"},{"time":"20376i","midiNote":71,"note":"B4","velocity":1,"duration":"96i"},{"time":"20472i","midiNote":65,"note":"F4","velocity":1,"duration":"96i"},{"time":"20472i","midiNote":68,"note":"G#4","velocity":1,"duration":"96i"},{"time":"20472i","midiNote":73,"note":"C#5","velocity":1,"duration":"96i"},{"time":"20472i","midiNote":85,"note":"C#6","velocity":1,"duration":"96i"},{"time":"20568i","midiNote":41,"note":"F2","velocity":1,"duration":"96i"},{"time":"20568i","midiNote":53,"note":"F3","velocity":1,"duration":"96i"},{"time":"20568i","midiNote":61,"note":"C#4","velocity":1,"duration":"96i"},{"time":"20568i","midiNote":68,"note":"G#4","velocity":1,"duration":"96i"},{"time":"20568i","midiNote":73,"note":"C#5","velocity":1,"duration":"96i"},{"time":"20664i","midiNote":66,"note":"F#4","velocity":1,"duration":"96i"},{"time":"20664i","midiNote":69,"note":"A4","velocity":1,"duration":"96i"},{"time":"20664i","midiNote":73,"note":"C#5","velocity":1,"duration":"96i"},{"time":"20664i","midiNote":85,"note":"C#6","velocity":1,"duration":"96i"},{"time":"20760i","midiNote":30,"note":"F#1","velocity":1,"duration":"96i"},{"time":"20760i","midiNote":42,"note":"F#2","velocity":1,"duration":"96i"},{"time":"20760i","midiNote":54,"note":"F#3","velocity":1,"duration":"96i"},{"time":"20760i","midiNote":57,"note":"A3","velocity":1,"duration":"96i"},{"time":"20760i","midiNote":61,"note":"C#4","velocity":1,"duration":"96i"},{"time":"20856i","midiNote":66,"note":"F#4","velocity":1,"duration":"96i"},{"time":"20856i","midiNote":69,"note":"A4","velocity":1,"duration":"96i"},{"time":"20856i","midiNote":73,"note":"C#5","velocity":1,"duration":"96i"},{"time":"20856i","midiNote":81,"note":"A5","velocity":1,"duration":"96i"},{"time":"20856i","midiNote":85,"note":"C#6","velocity":1,"duration":"96i"},{"time":"20952i","midiNote":30,"note":"F#1","velocity":1,"duration":"96i"},{"time":"20952i","midiNote":42,"note":"F#2","velocity":1,"duration":"96i"},{"time":"20952i","midiNote":54,"note":"F#3","velocity":1,"duration":"96i"},{"time":"20952i","midiNote":57,"note":"A3","velocity":1,"duration":"96i"},{"time":"20952i","midiNote":61,"note":"C#4","velocity":1,"duration":"96i"},{"time":"21048i","midiNote":66,"note":"F#4","velocity":1,"duration":"96i"},{"time":"21048i","midiNote":69,"note":"A4","velocity":1,"duration":"96i"},{"time":"21048i","midiNote":73,"note":"C#5","velocity":1,"duration":"96i"},{"time":"21048i","midiNote":81,"note":"A5","velocity":1,"duration":"96i"},{"time":"21048i","midiNote":85,"note":"C#6","velocity":1,"duration":"96i"},{"time":"21144i","midiNote":30,"note":"F#1","velocity":1,"duration":"96i"},{"time":"21144i","midiNote":42,"note":"F#2","velocity":1,"duration":"96i"},{"time":"21144i","midiNote":54,"note":"F#3","velocity":1,"duration":"96i"},{"time":"21144i","midiNote":57,"note":"A3","velocity":1,"duration":"96i"},{"time":"21144i","midiNote":61,"note":"C#4","velocity":1,"duration":"96i"},{"time":"21240i","midiNote":66,"note":"F#4","velocity":1,"duration":"96i"},{"time":"21240i","midiNote":69,"note":"A4","velocity":1,"duration":"96i"},{"time":"21240i","midiNote":74,"note":"D5","velocity":1,"duration":"96i"},{"time":"21240i","midiNote":81,"note":"A5","velocity":1,"duration":"96i"},{"time":"21240i","midiNote":86,"note":"D6","velocity":1,"duration":"96i"},{"time":"21336i","midiNote":30,"note":"F#1","velocity":1,"duration":"96i"},{"time":"21336i","midiNote":42,"note":"F#2","velocity":1,"duration":"96i"},{"time":"21336i","midiNote":50,"note":"D3","velocity":1,"duration":"96i"},{"time":"21336i","midiNote":57,"note":"A3","velocity":1,"duration":"96i"},{"time":"21336i","midiNote":62,"note":"D4","velocity":1,"duration":"96i"},{"time":"21432i","midiNote":66,"note":"F#4","velocity":1,"duration":"96i"},{"time":"21432i","midiNote":69,"note":"A4","velocity":1,"duration":"96i"},{"time":"21432i","midiNote":74,"note":"D5","velocity":1,"duration":"96i"},{"time":"21432i","midiNote":81,"note":"A5","velocity":1,"duration":"96i"},{"time":"21432i","midiNote":86,"note":"D6","velocity":1,"duration":"96i"},{"time":"21528i","midiNote":30,"note":"F#1","velocity":1,"duration":"96i"},{"time":"21528i","midiNote":42,"note":"F#2","velocity":1,"duration":"96i"},{"time":"21528i","midiNote":50,"note":"D3","velocity":1,"duration":"96i"},{"time":"21528i","midiNote":57,"note":"A3","velocity":1,"duration":"96i"},{"time":"21528i","midiNote":62,"note":"D4","velocity":1,"duration":"96i"},{"time":"21624i","midiNote":66,"note":"F#4","velocity":1,"duration":"96i"},{"time":"21624i","midiNote":69,"note":"A4","velocity":1,"duration":"96i"},{"time":"21624i","midiNote":74,"note":"D5","velocity":1,"duration":"96i"},{"time":"21624i","midiNote":81,"note":"A5","velocity":1,"duration":"96i"},{"time":"21624i","midiNote":86,"note":"D6","velocity":1,"duration":"96i"},{"time":"21720i","midiNote":30,"note":"F#1","velocity":1,"duration":"96i"},{"time":"21720i","midiNote":42,"note":"F#2","velocity":1,"duration":"96i"},{"time":"21720i","midiNote":50,"note":"D3","velocity":1,"duration":"96i"},{"time":"21720i","midiNote":57,"note":"A3","velocity":1,"duration":"96i"},{"time":"21720i","midiNote":62,"note":"D4","velocity":1,"duration":"96i"},{"time":"21816i","midiNote":66,"note":"F#4","velocity":1,"duration":"96i"},{"time":"21816i","midiNote":69,"note":"A4","velocity":1,"duration":"96i"},{"time":"21816i","midiNote":74,"note":"D5","velocity":1,"duration":"96i"},{"time":"21816i","midiNote":81,"note":"A5","velocity":1,"duration":"96i"},{"time":"21816i","midiNote":86,"note":"D6","velocity":1,"duration":"96i"},{"time":"21912i","midiNote":42,"note":"F#2","velocity":1,"duration":"24i"},{"time":"21912i","midiNote":50,"note":"D3","velocity":1,"duration":"24i"},{"time":"21912i","midiNote":57,"note":"A3","velocity":1,"duration":"24i"},{"time":"21912i","midiNote":62,"note":"D4","velocity":1,"duration":"24i"},{"time":"21936i","midiNote":38,"note":"D2","velocity":1,"duration":"24i"},{"time":"21936i","midiNote":50,"note":"D3","velocity":1,"duration":"24i"},{"time":"21936i","midiNote":74,"note":"D5","velocity":1,"duration":"24i"},{"time":"21936i","midiNote":86,"note":"D6","velocity":1,"duration":"24i"},{"time":"21960i","midiNote":38,"note":"D2","velocity":1,"duration":"24i"},{"time":"21960i","midiNote":50,"note":"D3","velocity":1,"duration":"24i"},{"time":"21960i","midiNote":74,"note":"D5","velocity":1,"duration":"24i"},{"time":"21960i","midiNote":86,"note":"D6","velocity":1,"duration":"24i"},{"time":"21984i","midiNote":38,"note":"D2","velocity":1,"duration":"24i"},{"time":"21984i","midiNote":50,"note":"D3","velocity":1,"duration":"24i"},{"time":"21984i","midiNote":74,"note":"D5","velocity":1,"duration":"24i"},{"time":"21984i","midiNote":86,"note":"D6","velocity":1,"duration":"24i"},{"time":"22008i","midiNote":35,"note":"B1","velocity":1,"duration":"96i"},{"time":"22008i","midiNote":47,"note":"B2","velocity":1,"duration":"96i"},{"time":"22008i","midiNote":74,"note":"D5","velocity":1,"duration":"96i"},{"time":"22008i","midiNote":83,"note":"B5","velocity":1,"duration":"96i"},{"time":"22008i","midiNote":86,"note":"D6","velocity":1,"duration":"96i"},{"time":"22104i","midiNote":36,"note":"C2","velocity":1,"duration":"96i"},{"time":"22104i","midiNote":48,"note":"C3","velocity":1,"duration":"96i"},{"time":"22104i","midiNote":74,"note":"D5","velocity":1,"duration":"96i"},{"time":"22104i","midiNote":84,"note":"C6","velocity":1,"duration":"96i"},{"time":"22104i","midiNote":86,"note":"D6","velocity":1,"duration":"96i"},{"time":"22200i","midiNote":33,"note":"A1","velocity":1,"duration":"192i"},{"time":"22200i","midiNote":45,"note":"A2","velocity":1,"duration":"192i"},{"time":"22200i","midiNote":74,"note":"D5","velocity":1,"duration":"192i"},{"time":"22200i","midiNote":81,"note":"A5","velocity":1,"duration":"192i"},{"time":"22200i","midiNote":86,"note":"D6","velocity":1,"duration":"192i"},{"time":"22392i","midiNote":59,"note":"B3","velocity":1,"duration":"96i"},{"time":"22392i","midiNote":65,"note":"F4","velocity":1,"duration":"96i"},{"time":"22392i","midiNote":74,"note":"D5","velocity":1,"duration":"96i"},{"time":"22392i","midiNote":80,"note":"G#5","velocity":1,"duration":"96i"},{"time":"22392i","midiNote":86,"note":"D6","velocity":1,"duration":"96i"},{"time":"22488i","midiNote":35,"note":"B1","velocity":1,"duration":"96i"},{"time":"22488i","midiNote":47,"note":"B2","velocity":1,"duration":"96i"},{"time":"22488i","midiNote":53,"note":"F3","velocity":1,"duration":"96i"},{"time":"22488i","midiNote":56,"note":"G#3","velocity":1,"duration":"96i"},{"time":"22488i","midiNote":62,"note":"D4","velocity":1,"duration":"96i"},{"time":"22584i","midiNote":59,"note":"B3","velocity":1,"duration":"96i"},{"time":"22584i","midiNote":65,"note":"F4","velocity":1,"duration":"96i"},{"time":"22584i","midiNote":74,"note":"D5","velocity":1,"duration":"96i"},{"time":"22584i","midiNote":80,"note":"G#5","velocity":1,"duration":"96i"},{"time":"22584i","midiNote":86,"note":"D6","velocity":1,"duration":"96i"},{"time":"22680i","midiNote":35,"note":"B1","velocity":1,"duration":"96i"},{"time":"22680i","midiNote":47,"note":"B2","velocity":1,"duration":"96i"},{"time":"22680i","midiNote":53,"note":"F3","velocity":1,"duration":"96i"},{"time":"22680i","midiNote":56,"note":"G#3","velocity":1,"duration":"96i"},{"time":"22680i","midiNote":62,"note":"D4","velocity":1,"duration":"96i"},{"time":"22776i","midiNote":59,"note":"B3","velocity":1,"duration":"96i"},{"time":"22776i","midiNote":65,"note":"F4","velocity":1,"duration":"96i"},{"time":"22776i","midiNote":74,"note":"D5","velocity":1,"duration":"96i"},{"time":"22776i","midiNote":80,"note":"G#5","velocity":1,"duration":"96i"},{"time":"22776i","midiNote":86,"note":"D6","velocity":1,"duration":"96i"},{"time":"22872i","midiNote":35,"note":"B1","velocity":1,"duration":"96i"},{"time":"22872i","midiNote":47,"note":"B2","velocity":1,"duration":"96i"},{"time":"22872i","midiNote":53,"note":"F3","velocity":1,"duration":"96i"},{"time":"22872i","midiNote":56,"note":"G#3","velocity":1,"duration":"96i"},{"time":"22872i","midiNote":62,"note":"D4","velocity":1,"duration":"96i"},{"time":"22968i","midiNote":59,"note":"B3","velocity":1,"duration":"96i"},{"time":"22968i","midiNote":65,"note":"F4","velocity":1,"duration":"96i"},{"time":"22968i","midiNote":74,"note":"D5","velocity":1,"duration":"96i"},{"time":"22968i","midiNote":80,"note":"G#5","velocity":1,"duration":"96i"},{"time":"22968i","midiNote":86,"note":"D6","velocity":1,"duration":"96i"},{"time":"23064i","midiNote":35,"note":"B1","velocity":1,"duration":"24i"},{"time":"23064i","midiNote":47,"note":"B2","velocity":1,"duration":"24i"},{"time":"23064i","midiNote":53,"note":"F3","velocity":1,"duration":"24i"},{"time":"23064i","midiNote":56,"note":"G#3","velocity":1,"duration":"24i"},{"time":"23064i","midiNote":62,"note":"D4","velocity":1,"duration":"24i"},{"time":"23088i","midiNote":45,"note":"A2","velocity":1,"duration":"24i"},{"time":"23088i","midiNote":57,"note":"A3","velocity":1,"duration":"24i"},{"time":"23112i","midiNote":45,"note":"A2","velocity":1,"duration":"24i"},{"time":"23112i","midiNote":57,"note":"A3","velocity":1,"duration":"24i"},{"time":"23136i","midiNote":45,"note":"A2","velocity":1,"duration":"24i"},{"time":"23136i","midiNote":57,"note":"A3","velocity":1,"duration":"24i"},{"time":"23160i","midiNote":41,"note":"F2","velocity":1,"duration":"120i"},{"time":"23160i","midiNote":53,"note":"F3","velocity":1,"duration":"120i"},{"time":"23184i","midiNote":68,"note":"G#4","velocity":1,"duration":"24i"},{"time":"23184i","midiNote":80,"note":"G#5","velocity":1,"duration":"24i"},{"time":"23208i","midiNote":68,"note":"G#4","velocity":1,"duration":"24i"},{"time":"23208i","midiNote":80,"note":"G#5","velocity":1,"duration":"24i"},{"time":"23232i","midiNote":68,"note":"G#4","velocity":1,"duration":"24i"},{"time":"23232i","midiNote":80,"note":"G#5","velocity":1,"duration":"24i"},{"time":"23256i","midiNote":65,"note":"F4","velocity":1,"duration":"120i"},{"time":"23256i","midiNote":77,"note":"F5","velocity":1,"duration":"120i"},{"time":"23280i","midiNote":44,"note":"G#2","velocity":1,"duration":"24i"},{"time":"23280i","midiNote":56,"note":"G#3","velocity":1,"duration":"24i"},{"time":"23304i","midiNote":44,"note":"G#2","velocity":1,"duration":"24i"},{"time":"23304i","midiNote":56,"note":"G#3","velocity":1,"duration":"24i"},{"time":"23328i","midiNote":44,"note":"G#2","velocity":1,"duration":"24i"},{"time":"23328i","midiNote":56,"note":"G#3","velocity":1,"duration":"24i"},{"time":"23352i","midiNote":41,"note":"F2","velocity":1,"duration":"120i"},{"time":"23352i","midiNote":53,"note":"F3","velocity":1,"duration":"120i"},{"time":"23376i","midiNote":68,"note":"G#4","velocity":1,"duration":"24i"},{"time":"23376i","midiNote":80,"note":"G#5","velocity":1,"duration":"24i"},{"time":"23400i","midiNote":68,"note":"G#4","velocity":1,"duration":"24i"},{"time":"23400i","midiNote":80,"note":"G#5","velocity":1,"duration":"24i"},{"time":"23424i","midiNote":68,"note":"G#4","velocity":1,"duration":"24i"},{"time":"23424i","midiNote":80,"note":"G#5","velocity":1,"duration":"24i"},{"time":"23448i","midiNote":65,"note":"F4","velocity":1,"duration":"120i"},{"time":"23448i","midiNote":77,"note":"F5","velocity":1,"duration":"120i"},{"time":"23472i","midiNote":44,"note":"G#2","velocity":1,"duration":"24i"},{"time":"23472i","midiNote":56,"note":"G#3","velocity":1,"duration":"24i"},{"time":"23496i","midiNote":44,"note":"G#2","velocity":1,"duration":"24i"},{"time":"23496i","midiNote":56,"note":"G#3","velocity":1,"duration":"24i"},{"time":"23520i","midiNote":44,"note":"G#2","velocity":1,"duration":"24i"},{"time":"23520i","midiNote":56,"note":"G#3","velocity":1,"duration":"24i"},{"time":"23544i","midiNote":41,"note":"F2","velocity":1,"duration":"24i"},{"time":"23544i","midiNote":53,"note":"F3","velocity":1,"duration":"24i"},{"time":"23568i","midiNote":44,"note":"G#2","velocity":1,"duration":"24i"},{"time":"23568i","midiNote":56,"note":"G#3","velocity":1,"duration":"24i"},{"time":"23568i","midiNote":68,"note":"G#4","velocity":1,"duration":"24i"},{"time":"23568i","midiNote":80,"note":"G#5","velocity":1,"duration":"24i"},{"time":"23592i","midiNote":44,"note":"G#2","velocity":1,"duration":"24i"},{"time":"23592i","midiNote":56,"note":"G#3","velocity":1,"duration":"24i"},{"time":"23592i","midiNote":68,"note":"G#4","velocity":1,"duration":"24i"},{"time":"23592i","midiNote":80,"note":"G#5","velocity":1,"duration":"24i"},{"time":"23616i","midiNote":44,"note":"G#2","velocity":1,"duration":"24i"},{"time":"23616i","midiNote":56,"note":"G#3","velocity":1,"duration":"24i"},{"time":"23616i","midiNote":68,"note":"G#4","velocity":1,"duration":"24i"},{"time":"23616i","midiNote":80,"note":"G#5","velocity":1,"duration":"24i"},{"time":"23640i","midiNote":41,"note":"F2","velocity":1,"duration":"24i"},{"time":"23640i","midiNote":53,"note":"F3","velocity":1,"duration":"24i"},{"time":"23640i","midiNote":65,"note":"F4","velocity":1,"duration":"24i"},{"time":"23640i","midiNote":77,"note":"F5","velocity":1,"duration":"24i"},{"time":"23664i","midiNote":44,"note":"G#2","velocity":1,"duration":"24i"},{"time":"23664i","midiNote":56,"note":"G#3","velocity":1,"duration":"24i"},{"time":"23664i","midiNote":68,"note":"G#4","velocity":1,"duration":"24i"},{"time":"23664i","midiNote":80,"note":"G#5","velocity":1,"duration":"24i"},{"time":"23688i","midiNote":44,"note":"G#2","velocity":1,"duration":"24i"},{"time":"23688i","midiNote":56,"note":"G#3","velocity":1,"duration":"24i"},{"time":"23688i","midiNote":68,"note":"G#4","velocity":1,"duration":"24i"},{"time":"23688i","midiNote":80,"note":"G#5","velocity":1,"duration":"24i"},{"time":"23712i","midiNote":44,"note":"G#2","velocity":1,"duration":"24i"},{"time":"23712i","midiNote":56,"note":"G#3","velocity":1,"duration":"24i"},{"time":"23712i","midiNote":68,"note":"G#4","velocity":1,"duration":"24i"},{"time":"23712i","midiNote":80,"note":"G#5","velocity":1,"duration":"24i"},{"time":"23736i","midiNote":41,"note":"F2","velocity":1,"duration":"24i"},{"time":"23736i","midiNote":53,"note":"F3","velocity":1,"duration":"24i"},{"time":"23736i","midiNote":65,"note":"F4","velocity":1,"duration":"24i"},{"time":"23736i","midiNote":77,"note":"F5","velocity":1,"duration":"24i"},{"time":"23760i","midiNote":44,"note":"G#2","velocity":1,"duration":"24i"},{"time":"23760i","midiNote":56,"note":"G#3","velocity":1,"duration":"24i"},{"time":"23760i","midiNote":80,"note":"G#5","velocity":1,"duration":"24i"},{"time":"23760i","midiNote":92,"note":"G#6","velocity":1,"duration":"24i"},{"time":"23784i","midiNote":44,"note":"G#2","velocity":1,"duration":"24i"},{"time":"23784i","midiNote":56,"note":"G#3","velocity":1,"duration":"24i"},{"time":"23784i","midiNote":80,"note":"G#5","velocity":1,"duration":"24i"},{"time":"23784i","midiNote":92,"note":"G#6","velocity":1,"duration":"24i"},{"time":"23808i","midiNote":44,"note":"G#2","velocity":1,"duration":"24i"},{"time":"23808i","midiNote":56,"note":"G#3","velocity":1,"duration":"24i"},{"time":"23808i","midiNote":80,"note":"G#5","velocity":1,"duration":"24i"},{"time":"23808i","midiNote":92,"note":"G#6","velocity":1,"duration":"24i"},{"time":"23832i","midiNote":41,"note":"F2","velocity":1,"duration":"24i"},{"time":"23832i","midiNote":53,"note":"F3","velocity":1,"duration":"24i"},{"time":"23832i","midiNote":77,"note":"F5","velocity":1,"duration":"24i"},{"time":"23832i","midiNote":89,"note":"F6","velocity":1,"duration":"24i"},{"time":"23856i","midiNote":43,"note":"G2","velocity":1,"duration":"24i"},{"time":"23856i","midiNote":55,"note":"G3","velocity":1,"duration":"24i"},{"time":"23856i","midiNote":79,"note":"G5","velocity":1,"duration":"24i"},{"time":"23856i","midiNote":91,"note":"G6","velocity":1,"duration":"24i"},{"time":"23880i","midiNote":43,"note":"G2","velocity":1,"duration":"24i"},{"time":"23880i","midiNote":55,"note":"G3","velocity":1,"duration":"24i"},{"time":"23880i","midiNote":79,"note":"G5","velocity":1,"duration":"24i"},{"time":"23880i","midiNote":91,"note":"G6","velocity":1,"duration":"24i"},{"time":"23904i","midiNote":43,"note":"G2","velocity":1,"duration":"24i"},{"time":"23904i","midiNote":55,"note":"G3","velocity":1,"duration":"24i"},{"time":"23904i","midiNote":79,"note":"G5","velocity":1,"duration":"24i"},{"time":"23904i","midiNote":91,"note":"G6","velocity":1,"duration":"24i"},{"time":"23928i","midiNote":39,"note":"D#2","velocity":1,"duration":"96i"},{"time":"23928i","midiNote":43,"note":"G2","velocity":1,"duration":"96i"},{"time":"23928i","midiNote":51,"note":"D#3","velocity":1,"duration":"96i"},{"time":"23928i","midiNote":79,"note":"G5","velocity":1,"duration":"96i"},{"time":"23928i","midiNote":87,"note":"D#6","velocity":1,"duration":"96i"},{"time":"23928i","midiNote":91,"note":"G6","velocity":1,"duration":"96i"},{"time":"24048i","midiNote":41,"note":"F2","velocity":1,"duration":"24i"},{"time":"24048i","midiNote":43,"note":"G2","velocity":1,"duration":"24i"},{"time":"24048i","midiNote":53,"note":"F3","velocity":1,"duration":"24i"},{"time":"24048i","midiNote":79,"note":"G5","velocity":1,"duration":"24i"},{"time":"24048i","midiNote":89,"note":"F6","velocity":1,"duration":"24i"},{"time":"24048i","midiNote":91,"note":"G6","velocity":1,"duration":"24i"},{"time":"24072i","midiNote":41,"note":"F2","velocity":1,"duration":"24i"},{"time":"24072i","midiNote":43,"note":"G2","velocity":1,"duration":"24i"},{"time":"24072i","midiNote":53,"note":"F3","velocity":1,"duration":"24i"},{"time":"24072i","midiNote":79,"note":"G5","velocity":1,"duration":"24i"},{"time":"24072i","midiNote":89,"note":"F6","velocity":1,"duration":"24i"},{"time":"24072i","midiNote":91,"note":"G6","velocity":1,"duration":"24i"},{"time":"24096i","midiNote":41,"note":"F2","velocity":1,"duration":"24i"},{"time":"24096i","midiNote":43,"note":"G2","velocity":1,"duration":"24i"},{"time":"24096i","midiNote":53,"note":"F3","velocity":1,"duration":"24i"},{"time":"24096i","midiNote":79,"note":"G5","velocity":1,"duration":"24i"},{"time":"24096i","midiNote":89,"note":"F6","velocity":1,"duration":"24i"},{"time":"24096i","midiNote":91,"note":"G6","velocity":1,"duration":"24i"},{"time":"24120i","midiNote":38,"note":"D2","velocity":1,"duration":"192i"},{"time":"24120i","midiNote":43,"note":"G2","velocity":1,"duration":"192i"},{"time":"24120i","midiNote":50,"note":"D3","velocity":1,"duration":"192i"},{"time":"24120i","midiNote":79,"note":"G5","velocity":1,"duration":"192i"},{"time":"24120i","midiNote":86,"note":"D6","velocity":1,"duration":"192i"},{"time":"24120i","midiNote":91,"note":"G6","velocity":1,"duration":"192i"},{"time":"24336i","midiNote":67,"note":"G4","velocity":1,"duration":"24i"},{"time":"24360i","midiNote":67,"note":"G4","velocity":1,"duration":"24i"},{"time":"24384i","midiNote":67,"note":"G4","velocity":1,"duration":"24i"},{"time":"24408i","midiNote":36,"note":"C2","velocity":1,"duration":"48i"},{"time":"24408i","midiNote":48,"note":"C3","velocity":1,"duration":"240i"},{"time":"24408i","midiNote":63,"note":"D#4","velocity":1,"duration":"240i"},{"time":"24432i","midiNote":68,"note":"G#4","velocity":1,"duration":"24i"},{"time":"24456i","midiNote":68,"note":"G#4","velocity":1,"duration":"24i"},{"time":"24480i","midiNote":68,"note":"G#4","velocity":1,"duration":"24i"},{"time":"24504i","midiNote":67,"note":"G4","velocity":1,"duration":"24i"},{"time":"24528i","midiNote":75,"note":"D#5","velocity":1,"duration":"24i"},{"time":"24552i","midiNote":75,"note":"D#5","velocity":1,"duration":"24i"},{"time":"24576i","midiNote":75,"note":"D#5","velocity":1,"duration":"24i"},{"time":"24600i","midiNote":72,"note":"C5","velocity":1,"duration":"96i"},{"time":"24648i","midiNote":48,"note":"C3","velocity":1,"duration":"48i"},{"time":"24648i","midiNote":60,"note":"C4","velocity":1,"duration":"48i"},{"time":"24696i","midiNote":51,"note":"D#3","velocity":1,"duration":"48i"},{"time":"24696i","midiNote":63,"note":"D#4","velocity":1,"duration":"48i"},{"time":"24720i","midiNote":67,"note":"G4","velocity":1,"duration":"24i"},{"time":"24744i","midiNote":48,"note":"C3","velocity":1,"duration":"48i"},{"time":"24744i","midiNote":60,"note":"C4","velocity":1,"duration":"48i"},{"time":"24744i","midiNote":67,"note":"G4","velocity":1,"duration":"24i"},{"time":"24768i","midiNote":67,"note":"G4","velocity":1,"duration":"24i"},{"time":"24792i","midiNote":47,"note":"B2","velocity":1,"duration":"240i"},{"time":"24792i","midiNote":59,"note":"B3","velocity":1,"duration":"240i"},{"time":"24792i","midiNote":62,"note":"D4","velocity":1,"duration":"120i"},{"time":"24816i","midiNote":68,"note":"G#4","velocity":1,"duration":"24i"},{"time":"24840i","midiNote":68,"note":"G#4","velocity":1,"duration":"24i"},{"time":"24864i","midiNote":68,"note":"G#4","velocity":1,"duration":"24i"},{"time":"24888i","midiNote":67,"note":"G4","velocity":1,"duration":"24i"},{"time":"24912i","midiNote":77,"note":"F5","velocity":1,"duration":"24i"},{"time":"24936i","midiNote":77,"note":"F5","velocity":1,"duration":"24i"},{"time":"24960i","midiNote":77,"note":"F5","velocity":1,"duration":"24i"},{"time":"24984i","midiNote":65,"note":"F4","velocity":1,"duration":"120i"},{"time":"24984i","midiNote":67,"note":"G4","velocity":1,"duration":"120i"},{"time":"24984i","midiNote":74,"note":"D5","velocity":1,"duration":"120i"},{"time":"25032i","midiNote":43,"note":"G2","velocity":1,"duration":"48i"},{"time":"25032i","midiNote":55,"note":"G3","velocity":1,"duration":"48i"},{"time":"25080i","midiNote":47,"note":"B2","velocity":1,"duration":"48i"},{"time":"25080i","midiNote":59,"note":"B3","velocity":1,"duration":"48i"},{"time":"25104i","midiNote":79,"note":"G5","velocity":1,"duration":"24i"},{"time":"25128i","midiNote":43,"note":"G2","velocity":1,"duration":"48i"},{"time":"25128i","midiNote":55,"note":"G3","velocity":1,"duration":"48i"},{"time":"25128i","midiNote":79,"note":"G5","velocity":1,"duration":"24i"},{"time":"25152i","midiNote":77,"note":"F5","velocity":1,"duration":"24i"},{"time":"25176i","midiNote":48,"note":"C3","velocity":1,"duration":"96i"},{"time":"25176i","midiNote":60,"note":"C4","velocity":1,"duration":"96i"},{"time":"25176i","midiNote":75,"note":"D#5","velocity":1,"duration":"96i"},{"time":"25200i","midiNote":63,"note":"D#4","velocity":1,"duration":"24i"},{"time":"25224i","midiNote":63,"note":"D#4","velocity":1,"duration":"24i"},{"time":"25248i","midiNote":65,"note":"F4","velocity":1,"duration":"24i"},{"time":"25272i","midiNote":47,"note":"B2","velocity":1,"duration":"96i"},{"time":"25272i","midiNote":59,"note":"B3","velocity":1,"duration":"96i"},{"time":"25272i","midiNote":67,"note":"G4","velocity":1,"duration":"96i"},{"time":"25272i","midiNote":74,"note":"D5","velocity":1,"duration":"24i"},{"time":"25296i","midiNote":79,"note":"G5","velocity":1,"duration":"24i"},{"time":"25320i","midiNote":79,"note":"G5","velocity":1,"duration":"24i"},{"time":"25344i","midiNote":77,"note":"F5","velocity":1,"duration":"24i"},{"time":"25368i","midiNote":48,"note":"C3","velocity":1,"duration":"96i"},{"time":"25368i","midiNote":60,"note":"C4","velocity":1,"duration":"96i"},{"time":"25368i","midiNote":72,"note":"C5","velocity":1,"duration":"96i"},{"time":"25368i","midiNote":75,"note":"D#5","velocity":1,"duration":"96i"},{"time":"25392i","midiNote":63,"note":"D#4","velocity":1,"duration":"24i"},{"time":"25416i","midiNote":63,"note":"D#4","velocity":1,"duration":"24i"},{"time":"25440i","midiNote":65,"note":"F4","velocity":1,"duration":"24i"},{"time":"25464i","midiNote":43,"note":"G2","velocity":1,"duration":"48i"},{"time":"25464i","midiNote":55,"note":"G3","velocity":1,"duration":"96i"},{"time":"25464i","midiNote":67,"note":"G4","velocity":1,"duration":"48i"},{"time":"25464i","midiNote":71,"note":"B4","velocity":1,"duration":"48i"},{"time":"25464i","midiNote":74,"note":"D5","velocity":1,"duration":"24i"},{"time":"25488i","midiNote":79,"note":"G5","velocity":1,"duration":"24i"},{"time":"25512i","midiNote":57,"note":"A3","velocity":1,"duration":"24i"},{"time":"25512i","midiNote":72,"note":"C5","velocity":1,"duration":"24i"},{"time":"25512i","midiNote":79,"note":"G5","velocity":1,"duration":"24i"},{"time":"25536i","midiNote":59,"note":"B3","velocity":1,"duration":"24i"},{"time":"25536i","midiNote":74,"note":"D5","velocity":1,"duration":"24i"},{"time":"25536i","midiNote":77,"note":"F5","velocity":1,"duration":"24i"},{"time":"25560i","midiNote":48,"note":"C3","velocity":1,"duration":"48i"},{"time":"25560i","midiNote":60,"note":"C4","velocity":1,"duration":"48i"},{"time":"25560i","midiNote":75,"note":"D#5","velocity":1,"duration":"96i"},{"time":"25656i","midiNote":44,"note":"G#2","velocity":1,"duration":"48i"},{"time":"25656i","midiNote":56,"note":"G#3","velocity":1,"duration":"48i"},{"time":"25656i","midiNote":60,"note":"C4","velocity":1,"duration":"48i"},{"time":"25656i","midiNote":66,"note":"F#4","velocity":1,"duration":"48i"},{"time":"25656i","midiNote":72,"note":"C5","velocity":1,"duration":"96i"},{"time":"25752i","midiNote":43,"note":"G2","velocity":1,"duration":"48i"},{"time":"25752i","midiNote":55,"note":"G3","velocity":1,"duration":"48i"},{"time":"25752i","midiNote":67,"note":"G4","velocity":1,"duration":"48i"},{"time":"25752i","midiNote":71,"note":"B4","velocity":1,"duration":"48i"},{"time":"25752i","midiNote":79,"note":"G5","velocity":1,"duration":"96i"},{"time":"25800i","midiNote":77,"note":"F5","velocity":1,"duration":"48i"},{"time":"25848i","midiNote":75,"note":"D#5","velocity":1,"duration":"48i"},{"time":"25896i","midiNote":74,"note":"D5","velocity":1,"duration":"96i"},{"time":"25992i","midiNote":75,"note":"D#5","velocity":1,"duration":"12i"},{"time":"26004i","midiNote":74,"note":"D5","velocity":1,"duration":"12i"},{"time":"26016i","midiNote":72,"note":"C5","velocity":1,"duration":"12i"},{"time":"26028i","midiNote":74,"note":"D5","velocity":1,"duration":"12i"},{"time":"26040i","midiNote":77,"note":"F5","velocity":1,"duration":"48i"},{"time":"26088i","midiNote":75,"note":"D#5","velocity":1,"duration":"48i"},{"time":"26136i","midiNote":74,"note":"D5","velocity":1,"duration":"48i"},{"time":"26208i","midiNote":68,"note":"G#4","velocity":1,"duration":"24i"},{"time":"26232i","midiNote":68,"note":"G#4","velocity":1,"duration":"24i"},{"time":"26256i","midiNote":68,"note":"G#4","velocity":1,"duration":"24i"},{"time":"26280i","midiNote":65,"note":"F4","velocity":1,"duration":"288i"},{"time":"26304i","midiNote":62,"note":"D4","velocity":1,"duration":"24i"},{"time":"26328i","midiNote":62,"note":"D4","velocity":1,"duration":"24i"},{"time":"26352i","midiNote":62,"note":"D4","velocity":1,"duration":"24i"},{"time":"26376i","midiNote":59,"note":"B3","velocity":1,"duration":"192i"},{"time":"26400i","midiNote":56,"note":"G#3","velocity":1,"duration":"24i"},{"time":"26424i","midiNote":56,"note":"G#3","velocity":1,"duration":"24i"},{"time":"26448i","midiNote":56,"note":"G#3","velocity":1,"duration":"24i"},{"time":"26472i","midiNote":55,"note":"G3","velocity":1,"duration":"96i"},{"time":"26496i","midiNote":31,"note":"G1","velocity":1,"duration":"24i"},{"time":"26496i","midiNote":43,"note":"G2","velocity":1,"duration":"24i"},{"time":"26520i","midiNote":31,"note":"G1","velocity":1,"duration":"24i"},{"time":"26520i","midiNote":43,"note":"G2","velocity":1,"duration":"24i"},{"time":"26544i","midiNote":31,"note":"G1","velocity":1,"duration":"24i"},{"time":"26544i","midiNote":43,"note":"G2","velocity":1,"duration":"24i"},{"time":"26568i","midiNote":48,"note":"C3","velocity":1,"duration":"24i"},{"time":"26568i","midiNote":55,"note":"G3","velocity":1,"duration":"24i"},{"time":"26568i","midiNote":60,"note":"C4","velocity":1,"duration":"24i"},{"time":"26568i","midiNote":63,"note":"D#4","velocity":1,"duration":"24i"},{"time":"26592i","midiNote":56,"note":"G#3","velocity":1,"duration":"24i"},{"time":"26592i","midiNote":68,"note":"G#4","velocity":1,"duration":"24i"},{"time":"26616i","midiNote":56,"note":"G#3","velocity":1,"duration":"24i"},{"time":"26616i","midiNote":68,"note":"G#4","velocity":1,"duration":"24i"},{"time":"26640i","midiNote":56,"note":"G#3","velocity":1,"duration":"24i"},{"time":"26640i","midiNote":68,"note":"G#4","velocity":1,"duration":"24i"},{"time":"26664i","midiNote":53,"note":"F3","velocity":1,"duration":"24i"},{"time":"26664i","midiNote":62,"note":"D4","velocity":1,"duration":"216i"},{"time":"26664i","midiNote":65,"note":"F4","velocity":1,"duration":"216i"},{"time":"26688i","midiNote":50,"note":"D3","velocity":1,"duration":"24i"},{"time":"26712i","midiNote":50,"note":"D3","velocity":1,"duration":"24i"},{"time":"26736i","midiNote":50,"note":"D3","velocity":1,"duration":"24i"},{"time":"26760i","midiNote":47,"note":"B2","velocity":1,"duration":"24i"},{"time":"26760i","midiNote":71,"note":"B4","velocity":1,"duration":"120i"},{"time":"26784i","midiNote":44,"note":"G#2","velocity":1,"duration":"24i"},{"time":"26808i","midiNote":44,"note":"G#2","velocity":1,"duration":"24i"},{"time":"26832i","midiNote":44,"note":"G#2","velocity":1,"duration":"24i"},{"time":"26856i","midiNote":43,"note":"G2","velocity":1,"duration":"24i"},{"time":"26880i","midiNote":55,"note":"G3","velocity":1,"duration":"24i"},{"time":"26880i","midiNote":62,"note":"D4","velocity":1,"duration":"24i"},{"time":"26880i","midiNote":65,"note":"F4","velocity":1,"duration":"24i"},{"time":"26880i","midiNote":71,"note":"B4","velocity":1,"duration":"24i"},{"time":"26904i","midiNote":55,"note":"G3","velocity":1,"duration":"24i"},{"time":"26904i","midiNote":62,"note":"D4","velocity":1,"duration":"24i"},{"time":"26904i","midiNote":65,"note":"F4","velocity":1,"duration":"24i"},{"time":"26904i","midiNote":71,"note":"B4","velocity":1,"duration":"24i"},{"time":"26928i","midiNote":55,"note":"G3","velocity":1,"duration":"24i"},{"time":"26928i","midiNote":62,"note":"D4","velocity":1,"duration":"24i"},{"time":"26928i","midiNote":65,"note":"F4","velocity":1,"duration":"24i"},{"time":"26928i","midiNote":71,"note":"B4","velocity":1,"duration":"24i"},{"time":"26952i","midiNote":48,"note":"C3","velocity":1,"duration":"24i"},{"time":"26952i","midiNote":60,"note":"C4","velocity":1,"duration":"24i"},{"time":"26952i","midiNote":63,"note":"D#4","velocity":1,"duration":"24i"},{"time":"26952i","midiNote":72,"note":"C5","velocity":1,"duration":"24i"},{"time":"26976i","midiNote":48,"note":"C3","velocity":1,"duration":"24i"},{"time":"26976i","midiNote":63,"note":"D#4","velocity":1,"duration":"24i"},{"time":"26976i","midiNote":67,"note":"G4","velocity":1,"duration":"24i"},{"time":"27000i","midiNote":48,"note":"C3","velocity":1,"duration":"24i"},{"time":"27000i","midiNote":63,"note":"D#4","velocity":1,"duration":"24i"},{"time":"27000i","midiNote":72,"note":"C5","velocity":1,"duration":"24i"},{"time":"27024i","midiNote":48,"note":"C3","velocity":1,"duration":"24i"},{"time":"27024i","midiNote":63,"note":"D#4","velocity":1,"duration":"24i"},{"time":"27024i","midiNote":72,"note":"C5","velocity":1,"duration":"24i"},{"time":"27048i","midiNote":48,"note":"C3","velocity":1,"duration":"120i"},{"time":"27048i","midiNote":62,"note":"D4","velocity":1,"duration":"120i"},{"time":"27048i","midiNote":65,"note":"F4","velocity":1,"duration":"120i"},{"time":"27048i","midiNote":72,"note":"C5","velocity":1,"duration":"96i"},{"time":"27072i","midiNote":53,"note":"F3","velocity":1,"duration":"24i"},{"time":"27072i","midiNote":56,"note":"G#3","velocity":1,"duration":"24i"},{"time":"27096i","midiNote":53,"note":"F3","velocity":1,"duration":"24i"},{"time":"27096i","midiNote":56,"note":"G#3","velocity":1,"duration":"24i"},{"time":"27120i","midiNote":53,"note":"F3","velocity":1,"duration":"24i"},{"time":"27120i","midiNote":56,"note":"G#3","velocity":1,"duration":"24i"},{"time":"27144i","midiNote":53,"note":"F3","velocity":1,"duration":"48i"},{"time":"27144i","midiNote":56,"note":"G#3","velocity":1,"duration":"48i"},{"time":"27144i","midiNote":71,"note":"B4","velocity":1,"duration":"24i"},{"time":"27168i","midiNote":48,"note":"C3","velocity":1,"duration":"24i"},{"time":"27168i","midiNote":65,"note":"F4","velocity":1,"duration":"24i"},{"time":"27168i","midiNote":68,"note":"G#4","velocity":1,"duration":"24i"},{"time":"27168i","midiNote":71,"note":"B4","velocity":1,"duration":"24i"},{"time":"27192i","midiNote":48,"note":"C3","velocity":1,"duration":"24i"},{"time":"27192i","midiNote":65,"note":"F4","velocity":1,"duration":"24i"},{"time":"27192i","midiNote":68,"note":"G#4","velocity":1,"duration":"24i"},{"time":"27192i","midiNote":71,"note":"B4","velocity":1,"duration":"24i"},{"time":"27216i","midiNote":48,"note":"C3","velocity":1,"duration":"24i"},{"time":"27216i","midiNote":65,"note":"F4","velocity":1,"duration":"24i"},{"time":"27216i","midiNote":74,"note":"D5","velocity":1,"duration":"24i"},{"time":"27240i","midiNote":48,"note":"C3","velocity":1,"duration":"120i"},{"time":"27240i","midiNote":63,"note":"D#4","velocity":1,"duration":"120i"},{"time":"27240i","midiNote":67,"note":"G4","velocity":1,"duration":"120i"},{"time":"27240i","midiNote":74,"note":"D5","velocity":1,"duration":"96i"},{"time":"27264i","midiNote":51,"note":"D#3","velocity":1,"duration":"24i"},{"time":"27264i","midiNote":55,"note":"G3","velocity":1,"duration":"24i"},{"time":"27288i","midiNote":51,"note":"D#3","velocity":1,"duration":"24i"},{"time":"27288i","midiNote":55,"note":"G3","velocity":1,"duration":"24i"},{"time":"27312i","midiNote":51,"note":"D#3","velocity":1,"duration":"24i"},{"time":"27312i","midiNote":55,"note":"G3","velocity":1,"duration":"24i"},{"time":"27336i","midiNote":51,"note":"D#3","velocity":1,"duration":"48i"},{"time":"27336i","midiNote":55,"note":"G3","velocity":1,"duration":"48i"},{"time":"27336i","midiNote":72,"note":"C5","velocity":1,"duration":"24i"},{"time":"27360i","midiNote":48,"note":"C3","velocity":1,"duration":"24i"},{"time":"27360i","midiNote":63,"note":"D#4","velocity":1,"duration":"24i"},{"time":"27360i","midiNote":67,"note":"G4","velocity":1,"duration":"24i"},{"time":"27360i","midiNote":72,"note":"C5","velocity":1,"duration":"24i"},{"time":"27384i","midiNote":48,"note":"C3","velocity":1,"duration":"24i"},{"time":"27384i","midiNote":63,"note":"D#4","velocity":1,"duration":"24i"},{"time":"27384i","midiNote":67,"note":"G4","velocity":1,"duration":"24i"},{"time":"27384i","midiNote":72,"note":"C5","velocity":1,"duration":"24i"},{"time":"27408i","midiNote":48,"note":"C3","velocity":1,"duration":"24i"},{"time":"27408i","midiNote":75,"note":"D#5","velocity":1,"duration":"24i"},{"time":"27432i","midiNote":48,"note":"C3","velocity":1,"duration":"48i"},{"time":"27432i","midiNote":59,"note":"B3","velocity":1,"duration":"48i"},{"time":"27432i","midiNote":65,"note":"F4","velocity":1,"duration":"24i"},{"time":"27432i","midiNote":68,"note":"G#4","velocity":1,"duration":"24i"},{"time":"27432i","midiNote":75,"note":"D#5","velocity":1,"duration":"24i"},{"time":"27456i","midiNote":74,"note":"D5","velocity":1,"duration":"24i"},{"time":"27480i","midiNote":74,"note":"D5","velocity":1,"duration":"24i"},{"time":"27504i","midiNote":77,"note":"F5","velocity":1,"duration":"24i"},{"time":"27528i","midiNote":48,"note":"C3","velocity":1,"duration":"48i"},{"time":"27528i","midiNote":58,"note":"A#3","velocity":1,"duration":"48i"},{"time":"27528i","midiNote":67,"note":"G4","velocity":1,"duration":"24i"},{"time":"27528i","midiNote":70,"note":"A#4","velocity":1,"duration":"24i"},{"time":"27528i","midiNote":77,"note":"F5","velocity":1,"duration":"24i"},{"time":"27552i","midiNote":76,"note":"E5","velocity":1,"duration":"24i"},{"time":"27576i","midiNote":76,"note":"E5","velocity":1,"duration":"24i"},{"time":"27600i","midiNote":79,"note":"G5","velocity":1,"duration":"24i"},{"time":"27624i","midiNote":48,"note":"C3","velocity":1,"duration":"48i"},{"time":"27624i","midiNote":56,"note":"G#3","velocity":1,"duration":"48i"},{"time":"27624i","midiNote":68,"note":"G#4","velocity":1,"duration":"24i"},{"time":"27624i","midiNote":72,"note":"C5","velocity":1,"duration":"24i"},{"time":"27624i","midiNote":79,"note":"G5","velocity":1,"duration":"24i"},{"time":"27648i","midiNote":77,"note":"F5","velocity":1,"duration":"24i"},{"time":"27672i","midiNote":77,"note":"F5","velocity":1,"duration":"24i"},{"time":"27696i","midiNote":80,"note":"G#5","velocity":1,"duration":"24i"},{"time":"27720i","midiNote":48,"note":"C3","velocity":1,"duration":"48i"},{"time":"27720i","midiNote":55,"note":"G3","velocity":1,"duration":"48i"},{"time":"27720i","midiNote":58,"note":"A#3","velocity":1,"duration":"48i"},{"time":"27720i","midiNote":70,"note":"A#4","velocity":1,"duration":"24i"},{"time":"27720i","midiNote":76,"note":"E5","velocity":1,"duration":"24i"},{"time":"27720i","midiNote":80,"note":"G#5","velocity":1,"duration":"24i"},{"time":"27744i","midiNote":79,"note":"G5","velocity":1,"duration":"24i"},{"time":"27768i","midiNote":79,"note":"G5","velocity":1,"duration":"24i"},{"time":"27792i","midiNote":82,"note":"A#5","velocity":1,"duration":"24i"},{"time":"27816i","midiNote":48,"note":"C3","velocity":1,"duration":"48i"},{"time":"27816i","midiNote":53,"note":"F3","velocity":1,"duration":"48i"},{"time":"27816i","midiNote":56,"note":"G#3","velocity":1,"duration":"48i"},{"time":"27816i","midiNote":72,"note":"C5","velocity":1,"duration":"24i"},{"time":"27816i","midiNote":77,"note":"F5","velocity":1,"duration":"24i"},{"time":"27816i","midiNote":82,"note":"A#5","velocity":1,"duration":"24i"},{"time":"27840i","midiNote":80,"note":"G#5","velocity":1,"duration":"24i"},{"time":"27864i","midiNote":80,"note":"G#5","velocity":1,"duration":"24i"},{"time":"27888i","midiNote":84,"note":"C6","velocity":1,"duration":"24i"},{"time":"27912i","midiNote":48,"note":"C3","velocity":1,"duration":"48i"},{"time":"27912i","midiNote":53,"note":"F3","velocity":1,"duration":"48i"},{"time":"27912i","midiNote":56,"note":"G#3","velocity":1,"duration":"48i"},{"time":"27912i","midiNote":77,"note":"F5","velocity":1,"duration":"24i"},{"time":"27912i","midiNote":80,"note":"G#5","velocity":1,"duration":"24i"},{"time":"27912i","midiNote":84,"note":"C6","velocity":1,"duration":"24i"},{"time":"27936i","midiNote":83,"note":"B5","velocity":1,"duration":"24i"},{"time":"27960i","midiNote":83,"note":"B5","velocity":1,"duration":"24i"},{"time":"27984i","midiNote":86,"note":"D6","velocity":1,"duration":"24i"},{"time":"28008i","midiNote":36,"note":"C2","velocity":1,"duration":"48i"},{"time":"28008i","midiNote":48,"note":"C3","velocity":1,"duration":"48i"},{"time":"28008i","midiNote":75,"note":"D#5","velocity":1,"duration":"24i"},{"time":"28008i","midiNote":79,"note":"G5","velocity":1,"duration":"24i"},{"time":"28008i","midiNote":84,"note":"C6","velocity":1,"duration":"24i"},{"time":"28032i","midiNote":87,"note":"D#6","velocity":1,"duration":"24i"},{"time":"28056i","midiNote":48,"note":"C3","velocity":1,"duration":"24i"},{"time":"28056i","midiNote":51,"note":"D#3","velocity":1,"duration":"24i"},{"time":"28056i","midiNote":55,"note":"G3","velocity":1,"duration":"24i"},{"time":"28056i","midiNote":87,"note":"D#6","velocity":1,"duration":"24i"},{"time":"28080i","midiNote":60,"note":"C4","velocity":1,"duration":"24i"},{"time":"28080i","midiNote":87,"note":"D#6","velocity":1,"duration":"24i"},{"time":"28104i","midiNote":48,"note":"C3","velocity":1,"duration":"24i"},{"time":"28104i","midiNote":51,"note":"D#3","velocity":1,"duration":"24i"},{"time":"28104i","midiNote":55,"note":"G3","velocity":1,"duration":"24i"},{"time":"28104i","midiNote":84,"note":"C6","velocity":1,"duration":"24i"},{"time":"28128i","midiNote":60,"note":"C4","velocity":1,"duration":"24i"},{"time":"28128i","midiNote":79,"note":"G5","velocity":1,"duration":"24i"},{"time":"28152i","midiNote":48,"note":"C3","velocity":1,"duration":"24i"},{"time":"28152i","midiNote":51,"note":"D#3","velocity":1,"duration":"24i"},{"time":"28152i","midiNote":55,"note":"G3","velocity":1,"duration":"24i"},{"time":"28152i","midiNote":79,"note":"G5","velocity":1,"duration":"24i"},{"time":"28176i","midiNote":60,"note":"C4","velocity":1,"duration":"24i"},{"time":"28176i","midiNote":79,"note":"G5","velocity":1,"duration":"24i"},{"time":"28200i","midiNote":48,"note":"C3","velocity":1,"duration":"24i"},{"time":"28200i","midiNote":51,"note":"D#3","velocity":1,"duration":"24i"},{"time":"28200i","midiNote":55,"note":"G3","velocity":1,"duration":"24i"},{"time":"28200i","midiNote":75,"note":"D#5","velocity":1,"duration":"24i"},{"time":"28224i","midiNote":60,"note":"C4","velocity":1,"duration":"24i"},{"time":"28224i","midiNote":72,"note":"C5","velocity":1,"duration":"24i"},{"time":"28248i","midiNote":48,"note":"C3","velocity":1,"duration":"24i"},{"time":"28248i","midiNote":51,"note":"D#3","velocity":1,"duration":"24i"},{"time":"28248i","midiNote":55,"note":"G3","velocity":1,"duration":"24i"},{"time":"28248i","midiNote":67,"note":"G4","velocity":1,"duration":"24i"},{"time":"28272i","midiNote":60,"note":"C4","velocity":1,"duration":"24i"},{"time":"28272i","midiNote":67,"note":"G4","velocity":1,"duration":"24i"},{"time":"28296i","midiNote":48,"note":"C3","velocity":1,"duration":"24i"},{"time":"28296i","midiNote":51,"note":"D#3","velocity":1,"duration":"24i"},{"time":"28296i","midiNote":63,"note":"D#4","velocity":1,"duration":"24i"},{"time":"28320i","midiNote":48,"note":"C3","velocity":1,"duration":"24i"},{"time":"28320i","midiNote":51,"note":"D#3","velocity":1,"duration":"24i"},{"time":"28320i","midiNote":55,"note":"G3","velocity":1,"duration":"24i"},{"time":"28320i","midiNote":60,"note":"C4","velocity":1,"duration":"24i"},{"time":"28344i","midiNote":48,"note":"C3","velocity":1,"duration":"24i"},{"time":"28344i","midiNote":51,"note":"D#3","velocity":1,"duration":"24i"},{"time":"28344i","midiNote":55,"note":"G3","velocity":1,"duration":"24i"},{"time":"28344i","midiNote":60,"note":"C4","velocity":1,"duration":"24i"},{"time":"28368i","midiNote":48,"note":"C3","velocity":1,"duration":"24i"},{"time":"28368i","midiNote":51,"note":"D#3","velocity":1,"duration":"24i"},{"time":"28368i","midiNote":55,"note":"G3","velocity":1,"duration":"24i"},{"time":"28368i","midiNote":60,"note":"C4","velocity":1,"duration":"24i"},{"time":"28392i","midiNote":43,"note":"G2","velocity":1,"duration":"24i"},{"time":"28392i","midiNote":50,"note":"D3","velocity":1,"duration":"24i"},{"time":"28392i","midiNote":53,"note":"F3","velocity":1,"duration":"24i"},{"time":"28392i","midiNote":59,"note":"B3","velocity":1,"duration":"24i"},{"time":"28416i","midiNote":55,"note":"G3","velocity":1,"duration":"24i"},{"time":"28416i","midiNote":89,"note":"F6","velocity":1,"duration":"24i"},{"time":"28440i","midiNote":43,"note":"G2","velocity":1,"duration":"24i"},{"time":"28440i","midiNote":50,"note":"D3","velocity":1,"duration":"24i"},{"time":"28440i","midiNote":53,"note":"F3","velocity":1,"duration":"24i"},{"time":"28440i","midiNote":86,"note":"D6","velocity":1,"duration":"24i"},{"time":"28464i","midiNote":55,"note":"G3","velocity":1,"duration":"24i"},{"time":"28464i","midiNote":86,"note":"D6","velocity":1,"duration":"24i"},{"time":"28488i","midiNote":43,"note":"G2","velocity":1,"duration":"24i"},{"time":"28488i","midiNote":50,"note":"D3","velocity":1,"duration":"24i"},{"time":"28488i","midiNote":53,"note":"F3","velocity":1,"duration":"24i"},{"time":"28488i","midiNote":83,"note":"B5","velocity":1,"duration":"24i"},{"time":"28512i","midiNote":55,"note":"G3","velocity":1,"duration":"24i"},{"time":"28512i","midiNote":79,"note":"G5","velocity":1,"duration":"24i"},{"time":"28536i","midiNote":43,"note":"G2","velocity":1,"duration":"24i"},{"time":"28536i","midiNote":50,"note":"D3","velocity":1,"duration":"24i"},{"time":"28536i","midiNote":53,"note":"F3","velocity":1,"duration":"24i"},{"time":"28536i","midiNote":77,"note":"F5","velocity":1,"duration":"24i"},{"time":"28560i","midiNote":55,"note":"G3","velocity":1,"duration":"24i"},{"time":"28560i","midiNote":77,"note":"F5","velocity":1,"duration":"24i"},{"time":"28584i","midiNote":43,"note":"G2","velocity":1,"duration":"24i"},{"time":"28584i","midiNote":50,"note":"D3","velocity":1,"duration":"24i"},{"time":"28584i","midiNote":53,"note":"F3","velocity":1,"duration":"24i"},{"time":"28584i","midiNote":74,"note":"D5","velocity":1,"duration":"24i"},{"time":"28608i","midiNote":55,"note":"G3","velocity":1,"duration":"24i"},{"time":"28608i","midiNote":71,"note":"B4","velocity":1,"duration":"24i"},{"time":"28632i","midiNote":43,"note":"G2","velocity":1,"duration":"24i"},{"time":"28632i","midiNote":50,"note":"D3","velocity":1,"duration":"24i"},{"time":"28632i","midiNote":53,"note":"F3","velocity":1,"duration":"24i"},{"time":"28632i","midiNote":67,"note":"G4","velocity":1,"duration":"24i"},{"time":"28656i","midiNote":55,"note":"G3","velocity":1,"duration":"24i"},{"time":"28656i","midiNote":65,"note":"F4","velocity":1,"duration":"24i"},{"time":"28680i","midiNote":43,"note":"G2","velocity":1,"duration":"24i"},{"time":"28680i","midiNote":50,"note":"D3","velocity":1,"duration":"24i"},{"time":"28680i","midiNote":53,"note":"F3","velocity":1,"duration":"24i"},{"time":"28680i","midiNote":62,"note":"D4","velocity":1,"duration":"24i"},{"time":"28704i","midiNote":55,"note":"G3","velocity":1,"duration":"24i"},{"time":"28704i","midiNote":59,"note":"B3","velocity":1,"duration":"24i"},{"time":"28728i","midiNote":48,"note":"C3","velocity":1,"duration":"24i"},{"time":"28728i","midiNote":51,"note":"D#3","velocity":1,"duration":"24i"},{"time":"28728i","midiNote":55,"note":"G3","velocity":1,"duration":"24i"},{"time":"28728i","midiNote":60,"note":"C4","velocity":1,"duration":"24i"},{"time":"28752i","midiNote":48,"note":"C3","velocity":1,"duration":"24i"},{"time":"28752i","midiNote":51,"note":"D#3","velocity":1,"duration":"24i"},{"time":"28752i","midiNote":55,"note":"G3","velocity":1,"duration":"24i"},{"time":"28752i","midiNote":60,"note":"C4","velocity":1,"duration":"24i"},{"time":"28776i","midiNote":36,"note":"C2","velocity":1,"duration":"24i"},{"time":"28776i","midiNote":48,"note":"C3","velocity":1,"duration":"24i"},{"time":"28776i","midiNote":57,"note":"A3","velocity":1,"duration":"24i"},{"time":"28776i","midiNote":60,"note":"C4","velocity":1,"duration":"24i"},{"time":"28776i","midiNote":63,"note":"D#4","velocity":1,"duration":"24i"},{"time":"28776i","midiNote":66,"note":"F#4","velocity":1,"duration":"24i"},{"time":"28800i","midiNote":63,"note":"D#4","velocity":1,"duration":"24i"},{"time":"28800i","midiNote":75,"note":"D#5","velocity":1,"duration":"24i"},{"time":"28800i","midiNote":87,"note":"D#6","velocity":1,"duration":"24i"},{"time":"28824i","midiNote":63,"note":"D#4","velocity":1,"duration":"24i"},{"time":"28824i","midiNote":75,"note":"D#5","velocity":1,"duration":"24i"},{"time":"28824i","midiNote":87,"note":"D#6","velocity":1,"duration":"24i"},{"time":"28848i","midiNote":63,"note":"D#4","velocity":1,"duration":"24i"},{"time":"28848i","midiNote":75,"note":"D#5","velocity":1,"duration":"24i"},{"time":"28848i","midiNote":87,"note":"D#6","velocity":1,"duration":"24i"},{"time":"28872i","midiNote":60,"note":"C4","velocity":1,"duration":"24i"},{"time":"28872i","midiNote":72,"note":"C5","velocity":1,"duration":"24i"},{"time":"28872i","midiNote":84,"note":"C6","velocity":1,"duration":"24i"},{"time":"28896i","midiNote":57,"note":"A3","velocity":1,"duration":"24i"},{"time":"28896i","midiNote":69,"note":"A4","velocity":1,"duration":"24i"},{"time":"28896i","midiNote":81,"note":"A5","velocity":1,"duration":"24i"},{"time":"28920i","midiNote":57,"note":"A3","velocity":1,"duration":"24i"},{"time":"28920i","midiNote":69,"note":"A4","velocity":1,"duration":"24i"},{"time":"28920i","midiNote":81,"note":"A5","velocity":1,"duration":"24i"},{"time":"28944i","midiNote":57,"note":"A3","velocity":1,"duration":"24i"},{"time":"28944i","midiNote":69,"note":"A4","velocity":1,"duration":"24i"},{"time":"28944i","midiNote":81,"note":"A5","velocity":1,"duration":"24i"},{"time":"28968i","midiNote":54,"note":"F#3","velocity":1,"duration":"24i"},{"time":"28968i","midiNote":78,"note":"F#5","velocity":1,"duration":"24i"},{"time":"28992i","midiNote":51,"note":"D#3","velocity":1,"duration":"24i"},{"time":"28992i","midiNote":63,"note":"D#4","velocity":1,"duration":"24i"},{"time":"28992i","midiNote":75,"note":"D#5","velocity":1,"duration":"24i"},{"time":"29016i","midiNote":51,"note":"D#3","velocity":1,"duration":"24i"},{"time":"29016i","midiNote":63,"note":"D#4","velocity":1,"duration":"24i"},{"time":"29016i","midiNote":75,"note":"D#5","velocity":1,"duration":"24i"},{"time":"29040i","midiNote":51,"note":"D#3","velocity":1,"duration":"24i"},{"time":"29040i","midiNote":63,"note":"D#4","velocity":1,"duration":"24i"},{"time":"29040i","midiNote":75,"note":"D#5","velocity":1,"duration":"24i"},{"time":"29064i","midiNote":48,"note":"C3","velocity":1,"duration":"24i"},{"time":"29064i","midiNote":72,"note":"C5","velocity":1,"duration":"24i"},{"time":"29088i","midiNote":45,"note":"A2","velocity":1,"duration":"24i"},{"time":"29088i","midiNote":57,"note":"A3","velocity":1,"duration":"24i"},{"time":"29088i","midiNote":69,"note":"A4","velocity":1,"duration":"24i"},{"time":"29112i","midiNote":45,"note":"A2","velocity":1,"duration":"24i"},{"time":"29112i","midiNote":57,"note":"A3","velocity":1,"duration":"24i"},{"time":"29112i","midiNote":69,"note":"A4","velocity":1,"duration":"24i"},{"time":"29136i","midiNote":45,"note":"A2","velocity":1,"duration":"24i"},{"time":"29136i","midiNote":57,"note":"A3","velocity":1,"duration":"24i"},{"time":"29136i","midiNote":69,"note":"A4","velocity":1,"duration":"24i"},{"time":"29160i","midiNote":36,"note":"C2","velocity":1,"duration":"48i"},{"time":"29160i","midiNote":48,"note":"C3","velocity":1,"duration":"48i"},{"time":"29160i","midiNote":57,"note":"A3","velocity":1,"duration":"48i"},{"time":"29160i","midiNote":63,"note":"D#4","velocity":1,"duration":"48i"},{"time":"29160i","midiNote":66,"note":"F#4","velocity":1,"duration":"48i"},{"time":"29352i","midiNote":35,"note":"B1","velocity":1,"duration":"48i"},{"time":"29352i","midiNote":43,"note":"G2","velocity":1,"duration":"48i"},{"time":"29352i","midiNote":47,"note":"B2","velocity":1,"duration":"48i"},{"time":"29352i","midiNote":55,"note":"G3","velocity":1,"duration":"48i"},{"time":"29352i","midiNote":62,"note":"D4","velocity":1,"duration":"48i"},{"time":"29352i","midiNote":67,"note":"G4","velocity":1,"duration":"48i"},{"time":"29472i","midiNote":67,"note":"G4","velocity":1,"duration":"24i"},{"time":"29496i","midiNote":67,"note":"G4","velocity":1,"duration":"24i"},{"time":"29520i","midiNote":67,"note":"G4","velocity":1,"duration":"24i"},{"time":"29544i","midiNote":60,"note":"C4","velocity":1,"duration":"96i"},{"time":"29640i","midiNote":62,"note":"D4","velocity":1,"duration":"96i"},{"time":"29736i","midiNote":55,"note":"G3","velocity":1,"duration":"288i"},{"time":"29832i","midiNote":60,"note":"C4","velocity":1,"duration":"96i"},{"time":"29832i","midiNote":64,"note":"E4","velocity":1,"duration":"96i"},{"time":"29832i","midiNote":67,"note":"G4","velocity":1,"duration":"48i"},{"time":"29880i","midiNote":72,"note":"C5","velocity":1,"duration":"48i"},{"time":"29928i","midiNote":62,"note":"D4","velocity":1,"duration":"96i"},{"time":"29928i","midiNote":65,"note":"F4","velocity":1,"duration":"192i"},{"time":"29928i","midiNote":71,"note":"B4","velocity":1,"duration":"48i"},{"time":"29976i","midiNote":72,"note":"C5","velocity":1,"duration":"48i"},{"time":"30024i","midiNote":55,"note":"G3","velocity":1,"duration":"24i"},{"time":"30024i","midiNote":59,"note":"B3","velocity":1,"duration":"24i"},{"time":"30024i","midiNote":74,"note":"D5","velocity":1,"duration":"48i"},{"time":"30048i","midiNote":31,"note":"G1","velocity":1,"duration":"24i"},{"time":"30048i","midiNote":43,"note":"G2","velocity":1,"duration":"24i"},{"time":"30072i","midiNote":31,"note":"G1","velocity":1,"duration":"24i"},{"time":"30072i","midiNote":43,"note":"G2","velocity":1,"duration":"24i"},{"time":"30072i","midiNote":69,"note":"A4","velocity":1,"duration":"48i"},{"time":"30096i","midiNote":31,"note":"G1","velocity":1,"duration":"24i"},{"time":"30096i","midiNote":43,"note":"G2","velocity":1,"duration":"24i"},{"time":"30120i","midiNote":36,"note":"C2","velocity":1,"duration":"48i"},{"time":"30120i","midiNote":60,"note":"C4","velocity":1,"duration":"96i"},{"time":"30120i","midiNote":64,"note":"E4","velocity":1,"duration":"96i"},{"time":"30120i","midiNote":69,"note":"A4","velocity":1,"duration":"48i"},{"time":"30168i","midiNote":67,"note":"G4","velocity":1,"duration":"48i"},{"time":"30216i","midiNote":55,"note":"G3","velocity":1,"duration":"216i"},{"time":"30216i","midiNote":64,"note":"E4","velocity":1,"duration":"96i"},{"time":"30216i","midiNote":67,"note":"G4","velocity":1,"duration":"96i"},{"time":"30216i","midiNote":72,"note":"C5","velocity":1,"duration":"96i"},{"time":"30216i","midiNote":76,"note":"E5","velocity":1,"duration":"96i"},{"time":"30216i","midiNote":79,"note":"G5","velocity":1,"duration":"48i"},{"time":"30264i","midiNote":84,"note":"C6","velocity":1,"duration":"48i"},{"time":"30312i","midiNote":62,"note":"D4","velocity":1,"duration":"96i"},{"time":"30312i","midiNote":65,"note":"F4","velocity":1,"duration":"96i"},{"time":"30312i","midiNote":74,"note":"D5","velocity":1,"duration":"96i"},{"time":"30312i","midiNote":77,"note":"F5","velocity":1,"duration":"96i"},{"time":"30312i","midiNote":83,"note":"B5","velocity":1,"duration":"48i"},{"time":"30360i","midiNote":84,"note":"C6","velocity":1,"duration":"48i"},{"time":"30408i","midiNote":59,"note":"B3","velocity":1,"duration":"24i"},{"time":"30408i","midiNote":62,"note":"D4","velocity":1,"duration":"24i"},{"time":"30408i","midiNote":77,"note":"F5","velocity":1,"duration":"96i"},{"time":"30408i","midiNote":86,"note":"D6","velocity":1,"duration":"48i"},{"time":"30432i","midiNote":43,"note":"G2","velocity":1,"duration":"24i"},{"time":"30456i","midiNote":43,"note":"G2","velocity":1,"duration":"24i"},{"time":"30456i","midiNote":81,"note":"A5","velocity":1,"duration":"48i"},{"time":"30480i","midiNote":43,"note":"G2","velocity":1,"duration":"24i"},{"time":"30504i","midiNote":36,"note":"C2","velocity":1,"duration":"48i"},{"time":"30504i","midiNote":48,"note":"C3","velocity":1,"duration":"48i"},{"time":"30504i","midiNote":72,"note":"C5","velocity":1,"duration":"96i"},{"time":"30504i","midiNote":76,"note":"E5","velocity":1,"duration":"96i"},{"time":"30504i","midiNote":81,"note":"A5","velocity":1,"duration":"48i"},{"time":"30552i","midiNote":79,"note":"G5","velocity":1,"duration":"48i"},{"time":"30600i","midiNote":55,"note":"G3","velocity":1,"duration":"216i"},{"time":"30600i","midiNote":60,"note":"C4","velocity":1,"duration":"96i"},{"time":"30600i","midiNote":64,"note":"E4","velocity":1,"duration":"96i"},{"time":"30600i","midiNote":67,"note":"G4","velocity":1,"duration":"48i"},{"time":"30648i","midiNote":72,"note":"C5","velocity":1,"duration":"48i"},{"time":"30696i","midiNote":62,"note":"D4","velocity":1,"duration":"96i"},{"time":"30696i","midiNote":65,"note":"F4","velocity":1,"duration":"192i"},{"time":"30696i","midiNote":71,"note":"B4","velocity":1,"duration":"48i"},{"time":"30744i","midiNote":72,"note":"C5","velocity":1,"duration":"48i"},{"time":"30792i","midiNote":59,"note":"B3","velocity":1,"duration":"24i"},{"time":"30792i","midiNote":74,"note":"D5","velocity":1,"duration":"48i"},{"time":"30816i","midiNote":43,"note":"G2","velocity":1,"duration":"24i"},{"time":"30840i","midiNote":43,"note":"G2","velocity":1,"duration":"24i"},{"time":"30840i","midiNote":69,"note":"A4","velocity":1,"duration":"48i"},{"time":"30864i","midiNote":43,"note":"G2","velocity":1,"duration":"24i"},{"time":"30888i","midiNote":36,"note":"C2","velocity":1,"duration":"48i"},{"time":"30888i","midiNote":48,"note":"C3","velocity":1,"duration":"48i"},{"time":"30888i","midiNote":60,"note":"C4","velocity":1,"duration":"96i"},{"time":"30888i","midiNote":64,"note":"E4","velocity":1,"duration":"96i"},{"time":"30888i","midiNote":69,"note":"A4","velocity":1,"duration":"48i"},{"time":"30936i","midiNote":67,"note":"G4","velocity":1,"duration":"48i"},{"time":"30984i","midiNote":55,"note":"G3","velocity":1,"duration":"216i"},{"time":"30984i","midiNote":64,"note":"E4","velocity":1,"duration":"96i"},{"time":"30984i","midiNote":67,"note":"G4","velocity":1,"duration":"96i"},{"time":"30984i","midiNote":72,"note":"C5","velocity":1,"duration":"96i"},{"time":"30984i","midiNote":76,"note":"E5","velocity":1,"duration":"96i"},{"time":"30984i","midiNote":79,"note":"G5","velocity":1,"duration":"48i"},{"time":"31032i","midiNote":84,"note":"C6","velocity":1,"duration":"48i"},{"time":"31080i","midiNote":62,"note":"D4","velocity":1,"duration":"96i"},{"time":"31080i","midiNote":65,"note":"F4","velocity":1,"duration":"96i"},{"time":"31080i","midiNote":74,"note":"D5","velocity":1,"duration":"96i"},{"time":"31080i","midiNote":77,"note":"F5","velocity":1,"duration":"96i"},{"time":"31080i","midiNote":83,"note":"B5","velocity":1,"duration":"48i"},{"time":"31128i","midiNote":84,"note":"C6","velocity":1,"duration":"48i"},{"time":"31176i","midiNote":59,"note":"B3","velocity":1,"duration":"24i"},{"time":"31176i","midiNote":62,"note":"D4","velocity":1,"duration":"24i"},{"time":"31176i","midiNote":77,"note":"F5","velocity":1,"duration":"96i"},{"time":"31176i","midiNote":86,"note":"D6","velocity":1,"duration":"48i"},{"time":"31200i","midiNote":43,"note":"G2","velocity":1,"duration":"24i"},{"time":"31224i","midiNote":43,"note":"G2","velocity":1,"duration":"24i"},{"time":"31224i","midiNote":81,"note":"A5","velocity":1,"duration":"48i"},{"time":"31248i","midiNote":43,"note":"G2","velocity":1,"duration":"24i"},{"time":"31272i","midiNote":36,"note":"C2","velocity":1,"duration":"48i"},{"time":"31272i","midiNote":48,"note":"C3","velocity":1,"duration":"48i"},{"time":"31272i","midiNote":72,"note":"C5","velocity":1,"duration":"96i"},{"time":"31272i","midiNote":76,"note":"E5","velocity":1,"duration":"96i"},{"time":"31272i","midiNote":81,"note":"A5","velocity":1,"duration":"48i"},{"time":"31320i","midiNote":79,"note":"G5","velocity":1,"duration":"48i"},{"time":"31368i","midiNote":55,"note":"G3","velocity":1,"duration":"96i"},{"time":"31368i","midiNote":58,"note":"A#3","velocity":1,"duration":"96i"},{"time":"31368i","midiNote":67,"note":"G4","velocity":1,"duration":"96i"},{"time":"31368i","midiNote":70,"note":"A#4","velocity":1,"duration":"96i"},{"time":"31416i","midiNote":72,"note":"C5","velocity":1,"duration":"48i"},{"time":"31464i","midiNote":52,"note":"E3","velocity":1,"duration":"96i"},{"time":"31464i","midiNote":55,"note":"G3","velocity":1,"duration":"96i"},{"time":"31464i","midiNote":64,"note":"E4","velocity":1,"duration":"96i"},{"time":"31464i","midiNote":67,"note":"G4","velocity":1,"duration":"96i"},{"time":"31464i","midiNote":73,"note":"C#5","velocity":1,"duration":"48i"},{"time":"31512i","midiNote":72,"note":"C5","velocity":1,"duration":"48i"},{"time":"31560i","midiNote":64,"note":"E4","velocity":1,"duration":"96i"},{"time":"31560i","midiNote":67,"note":"G4","velocity":1,"duration":"96i"},{"time":"31560i","midiNote":70,"note":"A#4","velocity":1,"duration":"48i"},{"time":"31584i","midiNote":36,"note":"C2","velocity":1,"duration":"24i"},{"time":"31584i","midiNote":48,"note":"C3","velocity":1,"duration":"24i"},{"time":"31608i","midiNote":36,"note":"C2","velocity":1,"duration":"24i"},{"time":"31608i","midiNote":48,"note":"C3","velocity":1,"duration":"24i"},{"time":"31608i","midiNote":72,"note":"C5","velocity":1,"duration":"48i"},{"time":"31632i","midiNote":36,"note":"C2","velocity":1,"duration":"24i"},{"time":"31632i","midiNote":48,"note":"C3","velocity":1,"duration":"24i"},{"time":"31656i","midiNote":41,"note":"F2","velocity":1,"duration":"48i"},{"time":"31656i","midiNote":53,"note":"F3","velocity":1,"duration":"48i"},{"time":"31656i","midiNote":60,"note":"C4","velocity":1,"duration":"96i"},{"time":"31656i","midiNote":65,"note":"F4","velocity":1,"duration":"96i"},{"time":"31656i","midiNote":70,"note":"A#4","velocity":1,"duration":"48i"},{"time":"31704i","midiNote":69,"note":"A4","velocity":1,"duration":"48i"},{"time":"31752i","midiNote":57,"note":"A3","velocity":1,"duration":"96i"},{"time":"31752i","midiNote":60,"note":"C4","velocity":1,"duration":"96i"},{"time":"31752i","midiNote":65,"note":"F4","velocity":1,"duration":"96i"},{"time":"31752i","midiNote":69,"note":"A4","velocity":1,"duration":"96i"},{"time":"31752i","midiNote":72,"note":"C5","velocity":1,"duration":"48i"},{"time":"31800i","midiNote":74,"note":"D5","velocity":1,"duration":"48i"},{"time":"31848i","midiNote":54,"note":"F#3","velocity":1,"duration":"96i"},{"time":"31848i","midiNote":57,"note":"A3","velocity":1,"duration":"96i"},{"time":"31848i","midiNote":66,"note":"F#4","velocity":1,"duration":"96i"},{"time":"31848i","midiNote":69,"note":"A4","velocity":1,"duration":"96i"},{"time":"31848i","midiNote":75,"note":"D#5","velocity":1,"duration":"48i"},{"time":"31896i","midiNote":74,"note":"D5","velocity":1,"duration":"48i"},{"time":"31944i","midiNote":66,"note":"F#4","velocity":1,"duration":"96i"},{"time":"31944i","midiNote":69,"note":"A4","velocity":1,"duration":"96i"},{"time":"31944i","midiNote":72,"note":"C5","velocity":1,"duration":"48i"},{"time":"31968i","midiNote":38,"note":"D2","velocity":1,"duration":"24i"},{"time":"31968i","midiNote":50,"note":"D3","velocity":1,"duration":"24i"},{"time":"31992i","midiNote":38,"note":"D2","velocity":1,"duration":"24i"},{"time":"31992i","midiNote":50,"note":"D3","velocity":1,"duration":"24i"},{"time":"31992i","midiNote":74,"note":"D5","velocity":1,"duration":"48i"},{"time":"32016i","midiNote":38,"note":"D2","velocity":1,"duration":"24i"},{"time":"32016i","midiNote":50,"note":"D3","velocity":1,"duration":"24i"},{"time":"32040i","midiNote":43,"note":"G2","velocity":1,"duration":"48i"},{"time":"32040i","midiNote":55,"note":"G3","velocity":1,"duration":"48i"},{"time":"32040i","midiNote":62,"note":"D4","velocity":1,"duration":"96i"},{"time":"32040i","midiNote":67,"note":"G4","velocity":1,"duration":"96i"},{"time":"32040i","midiNote":72,"note":"C5","velocity":1,"duration":"48i"},{"time":"32088i","midiNote":71,"note":"B4","velocity":1,"duration":"48i"},{"time":"32136i","midiNote":56,"note":"G#3","velocity":1,"duration":"120i"},{"time":"32136i","midiNote":65,"note":"F4","velocity":1,"duration":"48i"},{"time":"32136i","midiNote":77,"note":"F5","velocity":1,"duration":"48i"},{"time":"32184i","midiNote":67,"note":"G4","velocity":1,"duration":"48i"},{"time":"32184i","midiNote":79,"note":"G5","velocity":1,"duration":"48i"},{"time":"32232i","midiNote":68,"note":"G#4","velocity":1,"duration":"48i"},{"time":"32232i","midiNote":80,"note":"G#5","velocity":1,"duration":"48i"},{"time":"32256i","midiNote":44,"note":"G#2","velocity":1,"duration":"24i"},{"time":"32256i","midiNote":56,"note":"G#3","velocity":1,"duration":"24i"},{"time":"32280i","midiNote":44,"note":"G#2","velocity":1,"duration":"24i"},{"time":"32280i","midiNote":56,"note":"G#3","velocity":1,"duration":"24i"},{"time":"32280i","midiNote":67,"note":"G4","velocity":1,"duration":"48i"},{"time":"32280i","midiNote":79,"note":"G5","velocity":1,"duration":"48i"},{"time":"32304i","midiNote":44,"note":"G#2","velocity":1,"duration":"24i"},{"time":"32304i","midiNote":56,"note":"G#3","velocity":1,"duration":"24i"},{"time":"32328i","midiNote":44,"note":"G#2","velocity":1,"duration":"48i"},{"time":"32328i","midiNote":56,"note":"G#3","velocity":1,"duration":"48i"},{"time":"32328i","midiNote":65,"note":"F4","velocity":1,"duration":"48i"},{"time":"32328i","midiNote":77,"note":"F5","velocity":1,"duration":"48i"},{"time":"32376i","midiNote":67,"note":"G4","velocity":1,"duration":"48i"},{"time":"32376i","midiNote":79,"note":"G5","velocity":1,"duration":"48i"},{"time":"32424i","midiNote":68,"note":"G#4","velocity":1,"duration":"48i"},{"time":"32424i","midiNote":80,"note":"G#5","velocity":1,"duration":"48i"},{"time":"32448i","midiNote":47,"note":"B2","velocity":1,"duration":"24i"},{"time":"32448i","midiNote":59,"note":"B3","velocity":1,"duration":"24i"},{"time":"32472i","midiNote":47,"note":"B2","velocity":1,"duration":"24i"},{"time":"32472i","midiNote":59,"note":"B3","velocity":1,"duration":"24i"},{"time":"32472i","midiNote":67,"note":"G4","velocity":1,"duration":"48i"},{"time":"32472i","midiNote":79,"note":"G5","velocity":1,"duration":"48i"},{"time":"32496i","midiNote":47,"note":"B2","velocity":1,"duration":"24i"},{"time":"32496i","midiNote":59,"note":"B3","velocity":1,"duration":"24i"},{"time":"32520i","midiNote":47,"note":"B2","velocity":1,"duration":"48i"},{"time":"32520i","midiNote":59,"note":"B3","velocity":1,"duration":"48i"},{"time":"32520i","midiNote":65,"note":"F4","velocity":1,"duration":"48i"},{"time":"32520i","midiNote":77,"note":"F5","velocity":1,"duration":"48i"},{"time":"32568i","midiNote":67,"note":"G4","velocity":1,"duration":"48i"},{"time":"32568i","midiNote":79,"note":"G5","velocity":1,"duration":"48i"},{"time":"32616i","midiNote":68,"note":"G#4","velocity":1,"duration":"48i"},{"time":"32616i","midiNote":80,"note":"G#5","velocity":1,"duration":"48i"},{"time":"32640i","midiNote":50,"note":"D3","velocity":1,"duration":"24i"},{"time":"32640i","midiNote":62,"note":"D4","velocity":1,"duration":"24i"},{"time":"32664i","midiNote":50,"note":"D3","velocity":1,"duration":"24i"},{"time":"32664i","midiNote":62,"note":"D4","velocity":1,"duration":"24i"},{"time":"32664i","midiNote":67,"note":"G4","velocity":1,"duration":"48i"},{"time":"32664i","midiNote":79,"note":"G5","velocity":1,"duration":"48i"},{"time":"32688i","midiNote":50,"note":"D3","velocity":1,"duration":"24i"},{"time":"32688i","midiNote":62,"note":"D4","velocity":1,"duration":"24i"},{"time":"32712i","midiNote":50,"note":"D3","velocity":1,"duration":"48i"},{"time":"32712i","midiNote":62,"note":"D4","velocity":1,"duration":"48i"},{"time":"32712i","midiNote":65,"note":"F4","velocity":1,"duration":"48i"},{"time":"32712i","midiNote":77,"note":"F5","velocity":1,"duration":"48i"},{"time":"32760i","midiNote":67,"note":"G4","velocity":1,"duration":"48i"},{"time":"32760i","midiNote":79,"note":"G5","velocity":1,"duration":"48i"},{"time":"32808i","midiNote":68,"note":"G#4","velocity":1,"duration":"48i"},{"time":"32808i","midiNote":80,"note":"G#5","velocity":1,"duration":"48i"},{"time":"32832i","midiNote":50,"note":"D3","velocity":1,"duration":"24i"},{"time":"32832i","midiNote":62,"note":"D4","velocity":1,"duration":"24i"},{"time":"32856i","midiNote":50,"note":"D3","velocity":1,"duration":"24i"},{"time":"32856i","midiNote":62,"note":"D4","velocity":1,"duration":"24i"},{"time":"32856i","midiNote":67,"note":"G4","velocity":1,"duration":"48i"},{"time":"32856i","midiNote":79,"note":"G5","velocity":1,"duration":"48i"},{"time":"32880i","midiNote":50,"note":"D3","velocity":1,"duration":"24i"},{"time":"32880i","midiNote":62,"note":"D4","velocity":1,"duration":"24i"},{"time":"32904i","midiNote":50,"note":"D3","velocity":1,"duration":"48i"},{"time":"32904i","midiNote":62,"note":"D4","velocity":1,"duration":"48i"},{"time":"32904i","midiNote":66,"note":"F#4","velocity":1,"duration":"48i"},{"time":"32904i","midiNote":78,"note":"F#5","velocity":1,"duration":"48i"},{"time":"32952i","midiNote":67,"note":"G4","velocity":1,"duration":"48i"},{"time":"32952i","midiNote":79,"note":"G5","velocity":1,"duration":"48i"},{"time":"33000i","midiNote":69,"note":"A4","velocity":1,"duration":"48i"},{"time":"33000i","midiNote":81,"note":"A5","velocity":1,"duration":"48i"},{"time":"33024i","midiNote":50,"note":"D3","velocity":1,"duration":"24i"},{"time":"33024i","midiNote":62,"note":"D4","velocity":1,"duration":"24i"},{"time":"33048i","midiNote":50,"note":"D3","velocity":1,"duration":"24i"},{"time":"33048i","midiNote":62,"note":"D4","velocity":1,"duration":"24i"},{"time":"33048i","midiNote":67,"note":"G4","velocity":1,"duration":"48i"},{"time":"33048i","midiNote":79,"note":"G5","velocity":1,"duration":"48i"},{"time":"33072i","midiNote":50,"note":"D3","velocity":1,"duration":"24i"},{"time":"33072i","midiNote":62,"note":"D4","velocity":1,"duration":"24i"},{"time":"33096i","midiNote":50,"note":"D3","velocity":1,"duration":"48i"},{"time":"33096i","midiNote":62,"note":"D4","velocity":1,"duration":"48i"},{"time":"33096i","midiNote":66,"note":"F#4","velocity":1,"duration":"48i"},{"time":"33096i","midiNote":78,"note":"F#5","velocity":1,"duration":"48i"},{"time":"33144i","midiNote":67,"note":"G4","velocity":1,"duration":"48i"},{"time":"33144i","midiNote":79,"note":"G5","velocity":1,"duration":"48i"},{"time":"33192i","midiNote":69,"note":"A4","velocity":1,"duration":"48i"},{"time":"33192i","midiNote":81,"note":"A5","velocity":1,"duration":"48i"},{"time":"33240i","midiNote":50,"note":"D3","velocity":1,"duration":"48i"},{"time":"33240i","midiNote":53,"note":"F3","velocity":1,"duration":"48i"},{"time":"33240i","midiNote":62,"note":"D4","velocity":1,"duration":"48i"},{"time":"33240i","midiNote":67,"note":"G4","velocity":1,"duration":"48i"},{"time":"33240i","midiNote":79,"note":"G5","velocity":1,"duration":"48i"},{"time":"33288i","midiNote":66,"note":"F#4","velocity":1,"duration":"48i"},{"time":"33288i","midiNote":78,"note":"F#5","velocity":1,"duration":"48i"},{"time":"33336i","midiNote":50,"note":"D3","velocity":1,"duration":"48i"},{"time":"33336i","midiNote":53,"note":"F3","velocity":1,"duration":"48i"},{"time":"33336i","midiNote":62,"note":"D4","velocity":1,"duration":"48i"},{"time":"33336i","midiNote":67,"note":"G4","velocity":1,"duration":"48i"},{"time":"33336i","midiNote":79,"note":"G5","velocity":1,"duration":"48i"},{"time":"33384i","midiNote":66,"note":"F#4","velocity":1,"duration":"48i"},{"time":"33384i","midiNote":78,"note":"F#5","velocity":1,"duration":"48i"},{"time":"33432i","midiNote":50,"note":"D3","velocity":1,"duration":"48i"},{"time":"33432i","midiNote":53,"note":"F3","velocity":1,"duration":"48i"},{"time":"33432i","midiNote":62,"note":"D4","velocity":1,"duration":"48i"},{"time":"33432i","midiNote":67,"note":"G4","velocity":1,"duration":"48i"},{"time":"33432i","midiNote":79,"note":"G5","velocity":1,"duration":"48i"},{"time":"33480i","midiNote":66,"note":"F#4","velocity":1,"duration":"48i"},{"time":"33480i","midiNote":78,"note":"F#5","velocity":1,"duration":"48i"},{"time":"33528i","midiNote":50,"note":"D3","velocity":1,"duration":"48i"},{"time":"33528i","midiNote":53,"note":"F3","velocity":1,"duration":"48i"},{"time":"33528i","midiNote":62,"note":"D4","velocity":1,"duration":"48i"},{"time":"33528i","midiNote":67,"note":"G4","velocity":1,"duration":"48i"},{"time":"33528i","midiNote":79,"note":"G5","velocity":1,"duration":"48i"},{"time":"33576i","midiNote":38,"note":"D2","velocity":1,"duration":"144i"},{"time":"33576i","midiNote":43,"note":"G2","velocity":1,"duration":"144i"},{"time":"33576i","midiNote":50,"note":"D3","velocity":1,"duration":"144i"},{"time":"33576i","midiNote":71,"note":"B4","velocity":1,"duration":"120i"},{"time":"33576i","midiNote":77,"note":"F5","velocity":1,"duration":"120i"},{"time":"33576i","midiNote":79,"note":"G5","velocity":1,"duration":"120i"},{"time":"33696i","midiNote":81,"note":"A5","velocity":1,"duration":"24i"},{"time":"33720i","midiNote":35,"note":"B1","velocity":1,"duration":"48i"},{"time":"33720i","midiNote":43,"note":"G2","velocity":1,"duration":"48i"},{"time":"33720i","midiNote":47,"note":"B2","velocity":1,"duration":"48i"},{"time":"33720i","midiNote":79,"note":"G5","velocity":1,"duration":"24i"},{"time":"33744i","midiNote":77,"note":"F5","velocity":1,"duration":"24i"},{"time":"33768i","midiNote":36,"note":"C2","velocity":1,"duration":"48i"},{"time":"33768i","midiNote":43,"note":"G2","velocity":1,"duration":"48i"},{"time":"33768i","midiNote":48,"note":"C3","velocity":1,"duration":"48i"},{"time":"33768i","midiNote":67,"note":"G4","velocity":1,"duration":"24i"},{"time":"33768i","midiNote":72,"note":"C5","velocity":1,"duration":"24i"},{"time":"33768i","midiNote":77,"note":"F5","velocity":1,"duration":"24i"},{"time":"33792i","midiNote":76,"note":"E5","velocity":1,"duration":"24i"},{"time":"33816i","midiNote":74,"note":"D5","velocity":1,"duration":"24i"},{"time":"33840i","midiNote":72,"note":"C5","velocity":1,"duration":"24i"},{"time":"33864i","midiNote":38,"note":"D2","velocity":1,"duration":"48i"},{"time":"33864i","midiNote":41,"note":"F2","velocity":1,"duration":"48i"},{"time":"33864i","midiNote":50,"note":"D3","velocity":1,"duration":"48i"},{"time":"33864i","midiNote":65,"note":"F4","velocity":1,"duration":"24i"},{"time":"33864i","midiNote":67,"note":"G4","velocity":1,"duration":"24i"},{"time":"33864i","midiNote":72,"note":"C5","velocity":1,"duration":"24i"},{"time":"33888i","midiNote":71,"note":"B4","velocity":1,"duration":"24i"},{"time":"33912i","midiNote":69,"note":"A4","velocity":1,"duration":"24i"},{"time":"33936i","midiNote":71,"note":"B4","velocity":1,"duration":"24i"},{"time":"33960i","midiNote":40,"note":"E2","velocity":1,"duration":"48i"},{"time":"33960i","midiNote":48,"note":"C3","velocity":1,"duration":"48i"},{"time":"33960i","midiNote":52,"note":"E3","velocity":1,"duration":"48i"},{"time":"33960i","midiNote":64,"note":"E4","velocity":1,"duration":"24i"},{"time":"33960i","midiNote":67,"note":"G4","velocity":1,"duration":"24i"},{"time":"33960i","midiNote":74,"note":"D5","velocity":1,"duration":"24i"},{"time":"33984i","midiNote":72,"note":"C5","velocity":1,"duration":"24i"},{"time":"34008i","midiNote":67,"note":"G4","velocity":1,"duration":"24i"},{"time":"34032i","midiNote":64,"note":"E4","velocity":1,"duration":"24i"},{"time":"34056i","midiNote":41,"note":"F2","velocity":1,"duration":"48i"},{"time":"34056i","midiNote":48,"note":"C3","velocity":1,"duration":"48i"},{"time":"34056i","midiNote":50,"note":"D3","velocity":1,"duration":"48i"},{"time":"34056i","midiNote":53,"note":"F3","velocity":1,"duration":"48i"},{"time":"34056i","midiNote":62,"note":"D4","velocity":1,"duration":"24i"},{"time":"34056i","midiNote":71,"note":"B4","velocity":1,"duration":"24i"},{"time":"34080i","midiNote":69,"note":"A4","velocity":1,"duration":"24i"},{"time":"34104i","midiNote":65,"note":"F4","velocity":1,"duration":"24i"},{"time":"34128i","midiNote":62,"note":"D4","velocity":1,"duration":"24i"},{"time":"34152i","midiNote":43,"note":"G2","velocity":1,"duration":"48i"},{"time":"34152i","midiNote":48,"note":"C3","velocity":1,"duration":"48i"},{"time":"34152i","midiNote":52,"note":"E3","velocity":1,"duration":"48i"},{"time":"34152i","midiNote":55,"note":"G3","velocity":1,"duration":"48i"},{"time":"34152i","midiNote":60,"note":"C4","velocity":1,"duration":"24i"},{"time":"34152i","midiNote":69,"note":"A4","velocity":1,"duration":"24i"},{"time":"34176i","midiNote":67,"note":"G4","velocity":1,"duration":"24i"},{"time":"34200i","midiNote":64,"note":"E4","velocity":1,"duration":"24i"},{"time":"34224i","midiNote":60,"note":"C4","velocity":1,"duration":"24i"},{"time":"34248i","midiNote":43,"note":"G2","velocity":1,"duration":"48i"},{"time":"34248i","midiNote":47,"note":"B2","velocity":1,"duration":"48i"},{"time":"34248i","midiNote":50,"note":"D3","velocity":1,"duration":"48i"},{"time":"34248i","midiNote":55,"note":"G3","velocity":1,"duration":"48i"},{"time":"34272i","midiNote":78,"note":"F#5","velocity":1,"duration":"24i"},{"time":"34296i","midiNote":79,"note":"G5","velocity":1,"duration":"24i"},{"time":"34320i","midiNote":78,"note":"F#5","velocity":1,"duration":"24i"},{"time":"34344i","midiNote":35,"note":"B1","velocity":1,"duration":"48i"},{"time":"34344i","midiNote":47,"note":"B2","velocity":1,"duration":"48i"},{"time":"34344i","midiNote":79,"note":"G5","velocity":1,"duration":"24i"},{"time":"34368i","midiNote":78,"note":"F#5","velocity":1,"duration":"24i"},{"time":"34392i","midiNote":38,"note":"D2","velocity":1,"duration":"48i"},{"time":"34392i","midiNote":50,"note":"D3","velocity":1,"duration":"48i"},{"time":"34392i","midiNote":79,"note":"G5","velocity":1,"duration":"24i"},{"time":"34416i","midiNote":78,"note":"F#5","velocity":1,"duration":"24i"},{"time":"34440i","midiNote":35,"note":"B1","velocity":1,"duration":"48i"},{"time":"34440i","midiNote":47,"note":"B2","velocity":1,"duration":"48i"},{"time":"34440i","midiNote":79,"note":"G5","velocity":1,"duration":"24i"},{"time":"34464i","midiNote":81,"note":"A5","velocity":1,"duration":"24i"},{"time":"34488i","midiNote":38,"note":"D2","velocity":1,"duration":"48i"},{"time":"34488i","midiNote":50,"note":"D3","velocity":1,"duration":"48i"},{"time":"34488i","midiNote":79,"note":"G5","velocity":1,"duration":"24i"},{"time":"34512i","midiNote":77,"note":"F5","velocity":1,"duration":"24i"},{"time":"34536i","midiNote":36,"note":"C2","velocity":1,"duration":"48i"},{"time":"34536i","midiNote":48,"note":"C3","velocity":1,"duration":"48i"},{"time":"34536i","midiNote":67,"note":"G4","velocity":1,"duration":"24i"},{"time":"34536i","midiNote":72,"note":"C5","velocity":1,"duration":"24i"},{"time":"34536i","midiNote":77,"note":"F5","velocity":1,"duration":"24i"},{"time":"34560i","midiNote":76,"note":"E5","velocity":1,"duration":"24i"},{"time":"34584i","midiNote":40,"note":"E2","velocity":1,"duration":"48i"},{"time":"34584i","midiNote":52,"note":"E3","velocity":1,"duration":"48i"},{"time":"34584i","midiNote":74,"note":"D5","velocity":1,"duration":"24i"},{"time":"34608i","midiNote":72,"note":"C5","velocity":1,"duration":"24i"},{"time":"34632i","midiNote":38,"note":"D2","velocity":1,"duration":"48i"},{"time":"34632i","midiNote":50,"note":"D3","velocity":1,"duration":"48i"},{"time":"34632i","midiNote":65,"note":"F4","velocity":1,"duration":"48i"},{"time":"34632i","midiNote":67,"note":"G4","velocity":1,"duration":"48i"},{"time":"34632i","midiNote":72,"note":"C5","velocity":1,"duration":"24i"},{"time":"34656i","midiNote":71,"note":"B4","velocity":1,"duration":"24i"},{"time":"34680i","midiNote":41,"note":"F2","velocity":1,"duration":"48i"},{"time":"34680i","midiNote":53,"note":"F3","velocity":1,"duration":"48i"},{"time":"34680i","midiNote":69,"note":"A4","velocity":1,"duration":"24i"},{"time":"34704i","midiNote":71,"note":"B4","velocity":1,"duration":"24i"},{"time":"34728i","midiNote":40,"note":"E2","velocity":1,"duration":"48i"},{"time":"34728i","midiNote":52,"note":"E3","velocity":1,"duration":"48i"},{"time":"34728i","midiNote":67,"note":"G4","velocity":1,"duration":"48i"},{"time":"34728i","midiNote":74,"note":"D5","velocity":1,"duration":"24i"},{"time":"34752i","midiNote":72,"note":"C5","velocity":1,"duration":"24i"},{"time":"34776i","midiNote":43,"note":"G2","velocity":1,"duration":"48i"},{"time":"34776i","midiNote":55,"note":"G3","velocity":1,"duration":"48i"},{"time":"34776i","midiNote":67,"note":"G4","velocity":1,"duration":"24i"},{"time":"34800i","midiNote":64,"note":"E4","velocity":1,"duration":"24i"},{"time":"34824i","midiNote":41,"note":"F2","velocity":1,"duration":"48i"},{"time":"34824i","midiNote":53,"note":"F3","velocity":1,"duration":"48i"},{"time":"34824i","midiNote":71,"note":"B4","velocity":1,"duration":"24i"},{"time":"34848i","midiNote":69,"note":"A4","velocity":1,"duration":"24i"},{"time":"34872i","midiNote":45,"note":"A2","velocity":1,"duration":"48i"},{"time":"34872i","midiNote":57,"note":"A3","velocity":1,"duration":"48i"},{"time":"34872i","midiNote":65,"note":"F4","velocity":1,"duration":"24i"},{"time":"34896i","midiNote":62,"note":"D4","velocity":1,"duration":"24i"},{"time":"34920i","midiNote":43,"note":"G2","velocity":1,"duration":"48i"},{"time":"34920i","midiNote":55,"note":"G3","velocity":1,"duration":"48i"},{"time":"34920i","midiNote":60,"note":"C4","velocity":1,"duration":"48i"},{"time":"34920i","midiNote":64,"note":"E4","velocity":1,"duration":"48i"},{"time":"34920i","midiNote":69,"note":"A4","velocity":1,"duration":"24i"},{"time":"34944i","midiNote":67,"note":"G4","velocity":1,"duration":"24i"},{"time":"34968i","midiNote":31,"note":"G1","velocity":1,"duration":"48i"},{"time":"34968i","midiNote":43,"note":"G2","velocity":1,"duration":"48i"},{"time":"34968i","midiNote":64,"note":"E4","velocity":1,"duration":"24i"},{"time":"34992i","midiNote":60,"note":"C4","velocity":1,"duration":"24i"},{"time":"35016i","midiNote":43,"note":"G2","velocity":1,"duration":"48i"},{"time":"35016i","midiNote":55,"note":"G3","velocity":1,"duration":"48i"},{"time":"35016i","midiNote":59,"note":"B3","velocity":1,"duration":"24i"},{"time":"35040i","midiNote":67,"note":"G4","velocity":1,"duration":"24i"},{"time":"35064i","midiNote":43,"note":"G2","velocity":1,"duration":"48i"},{"time":"35064i","midiNote":50,"note":"D3","velocity":1,"duration":"48i"},{"time":"35064i","midiNote":53,"note":"F3","velocity":1,"duration":"48i"},{"time":"35064i","midiNote":55,"note":"G3","velocity":1,"duration":"48i"},{"time":"35064i","midiNote":79,"note":"G5","velocity":1,"duration":"24i"},{"time":"35088i","midiNote":79,"note":"G5","velocity":1,"duration":"24i"},{"time":"35112i","midiNote":48,"note":"C3","velocity":1,"duration":"24i"},{"time":"35112i","midiNote":52,"note":"E3","velocity":1,"duration":"24i"},{"time":"35112i","midiNote":55,"note":"G3","velocity":1,"duration":"24i"},{"time":"35112i","midiNote":60,"note":"C4","velocity":1,"duration":"24i"},{"time":"35112i","midiNote":72,"note":"C5","velocity":1,"duration":"24i"},{"time":"35136i","midiNote":64,"note":"E4","velocity":1,"duration":"24i"},{"time":"35136i","midiNote":76,"note":"E5","velocity":1,"duration":"24i"},{"time":"35136i","midiNote":88,"note":"E6","velocity":1,"duration":"24i"},{"time":"35160i","midiNote":64,"note":"E4","velocity":1,"duration":"24i"},{"time":"35160i","midiNote":76,"note":"E5","velocity":1,"duration":"24i"},{"time":"35160i","midiNote":88,"note":"E6","velocity":1,"duration":"24i"},{"time":"35184i","midiNote":64,"note":"E4","velocity":1,"duration":"24i"},{"time":"35184i","midiNote":76,"note":"E5","velocity":1,"duration":"24i"},{"time":"35184i","midiNote":88,"note":"E6","velocity":1,"duration":"24i"},{"time":"35208i","midiNote":60,"note":"C4","velocity":1,"duration":"24i"},{"time":"35208i","midiNote":84,"note":"C6","velocity":1,"duration":"24i"},{"time":"35232i","midiNote":55,"note":"G3","velocity":1,"duration":"24i"},{"time":"35232i","midiNote":67,"note":"G4","velocity":1,"duration":"24i"},{"time":"35232i","midiNote":79,"note":"G5","velocity":1,"duration":"24i"},{"time":"35256i","midiNote":55,"note":"G3","velocity":1,"duration":"24i"},{"time":"35256i","midiNote":67,"note":"G4","velocity":1,"duration":"24i"},{"time":"35256i","midiNote":79,"note":"G5","velocity":1,"duration":"24i"},{"time":"35280i","midiNote":55,"note":"G3","velocity":1,"duration":"24i"},{"time":"35280i","midiNote":67,"note":"G4","velocity":1,"duration":"24i"},{"time":"35280i","midiNote":79,"note":"G5","velocity":1,"duration":"24i"},{"time":"35304i","midiNote":52,"note":"E3","velocity":1,"duration":"24i"},{"time":"35304i","midiNote":64,"note":"E4","velocity":1,"duration":"24i"},{"time":"35304i","midiNote":76,"note":"E5","velocity":1,"duration":"24i"},{"time":"35328i","midiNote":48,"note":"C3","velocity":1,"duration":"24i"},{"time":"35328i","midiNote":60,"note":"C4","velocity":1,"duration":"24i"},{"time":"35328i","midiNote":72,"note":"C5","velocity":1,"duration":"24i"},{"time":"35352i","midiNote":48,"note":"C3","velocity":1,"duration":"24i"},{"time":"35352i","midiNote":60,"note":"C4","velocity":1,"duration":"24i"},{"time":"35352i","midiNote":72,"note":"C5","velocity":1,"duration":"24i"},{"time":"35376i","midiNote":48,"note":"C3","velocity":1,"duration":"24i"},{"time":"35376i","midiNote":60,"note":"C4","velocity":1,"duration":"24i"},{"time":"35376i","midiNote":72,"note":"C5","velocity":1,"duration":"24i"},{"time":"35400i","midiNote":43,"note":"G2","velocity":1,"duration":"24i"},{"time":"35400i","midiNote":55,"note":"G3","velocity":1,"duration":"24i"},{"time":"35400i","midiNote":67,"note":"G4","velocity":1,"duration":"24i"},{"time":"35424i","midiNote":31,"note":"G1","velocity":1,"duration":"24i"},{"time":"35424i","midiNote":43,"note":"G2","velocity":1,"duration":"24i"},{"time":"35424i","midiNote":62,"note":"D4","velocity":1,"duration":"24i"},{"time":"35424i","midiNote":71,"note":"B4","velocity":1,"duration":"24i"},{"time":"35424i","midiNote":74,"note":"D5","velocity":1,"duration":"24i"},{"time":"35448i","midiNote":31,"note":"G1","velocity":1,"duration":"24i"},{"time":"35448i","midiNote":43,"note":"G2","velocity":1,"duration":"24i"},{"time":"35448i","midiNote":62,"note":"D4","velocity":1,"duration":"24i"},{"time":"35448i","midiNote":71,"note":"B4","velocity":1,"duration":"24i"},{"time":"35448i","midiNote":74,"note":"D5","velocity":1,"duration":"24i"},{"time":"35472i","midiNote":31,"note":"G1","velocity":1,"duration":"24i"},{"time":"35472i","midiNote":43,"note":"G2","velocity":1,"duration":"24i"},{"time":"35472i","midiNote":62,"note":"D4","velocity":1,"duration":"24i"},{"time":"35472i","midiNote":71,"note":"B4","velocity":1,"duration":"24i"},{"time":"35472i","midiNote":74,"note":"D5","velocity":1,"duration":"24i"},{"time":"35496i","midiNote":36,"note":"C2","velocity":1,"duration":"24i"},{"time":"35496i","midiNote":48,"note":"C3","velocity":1,"duration":"24i"},{"time":"35496i","midiNote":64,"note":"E4","velocity":1,"duration":"24i"},{"time":"35496i","midiNote":72,"note":"C5","velocity":1,"duration":"24i"},{"time":"35496i","midiNote":76,"note":"E5","velocity":1,"duration":"24i"},{"time":"35520i","midiNote":64,"note":"E4","velocity":1,"duration":"24i"},{"time":"35520i","midiNote":76,"note":"E5","velocity":1,"duration":"24i"},{"time":"35520i","midiNote":88,"note":"E6","velocity":1,"duration":"24i"},{"time":"35544i","midiNote":64,"note":"E4","velocity":1,"duration":"24i"},{"time":"35544i","midiNote":76,"note":"E5","velocity":1,"duration":"24i"},{"time":"35544i","midiNote":88,"note":"E6","velocity":1,"duration":"24i"},{"time":"35568i","midiNote":64,"note":"E4","velocity":1,"duration":"24i"},{"time":"35568i","midiNote":76,"note":"E5","velocity":1,"duration":"24i"},{"time":"35568i","midiNote":88,"note":"E6","velocity":1,"duration":"24i"},{"time":"35592i","midiNote":60,"note":"C4","velocity":1,"duration":"24i"},{"time":"35592i","midiNote":84,"note":"C6","velocity":1,"duration":"24i"},{"time":"35616i","midiNote":55,"note":"G3","velocity":1,"duration":"24i"},{"time":"35616i","midiNote":67,"note":"G4","velocity":1,"duration":"24i"},{"time":"35616i","midiNote":79,"note":"G5","velocity":1,"duration":"24i"},{"time":"35640i","midiNote":55,"note":"G3","velocity":1,"duration":"24i"},{"time":"35640i","midiNote":67,"note":"G4","velocity":1,"duration":"24i"},{"time":"35640i","midiNote":79,"note":"G5","velocity":1,"duration":"24i"},{"time":"35664i","midiNote":55,"note":"G3","velocity":1,"duration":"24i"},{"time":"35664i","midiNote":67,"note":"G4","velocity":1,"duration":"24i"},{"time":"35664i","midiNote":79,"note":"G5","velocity":1,"duration":"24i"},{"time":"35688i","midiNote":52,"note":"E3","velocity":1,"duration":"24i"},{"time":"35688i","midiNote":64,"note":"E4","velocity":1,"duration":"24i"},{"time":"35688i","midiNote":76,"note":"E5","velocity":1,"duration":"24i"},{"time":"35712i","midiNote":48,"note":"C3","velocity":1,"duration":"24i"},{"time":"35712i","midiNote":60,"note":"C4","velocity":1,"duration":"24i"},{"time":"35712i","midiNote":72,"note":"C5","velocity":1,"duration":"24i"},{"time":"35736i","midiNote":48,"note":"C3","velocity":1,"duration":"24i"},{"time":"35736i","midiNote":60,"note":"C4","velocity":1,"duration":"24i"},{"time":"35736i","midiNote":72,"note":"C5","velocity":1,"duration":"24i"},{"time":"35760i","midiNote":48,"note":"C3","velocity":1,"duration":"24i"},{"time":"35760i","midiNote":60,"note":"C4","velocity":1,"duration":"24i"},{"time":"35760i","midiNote":72,"note":"C5","velocity":1,"duration":"24i"},{"time":"35784i","midiNote":43,"note":"G2","velocity":1,"duration":"24i"},{"time":"35784i","midiNote":67,"note":"G4","velocity":1,"duration":"24i"},{"time":"35808i","midiNote":31,"note":"G1","velocity":1,"duration":"24i"},{"time":"35808i","midiNote":43,"note":"G2","velocity":1,"duration":"24i"},{"time":"35808i","midiNote":67,"note":"G4","velocity":1,"duration":"24i"},{"time":"35808i","midiNote":71,"note":"B4","velocity":1,"duration":"24i"},{"time":"35808i","midiNote":74,"note":"D5","velocity":1,"duration":"24i"},{"time":"35808i","midiNote":79,"note":"G5","velocity":1,"duration":"24i"},{"time":"35832i","midiNote":31,"note":"G1","velocity":1,"duration":"24i"},{"time":"35832i","midiNote":43,"note":"G2","velocity":1,"duration":"24i"},{"time":"35832i","midiNote":67,"note":"G4","velocity":1,"duration":"24i"},{"time":"35832i","midiNote":71,"note":"B4","velocity":1,"duration":"24i"},{"time":"35832i","midiNote":74,"note":"D5","velocity":1,"duration":"24i"},{"time":"35832i","midiNote":79,"note":"G5","velocity":1,"duration":"24i"},{"time":"35856i","midiNote":31,"note":"G1","velocity":1,"duration":"24i"},{"time":"35856i","midiNote":43,"note":"G2","velocity":1,"duration":"24i"},{"time":"35856i","midiNote":67,"note":"G4","velocity":1,"duration":"24i"},{"time":"35856i","midiNote":71,"note":"B4","velocity":1,"duration":"24i"},{"time":"35856i","midiNote":74,"note":"D5","velocity":1,"duration":"24i"},{"time":"35856i","midiNote":79,"note":"G5","velocity":1,"duration":"24i"},{"time":"35880i","midiNote":36,"note":"C2","velocity":1,"duration":"48i"},{"time":"35880i","midiNote":48,"note":"C3","velocity":1,"duration":"48i"},{"time":"35880i","midiNote":67,"note":"G4","velocity":1,"duration":"48i"},{"time":"35880i","midiNote":72,"note":"C5","velocity":1,"duration":"48i"},{"time":"35880i","midiNote":76,"note":"E5","velocity":1,"duration":"48i"},{"time":"35880i","midiNote":79,"note":"G5","velocity":1,"duration":"48i"},{"time":"36000i","midiNote":31,"note":"G1","velocity":1,"duration":"24i"},{"time":"36000i","midiNote":43,"note":"G2","velocity":1,"duration":"24i"},{"time":"36000i","midiNote":67,"note":"G4","velocity":1,"duration":"24i"},{"time":"36000i","midiNote":71,"note":"B4","velocity":1,"duration":"24i"},{"time":"36000i","midiNote":74,"note":"D5","velocity":1,"duration":"24i"},{"time":"36000i","midiNote":79,"note":"G5","velocity":1,"duration":"24i"},{"time":"36024i","midiNote":31,"note":"G1","velocity":1,"duration":"24i"},{"time":"36024i","midiNote":43,"note":"G2","velocity":1,"duration":"24i"},{"time":"36024i","midiNote":67,"note":"G4","velocity":1,"duration":"24i"},{"time":"36024i","midiNote":71,"note":"B4","velocity":1,"duration":"24i"},{"time":"36024i","midiNote":74,"note":"D5","velocity":1,"duration":"24i"},{"time":"36024i","midiNote":79,"note":"G5","velocity":1,"duration":"24i"},{"time":"36048i","midiNote":31,"note":"G1","velocity":1,"duration":"24i"},{"time":"36048i","midiNote":43,"note":"G2","velocity":1,"duration":"24i"},{"time":"36048i","midiNote":67,"note":"G4","velocity":1,"duration":"24i"},{"time":"36048i","midiNote":71,"note":"B4","velocity":1,"duration":"24i"},{"time":"36048i","midiNote":74,"note":"D5","velocity":1,"duration":"24i"},{"time":"36048i","midiNote":79,"note":"G5","velocity":1,"duration":"24i"},{"time":"36072i","midiNote":36,"note":"C2","velocity":1,"duration":"48i"},{"time":"36072i","midiNote":48,"note":"C3","velocity":1,"duration":"48i"},{"time":"36072i","midiNote":67,"note":"G4","velocity":1,"duration":"48i"},{"time":"36072i","midiNote":72,"note":"C5","velocity":1,"duration":"48i"},{"time":"36072i","midiNote":76,"note":"E5","velocity":1,"duration":"48i"},{"time":"36072i","midiNote":79,"note":"G5","velocity":1,"duration":"48i"},{"time":"36192i","midiNote":31,"note":"G1","velocity":1,"duration":"24i"},{"time":"36192i","midiNote":43,"note":"G2","velocity":1,"duration":"24i"},{"time":"36192i","midiNote":74,"note":"D5","velocity":1,"duration":"24i"},{"time":"36192i","midiNote":79,"note":"G5","velocity":1,"duration":"24i"},{"time":"36192i","midiNote":83,"note":"B5","velocity":1,"duration":"24i"},{"time":"36216i","midiNote":31,"note":"G1","velocity":1,"duration":"24i"},{"time":"36216i","midiNote":43,"note":"G2","velocity":1,"duration":"24i"},{"time":"36216i","midiNote":74,"note":"D5","velocity":1,"duration":"24i"},{"time":"36216i","midiNote":79,"note":"G5","velocity":1,"duration":"24i"},{"time":"36216i","midiNote":83,"note":"B5","velocity":1,"duration":"24i"},{"time":"36240i","midiNote":31,"note":"G1","velocity":1,"duration":"24i"},{"time":"36240i","midiNote":43,"note":"G2","velocity":1,"duration":"24i"},{"time":"36240i","midiNote":74,"note":"D5","velocity":1,"duration":"24i"},{"time":"36240i","midiNote":79,"note":"G5","velocity":1,"duration":"24i"},{"time":"36240i","midiNote":83,"note":"B5","velocity":1,"duration":"24i"},{"time":"36264i","midiNote":36,"note":"C2","velocity":1,"duration":"120i"},{"time":"36264i","midiNote":48,"note":"C3","velocity":1,"duration":"120i"},{"time":"36264i","midiNote":72,"note":"C5","velocity":1,"duration":"24i"},{"time":"36264i","midiNote":76,"note":"E5","velocity":1,"duration":"24i"},{"time":"36264i","midiNote":79,"note":"G5","velocity":1,"duration":"24i"},{"time":"36264i","midiNote":84,"note":"C6","velocity":1,"duration":"24i"},{"time":"36288i","midiNote":72,"note":"C5","velocity":1,"duration":"24i"},{"time":"36288i","midiNote":84,"note":"C6","velocity":1,"duration":"24i"},{"time":"36312i","midiNote":72,"note":"C5","velocity":1,"duration":"24i"},{"time":"36312i","midiNote":84,"note":"C6","velocity":1,"duration":"24i"},{"time":"36336i","midiNote":72,"note":"C5","velocity":1,"duration":"24i"},{"time":"36336i","midiNote":84,"note":"C6","velocity":1,"duration":"24i"},{"time":"36360i","midiNote":72,"note":"C5","velocity":1,"duration":"24i"},{"time":"36360i","midiNote":84,"note":"C6","velocity":1,"duration":"24i"},{"time":"36384i","midiNote":36,"note":"C2","velocity":1,"duration":"24i"},{"time":"36384i","midiNote":48,"note":"C3","velocity":1,"duration":"24i"},{"time":"36384i","midiNote":72,"note":"C5","velocity":1,"duration":"24i"},{"time":"36384i","midiNote":76,"note":"E5","velocity":1,"duration":"24i"},{"time":"36384i","midiNote":84,"note":"C6","velocity":1,"duration":"24i"},{"time":"36408i","midiNote":36,"note":"C2","velocity":1,"duration":"24i"},{"time":"36408i","midiNote":48,"note":"C3","velocity":1,"duration":"24i"},{"time":"36408i","midiNote":72,"note":"C5","velocity":1,"duration":"24i"},{"time":"36408i","midiNote":76,"note":"E5","velocity":1,"duration":"24i"},{"time":"36408i","midiNote":84,"note":"C6","velocity":1,"duration":"24i"},{"time":"36432i","midiNote":36,"note":"C2","velocity":1,"duration":"24i"},{"time":"36432i","midiNote":48,"note":"C3","velocity":1,"duration":"24i"},{"time":"36432i","midiNote":72,"note":"C5","velocity":1,"duration":"24i"},{"time":"36432i","midiNote":76,"note":"E5","velocity":1,"duration":"24i"},{"time":"36432i","midiNote":84,"note":"C6","velocity":1,"duration":"24i"},{"time":"36456i","midiNote":32,"note":"G#1","velocity":1,"duration":"120i"},{"time":"36456i","midiNote":44,"note":"G#2","velocity":1,"duration":"120i"},{"time":"36456i","midiNote":72,"note":"C5","velocity":1,"duration":"24i"},{"time":"36456i","midiNote":77,"note":"F5","velocity":1,"duration":"24i"},{"time":"36456i","midiNote":84,"note":"C6","velocity":1,"duration":"24i"},{"time":"36480i","midiNote":72,"note":"C5","velocity":1,"duration":"24i"},{"time":"36480i","midiNote":84,"note":"C6","velocity":1,"duration":"24i"},{"time":"36504i","midiNote":72,"note":"C5","velocity":1,"duration":"24i"},{"time":"36504i","midiNote":84,"note":"C6","velocity":1,"duration":"24i"},{"time":"36528i","midiNote":72,"note":"C5","velocity":1,"duration":"24i"},{"time":"36528i","midiNote":84,"note":"C6","velocity":1,"duration":"24i"},{"time":"36552i","midiNote":72,"note":"C5","velocity":1,"duration":"24i"},{"time":"36552i","midiNote":84,"note":"C6","velocity":1,"duration":"24i"},{"time":"36576i","midiNote":32,"note":"G#1","velocity":1,"duration":"24i"},{"time":"36576i","midiNote":44,"note":"G#2","velocity":1,"duration":"24i"},{"time":"36576i","midiNote":72,"note":"C5","velocity":1,"duration":"24i"},{"time":"36576i","midiNote":77,"note":"F5","velocity":1,"duration":"24i"},{"time":"36576i","midiNote":84,"note":"C6","velocity":1,"duration":"24i"},{"time":"36600i","midiNote":32,"note":"G#1","velocity":1,"duration":"24i"},{"time":"36600i","midiNote":44,"note":"G#2","velocity":1,"duration":"24i"},{"time":"36600i","midiNote":72,"note":"C5","velocity":1,"duration":"24i"},{"time":"36600i","midiNote":77,"note":"F5","velocity":1,"duration":"24i"},{"time":"36600i","midiNote":84,"note":"C6","velocity":1,"duration":"24i"},{"time":"36624i","midiNote":32,"note":"G#1","velocity":1,"duration":"24i"},{"time":"36624i","midiNote":44,"note":"G#2","velocity":1,"duration":"24i"},{"time":"36624i","midiNote":72,"note":"C5","velocity":1,"duration":"24i"},{"time":"36624i","midiNote":77,"note":"F5","velocity":1,"duration":"24i"},{"time":"36624i","midiNote":84,"note":"C6","velocity":1,"duration":"24i"},{"time":"36648i","midiNote":40,"note":"E2","velocity":1,"duration":"120i"},{"time":"36648i","midiNote":52,"note":"E3","velocity":1,"duration":"120i"},{"time":"36648i","midiNote":72,"note":"C5","velocity":1,"duration":"24i"},{"time":"36648i","midiNote":79,"note":"G5","velocity":1,"duration":"24i"},{"time":"36648i","midiNote":84,"note":"C6","velocity":1,"duration":"24i"},{"time":"36672i","midiNote":72,"note":"C5","velocity":1,"duration":"24i"},{"time":"36672i","midiNote":79,"note":"G5","velocity":1,"duration":"24i"},{"time":"36672i","midiNote":84,"note":"C6","velocity":1,"duration":"24i"},{"time":"36696i","midiNote":72,"note":"C5","velocity":1,"duration":"24i"},{"time":"36696i","midiNote":79,"note":"G5","velocity":1,"duration":"24i"},{"time":"36696i","midiNote":84,"note":"C6","velocity":1,"duration":"24i"},{"time":"36720i","midiNote":72,"note":"C5","velocity":1,"duration":"24i"},{"time":"36720i","midiNote":79,"note":"G5","velocity":1,"duration":"24i"},{"time":"36720i","midiNote":84,"note":"C6","velocity":1,"duration":"24i"},{"time":"36744i","midiNote":72,"note":"C5","velocity":1,"duration":"24i"},{"time":"36744i","midiNote":84,"note":"C6","velocity":1,"duration":"24i"},{"time":"36768i","midiNote":40,"note":"E2","velocity":1,"duration":"24i"},{"time":"36768i","midiNote":52,"note":"E3","velocity":1,"duration":"24i"},{"time":"36768i","midiNote":72,"note":"C5","velocity":1,"duration":"24i"},{"time":"36768i","midiNote":79,"note":"G5","velocity":1,"duration":"24i"},{"time":"36768i","midiNote":84,"note":"C6","velocity":1,"duration":"24i"},{"time":"36792i","midiNote":40,"note":"E2","velocity":1,"duration":"24i"},{"time":"36792i","midiNote":52,"note":"E3","velocity":1,"duration":"24i"},{"time":"36792i","midiNote":72,"note":"C5","velocity":1,"duration":"24i"},{"time":"36792i","midiNote":79,"note":"G5","velocity":1,"duration":"24i"},{"time":"36792i","midiNote":84,"note":"C6","velocity":1,"duration":"24i"},{"time":"36816i","midiNote":40,"note":"E2","velocity":1,"duration":"24i"},{"time":"36816i","midiNote":52,"note":"E3","velocity":1,"duration":"24i"},{"time":"36816i","midiNote":72,"note":"C5","velocity":1,"duration":"24i"},{"time":"36816i","midiNote":79,"note":"G5","velocity":1,"duration":"24i"},{"time":"36816i","midiNote":84,"note":"C6","velocity":1,"duration":"24i"},{"time":"36840i","midiNote":41,"note":"F2","velocity":1,"duration":"120i"},{"time":"36840i","midiNote":53,"note":"F3","velocity":1,"duration":"120i"},{"time":"36840i","midiNote":72,"note":"C5","velocity":1,"duration":"24i"},{"time":"36840i","midiNote":80,"note":"G#5","velocity":1,"duration":"24i"},{"time":"36840i","midiNote":84,"note":"C6","velocity":1,"duration":"24i"},{"time":"36864i","midiNote":72,"note":"C5","velocity":1,"duration":"24i"},{"time":"36864i","midiNote":84,"note":"C6","velocity":1,"duration":"24i"},{"time":"36888i","midiNote":72,"note":"C5","velocity":1,"duration":"24i"},{"time":"36888i","midiNote":84,"note":"C6","velocity":1,"duration":"24i"},{"time":"36912i","midiNote":72,"note":"C5","velocity":1,"duration":"24i"},{"time":"36912i","midiNote":84,"note":"C6","velocity":1,"duration":"24i"},{"time":"36936i","midiNote":72,"note":"C5","velocity":1,"duration":"24i"},{"time":"36936i","midiNote":84,"note":"C6","velocity":1,"duration":"24i"},{"time":"36960i","midiNote":41,"note":"F2","velocity":1,"duration":"24i"},{"time":"36960i","midiNote":53,"note":"F3","velocity":1,"duration":"24i"},{"time":"36960i","midiNote":72,"note":"C5","velocity":1,"duration":"24i"},{"time":"36960i","midiNote":80,"note":"G#5","velocity":1,"duration":"24i"},{"time":"36960i","midiNote":84,"note":"C6","velocity":1,"duration":"24i"},{"time":"36984i","midiNote":41,"note":"F2","velocity":1,"duration":"24i"},{"time":"36984i","midiNote":53,"note":"F3","velocity":1,"duration":"24i"},{"time":"36984i","midiNote":72,"note":"C5","velocity":1,"duration":"24i"},{"time":"36984i","midiNote":80,"note":"G#5","velocity":1,"duration":"24i"},{"time":"36984i","midiNote":84,"note":"C6","velocity":1,"duration":"24i"},{"time":"37008i","midiNote":41,"note":"F2","velocity":1,"duration":"24i"},{"time":"37008i","midiNote":53,"note":"F3","velocity":1,"duration":"24i"},{"time":"37008i","midiNote":72,"note":"C5","velocity":1,"duration":"24i"},{"time":"37008i","midiNote":80,"note":"G#5","velocity":1,"duration":"24i"},{"time":"37008i","midiNote":84,"note":"C6","velocity":1,"duration":"24i"},{"time":"37032i","midiNote":41,"note":"F2","velocity":1,"duration":"24i"},{"time":"37032i","midiNote":44,"note":"G#2","velocity":1,"duration":"24i"},{"time":"37032i","midiNote":49,"note":"C#3","velocity":1,"duration":"24i"},{"time":"37032i","midiNote":53,"note":"F3","velocity":1,"duration":"24i"},{"time":"37032i","midiNote":73,"note":"C#5","velocity":1,"duration":"24i"},{"time":"37032i","midiNote":80,"note":"G#5","velocity":1,"duration":"24i"},{"time":"37032i","midiNote":85,"note":"C#6","velocity":1,"duration":"24i"},{"time":"37056i","midiNote":41,"note":"F2","velocity":1,"duration":"24i"},{"time":"37056i","midiNote":53,"note":"F3","velocity":1,"duration":"24i"},{"time":"37056i","midiNote":73,"note":"C#5","velocity":1,"duration":"24i"},{"time":"37056i","midiNote":80,"note":"G#5","velocity":1,"duration":"24i"},{"time":"37056i","midiNote":85,"note":"C#6","velocity":1,"duration":"24i"},{"time":"37080i","midiNote":41,"note":"F2","velocity":1,"duration":"24i"},{"time":"37080i","midiNote":53,"note":"F3","velocity":1,"duration":"24i"},{"time":"37080i","midiNote":73,"note":"C#5","velocity":1,"duration":"24i"},{"time":"37080i","midiNote":80,"note":"G#5","velocity":1,"duration":"24i"},{"time":"37080i","midiNote":85,"note":"C#6","velocity":1,"duration":"24i"},{"time":"37104i","midiNote":41,"note":"F2","velocity":1,"duration":"24i"},{"time":"37104i","midiNote":53,"note":"F3","velocity":1,"duration":"24i"},{"time":"37104i","midiNote":73,"note":"C#5","velocity":1,"duration":"24i"},{"time":"37104i","midiNote":80,"note":"G#5","velocity":1,"duration":"24i"},{"time":"37104i","midiNote":85,"note":"C#6","velocity":1,"duration":"24i"},{"time":"37128i","midiNote":41,"note":"F2","velocity":1,"duration":"24i"},{"time":"37128i","midiNote":53,"note":"F3","velocity":1,"duration":"24i"},{"time":"37128i","midiNote":73,"note":"C#5","velocity":1,"duration":"24i"},{"time":"37128i","midiNote":80,"note":"G#5","velocity":1,"duration":"24i"},{"time":"37128i","midiNote":85,"note":"C#6","velocity":1,"duration":"24i"},{"time":"37152i","midiNote":41,"note":"F2","velocity":1,"duration":"24i"},{"time":"37152i","midiNote":53,"note":"F3","velocity":1,"duration":"24i"},{"time":"37152i","midiNote":73,"note":"C#5","velocity":1,"duration":"24i"},{"time":"37152i","midiNote":80,"note":"G#5","velocity":1,"duration":"24i"},{"time":"37152i","midiNote":85,"note":"C#6","velocity":1,"duration":"24i"},{"time":"37176i","midiNote":41,"note":"F2","velocity":1,"duration":"24i"},{"time":"37176i","midiNote":53,"note":"F3","velocity":1,"duration":"24i"},{"time":"37176i","midiNote":73,"note":"C#5","velocity":1,"duration":"24i"},{"time":"37176i","midiNote":80,"note":"G#5","velocity":1,"duration":"24i"},{"time":"37176i","midiNote":85,"note":"C#6","velocity":1,"duration":"24i"},{"time":"37200i","midiNote":41,"note":"F2","velocity":1,"duration":"24i"},{"time":"37200i","midiNote":53,"note":"F3","velocity":1,"duration":"24i"},{"time":"37200i","midiNote":73,"note":"C#5","velocity":1,"duration":"24i"},{"time":"37200i","midiNote":80,"note":"G#5","velocity":1,"duration":"24i"},{"time":"37200i","midiNote":85,"note":"C#6","velocity":1,"duration":"24i"},{"time":"37224i","midiNote":41,"note":"F2","velocity":1,"duration":"24i"},{"time":"37224i","midiNote":53,"note":"F3","velocity":1,"duration":"24i"},{"time":"37224i","midiNote":73,"note":"C#5","velocity":1,"duration":"24i"},{"time":"37224i","midiNote":80,"note":"G#5","velocity":1,"duration":"24i"},{"time":"37224i","midiNote":85,"note":"C#6","velocity":1,"duration":"24i"},{"time":"37248i","midiNote":41,"note":"F2","velocity":1,"duration":"24i"},{"time":"37248i","midiNote":53,"note":"F3","velocity":1,"duration":"24i"},{"time":"37248i","midiNote":73,"note":"C#5","velocity":1,"duration":"24i"},{"time":"37248i","midiNote":80,"note":"G#5","velocity":1,"duration":"24i"},{"time":"37248i","midiNote":85,"note":"C#6","velocity":1,"duration":"24i"},{"time":"37272i","midiNote":41,"note":"F2","velocity":1,"duration":"24i"},{"time":"37272i","midiNote":53,"note":"F3","velocity":1,"duration":"24i"},{"time":"37272i","midiNote":73,"note":"C#5","velocity":1,"duration":"24i"},{"time":"37272i","midiNote":80,"note":"G#5","velocity":1,"duration":"24i"},{"time":"37272i","midiNote":85,"note":"C#6","velocity":1,"duration":"24i"},{"time":"37296i","midiNote":41,"note":"F2","velocity":1,"duration":"24i"},{"time":"37296i","midiNote":53,"note":"F3","velocity":1,"duration":"24i"},{"time":"37296i","midiNote":73,"note":"C#5","velocity":1,"duration":"24i"},{"time":"37296i","midiNote":80,"note":"G#5","velocity":1,"duration":"24i"},{"time":"37296i","midiNote":85,"note":"C#6","velocity":1,"duration":"24i"},{"time":"37320i","midiNote":41,"note":"F2","velocity":1,"duration":"24i"},{"time":"37320i","midiNote":53,"note":"F3","velocity":1,"duration":"24i"},{"time":"37320i","midiNote":73,"note":"C#5","velocity":1,"duration":"24i"},{"time":"37320i","midiNote":80,"note":"G#5","velocity":1,"duration":"24i"},{"time":"37320i","midiNote":85,"note":"C#6","velocity":1,"duration":"24i"},{"time":"37344i","midiNote":41,"note":"F2","velocity":1,"duration":"24i"},{"time":"37344i","midiNote":53,"note":"F3","velocity":1,"duration":"24i"},{"time":"37344i","midiNote":73,"note":"C#5","velocity":1,"duration":"24i"},{"time":"37344i","midiNote":80,"note":"G#5","velocity":1,"duration":"24i"},{"time":"37344i","midiNote":85,"note":"C#6","velocity":1,"duration":"24i"},{"time":"37368i","midiNote":41,"note":"F2","velocity":1,"duration":"24i"},{"time":"37368i","midiNote":53,"note":"F3","velocity":1,"duration":"24i"},{"time":"37368i","midiNote":73,"note":"C#5","velocity":1,"duration":"24i"},{"time":"37368i","midiNote":80,"note":"G#5","velocity":1,"duration":"24i"},{"time":"37368i","midiNote":85,"note":"C#6","velocity":1,"duration":"24i"},{"time":"37392i","midiNote":41,"note":"F2","velocity":1,"duration":"24i"},{"time":"37392i","midiNote":53,"note":"F3","velocity":1,"duration":"24i"},{"time":"37392i","midiNote":73,"note":"C#5","velocity":1,"duration":"24i"},{"time":"37392i","midiNote":80,"note":"G#5","velocity":1,"duration":"24i"},{"time":"37392i","midiNote":85,"note":"C#6","velocity":1,"duration":"24i"},{"time":"37416i","midiNote":41,"note":"F2","velocity":1,"duration":"48i"},{"time":"37416i","midiNote":53,"note":"F3","velocity":1,"duration":"48i"},{"time":"37416i","midiNote":73,"note":"C#5","velocity":1,"duration":"48i"},{"time":"37416i","midiNote":80,"note":"G#5","velocity":1,"duration":"48i"},{"time":"37416i","midiNote":85,"note":"C#6","velocity":1,"duration":"48i"},{"time":"37536i","midiNote":65,"note":"F4","velocity":1,"duration":"24i"},{"time":"37560i","midiNote":65,"note":"F4","velocity":1,"duration":"24i"},{"time":"37584i","midiNote":65,"note":"F4","velocity":1,"duration":"24i"},{"time":"37608i","midiNote":68,"note":"G#4","velocity":1,"duration":"48i"},{"time":"37824i","midiNote":42,"note":"F#2","velocity":1,"duration":"24i"},{"time":"37824i","midiNote":54,"note":"F#3","velocity":1,"duration":"24i"},{"time":"37824i","midiNote":75,"note":"D#5","velocity":1,"duration":"24i"},{"time":"37824i","midiNote":81,"note":"A5","velocity":1,"duration":"24i"},{"time":"37824i","midiNote":84,"note":"C6","velocity":1,"duration":"24i"},{"time":"37824i","midiNote":87,"note":"D#6","velocity":1,"duration":"24i"},{"time":"37848i","midiNote":42,"note":"F#2","velocity":1,"duration":"24i"},{"time":"37848i","midiNote":54,"note":"F#3","velocity":1,"duration":"24i"},{"time":"37848i","midiNote":75,"note":"D#5","velocity":1,"duration":"24i"},{"time":"37848i","midiNote":81,"note":"A5","velocity":1,"duration":"24i"},{"time":"37848i","midiNote":84,"note":"C6","velocity":1,"duration":"24i"},{"time":"37848i","midiNote":87,"note":"D#6","velocity":1,"duration":"24i"},{"time":"37872i","midiNote":42,"note":"F#2","velocity":1,"duration":"24i"},{"time":"37872i","midiNote":54,"note":"F#3","velocity":1,"duration":"24i"},{"time":"37872i","midiNote":75,"note":"D#5","velocity":1,"duration":"24i"},{"time":"37872i","midiNote":81,"note":"A5","velocity":1,"duration":"24i"},{"time":"37872i","midiNote":84,"note":"C6","velocity":1,"duration":"24i"},{"time":"37872i","midiNote":87,"note":"D#6","velocity":1,"duration":"24i"},{"time":"37896i","midiNote":42,"note":"F#2","velocity":1,"duration":"24i"},{"time":"37896i","midiNote":54,"note":"F#3","velocity":1,"duration":"24i"},{"time":"37896i","midiNote":75,"note":"D#5","velocity":1,"duration":"24i"},{"time":"37896i","midiNote":81,"note":"A5","velocity":1,"duration":"24i"},{"time":"37896i","midiNote":84,"note":"C6","velocity":1,"duration":"24i"},{"time":"37896i","midiNote":87,"note":"D#6","velocity":1,"duration":"24i"},{"time":"37920i","midiNote":42,"note":"F#2","velocity":1,"duration":"24i"},{"time":"37920i","midiNote":54,"note":"F#3","velocity":1,"duration":"24i"},{"time":"37920i","midiNote":75,"note":"D#5","velocity":1,"duration":"24i"},{"time":"37920i","midiNote":81,"note":"A5","velocity":1,"duration":"24i"},{"time":"37920i","midiNote":84,"note":"C6","velocity":1,"duration":"24i"},{"time":"37920i","midiNote":87,"note":"D#6","velocity":1,"duration":"24i"},{"time":"37944i","midiNote":42,"note":"F#2","velocity":1,"duration":"24i"},{"time":"37944i","midiNote":54,"note":"F#3","velocity":1,"duration":"24i"},{"time":"37944i","midiNote":75,"note":"D#5","velocity":1,"duration":"24i"},{"time":"37944i","midiNote":81,"note":"A5","velocity":1,"duration":"24i"},{"time":"37944i","midiNote":84,"note":"C6","velocity":1,"duration":"24i"},{"time":"37944i","midiNote":87,"note":"D#6","velocity":1,"duration":"24i"},{"time":"37968i","midiNote":42,"note":"F#2","velocity":1,"duration":"24i"},{"time":"37968i","midiNote":54,"note":"F#3","velocity":1,"duration":"24i"},{"time":"37968i","midiNote":75,"note":"D#5","velocity":1,"duration":"24i"},{"time":"37968i","midiNote":81,"note":"A5","velocity":1,"duration":"24i"},{"time":"37968i","midiNote":84,"note":"C6","velocity":1,"duration":"24i"},{"time":"37968i","midiNote":87,"note":"D#6","velocity":1,"duration":"24i"},{"time":"37992i","midiNote":42,"note":"F#2","velocity":1,"duration":"24i"},{"time":"37992i","midiNote":54,"note":"F#3","velocity":1,"duration":"24i"},{"time":"37992i","midiNote":75,"note":"D#5","velocity":1,"duration":"24i"},{"time":"37992i","midiNote":81,"note":"A5","velocity":1,"duration":"24i"},{"time":"37992i","midiNote":84,"note":"C6","velocity":1,"duration":"24i"},{"time":"37992i","midiNote":87,"note":"D#6","velocity":1,"duration":"24i"},{"time":"38016i","midiNote":42,"note":"F#2","velocity":1,"duration":"24i"},{"time":"38016i","midiNote":54,"note":"F#3","velocity":1,"duration":"24i"},{"time":"38016i","midiNote":75,"note":"D#5","velocity":1,"duration":"24i"},{"time":"38016i","midiNote":81,"note":"A5","velocity":1,"duration":"24i"},{"time":"38016i","midiNote":84,"note":"C6","velocity":1,"duration":"24i"},{"time":"38016i","midiNote":87,"note":"D#6","velocity":1,"duration":"24i"},{"time":"38040i","midiNote":42,"note":"F#2","velocity":1,"duration":"24i"},{"time":"38040i","midiNote":54,"note":"F#3","velocity":1,"duration":"24i"},{"time":"38040i","midiNote":75,"note":"D#5","velocity":1,"duration":"24i"},{"time":"38040i","midiNote":81,"note":"A5","velocity":1,"duration":"24i"},{"time":"38040i","midiNote":84,"note":"C6","velocity":1,"duration":"24i"},{"time":"38040i","midiNote":87,"note":"D#6","velocity":1,"duration":"24i"},{"time":"38064i","midiNote":42,"note":"F#2","velocity":1,"duration":"24i"},{"time":"38064i","midiNote":54,"note":"F#3","velocity":1,"duration":"24i"},{"time":"38064i","midiNote":75,"note":"D#5","velocity":1,"duration":"24i"},{"time":"38064i","midiNote":81,"note":"A5","velocity":1,"duration":"24i"},{"time":"38064i","midiNote":84,"note":"C6","velocity":1,"duration":"24i"},{"time":"38064i","midiNote":87,"note":"D#6","velocity":1,"duration":"24i"},{"time":"38088i","midiNote":42,"note":"F#2","velocity":1,"duration":"24i"},{"time":"38088i","midiNote":54,"note":"F#3","velocity":1,"duration":"24i"},{"time":"38088i","midiNote":75,"note":"D#5","velocity":1,"duration":"24i"},{"time":"38088i","midiNote":81,"note":"A5","velocity":1,"duration":"24i"},{"time":"38088i","midiNote":84,"note":"C6","velocity":1,"duration":"24i"},{"time":"38088i","midiNote":87,"note":"D#6","velocity":1,"duration":"24i"},{"time":"38112i","midiNote":42,"note":"F#2","velocity":1,"duration":"24i"},{"time":"38112i","midiNote":54,"note":"F#3","velocity":1,"duration":"24i"},{"time":"38112i","midiNote":75,"note":"D#5","velocity":1,"duration":"24i"},{"time":"38112i","midiNote":81,"note":"A5","velocity":1,"duration":"24i"},{"time":"38112i","midiNote":84,"note":"C6","velocity":1,"duration":"24i"},{"time":"38112i","midiNote":87,"note":"D#6","velocity":1,"duration":"24i"},{"time":"38136i","midiNote":42,"note":"F#2","velocity":1,"duration":"24i"},{"time":"38136i","midiNote":54,"note":"F#3","velocity":1,"duration":"24i"},{"time":"38136i","midiNote":75,"note":"D#5","velocity":1,"duration":"24i"},{"time":"38136i","midiNote":81,"note":"A5","velocity":1,"duration":"24i"},{"time":"38136i","midiNote":84,"note":"C6","velocity":1,"duration":"24i"},{"time":"38136i","midiNote":87,"note":"D#6","velocity":1,"duration":"24i"},{"time":"38160i","midiNote":42,"note":"F#2","velocity":1,"duration":"24i"},{"time":"38160i","midiNote":54,"note":"F#3","velocity":1,"duration":"24i"},{"time":"38160i","midiNote":75,"note":"D#5","velocity":1,"duration":"24i"},{"time":"38160i","midiNote":81,"note":"A5","velocity":1,"duration":"24i"},{"time":"38160i","midiNote":84,"note":"C6","velocity":1,"duration":"24i"},{"time":"38160i","midiNote":87,"note":"D#6","velocity":1,"duration":"24i"},{"time":"38184i","midiNote":42,"note":"F#2","velocity":1,"duration":"24i"},{"time":"38184i","midiNote":54,"note":"F#3","velocity":1,"duration":"24i"},{"time":"38184i","midiNote":75,"note":"D#5","velocity":1,"duration":"24i"},{"time":"38184i","midiNote":81,"note":"A5","velocity":1,"duration":"24i"},{"time":"38184i","midiNote":84,"note":"C6","velocity":1,"duration":"24i"},{"time":"38184i","midiNote":87,"note":"D#6","velocity":1,"duration":"24i"},{"time":"38208i","midiNote":42,"note":"F#2","velocity":1,"duration":"24i"},{"time":"38208i","midiNote":54,"note":"F#3","velocity":1,"duration":"24i"},{"time":"38208i","midiNote":75,"note":"D#5","velocity":1,"duration":"24i"},{"time":"38208i","midiNote":81,"note":"A5","velocity":1,"duration":"24i"},{"time":"38208i","midiNote":84,"note":"C6","velocity":1,"duration":"24i"},{"time":"38208i","midiNote":87,"note":"D#6","velocity":1,"duration":"24i"},{"time":"38232i","midiNote":42,"note":"F#2","velocity":1,"duration":"24i"},{"time":"38232i","midiNote":54,"note":"F#3","velocity":1,"duration":"24i"},{"time":"38232i","midiNote":75,"note":"D#5","velocity":1,"duration":"24i"},{"time":"38232i","midiNote":81,"note":"A5","velocity":1,"duration":"24i"},{"time":"38232i","midiNote":84,"note":"C6","velocity":1,"duration":"24i"},{"time":"38232i","midiNote":87,"note":"D#6","velocity":1,"duration":"24i"},{"time":"38256i","midiNote":42,"note":"F#2","velocity":1,"duration":"24i"},{"time":"38256i","midiNote":54,"note":"F#3","velocity":1,"duration":"24i"},{"time":"38256i","midiNote":75,"note":"D#5","velocity":1,"duration":"24i"},{"time":"38256i","midiNote":81,"note":"A5","velocity":1,"duration":"24i"},{"time":"38256i","midiNote":84,"note":"C6","velocity":1,"duration":"24i"},{"time":"38256i","midiNote":87,"note":"D#6","velocity":1,"duration":"24i"},{"time":"38280i","midiNote":42,"note":"F#2","velocity":1,"duration":"48i"},{"time":"38280i","midiNote":54,"note":"F#3","velocity":1,"duration":"48i"},{"time":"38280i","midiNote":75,"note":"D#5","velocity":1,"duration":"48i"},{"time":"38280i","midiNote":81,"note":"A5","velocity":1,"duration":"48i"},{"time":"38280i","midiNote":84,"note":"C6","velocity":1,"duration":"48i"},{"time":"38280i","midiNote":87,"note":"D#6","velocity":1,"duration":"48i"},{"time":"38400i","midiNote":60,"note":"C4","velocity":1,"duration":"24i"},{"time":"38400i","midiNote":72,"note":"C5","velocity":1,"duration":"24i"},{"time":"38400i","midiNote":84,"note":"C6","velocity":1,"duration":"24i"},{"time":"38424i","midiNote":60,"note":"C4","velocity":1,"duration":"24i"},{"time":"38424i","midiNote":72,"note":"C5","velocity":1,"duration":"24i"},{"time":"38424i","midiNote":84,"note":"C6","velocity":1,"duration":"24i"},{"time":"38448i","midiNote":60,"note":"C4","velocity":1,"duration":"24i"},{"time":"38448i","midiNote":72,"note":"C5","velocity":1,"duration":"24i"},{"time":"38448i","midiNote":84,"note":"C6","velocity":1,"duration":"24i"},{"time":"38472i","midiNote":63,"note":"D#4","velocity":1,"duration":"48i"},{"time":"38472i","midiNote":75,"note":"D#5","velocity":1,"duration":"48i"},{"time":"38472i","midiNote":87,"note":"D#6","velocity":1,"duration":"48i"},{"time":"38592i","midiNote":67,"note":"G4","velocity":1,"duration":"24i"},{"time":"38616i","midiNote":67,"note":"G4","velocity":1,"duration":"24i"},{"time":"38640i","midiNote":67,"note":"G4","velocity":1,"duration":"24i"},{"time":"38664i","midiNote":31,"note":"G1","velocity":1,"duration":"48i"},{"time":"38664i","midiNote":43,"note":"G2","velocity":1,"duration":"48i"},{"time":"38664i","midiNote":55,"note":"G3","velocity":1,"duration":"48i"},{"time":"38664i","midiNote":63,"note":"D#4","velocity":1,"duration":"96i"},{"time":"38760i","midiNote":65,"note":"F4","velocity":1,"duration":"96i"},{"time":"38760i","midiNote":71,"note":"B4","velocity":1,"duration":"24i"},{"time":"38784i","midiNote":72,"note":"C5","velocity":1,"duration":"24i"},{"time":"38808i","midiNote":74,"note":"D5","velocity":1,"duration":"24i"},{"time":"38832i","midiNote":75,"note":"D#5","velocity":1,"duration":"24i"},{"time":"38856i","midiNote":62,"note":"D4","velocity":1,"duration":"120i"},{"time":"38856i","midiNote":77,"note":"F5","velocity":1,"duration":"24i"},{"time":"38856i","midiNote":83,"note":"B5","velocity":1,"duration":"192i"},{"time":"38880i","midiNote":79,"note":"G5","velocity":1,"duration":"24i"},{"time":"38904i","midiNote":80,"note":"G#5","velocity":1,"duration":"24i"},{"time":"38928i","midiNote":79,"note":"G5","velocity":1,"duration":"24i"},{"time":"38952i","midiNote":80,"note":"G#5","velocity":1,"duration":"24i"},{"time":"38976i","midiNote":67,"note":"G4","velocity":1,"duration":"24i"},{"time":"38976i","midiNote":79,"note":"G5","velocity":1,"duration":"24i"},{"time":"39000i","midiNote":67,"note":"G4","velocity":1,"duration":"24i"},{"time":"39000i","midiNote":80,"note":"G#5","velocity":1,"duration":"24i"},{"time":"39024i","midiNote":67,"note":"G4","velocity":1,"duration":"24i"},{"time":"39024i","midiNote":79,"note":"G5","velocity":1,"duration":"24i"},{"time":"39048i","midiNote":43,"note":"G2","velocity":1,"duration":"48i"},{"time":"39048i","midiNote":55,"note":"G3","velocity":1,"duration":"48i"},{"time":"39048i","midiNote":63,"note":"D#4","velocity":1,"duration":"96i"},{"time":"39144i","midiNote":65,"note":"F4","velocity":1,"duration":"96i"},{"time":"39144i","midiNote":71,"note":"B4","velocity":1,"duration":"24i"},{"time":"39168i","midiNote":72,"note":"C5","velocity":1,"duration":"24i"},{"time":"39192i","midiNote":74,"note":"D5","velocity":1,"duration":"24i"},{"time":"39216i","midiNote":75,"note":"D#5","velocity":1,"duration":"24i"},{"time":"39240i","midiNote":62,"note":"D4","velocity":1,"duration":"120i"},{"time":"39240i","midiNote":77,"note":"F5","velocity":1,"duration":"24i"},{"time":"39240i","midiNote":83,"note":"B5","velocity":1,"duration":"192i"},{"time":"39264i","midiNote":79,"note":"G5","velocity":1,"duration":"24i"},{"time":"39288i","midiNote":80,"note":"G#5","velocity":1,"duration":"24i"},{"time":"39312i","midiNote":79,"note":"G5","velocity":1,"duration":"24i"},{"time":"39336i","midiNote":80,"note":"G#5","velocity":1,"duration":"24i"},{"time":"39360i","midiNote":67,"note":"G4","velocity":1,"duration":"24i"},{"time":"39360i","midiNote":79,"note":"G5","velocity":1,"duration":"24i"},{"time":"39384i","midiNote":67,"note":"G4","velocity":1,"duration":"24i"},{"time":"39384i","midiNote":80,"note":"G#5","velocity":1,"duration":"24i"},{"time":"39408i","midiNote":67,"note":"G4","velocity":1,"duration":"24i"},{"time":"39408i","midiNote":79,"note":"G5","velocity":1,"duration":"24i"},{"time":"39432i","midiNote":63,"note":"D#4","velocity":1,"duration":"48i"},{"time":"39432i","midiNote":80,"note":"G#5","velocity":1,"duration":"24i"},{"time":"39456i","midiNote":79,"note":"G5","velocity":1,"duration":"24i"},{"time":"39480i","midiNote":65,"note":"F4","velocity":1,"duration":"48i"},{"time":"39480i","midiNote":82,"note":"A#5","velocity":1,"duration":"24i"},{"time":"39504i","midiNote":80,"note":"G#5","velocity":1,"duration":"24i"},{"time":"39528i","midiNote":62,"note":"D4","velocity":1,"duration":"48i"},{"time":"39528i","midiNote":79,"note":"G5","velocity":1,"duration":"24i"},{"time":"39552i","midiNote":77,"note":"F5","velocity":1,"duration":"24i"},{"time":"39576i","midiNote":63,"note":"D#4","velocity":1,"duration":"48i"},{"time":"39576i","midiNote":80,"note":"G#5","velocity":1,"duration":"24i"},{"time":"39600i","midiNote":77,"note":"F5","velocity":1,"duration":"24i"},{"time":"39624i","midiNote":60,"note":"C4","velocity":1,"duration":"48i"},{"time":"39624i","midiNote":77,"note":"F5","velocity":1,"duration":"24i"},{"time":"39648i","midiNote":75,"note":"D#5","velocity":1,"duration":"24i"},{"time":"39672i","midiNote":62,"note":"D4","velocity":1,"duration":"48i"},{"time":"39672i","midiNote":79,"note":"G5","velocity":1,"duration":"24i"},{"time":"39696i","midiNote":77,"note":"F5","velocity":1,"duration":"24i"},{"time":"39720i","midiNote":58,"note":"A#3","velocity":1,"duration":"48i"},{"time":"39720i","midiNote":75,"note":"D#5","velocity":1,"duration":"24i"},{"time":"39744i","midiNote":74,"note":"D5","velocity":1,"duration":"24i"},{"time":"39768i","midiNote":60,"note":"C4","velocity":1,"duration":"48i"},{"time":"39768i","midiNote":77,"note":"F5","velocity":1,"duration":"24i"},{"time":"39792i","midiNote":75,"note":"D#5","velocity":1,"duration":"24i"},{"time":"39816i","midiNote":44,"note":"G#2","velocity":1,"duration":"48i"},{"time":"39816i","midiNote":56,"note":"G#3","velocity":1,"duration":"48i"},{"time":"39816i","midiNote":74,"note":"D5","velocity":1,"duration":"24i"},{"time":"39840i","midiNote":72,"note":"C5","velocity":1,"duration":"24i"},{"time":"39864i","midiNote":46,"note":"A#2","velocity":1,"duration":"48i"},{"time":"39864i","midiNote":58,"note":"A#3","velocity":1,"duration":"48i"},{"time":"39864i","midiNote":75,"note":"D#5","velocity":1,"duration":"24i"},{"time":"39888i","midiNote":74,"note":"D5","velocity":1,"duration":"24i"},{"time":"39912i","midiNote":43,"note":"G2","velocity":1,"duration":"48i"},{"time":"39912i","midiNote":55,"note":"G3","velocity":1,"duration":"48i"},{"time":"39912i","midiNote":72,"note":"C5","velocity":1,"duration":"24i"},{"time":"39936i","midiNote":70,"note":"A#4","velocity":1,"duration":"24i"},{"time":"39960i","midiNote":44,"note":"G#2","velocity":1,"duration":"48i"},{"time":"39960i","midiNote":56,"note":"G#3","velocity":1,"duration":"48i"},{"time":"39960i","midiNote":74,"note":"D5","velocity":1,"duration":"24i"},{"time":"39984i","midiNote":72,"note":"C5","velocity":1,"duration":"24i"},{"time":"40008i","midiNote":41,"note":"F2","velocity":1,"duration":"48i"},{"time":"40008i","midiNote":53,"note":"F3","velocity":1,"duration":"48i"},{"time":"40008i","midiNote":70,"note":"A#4","velocity":1,"duration":"24i"},{"time":"40032i","midiNote":68,"note":"G#4","velocity":1,"duration":"24i"},{"time":"40056i","midiNote":43,"note":"G2","velocity":1,"duration":"48i"},{"time":"40056i","midiNote":55,"note":"G3","velocity":1,"duration":"48i"},{"time":"40056i","midiNote":72,"note":"C5","velocity":1,"duration":"24i"},{"time":"40080i","midiNote":70,"note":"A#4","velocity":1,"duration":"24i"},{"time":"40104i","midiNote":39,"note":"D#2","velocity":1,"duration":"48i"},{"time":"40104i","midiNote":51,"note":"D#3","velocity":1,"duration":"48i"},{"time":"40104i","midiNote":68,"note":"G#4","velocity":1,"duration":"24i"},{"time":"40128i","midiNote":67,"note":"G4","velocity":1,"duration":"24i"},{"time":"40152i","midiNote":41,"note":"F2","velocity":1,"duration":"48i"},{"time":"40152i","midiNote":53,"note":"F3","velocity":1,"duration":"48i"},{"time":"40152i","midiNote":70,"note":"A#4","velocity":1,"duration":"24i"},{"time":"40176i","midiNote":68,"note":"G#4","velocity":1,"duration":"24i"},{"time":"40200i","midiNote":38,"note":"D2","velocity":1,"duration":"48i"},{"time":"40200i","midiNote":50,"note":"D3","velocity":1,"duration":"48i"},{"time":"40200i","midiNote":65,"note":"F4","velocity":1,"duration":"24i"},{"time":"40224i","midiNote":67,"note":"G4","velocity":1,"duration":"24i"},{"time":"40248i","midiNote":36,"note":"C2","velocity":1,"duration":"48i"},{"time":"40248i","midiNote":43,"note":"G2","velocity":1,"duration":"48i"},{"time":"40248i","midiNote":48,"note":"C3","velocity":1,"duration":"48i"},{"time":"40248i","midiNote":55,"note":"G3","velocity":1,"duration":"24i"},{"time":"40248i","midiNote":63,"note":"D#4","velocity":1,"duration":"24i"},{"time":"40272i","midiNote":67,"note":"G4","velocity":1,"duration":"24i"},{"time":"40296i","midiNote":35,"note":"B1","velocity":1,"duration":"48i"},{"time":"40296i","midiNote":43,"note":"G2","velocity":1,"duration":"48i"},{"time":"40296i","midiNote":47,"note":"B2","velocity":1,"duration":"48i"},{"time":"40296i","midiNote":55,"note":"G3","velocity":1,"duration":"24i"},{"time":"40296i","midiNote":62,"note":"D4","velocity":1,"duration":"24i"},{"time":"40320i","midiNote":67,"note":"G4","velocity":1,"duration":"24i"},{"time":"40344i","midiNote":36,"note":"C2","velocity":1,"duration":"48i"},{"time":"40344i","midiNote":48,"note":"C3","velocity":1,"duration":"48i"},{"time":"40344i","midiNote":55,"note":"G3","velocity":1,"duration":"24i"},{"time":"40344i","midiNote":63,"note":"D#4","velocity":1,"duration":"24i"},{"time":"40368i","midiNote":67,"note":"G4","velocity":1,"duration":"24i"},{"time":"40392i","midiNote":38,"note":"D2","velocity":1,"duration":"48i"},{"time":"40392i","midiNote":43,"note":"G2","velocity":1,"duration":"48i"},{"time":"40392i","midiNote":50,"note":"D3","velocity":1,"duration":"48i"},{"time":"40392i","midiNote":55,"note":"G3","velocity":1,"duration":"24i"},{"time":"40392i","midiNote":65,"note":"F4","velocity":1,"duration":"24i"},{"time":"40416i","midiNote":67,"note":"G4","velocity":1,"duration":"24i"},{"time":"40440i","midiNote":36,"note":"C2","velocity":1,"duration":"48i"},{"time":"40440i","midiNote":43,"note":"G2","velocity":1,"duration":"48i"},{"time":"40440i","midiNote":48,"note":"C3","velocity":1,"duration":"48i"},{"time":"40440i","midiNote":55,"note":"G3","velocity":1,"duration":"24i"},{"time":"40440i","midiNote":63,"note":"D#4","velocity":1,"duration":"24i"},{"time":"40464i","midiNote":67,"note":"G4","velocity":1,"duration":"24i"},{"time":"40488i","midiNote":38,"note":"D2","velocity":1,"duration":"48i"},{"time":"40488i","midiNote":43,"note":"G2","velocity":1,"duration":"48i"},{"time":"40488i","midiNote":50,"note":"D3","velocity":1,"duration":"48i"},{"time":"40488i","midiNote":55,"note":"G3","velocity":1,"duration":"24i"},{"time":"40488i","midiNote":65,"note":"F4","velocity":1,"duration":"24i"},{"time":"40512i","midiNote":67,"note":"G4","velocity":1,"duration":"24i"},{"time":"40536i","midiNote":40,"note":"E2","velocity":1,"duration":"48i"},{"time":"40536i","midiNote":48,"note":"C3","velocity":1,"duration":"48i"},{"time":"40536i","midiNote":52,"note":"E3","velocity":1,"duration":"48i"},{"time":"40536i","midiNote":60,"note":"C4","velocity":1,"duration":"24i"},{"time":"40536i","midiNote":67,"note":"G4","velocity":1,"duration":"24i"},{"time":"40560i","midiNote":72,"note":"C5","velocity":1,"duration":"24i"},{"time":"40584i","midiNote":41,"note":"F2","velocity":1,"duration":"48i"},{"time":"40584i","midiNote":48,"note":"C3","velocity":1,"duration":"48i"},{"time":"40584i","midiNote":53,"note":"F3","velocity":1,"duration":"48i"},{"time":"40584i","midiNote":60,"note":"C4","velocity":1,"duration":"24i"},{"time":"40584i","midiNote":68,"note":"G#4","velocity":1,"duration":"24i"},{"time":"40608i","midiNote":72,"note":"C5","velocity":1,"duration":"24i"},{"time":"40632i","midiNote":40,"note":"E2","velocity":1,"duration":"48i"},{"time":"40632i","midiNote":48,"note":"C3","velocity":1,"duration":"48i"},{"time":"40632i","midiNote":52,"note":"E3","velocity":1,"duration":"48i"},{"time":"40632i","midiNote":60,"note":"C4","velocity":1,"duration":"24i"},{"time":"40632i","midiNote":67,"note":"G4","velocity":1,"duration":"24i"},{"time":"40656i","midiNote":72,"note":"C5","velocity":1,"duration":"24i"},{"time":"40680i","midiNote":41,"note":"F2","velocity":1,"duration":"48i"},{"time":"40680i","midiNote":48,"note":"C3","velocity":1,"duration":"48i"},{"time":"40680i","midiNote":53,"note":"F3","velocity":1,"duration":"48i"},{"time":"40680i","midiNote":60,"note":"C4","velocity":1,"duration":"24i"},{"time":"40680i","midiNote":68,"note":"G#4","velocity":1,"duration":"24i"},{"time":"40704i","midiNote":72,"note":"C5","velocity":1,"duration":"24i"},{"time":"40728i","midiNote":43,"note":"G2","velocity":1,"duration":"48i"},{"time":"40728i","midiNote":55,"note":"G3","velocity":1,"duration":"48i"},{"time":"40728i","midiNote":67,"note":"G4","velocity":1,"duration":"24i"},{"time":"40728i","midiNote":71,"note":"B4","velocity":1,"duration":"24i"},{"time":"40752i","midiNote":77,"note":"F5","velocity":1,"duration":"24i"},{"time":"40776i","midiNote":44,"note":"G#2","velocity":1,"duration":"48i"},{"time":"40776i","midiNote":56,"note":"G#3","velocity":1,"duration":"48i"},{"time":"40776i","midiNote":67,"note":"G4","velocity":1,"duration":"24i"},{"time":"40776i","midiNote":72,"note":"C5","velocity":1,"duration":"24i"},{"time":"40800i","midiNote":77,"note":"F5","velocity":1,"duration":"24i"},{"time":"40824i","midiNote":43,"note":"G2","velocity":1,"duration":"48i"},{"time":"40824i","midiNote":55,"note":"G3","velocity":1,"duration":"48i"},{"time":"40824i","midiNote":67,"note":"G4","velocity":1,"duration":"24i"},{"time":"40824i","midiNote":71,"note":"B4","velocity":1,"duration":"24i"},{"time":"40848i","midiNote":77,"note":"F5","velocity":1,"duration":"24i"},{"time":"40872i","midiNote":45,"note":"A2","velocity":1,"duration":"48i"},{"time":"40872i","midiNote":55,"note":"G3","velocity":1,"duration":"48i"},{"time":"40872i","midiNote":57,"note":"A3","velocity":1,"duration":"48i"},{"time":"40872i","midiNote":67,"note":"G4","velocity":1,"duration":"24i"},{"time":"40872i","midiNote":72,"note":"C5","velocity":1,"duration":"24i"},{"time":"40896i","midiNote":77,"note":"F5","velocity":1,"duration":"24i"},{"time":"40920i","midiNote":47,"note":"B2","velocity":1,"duration":"48i"},{"time":"40920i","midiNote":55,"note":"G3","velocity":1,"duration":"48i"},{"time":"40920i","midiNote":59,"note":"B3","velocity":1,"duration":"48i"},{"time":"40920i","midiNote":67,"note":"G4","velocity":1,"duration":"24i"},{"time":"40920i","midiNote":74,"note":"D5","velocity":1,"duration":"24i"},{"time":"40944i","midiNote":79,"note":"G5","velocity":1,"duration":"24i"},{"time":"40968i","midiNote":48,"note":"C3","velocity":1,"duration":"192i"},{"time":"40968i","midiNote":60,"note":"C4","velocity":1,"duration":"192i"},{"time":"40968i","midiNote":63,"note":"D#4","velocity":1,"duration":"48i"},{"time":"40968i","midiNote":75,"note":"D#5","velocity":1,"duration":"48i"},{"time":"41016i","midiNote":72,"note":"C5","velocity":1,"duration":"48i"},{"time":"41064i","midiNote":62,"note":"D4","velocity":1,"duration":"48i"},{"time":"41064i","midiNote":74,"note":"D5","velocity":1,"duration":"48i"},{"time":"41112i","midiNote":63,"note":"D#4","velocity":1,"duration":"48i"},{"time":"41112i","midiNote":75,"note":"D#5","velocity":1,"duration":"48i"},{"time":"41160i","midiNote":44,"note":"G#2","velocity":1,"duration":"192i"},{"time":"41160i","midiNote":48,"note":"C3","velocity":1,"duration":"192i"},{"time":"41160i","midiNote":56,"note":"G#3","velocity":1,"duration":"192i"},{"time":"41160i","midiNote":65,"note":"F4","velocity":1,"duration":"48i"},{"time":"41160i","midiNote":72,"note":"C5","velocity":1,"duration":"96i"},{"time":"41160i","midiNote":77,"note":"F5","velocity":1,"duration":"48i"},{"time":"41208i","midiNote":62,"note":"D4","velocity":1,"duration":"48i"},{"time":"41208i","midiNote":74,"note":"D5","velocity":1,"duration":"48i"},{"time":"41256i","midiNote":63,"note":"D#4","velocity":1,"duration":"48i"},{"time":"41256i","midiNote":75,"note":"D#5","velocity":1,"duration":"48i"},{"time":"41304i","midiNote":65,"note":"F4","velocity":1,"duration":"48i"},{"time":"41304i","midiNote":77,"note":"F5","velocity":1,"duration":"48i"},{"time":"41352i","midiNote":39,"note":"D#2","velocity":1,"duration":"192i"},{"time":"41352i","midiNote":48,"note":"C3","velocity":1,"duration":"192i"},{"time":"41352i","midiNote":51,"note":"D#3","velocity":1,"duration":"192i"},{"time":"41352i","midiNote":67,"note":"G4","velocity":1,"duration":"48i"},{"time":"41352i","midiNote":72,"note":"C5","velocity":1,"duration":"96i"},{"time":"41352i","midiNote":79,"note":"G5","velocity":1,"duration":"48i"},{"time":"41400i","midiNote":63,"note":"D#4","velocity":1,"duration":"48i"},{"time":"41400i","midiNote":75,"note":"D#5","velocity":1,"duration":"48i"},{"time":"41448i","midiNote":65,"note":"F4","velocity":1,"duration":"48i"},{"time":"41448i","midiNote":77,"note":"F5","velocity":1,"duration":"48i"},{"time":"41496i","midiNote":67,"note":"G4","velocity":1,"duration":"48i"},{"time":"41496i","midiNote":79,"note":"G5","velocity":1,"duration":"48i"},{"time":"41544i","midiNote":41,"note":"F2","velocity":1,"duration":"96i"},{"time":"41544i","midiNote":48,"note":"C3","velocity":1,"duration":"96i"},{"time":"41544i","midiNote":53,"note":"F3","velocity":1,"duration":"96i"},{"time":"41544i","midiNote":68,"note":"G#4","velocity":1,"duration":"48i"},{"time":"41544i","midiNote":72,"note":"C5","velocity":1,"duration":"96i"},{"time":"41544i","midiNote":80,"note":"G#5","velocity":1,"duration":"48i"},{"time":"41592i","midiNote":65,"note":"F4","velocity":1,"duration":"48i"},{"time":"41592i","midiNote":77,"note":"F5","velocity":1,"duration":"48i"},{"time":"41640i","midiNote":39,"note":"D#2","velocity":1,"duration":"96i"},{"time":"41640i","midiNote":48,"note":"C3","velocity":1,"duration":"96i"},{"time":"41640i","midiNote":51,"note":"D#3","velocity":1,"duration":"96i"},{"time":"41640i","midiNote":67,"note":"G4","velocity":1,"duration":"48i"},{"time":"41640i","midiNote":79,"note":"G5","velocity":1,"duration":"48i"},{"time":"41688i","midiNote":69,"note":"A4","velocity":1,"duration":"48i"},{"time":"41688i","midiNote":81,"note":"A5","velocity":1,"duration":"48i"},{"time":"41736i","midiNote":38,"note":"D2","velocity":1,"duration":"96i"},{"time":"41736i","midiNote":43,"note":"G2","velocity":1,"duration":"96i"},{"time":"41736i","midiNote":50,"note":"D3","velocity":1,"duration":"96i"},{"time":"41736i","midiNote":71,"note":"B4","velocity":1,"duration":"48i"},{"time":"41736i","midiNote":77,"note":"F5","velocity":1,"duration":"96i"},{"time":"41736i","midiNote":83,"note":"B5","velocity":1,"duration":"48i"},{"time":"41784i","midiNote":67,"note":"G4","velocity":1,"duration":"48i"},{"time":"41784i","midiNote":79,"note":"G5","velocity":1,"duration":"48i"},{"time":"41832i","midiNote":41,"note":"F2","velocity":1,"duration":"96i"},{"time":"41832i","midiNote":43,"note":"G2","velocity":1,"duration":"96i"},{"time":"41832i","midiNote":53,"note":"F3","velocity":1,"duration":"96i"},{"time":"41832i","midiNote":69,"note":"A4","velocity":1,"duration":"48i"},{"time":"41832i","midiNote":81,"note":"A5","velocity":1,"duration":"48i"},{"time":"41880i","midiNote":71,"note":"B4","velocity":1,"duration":"48i"},{"time":"41880i","midiNote":83,"note":"B5","velocity":1,"duration":"48i"},{"time":"41928i","midiNote":39,"note":"D#2","velocity":1,"duration":"48i"},{"time":"41928i","midiNote":43,"note":"G2","velocity":1,"duration":"48i"},{"time":"41928i","midiNote":51,"note":"D#3","velocity":1,"duration":"48i"},{"time":"41928i","midiNote":72,"note":"C5","velocity":1,"duration":"48i"},{"time":"41928i","midiNote":84,"note":"C6","velocity":1,"duration":"48i"},{"time":"41976i","midiNote":79,"note":"G5","velocity":1,"duration":"48i"},{"time":"42024i","midiNote":36,"note":"C2","velocity":1,"duration":"48i"},{"time":"42024i","midiNote":48,"note":"C3","velocity":1,"duration":"48i"},{"time":"42024i","midiNote":68,"note":"G#4","velocity":1,"duration":"48i"},{"time":"42024i","midiNote":75,"note":"D#5","velocity":1,"duration":"48i"},{"time":"42024i","midiNote":80,"note":"G#5","velocity":1,"duration":"48i"},{"time":"42072i","midiNote":63,"note":"D#4","velocity":1,"duration":"48i"},{"time":"42072i","midiNote":75,"note":"D#5","velocity":1,"duration":"48i"},{"time":"42120i","midiNote":41,"note":"F2","velocity":1,"duration":"48i"},{"time":"42120i","midiNote":53,"note":"F3","velocity":1,"duration":"48i"},{"time":"42120i","midiNote":65,"note":"F4","velocity":1,"duration":"48i"},{"time":"42120i","midiNote":68,"note":"G#4","velocity":1,"duration":"48i"},{"time":"42120i","midiNote":72,"note":"C5","velocity":1,"duration":"48i"},{"time":"42120i","midiNote":77,"note":"F5","velocity":1,"duration":"48i"},{"time":"42168i","midiNote":62,"note":"D4","velocity":1,"duration":"48i"},{"time":"42168i","midiNote":74,"note":"D5","velocity":1,"duration":"48i"},{"time":"42216i","midiNote":38,"note":"D2","velocity":1,"duration":"48i"},{"time":"42216i","midiNote":50,"note":"D3","velocity":1,"duration":"48i"},{"time":"42216i","midiNote":63,"note":"D#4","velocity":1,"duration":"48i"},{"time":"42216i","midiNote":68,"note":"G#4","velocity":1,"duration":"48i"},{"time":"42216i","midiNote":72,"note":"C5","velocity":1,"duration":"48i"},{"time":"42216i","midiNote":75,"note":"D#5","velocity":1,"duration":"48i"},{"time":"42264i","midiNote":65,"note":"F4","velocity":1,"duration":"48i"},{"time":"42264i","midiNote":77,"note":"F5","velocity":1,"duration":"48i"},{"time":"42312i","midiNote":43,"note":"G2","velocity":1,"duration":"48i"},{"time":"42312i","midiNote":55,"note":"G3","velocity":1,"duration":"48i"},{"time":"42312i","midiNote":67,"note":"G4","velocity":1,"duration":"48i"},{"time":"42312i","midiNote":72,"note":"C5","velocity":1,"duration":"48i"},{"time":"42312i","midiNote":74,"note":"D5","velocity":1,"duration":"48i"},{"time":"42312i","midiNote":79,"note":"G5","velocity":1,"duration":"48i"},{"time":"42360i","midiNote":66,"note":"F#4","velocity":1,"duration":"48i"},{"time":"42360i","midiNote":78,"note":"F#5","velocity":1,"duration":"48i"},{"time":"42408i","midiNote":31,"note":"G1","velocity":1,"duration":"48i"},{"time":"42408i","midiNote":43,"note":"G2","velocity":1,"duration":"48i"},{"time":"42408i","midiNote":67,"note":"G4","velocity":1,"duration":"48i"},{"time":"42408i","midiNote":71,"note":"B4","velocity":1,"duration":"48i"},{"time":"42408i","midiNote":74,"note":"D5","velocity":1,"duration":"48i"},{"time":"42408i","midiNote":79,"note":"G5","velocity":1,"duration":"48i"},{"time":"42456i","midiNote":67,"note":"G4","velocity":1,"duration":"48i"},{"time":"42504i","midiNote":36,"note":"C2","velocity":1,"duration":"96i"},{"time":"42504i","midiNote":48,"note":"C3","velocity":1,"duration":"96i"},{"time":"42504i","midiNote":60,"note":"C4","velocity":1,"duration":"96i"},{"time":"42504i","midiNote":72,"note":"C5","velocity":1,"duration":"96i"},{"time":"42600i","midiNote":48,"note":"C3","velocity":1,"duration":"48i"},{"time":"42600i","midiNote":50,"note":"D3","velocity":1,"duration":"48i"},{"time":"42600i","midiNote":60,"note":"C4","velocity":1,"duration":"48i"},{"time":"42600i","midiNote":62,"note":"D4","velocity":1,"duration":"48i"},{"time":"42600i","midiNote":72,"note":"C5","velocity":1,"duration":"48i"},{"time":"42600i","midiNote":74,"note":"D5","velocity":1,"duration":"48i"},{"time":"42648i","midiNote":48,"note":"C3","velocity":1,"duration":"48i"},{"time":"42648i","midiNote":51,"note":"D#3","velocity":1,"duration":"48i"},{"time":"42648i","midiNote":60,"note":"C4","velocity":1,"duration":"48i"},{"time":"42648i","midiNote":63,"note":"D#4","velocity":1,"duration":"48i"},{"time":"42648i","midiNote":72,"note":"C5","velocity":1,"duration":"48i"},{"time":"42648i","midiNote":75,"note":"D#5","velocity":1,"duration":"48i"},{"time":"42696i","midiNote":48,"note":"C3","velocity":1,"duration":"96i"},{"time":"42696i","midiNote":53,"note":"F3","velocity":1,"duration":"48i"},{"time":"42696i","midiNote":60,"note":"C4","velocity":1,"duration":"96i"},{"time":"42696i","midiNote":65,"note":"F4","velocity":1,"duration":"48i"},{"time":"42696i","midiNote":72,"note":"C5","velocity":1,"duration":"96i"},{"time":"42696i","midiNote":77,"note":"F5","velocity":1,"duration":"48i"},{"time":"42744i","midiNote":50,"note":"D3","velocity":1,"duration":"48i"},{"time":"42744i","midiNote":62,"note":"D4","velocity":1,"duration":"48i"},{"time":"42744i","midiNote":74,"note":"D5","velocity":1,"duration":"48i"},{"time":"42792i","midiNote":39,"note":"D#2","velocity":1,"duration":"48i"},{"time":"42792i","midiNote":48,"note":"C3","velocity":1,"duration":"48i"},{"time":"42792i","midiNote":60,"note":"C4","velocity":1,"duration":"48i"},{"time":"42792i","midiNote":63,"note":"D#4","velocity":1,"duration":"48i"},{"time":"42792i","midiNote":72,"note":"C5","velocity":1,"duration":"48i"},{"time":"42840i","midiNote":41,"note":"F2","velocity":1,"duration":"48i"},{"time":"42840i","midiNote":48,"note":"C3","velocity":1,"duration":"48i"},{"time":"42840i","midiNote":60,"note":"C4","velocity":1,"duration":"48i"},{"time":"42840i","midiNote":65,"note":"F4","velocity":1,"duration":"48i"},{"time":"42840i","midiNote":72,"note":"C5","velocity":1,"duration":"48i"},{"time":"42888i","midiNote":43,"note":"G2","velocity":1,"duration":"48i"},{"time":"42888i","midiNote":48,"note":"C3","velocity":1,"duration":"96i"},{"time":"42888i","midiNote":60,"note":"C4","velocity":1,"duration":"96i"},{"time":"42888i","midiNote":67,"note":"G4","velocity":1,"duration":"48i"},{"time":"42888i","midiNote":72,"note":"C5","velocity":1,"duration":"96i"},{"time":"42936i","midiNote":39,"note":"D#2","velocity":1,"duration":"48i"},{"time":"42936i","midiNote":63,"note":"D#4","velocity":1,"duration":"48i"},{"time":"42984i","midiNote":48,"note":"C3","velocity":1,"duration":"48i"},{"time":"42984i","midiNote":53,"note":"F3","velocity":1,"duration":"48i"},{"time":"42984i","midiNote":60,"note":"C4","velocity":1,"duration":"48i"},{"time":"42984i","midiNote":65,"note":"F4","velocity":1,"duration":"48i"},{"time":"42984i","midiNote":72,"note":"C5","velocity":1,"duration":"48i"},{"time":"42984i","midiNote":77,"note":"F5","velocity":1,"duration":"48i"},{"time":"43032i","midiNote":48,"note":"C3","velocity":1,"duration":"48i"},{"time":"43032i","midiNote":55,"note":"G3","velocity":1,"duration":"48i"},{"time":"43032i","midiNote":60,"note":"C4","velocity":1,"duration":"48i"},{"time":"43032i","midiNote":67,"note":"G4","velocity":1,"duration":"48i"},{"time":"43032i","midiNote":72,"note":"C5","velocity":1,"duration":"48i"},{"time":"43032i","midiNote":79,"note":"G5","velocity":1,"duration":"48i"},{"time":"43080i","midiNote":48,"note":"C3","velocity":1,"duration":"96i"},{"time":"43080i","midiNote":56,"note":"G#3","velocity":1,"duration":"48i"},{"time":"43080i","midiNote":60,"note":"C4","velocity":1,"duration":"96i"},{"time":"43080i","midiNote":68,"note":"G#4","velocity":1,"duration":"48i"},{"time":"43080i","midiNote":72,"note":"C5","velocity":1,"duration":"96i"},{"time":"43080i","midiNote":80,"note":"G#5","velocity":1,"duration":"48i"},{"time":"43128i","midiNote":53,"note":"F3","velocity":1,"duration":"48i"},{"time":"43128i","midiNote":65,"note":"F4","velocity":1,"duration":"48i"},{"time":"43128i","midiNote":77,"note":"F5","velocity":1,"duration":"48i"},{"time":"43176i","midiNote":31,"note":"G1","velocity":1,"duration":"48i"},{"time":"43176i","midiNote":43,"note":"G2","velocity":1,"duration":"48i"},{"time":"43176i","midiNote":59,"note":"B3","velocity":1,"duration":"48i"},{"time":"43176i","midiNote":67,"note":"G4","velocity":1,"duration":"48i"},{"time":"43176i","midiNote":71,"note":"B4","velocity":1,"duration":"48i"},{"time":"43224i","midiNote":33,"note":"A1","velocity":1,"duration":"48i"},{"time":"43224i","midiNote":45,"note":"A2","velocity":1,"duration":"48i"},{"time":"43224i","midiNote":60,"note":"C4","velocity":1,"duration":"48i"},{"time":"43224i","midiNote":67,"note":"G4","velocity":1,"duration":"48i"},{"time":"43224i","midiNote":72,"note":"C5","velocity":1,"duration":"48i"},{"time":"43272i","midiNote":35,"note":"B1","velocity":1,"duration":"48i"},{"time":"43272i","midiNote":47,"note":"B2","velocity":1,"duration":"48i"},{"time":"43272i","midiNote":62,"note":"D4","velocity":1,"duration":"48i"},{"time":"43272i","midiNote":67,"note":"G4","velocity":1,"duration":"96i"},{"time":"43272i","midiNote":74,"note":"D5","velocity":1,"duration":"48i"},{"time":"43320i","midiNote":31,"note":"G1","velocity":1,"duration":"48i"},{"time":"43320i","midiNote":43,"note":"G2","velocity":1,"duration":"48i"},{"time":"43320i","midiNote":59,"note":"B3","velocity":1,"duration":"48i"},{"time":"43320i","midiNote":71,"note":"B4","velocity":1,"duration":"48i"},{"time":"43368i","midiNote":55,"note":"G3","velocity":1,"duration":"48i"},{"time":"43368i","midiNote":57,"note":"A3","velocity":1,"duration":"48i"},{"time":"43368i","midiNote":60,"note":"C4","velocity":1,"duration":"48i"},{"time":"43368i","midiNote":72,"note":"C5","velocity":1,"duration":"48i"},{"time":"43368i","midiNote":81,"note":"A5","velocity":1,"duration":"48i"},{"time":"43368i","midiNote":84,"note":"C6","velocity":1,"duration":"48i"},{"time":"43416i","midiNote":55,"note":"G3","velocity":1,"duration":"48i"},{"time":"43416i","midiNote":59,"note":"B3","velocity":1,"duration":"48i"},{"time":"43416i","midiNote":62,"note":"D4","velocity":1,"duration":"48i"},{"time":"43416i","midiNote":74,"note":"D5","velocity":1,"duration":"48i"},{"time":"43416i","midiNote":83,"note":"B5","velocity":1,"duration":"48i"},{"time":"43416i","midiNote":86,"note":"D6","velocity":1,"duration":"48i"},{"time":"43464i","midiNote":55,"note":"G3","velocity":1,"duration":"96i"},{"time":"43464i","midiNote":60,"note":"C4","velocity":1,"duration":"96i"},{"time":"43464i","midiNote":63,"note":"D#4","velocity":1,"duration":"96i"},{"time":"43464i","midiNote":75,"note":"D#5","velocity":1,"duration":"48i"},{"time":"43464i","midiNote":84,"note":"C6","velocity":1,"duration":"48i"},{"time":"43464i","midiNote":87,"note":"D#6","velocity":1,"duration":"48i"},{"time":"43512i","midiNote":72,"note":"C5","velocity":1,"duration":"48i"},{"time":"43512i","midiNote":79,"note":"G5","velocity":1,"duration":"48i"},{"time":"43512i","midiNote":84,"note":"C6","velocity":1,"duration":"48i"},{"time":"43560i","midiNote":31,"note":"G1","velocity":1,"duration":"48i"},{"time":"43560i","midiNote":43,"note":"G2","velocity":1,"duration":"48i"},{"time":"43560i","midiNote":59,"note":"B3","velocity":1,"duration":"48i"},{"time":"43560i","midiNote":67,"note":"G4","velocity":1,"duration":"48i"},{"time":"43560i","midiNote":71,"note":"B4","velocity":1,"duration":"48i"},{"time":"43608i","midiNote":33,"note":"A1","velocity":1,"duration":"48i"},{"time":"43608i","midiNote":45,"note":"A2","velocity":1,"duration":"48i"},{"time":"43608i","midiNote":60,"note":"C4","velocity":1,"duration":"48i"},{"time":"43608i","midiNote":67,"note":"G4","velocity":1,"duration":"48i"},{"time":"43608i","midiNote":72,"note":"C5","velocity":1,"duration":"48i"},{"time":"43656i","midiNote":35,"note":"B1","velocity":1,"duration":"48i"},{"time":"43656i","midiNote":47,"note":"B2","velocity":1,"duration":"48i"},{"time":"43656i","midiNote":62,"note":"D4","velocity":1,"duration":"48i"},{"time":"43656i","midiNote":67,"note":"G4","velocity":1,"duration":"96i"},{"time":"43656i","midiNote":74,"note":"D5","velocity":1,"duration":"48i"},{"time":"43704i","midiNote":31,"note":"G1","velocity":1,"duration":"48i"},{"time":"43704i","midiNote":43,"note":"G2","velocity":1,"duration":"48i"},{"time":"43704i","midiNote":59,"note":"B3","velocity":1,"duration":"48i"},{"time":"43704i","midiNote":71,"note":"B4","velocity":1,"duration":"48i"},{"time":"43752i","midiNote":55,"note":"G3","velocity":1,"duration":"48i"},{"time":"43752i","midiNote":57,"note":"A3","velocity":1,"duration":"48i"},{"time":"43752i","midiNote":60,"note":"C4","velocity":1,"duration":"48i"},{"time":"43752i","midiNote":72,"note":"C5","velocity":1,"duration":"48i"},{"time":"43752i","midiNote":81,"note":"A5","velocity":1,"duration":"48i"},{"time":"43752i","midiNote":84,"note":"C6","velocity":1,"duration":"48i"},{"time":"43800i","midiNote":55,"note":"G3","velocity":1,"duration":"48i"},{"time":"43800i","midiNote":59,"note":"B3","velocity":1,"duration":"48i"},{"time":"43800i","midiNote":62,"note":"D4","velocity":1,"duration":"48i"},{"time":"43800i","midiNote":74,"note":"D5","velocity":1,"duration":"48i"},{"time":"43800i","midiNote":83,"note":"B5","velocity":1,"duration":"48i"},{"time":"43800i","midiNote":86,"note":"D6","velocity":1,"duration":"48i"},{"time":"43848i","midiNote":60,"note":"C4","velocity":1,"duration":"48i"},{"time":"43848i","midiNote":63,"note":"D#4","velocity":1,"duration":"48i"},{"time":"43848i","midiNote":75,"note":"D#5","velocity":1,"duration":"48i"},{"time":"43848i","midiNote":84,"note":"C6","velocity":1,"duration":"48i"},{"time":"43848i","midiNote":87,"note":"D#6","velocity":1,"duration":"48i"},{"time":"43896i","midiNote":55,"note":"G3","velocity":1,"duration":"48i"},{"time":"43896i","midiNote":62,"note":"D4","velocity":1,"duration":"48i"},{"time":"43896i","midiNote":74,"note":"D5","velocity":1,"duration":"48i"},{"time":"43896i","midiNote":82,"note":"A#5","velocity":1,"duration":"48i"},{"time":"43896i","midiNote":86,"note":"D6","velocity":1,"duration":"48i"},{"time":"43944i","midiNote":56,"note":"G#3","velocity":1,"duration":"48i"},{"time":"43944i","midiNote":60,"note":"C4","velocity":1,"duration":"48i"},{"time":"43944i","midiNote":72,"note":"C5","velocity":1,"duration":"48i"},{"time":"43944i","midiNote":80,"note":"G#5","velocity":1,"duration":"48i"},{"time":"43944i","midiNote":84,"note":"C6","velocity":1,"duration":"48i"},{"time":"43992i","midiNote":51,"note":"D#3","velocity":1,"duration":"48i"},{"time":"43992i","midiNote":58,"note":"A#3","velocity":1,"duration":"48i"},{"time":"43992i","midiNote":70,"note":"A#4","velocity":1,"duration":"48i"},{"time":"43992i","midiNote":79,"note":"G5","velocity":1,"duration":"48i"},{"time":"43992i","midiNote":82,"note":"A#5","velocity":1,"duration":"48i"},{"time":"44040i","midiNote":53,"note":"F3","velocity":1,"duration":"48i"},{"time":"44040i","midiNote":56,"note":"G#3","velocity":1,"duration":"48i"},{"time":"44040i","midiNote":68,"note":"G#4","velocity":1,"duration":"48i"},{"time":"44040i","midiNote":77,"note":"F5","velocity":1,"duration":"48i"},{"time":"44040i","midiNote":80,"note":"G#5","velocity":1,"duration":"48i"},{"time":"44088i","midiNote":48,"note":"C3","velocity":1,"duration":"48i"},{"time":"44088i","midiNote":55,"note":"G3","velocity":1,"duration":"48i"},{"time":"44088i","midiNote":67,"note":"G4","velocity":1,"duration":"48i"},{"time":"44088i","midiNote":75,"note":"D#5","velocity":1,"duration":"48i"},{"time":"44088i","midiNote":79,"note":"G5","velocity":1,"duration":"48i"},{"time":"44136i","midiNote":41,"note":"F2","velocity":1,"duration":"48i"},{"time":"44136i","midiNote":53,"note":"F3","velocity":1,"duration":"48i"},{"time":"44136i","midiNote":60,"note":"C4","velocity":1,"duration":"96i"},{"time":"44136i","midiNote":65,"note":"F4","velocity":1,"duration":"48i"},{"time":"44136i","midiNote":68,"note":"G#4","velocity":1,"duration":"48i"},{"time":"44184i","midiNote":36,"note":"C2","velocity":1,"duration":"48i"},{"time":"44184i","midiNote":48,"note":"C3","velocity":1,"duration":"48i"},{"time":"44184i","midiNote":63,"note":"D#4","velocity":1,"duration":"48i"},{"time":"44184i","midiNote":67,"note":"G4","velocity":1,"duration":"48i"},{"time":"44232i","midiNote":53,"note":"F3","velocity":1,"duration":"48i"},{"time":"44232i","midiNote":56,"note":"G#3","velocity":1,"duration":"48i"},{"time":"44232i","midiNote":72,"note":"C5","velocity":1,"duration":"96i"},{"time":"44232i","midiNote":77,"note":"F5","velocity":1,"duration":"48i"},{"time":"44232i","midiNote":80,"note":"G#5","velocity":1,"duration":"48i"},{"time":"44280i","midiNote":48,"note":"C3","velocity":1,"duration":"48i"},{"time":"44280i","midiNote":55,"note":"G3","velocity":1,"duration":"48i"},{"time":"44280i","midiNote":75,"note":"D#5","velocity":1,"duration":"48i"},{"time":"44280i","midiNote":79,"note":"G5","velocity":1,"duration":"48i"},{"time":"44328i","midiNote":41,"note":"F2","velocity":1,"duration":"48i"},{"time":"44328i","midiNote":53,"note":"F3","velocity":1,"duration":"48i"},{"time":"44328i","midiNote":80,"note":"G#5","velocity":1,"duration":"48i"},{"time":"44328i","midiNote":84,"note":"C6","velocity":1,"duration":"48i"},{"time":"44328i","midiNote":89,"note":"F6","velocity":1,"duration":"48i"},{"time":"44328i","midiNote":92,"note":"G#6","velocity":1,"duration":"48i"},{"time":"44376i","midiNote":36,"note":"C2","velocity":1,"duration":"48i"},{"time":"44376i","midiNote":48,"note":"C3","velocity":1,"duration":"48i"},{"time":"44376i","midiNote":79,"note":"G5","velocity":1,"duration":"48i"},{"time":"44376i","midiNote":84,"note":"C6","velocity":1,"duration":"48i"},{"time":"44376i","midiNote":87,"note":"D#6","velocity":1,"duration":"48i"},{"time":"44376i","midiNote":91,"note":"G6","velocity":1,"duration":"48i"},{"time":"44424i","midiNote":43,"note":"G2","velocity":1,"duration":"48i"},{"time":"44424i","midiNote":48,"note":"C3","velocity":1,"duration":"48i"},{"time":"44424i","midiNote":51,"note":"D#3","velocity":1,"duration":"48i"},{"time":"44424i","midiNote":55,"note":"G3","velocity":1,"duration":"48i"},{"time":"44472i","midiNote":79,"note":"G5","velocity":1,"duration":"48i"},{"time":"44472i","midiNote":84,"note":"C6","velocity":1,"duration":"48i"},{"time":"44472i","midiNote":87,"note":"D#6","velocity":1,"duration":"48i"},{"time":"44472i","midiNote":91,"note":"G6","velocity":1,"duration":"48i"},{"time":"44520i","midiNote":31,"note":"G1","velocity":1,"duration":"48i"},{"time":"44520i","midiNote":35,"note":"B1","velocity":1,"duration":"48i"},{"time":"44520i","midiNote":38,"note":"D2","velocity":1,"duration":"48i"},{"time":"44520i","midiNote":43,"note":"G2","velocity":1,"duration":"48i"},{"time":"44568i","midiNote":79,"note":"G5","velocity":1,"duration":"48i"},{"time":"44568i","midiNote":83,"note":"B5","velocity":1,"duration":"48i"},{"time":"44568i","midiNote":86,"note":"D6","velocity":1,"duration":"48i"},{"time":"44568i","midiNote":91,"note":"G6","velocity":1,"duration":"48i"},{"time":"44616i","midiNote":48,"note":"C3","velocity":1,"duration":"48i"},{"time":"44616i","midiNote":60,"note":"C4","velocity":1,"duration":"48i"},{"time":"44616i","midiNote":63,"note":"D#4","velocity":1,"duration":"48i"},{"time":"44616i","midiNote":75,"note":"D#5","velocity":1,"duration":"48i"},{"time":"44664i","midiNote":43,"note":"G2","velocity":1,"duration":"48i"},{"time":"44664i","midiNote":55,"note":"G3","velocity":1,"duration":"48i"},{"time":"44664i","midiNote":70,"note":"A#4","velocity":1,"duration":"48i"},{"time":"44664i","midiNote":74,"note":"D5","velocity":1,"duration":"48i"},{"time":"44712i","midiNote":44,"note":"G#2","velocity":1,"duration":"48i"},{"time":"44712i","midiNote":56,"note":"G#3","velocity":1,"duration":"48i"},{"time":"44712i","midiNote":60,"note":"C4","velocity":1,"duration":"48i"},{"time":"44712i","midiNote":72,"note":"C5","velocity":1,"duration":"48i"},{"time":"44760i","midiNote":39,"note":"D#2","velocity":1,"duration":"48i"},{"time":"44760i","midiNote":51,"note":"D#3","velocity":1,"duration":"48i"},{"time":"44760i","midiNote":67,"note":"G4","velocity":1,"duration":"48i"},{"time":"44760i","midiNote":70,"note":"A#4","velocity":1,"duration":"48i"},{"time":"44808i","midiNote":41,"note":"F2","velocity":1,"duration":"48i"},{"time":"44808i","midiNote":53,"note":"F3","velocity":1,"duration":"48i"},{"time":"44808i","midiNote":60,"note":"C4","velocity":1,"duration":"96i"},{"time":"44808i","midiNote":65,"note":"F4","velocity":1,"duration":"48i"},{"time":"44808i","midiNote":68,"note":"G#4","velocity":1,"duration":"48i"},{"time":"44856i","midiNote":36,"note":"C2","velocity":1,"duration":"48i"},{"time":"44856i","midiNote":48,"note":"C3","velocity":1,"duration":"48i"},{"time":"44856i","midiNote":63,"note":"D#4","velocity":1,"duration":"48i"},{"time":"44856i","midiNote":67,"note":"G4","velocity":1,"duration":"48i"},{"time":"44904i","midiNote":48,"note":"C3","velocity":1,"duration":"48i"},{"time":"44904i","midiNote":53,"note":"F3","velocity":1,"duration":"48i"},{"time":"44904i","midiNote":56,"note":"G#3","velocity":1,"duration":"48i"},{"time":"44904i","midiNote":72,"note":"C5","velocity":1,"duration":"96i"},{"time":"44904i","midiNote":77,"note":"F5","velocity":1,"duration":"48i"},{"time":"44904i","midiNote":80,"note":"G#5","velocity":1,"duration":"48i"},{"time":"44952i","midiNote":48,"note":"C3","velocity":1,"duration":"48i"},{"time":"44952i","midiNote":51,"note":"D#3","velocity":1,"duration":"48i"},{"time":"44952i","midiNote":55,"note":"G3","velocity":1,"duration":"48i"},{"time":"44952i","midiNote":75,"note":"D#5","velocity":1,"duration":"48i"},{"time":"44952i","midiNote":79,"note":"G5","velocity":1,"duration":"48i"},{"time":"45000i","midiNote":41,"note":"F2","velocity":1,"duration":"48i"},{"time":"45000i","midiNote":53,"note":"F3","velocity":1,"duration":"48i"},{"time":"45000i","midiNote":60,"note":"C4","velocity":1,"duration":"96i"},{"time":"45000i","midiNote":65,"note":"F4","velocity":1,"duration":"48i"},{"time":"45000i","midiNote":68,"note":"G#4","velocity":1,"duration":"48i"},{"time":"45048i","midiNote":36,"note":"C2","velocity":1,"duration":"48i"},{"time":"45048i","midiNote":48,"note":"C3","velocity":1,"duration":"48i"},{"time":"45048i","midiNote":63,"note":"D#4","velocity":1,"duration":"48i"},{"time":"45048i","midiNote":67,"note":"G4","velocity":1,"duration":"48i"},{"time":"45096i","midiNote":48,"note":"C3","velocity":1,"duration":"48i"},{"time":"45096i","midiNote":53,"note":"F3","velocity":1,"duration":"48i"},{"time":"45096i","midiNote":56,"note":"G#3","velocity":1,"duration":"48i"},{"time":"45096i","midiNote":72,"note":"C5","velocity":1,"duration":"96i"},{"time":"45096i","midiNote":77,"note":"F5","velocity":1,"duration":"48i"},{"time":"45096i","midiNote":80,"note":"G#5","velocity":1,"duration":"48i"},{"time":"45144i","midiNote":48,"note":"C3","velocity":1,"duration":"48i"},{"time":"45144i","midiNote":51,"note":"D#3","velocity":1,"duration":"48i"},{"time":"45144i","midiNote":55,"note":"G3","velocity":1,"duration":"48i"},{"time":"45144i","midiNote":75,"note":"D#5","velocity":1,"duration":"48i"},{"time":"45144i","midiNote":79,"note":"G5","velocity":1,"duration":"48i"},{"time":"45192i","midiNote":43,"note":"G2","velocity":1,"duration":"48i"},{"time":"45192i","midiNote":48,"note":"C3","velocity":1,"duration":"48i"},{"time":"45192i","midiNote":51,"note":"D#3","velocity":1,"duration":"48i"},{"time":"45192i","midiNote":55,"note":"G3","velocity":1,"duration":"48i"},{"time":"45192i","midiNote":67,"note":"G4","velocity":1,"duration":"48i"},{"time":"45192i","midiNote":72,"note":"C5","velocity":1,"duration":"48i"},{"time":"45192i","midiNote":75,"note":"D#5","velocity":1,"duration":"48i"},{"time":"45192i","midiNote":79,"note":"G5","velocity":1,"duration":"48i"},{"time":"45240i","midiNote":55,"note":"G3","velocity":1,"duration":"48i"},{"time":"45240i","midiNote":60,"note":"C4","velocity":1,"duration":"48i"},{"time":"45240i","midiNote":63,"note":"D#4","velocity":1,"duration":"48i"},{"time":"45240i","midiNote":79,"note":"G5","velocity":1,"duration":"48i"},{"time":"45240i","midiNote":84,"note":"C6","velocity":1,"duration":"48i"},{"time":"45240i","midiNote":87,"note":"D#6","velocity":1,"duration":"48i"},{"time":"45240i","midiNote":91,"note":"G6","velocity":1,"duration":"48i"},{"time":"45288i","midiNote":31,"note":"G1","velocity":1,"duration":"48i"},{"time":"45288i","midiNote":35,"note":"B1","velocity":1,"duration":"48i"},{"time":"45288i","midiNote":38,"note":"D2","velocity":1,"duration":"48i"},{"time":"45288i","midiNote":43,"note":"G2","velocity":1,"duration":"48i"},{"time":"45288i","midiNote":67,"note":"G4","velocity":1,"duration":"48i"},{"time":"45288i","midiNote":71,"note":"B4","velocity":1,"duration":"48i"},{"time":"45288i","midiNote":74,"note":"D5","velocity":1,"duration":"48i"},{"time":"45288i","midiNote":79,"note":"G5","velocity":1,"duration":"48i"},{"time":"45336i","midiNote":43,"note":"G2","velocity":1,"duration":"48i"},{"time":"45336i","midiNote":47,"note":"B2","velocity":1,"duration":"48i"},{"time":"45336i","midiNote":50,"note":"D3","velocity":1,"duration":"48i"},{"time":"45336i","midiNote":55,"note":"G3","velocity":1,"duration":"48i"},{"time":"45336i","midiNote":79,"note":"G5","velocity":1,"duration":"48i"},{"time":"45336i","midiNote":83,"note":"B5","velocity":1,"duration":"48i"},{"time":"45336i","midiNote":86,"note":"D6","velocity":1,"duration":"48i"},{"time":"45336i","midiNote":91,"note":"G6","velocity":1,"duration":"48i"},{"time":"45384i","midiNote":36,"note":"C2","velocity":1,"duration":"24i"},{"time":"45384i","midiNote":43,"note":"G2","velocity":1,"duration":"24i"},{"time":"45384i","midiNote":48,"note":"C3","velocity":1,"duration":"24i"},{"time":"45384i","midiNote":72,"note":"C5","velocity":1,"duration":"24i"},{"time":"45384i","midiNote":75,"note":"D#5","velocity":1,"duration":"24i"},{"time":"45384i","midiNote":84,"note":"C6","velocity":1,"duration":"24i"},{"time":"45408i","midiNote":55,"note":"G3","velocity":1,"duration":"24i"},{"time":"45408i","midiNote":67,"note":"G4","velocity":1,"duration":"24i"},{"time":"45408i","midiNote":79,"note":"G5","velocity":1,"duration":"24i"},{"time":"45432i","midiNote":55,"note":"G3","velocity":1,"duration":"24i"},{"time":"45432i","midiNote":67,"note":"G4","velocity":1,"duration":"24i"},{"time":"45432i","midiNote":79,"note":"G5","velocity":1,"duration":"24i"},{"time":"45456i","midiNote":55,"note":"G3","velocity":1,"duration":"24i"},{"time":"45456i","midiNote":67,"note":"G4","velocity":1,"duration":"24i"},{"time":"45456i","midiNote":79,"note":"G5","velocity":1,"duration":"24i"},{"time":"45480i","midiNote":55,"note":"G3","velocity":1,"duration":"384i"},{"time":"45480i","midiNote":67,"note":"G4","velocity":1,"duration":"504i"},{"time":"45480i","midiNote":79,"note":"G5","velocity":1,"duration":"504i"},{"time":"45504i","midiNote":62,"note":"D4","velocity":1,"duration":"24i"},{"time":"45504i","midiNote":65,"note":"F4","velocity":1,"duration":"24i"},{"time":"45504i","midiNote":71,"note":"B4","velocity":1,"duration":"24i"},{"time":"45504i","midiNote":74,"note":"D5","velocity":1,"duration":"24i"},{"time":"45528i","midiNote":62,"note":"D4","velocity":1,"duration":"24i"},{"time":"45528i","midiNote":65,"note":"F4","velocity":1,"duration":"24i"},{"time":"45528i","midiNote":71,"note":"B4","velocity":1,"duration":"24i"},{"time":"45528i","midiNote":74,"note":"D5","velocity":1,"duration":"24i"},{"time":"45552i","midiNote":62,"note":"D4","velocity":1,"duration":"24i"},{"time":"45552i","midiNote":65,"note":"F4","velocity":1,"duration":"24i"},{"time":"45552i","midiNote":71,"note":"B4","velocity":1,"duration":"24i"},{"time":"45552i","midiNote":74,"note":"D5","velocity":1,"duration":"24i"},{"time":"45576i","midiNote":62,"note":"D4","velocity":1,"duration":"144i"},{"time":"45576i","midiNote":65,"note":"F4","velocity":1,"duration":"144i"},{"time":"45576i","midiNote":71,"note":"B4","velocity":1,"duration":"144i"},{"time":"45576i","midiNote":74,"note":"D5","velocity":1,"duration":"144i"},{"time":"45720i","midiNote":60,"note":"C4","velocity":1,"duration":"48i"},{"time":"45720i","midiNote":63,"note":"D#4","velocity":1,"duration":"48i"},{"time":"45720i","midiNote":72,"note":"C5","velocity":1,"duration":"48i"},{"time":"45720i","midiNote":75,"note":"D#5","velocity":1,"duration":"48i"},{"time":"45768i","midiNote":59,"note":"B3","velocity":1,"duration":"48i"},{"time":"45768i","midiNote":62,"note":"D4","velocity":1,"duration":"48i"},{"time":"45768i","midiNote":74,"note":"D5","velocity":1,"duration":"48i"},{"time":"45768i","midiNote":77,"note":"F5","velocity":1,"duration":"48i"},{"time":"45816i","midiNote":62,"note":"D4","velocity":1,"duration":"48i"},{"time":"45816i","midiNote":65,"note":"F4","velocity":1,"duration":"48i"},{"time":"45816i","midiNote":71,"note":"B4","velocity":1,"duration":"48i"},{"time":"45816i","midiNote":74,"note":"D5","velocity":1,"duration":"48i"},{"time":"45864i","midiNote":72,"note":"C5","velocity":1,"duration":"48i"},{"time":"45864i","midiNote":75,"note":"D#5","velocity":1,"duration":"48i"},{"time":"45888i","midiNote":31,"note":"G1","velocity":1,"duration":"24i"},{"time":"45888i","midiNote":43,"note":"G2","velocity":1,"duration":"24i"},{"time":"45912i","midiNote":31,"note":"G1","velocity":1,"duration":"24i"},{"time":"45912i","midiNote":43,"note":"G2","velocity":1,"duration":"24i"},{"time":"45912i","midiNote":74,"note":"D5","velocity":1,"duration":"48i"},{"time":"45912i","midiNote":77,"note":"F5","velocity":1,"duration":"48i"},{"time":"45936i","midiNote":31,"note":"G1","velocity":1,"duration":"24i"},{"time":"45936i","midiNote":43,"note":"G2","velocity":1,"duration":"24i"},{"time":"45960i","midiNote":36,"note":"C2","velocity":1,"duration":"24i"},{"time":"45960i","midiNote":48,"note":"C3","velocity":1,"duration":"24i"},{"time":"45960i","midiNote":72,"note":"C5","velocity":1,"duration":"24i"},{"time":"45960i","midiNote":75,"note":"D#5","velocity":1,"duration":"24i"},{"time":"45984i","midiNote":43,"note":"G2","velocity":1,"duration":"24i"},{"time":"45984i","midiNote":67,"note":"G4","velocity":1,"duration":"24i"},{"time":"45984i","midiNote":79,"note":"G5","velocity":1,"duration":"24i"},{"time":"46008i","midiNote":43,"note":"G2","velocity":1,"duration":"24i"},{"time":"46008i","midiNote":67,"note":"G4","velocity":1,"duration":"24i"},{"time":"46008i","midiNote":79,"note":"G5","velocity":1,"duration":"24i"},{"time":"46032i","midiNote":43,"note":"G2","velocity":1,"duration":"24i"},{"time":"46032i","midiNote":67,"note":"G4","velocity":1,"duration":"24i"},{"time":"46032i","midiNote":79,"note":"G5","velocity":1,"duration":"24i"},{"time":"46056i","midiNote":43,"note":"G2","velocity":1,"duration":"24i"},{"time":"46056i","midiNote":67,"note":"G4","velocity":1,"duration":"24i"},{"time":"46056i","midiNote":79,"note":"G5","velocity":1,"duration":"24i"},{"time":"46080i","midiNote":43,"note":"G2","velocity":1,"duration":"24i"},{"time":"46080i","midiNote":55,"note":"G3","velocity":1,"duration":"24i"},{"time":"46080i","midiNote":79,"note":"G5","velocity":1,"duration":"24i"},{"time":"46080i","midiNote":91,"note":"G6","velocity":1,"duration":"24i"},{"time":"46104i","midiNote":43,"note":"G2","velocity":1,"duration":"24i"},{"time":"46104i","midiNote":55,"note":"G3","velocity":1,"duration":"24i"},{"time":"46104i","midiNote":79,"note":"G5","velocity":1,"duration":"24i"},{"time":"46104i","midiNote":91,"note":"G6","velocity":1,"duration":"24i"},{"time":"46128i","midiNote":43,"note":"G2","velocity":1,"duration":"24i"},{"time":"46128i","midiNote":55,"note":"G3","velocity":1,"duration":"24i"},{"time":"46128i","midiNote":79,"note":"G5","velocity":1,"duration":"24i"},{"time":"46128i","midiNote":91,"note":"G6","velocity":1,"duration":"24i"},{"time":"46152i","midiNote":43,"note":"G2","velocity":1,"duration":"24i"},{"time":"46152i","midiNote":55,"note":"G3","velocity":1,"duration":"24i"},{"time":"46152i","midiNote":79,"note":"G5","velocity":1,"duration":"24i"},{"time":"46152i","midiNote":91,"note":"G6","velocity":1,"duration":"24i"},{"time":"46176i","midiNote":43,"note":"G2","velocity":1,"duration":"24i"},{"time":"46176i","midiNote":55,"note":"G3","velocity":1,"duration":"24i"},{"time":"46176i","midiNote":79,"note":"G5","velocity":1,"duration":"24i"},{"time":"46176i","midiNote":91,"note":"G6","velocity":1,"duration":"24i"},{"time":"46200i","midiNote":43,"note":"G2","velocity":1,"duration":"24i"},{"time":"46200i","midiNote":55,"note":"G3","velocity":1,"duration":"24i"},{"time":"46200i","midiNote":79,"note":"G5","velocity":1,"duration":"24i"},{"time":"46200i","midiNote":91,"note":"G6","velocity":1,"duration":"24i"},{"time":"46224i","midiNote":43,"note":"G2","velocity":1,"duration":"24i"},{"time":"46224i","midiNote":55,"note":"G3","velocity":1,"duration":"24i"},{"time":"46224i","midiNote":79,"note":"G5","velocity":1,"duration":"24i"},{"time":"46224i","midiNote":91,"note":"G6","velocity":1,"duration":"24i"},{"time":"46248i","midiNote":43,"note":"G2","velocity":1,"duration":"24i"},{"time":"46248i","midiNote":55,"note":"G3","velocity":1,"duration":"24i"},{"time":"46248i","midiNote":79,"note":"G5","velocity":1,"duration":"24i"},{"time":"46248i","midiNote":91,"note":"G6","velocity":1,"duration":"24i"},{"time":"46272i","midiNote":43,"note":"G2","velocity":1,"duration":"24i"},{"time":"46272i","midiNote":55,"note":"G3","velocity":1,"duration":"24i"},{"time":"46272i","midiNote":79,"note":"G5","velocity":1,"duration":"24i"},{"time":"46272i","midiNote":91,"note":"G6","velocity":1,"duration":"24i"},{"time":"46296i","midiNote":43,"note":"G2","velocity":1,"duration":"24i"},{"time":"46296i","midiNote":55,"note":"G3","velocity":1,"duration":"24i"},{"time":"46296i","midiNote":79,"note":"G5","velocity":1,"duration":"24i"},{"time":"46296i","midiNote":91,"note":"G6","velocity":1,"duration":"24i"},{"time":"46320i","midiNote":43,"note":"G2","velocity":1,"duration":"24i"},{"time":"46320i","midiNote":55,"note":"G3","velocity":1,"duration":"24i"},{"time":"46320i","midiNote":79,"note":"G5","velocity":1,"duration":"24i"},{"time":"46320i","midiNote":91,"note":"G6","velocity":1,"duration":"24i"},{"time":"46344i","midiNote":39,"note":"D#2","velocity":1,"duration":"96i"},{"time":"46344i","midiNote":43,"note":"G2","velocity":1,"duration":"96i"},{"time":"46344i","midiNote":51,"note":"D#3","velocity":1,"duration":"96i"},{"time":"46344i","midiNote":79,"note":"G5","velocity":1,"duration":"96i"},{"time":"46344i","midiNote":87,"note":"D#6","velocity":1,"duration":"96i"},{"time":"46344i","midiNote":91,"note":"G6","velocity":1,"duration":"96i"},{"time":"46464i","midiNote":41,"note":"F2","velocity":1,"duration":"24i"},{"time":"46464i","midiNote":43,"note":"G2","velocity":1,"duration":"24i"},{"time":"46464i","midiNote":53,"note":"F3","velocity":1,"duration":"24i"},{"time":"46464i","midiNote":79,"note":"G5","velocity":1,"duration":"24i"},{"time":"46464i","midiNote":89,"note":"F6","velocity":1,"duration":"24i"},{"time":"46464i","midiNote":91,"note":"G6","velocity":1,"duration":"24i"},{"time":"46488i","midiNote":41,"note":"F2","velocity":1,"duration":"24i"},{"time":"46488i","midiNote":43,"note":"G2","velocity":1,"duration":"24i"},{"time":"46488i","midiNote":53,"note":"F3","velocity":1,"duration":"24i"},{"time":"46488i","midiNote":79,"note":"G5","velocity":1,"duration":"24i"},{"time":"46488i","midiNote":89,"note":"F6","velocity":1,"duration":"24i"},{"time":"46488i","midiNote":91,"note":"G6","velocity":1,"duration":"24i"},{"time":"46512i","midiNote":41,"note":"F2","velocity":1,"duration":"24i"},{"time":"46512i","midiNote":43,"note":"G2","velocity":1,"duration":"24i"},{"time":"46512i","midiNote":53,"note":"F3","velocity":1,"duration":"24i"},{"time":"46512i","midiNote":79,"note":"G5","velocity":1,"duration":"24i"},{"time":"46512i","midiNote":89,"note":"F6","velocity":1,"duration":"24i"},{"time":"46512i","midiNote":91,"note":"G6","velocity":1,"duration":"24i"},{"time":"46536i","midiNote":38,"note":"D2","velocity":1,"duration":"192i"},{"time":"46536i","midiNote":43,"note":"G2","velocity":1,"duration":"192i"},{"time":"46536i","midiNote":50,"note":"D3","velocity":1,"duration":"192i"},{"time":"46536i","midiNote":79,"note":"G5","velocity":1,"duration":"192i"},{"time":"46536i","midiNote":86,"note":"D6","velocity":1,"duration":"192i"},{"time":"46536i","midiNote":91,"note":"G6","velocity":1,"duration":"192i"},{"time":"46752i","midiNote":67,"note":"G4","velocity":1,"duration":"24i"},{"time":"46776i","midiNote":67,"note":"G4","velocity":1,"duration":"24i"},{"time":"46800i","midiNote":67,"note":"G4","velocity":1,"duration":"24i"},{"time":"46824i","midiNote":36,"note":"C2","velocity":1,"duration":"192i"},{"time":"46824i","midiNote":43,"note":"G2","velocity":1,"duration":"192i"},{"time":"46824i","midiNote":63,"note":"D#4","velocity":1,"duration":"144i"},{"time":"46848i","midiNote":68,"note":"G#4","velocity":1,"duration":"24i"},{"time":"46872i","midiNote":68,"note":"G#4","velocity":1,"duration":"24i"},{"time":"46896i","midiNote":68,"note":"G#4","velocity":1,"duration":"24i"},{"time":"46920i","midiNote":67,"note":"G4","velocity":1,"duration":"24i"},{"time":"46944i","midiNote":75,"note":"D#5","velocity":1,"duration":"24i"},{"time":"46968i","midiNote":75,"note":"D#5","velocity":1,"duration":"24i"},{"time":"46992i","midiNote":75,"note":"D#5","velocity":1,"duration":"24i"},{"time":"47016i","midiNote":36,"note":"C2","velocity":1,"duration":"192i"},{"time":"47016i","midiNote":43,"note":"G2","velocity":1,"duration":"192i"},{"time":"47016i","midiNote":72,"note":"C5","velocity":1,"duration":"120i"},{"time":"47064i","midiNote":80,"note":"G#5","velocity":1,"duration":"48i"},{"time":"47112i","midiNote":79,"note":"G5","velocity":1,"duration":"24i"},{"time":"47136i","midiNote":67,"note":"G4","velocity":1,"duration":"24i"},{"time":"47160i","midiNote":67,"note":"G4","velocity":1,"duration":"24i"},{"time":"47184i","midiNote":67,"note":"G4","velocity":1,"duration":"24i"},{"time":"47208i","midiNote":36,"note":"C2","velocity":1,"duration":"312i"},{"time":"47208i","midiNote":43,"note":"G2","velocity":1,"duration":"312i"},{"time":"47208i","midiNote":63,"note":"D#4","velocity":1,"duration":"144i"},{"time":"47232i","midiNote":68,"note":"G#4","velocity":1,"duration":"24i"},{"time":"47256i","midiNote":68,"note":"G#4","velocity":1,"duration":"24i"},{"time":"47280i","midiNote":68,"note":"G#4","velocity":1,"duration":"24i"},{"time":"47304i","midiNote":67,"note":"G4","velocity":1,"duration":"24i"},{"time":"47328i","midiNote":75,"note":"D#5","velocity":1,"duration":"24i"},{"time":"47352i","midiNote":75,"note":"D#5","velocity":1,"duration":"24i"},{"time":"47376i","midiNote":75,"note":"D#5","velocity":1,"duration":"24i"},{"time":"47400i","midiNote":72,"note":"C5","velocity":1,"duration":"120i"},{"time":"47448i","midiNote":80,"note":"G#5","velocity":1,"duration":"48i"},{"time":"47496i","midiNote":79,"note":"G5","velocity":1,"duration":"24i"},{"time":"47520i","midiNote":31,"note":"G1","velocity":1,"duration":"24i"},{"time":"47520i","midiNote":43,"note":"G2","velocity":1,"duration":"24i"},{"time":"47520i","midiNote":67,"note":"G4","velocity":1,"duration":"24i"},{"time":"47520i","midiNote":71,"note":"B4","velocity":1,"duration":"24i"},{"time":"47520i","midiNote":74,"note":"D5","velocity":1,"duration":"24i"},{"time":"47520i","midiNote":79,"note":"G5","velocity":1,"duration":"24i"},{"time":"47544i","midiNote":31,"note":"G1","velocity":1,"duration":"24i"},{"time":"47544i","midiNote":43,"note":"G2","velocity":1,"duration":"24i"},{"time":"47544i","midiNote":67,"note":"G4","velocity":1,"duration":"24i"},{"time":"47544i","midiNote":71,"note":"B4","velocity":1,"duration":"24i"},{"time":"47544i","midiNote":74,"note":"D5","velocity":1,"duration":"24i"},{"time":"47544i","midiNote":79,"note":"G5","velocity":1,"duration":"24i"},{"time":"47568i","midiNote":31,"note":"G1","velocity":1,"duration":"24i"},{"time":"47568i","midiNote":43,"note":"G2","velocity":1,"duration":"24i"},{"time":"47568i","midiNote":67,"note":"G4","velocity":1,"duration":"24i"},{"time":"47568i","midiNote":71,"note":"B4","velocity":1,"duration":"24i"},{"time":"47568i","midiNote":74,"note":"D5","velocity":1,"duration":"24i"},{"time":"47568i","midiNote":79,"note":"G5","velocity":1,"duration":"24i"},{"time":"47592i","midiNote":36,"note":"C2","velocity":1,"duration":"48i"},{"time":"47592i","midiNote":48,"note":"C3","velocity":1,"duration":"48i"},{"time":"47592i","midiNote":67,"note":"G4","velocity":1,"duration":"48i"},{"time":"47592i","midiNote":72,"note":"C5","velocity":1,"duration":"48i"},{"time":"47592i","midiNote":75,"note":"D#5","velocity":1,"duration":"48i"},{"time":"47592i","midiNote":79,"note":"G5","velocity":1,"duration":"48i"},{"time":"47712i","midiNote":31,"note":"G1","velocity":1,"duration":"24i"},{"time":"47712i","midiNote":43,"note":"G2","velocity":1,"duration":"24i"},{"time":"47712i","midiNote":67,"note":"G4","velocity":1,"duration":"24i"},{"time":"47712i","midiNote":71,"note":"B4","velocity":1,"duration":"24i"},{"time":"47712i","midiNote":74,"note":"D5","velocity":1,"duration":"24i"},{"time":"47712i","midiNote":79,"note":"G5","velocity":1,"duration":"24i"},{"time":"47736i","midiNote":31,"note":"G1","velocity":1,"duration":"24i"},{"time":"47736i","midiNote":43,"note":"G2","velocity":1,"duration":"24i"},{"time":"47736i","midiNote":67,"note":"G4","velocity":1,"duration":"24i"},{"time":"47736i","midiNote":71,"note":"B4","velocity":1,"duration":"24i"},{"time":"47736i","midiNote":74,"note":"D5","velocity":1,"duration":"24i"},{"time":"47736i","midiNote":79,"note":"G5","velocity":1,"duration":"24i"},{"time":"47760i","midiNote":31,"note":"G1","velocity":1,"duration":"24i"},{"time":"47760i","midiNote":43,"note":"G2","velocity":1,"duration":"24i"},{"time":"47760i","midiNote":67,"note":"G4","velocity":1,"duration":"24i"},{"time":"47760i","midiNote":71,"note":"B4","velocity":1,"duration":"24i"},{"time":"47760i","midiNote":74,"note":"D5","velocity":1,"duration":"24i"},{"time":"47760i","midiNote":79,"note":"G5","velocity":1,"duration":"24i"},{"time":"47784i","midiNote":36,"note":"C2","velocity":1,"duration":"48i"},{"time":"47784i","midiNote":48,"note":"C3","velocity":1,"duration":"48i"},{"time":"47784i","midiNote":67,"note":"G4","velocity":1,"duration":"48i"},{"time":"47784i","midiNote":72,"note":"C5","velocity":1,"duration":"48i"},{"time":"47784i","midiNote":75,"note":"D#5","velocity":1,"duration":"48i"},{"time":"47784i","midiNote":79,"note":"G5","velocity":1,"duration":"48i"},{"time":"47904i","midiNote":31,"note":"G1","velocity":1,"duration":"24i"},{"time":"47904i","midiNote":43,"note":"G2","velocity":1,"duration":"24i"},{"time":"47904i","midiNote":67,"note":"G4","velocity":1,"duration":"24i"},{"time":"47904i","midiNote":71,"note":"B4","velocity":1,"duration":"24i"},{"time":"47904i","midiNote":74,"note":"D5","velocity":1,"duration":"24i"},{"time":"47904i","midiNote":79,"note":"G5","velocity":1,"duration":"24i"},{"time":"47928i","midiNote":31,"note":"G1","velocity":1,"duration":"24i"},{"time":"47928i","midiNote":43,"note":"G2","velocity":1,"duration":"24i"},{"time":"47928i","midiNote":67,"note":"G4","velocity":1,"duration":"24i"},{"time":"47928i","midiNote":71,"note":"B4","velocity":1,"duration":"24i"},{"time":"47928i","midiNote":74,"note":"D5","velocity":1,"duration":"24i"},{"time":"47928i","midiNote":79,"note":"G5","velocity":1,"duration":"24i"},{"time":"47952i","midiNote":31,"note":"G1","velocity":1,"duration":"24i"},{"time":"47952i","midiNote":43,"note":"G2","velocity":1,"duration":"24i"},{"time":"47952i","midiNote":67,"note":"G4","velocity":1,"duration":"24i"},{"time":"47952i","midiNote":71,"note":"B4","velocity":1,"duration":"24i"},{"time":"47952i","midiNote":74,"note":"D5","velocity":1,"duration":"24i"},{"time":"47952i","midiNote":79,"note":"G5","velocity":1,"duration":"24i"},{"time":"47976i","midiNote":36,"note":"C2","velocity":1,"duration":"48i"},{"time":"47976i","midiNote":48,"note":"C3","velocity":1,"duration":"48i"},{"time":"47976i","midiNote":67,"note":"G4","velocity":1,"duration":"48i"},{"time":"47976i","midiNote":72,"note":"C5","velocity":1,"duration":"48i"},{"time":"47976i","midiNote":75,"note":"D#5","velocity":1,"duration":"48i"},{"time":"47976i","midiNote":79,"note":"G5","velocity":1,"duration":"48i"},{"time":"48024i","midiNote":31,"note":"G1","velocity":1,"duration":"48i"},{"time":"48024i","midiNote":43,"note":"G2","velocity":1,"duration":"48i"},{"time":"48024i","midiNote":67,"note":"G4","velocity":1,"duration":"48i"},{"time":"48024i","midiNote":71,"note":"B4","velocity":1,"duration":"48i"},{"time":"48024i","midiNote":74,"note":"D5","velocity":1,"duration":"48i"},{"time":"48024i","midiNote":79,"note":"G5","velocity":1,"duration":"48i"},{"time":"48072i","midiNote":36,"note":"C2","velocity":1,"duration":"48i"},{"time":"48072i","midiNote":48,"note":"C3","velocity":1,"duration":"48i"},{"time":"48072i","midiNote":67,"note":"G4","velocity":1,"duration":"48i"},{"time":"48072i","midiNote":72,"note":"C5","velocity":1,"duration":"48i"},{"time":"48072i","midiNote":75,"note":"D#5","velocity":1,"duration":"48i"},{"time":"48072i","midiNote":79,"note":"G5","velocity":1,"duration":"48i"},{"time":"48120i","midiNote":31,"note":"G1","velocity":1,"duration":"48i"},{"time":"48120i","midiNote":43,"note":"G2","velocity":1,"duration":"48i"},{"time":"48120i","midiNote":67,"note":"G4","velocity":1,"duration":"48i"},{"time":"48120i","midiNote":71,"note":"B4","velocity":1,"duration":"48i"},{"time":"48120i","midiNote":74,"note":"D5","velocity":1,"duration":"48i"},{"time":"48120i","midiNote":79,"note":"G5","velocity":1,"duration":"48i"},{"time":"48168i","midiNote":36,"note":"C2","velocity":1,"duration":"48i"},{"time":"48168i","midiNote":48,"note":"C3","velocity":1,"duration":"48i"},{"time":"48168i","midiNote":67,"note":"G4","velocity":1,"duration":"48i"},{"time":"48168i","midiNote":72,"note":"C5","velocity":1,"duration":"48i"},{"time":"48168i","midiNote":75,"note":"D#5","velocity":1,"duration":"48i"},{"time":"48168i","midiNote":79,"note":"G5","velocity":1,"duration":"48i"},{"time":"48216i","midiNote":43,"note":"G2","velocity":1,"duration":"48i"},{"time":"48216i","midiNote":55,"note":"G3","velocity":1,"duration":"48i"},{"time":"48216i","midiNote":71,"note":"B4","velocity":1,"duration":"48i"},{"time":"48216i","midiNote":74,"note":"D5","velocity":1,"duration":"48i"},{"time":"48216i","midiNote":79,"note":"G5","velocity":1,"duration":"48i"},{"time":"48216i","midiNote":83,"note":"B5","velocity":1,"duration":"48i"},{"time":"48264i","midiNote":48,"note":"C3","velocity":1,"duration":"48i"},{"time":"48264i","midiNote":51,"note":"D#3","velocity":1,"duration":"48i"},{"time":"48264i","midiNote":55,"note":"G3","velocity":1,"duration":"48i"},{"time":"48264i","midiNote":60,"note":"C4","velocity":1,"duration":"48i"},{"time":"48264i","midiNote":72,"note":"C5","velocity":1,"duration":"48i"},{"time":"48264i","midiNote":75,"note":"D#5","velocity":1,"duration":"48i"},{"time":"48264i","midiNote":79,"note":"G5","velocity":1,"duration":"48i"},{"time":"48264i","midiNote":84,"note":"C6","velocity":1,"duration":"48i"},{"time":"48312i","midiNote":43,"note":"G2","velocity":1,"duration":"48i"},{"time":"48312i","midiNote":55,"note":"G3","velocity":1,"duration":"48i"},{"time":"48312i","midiNote":71,"note":"B4","velocity":1,"duration":"48i"},{"time":"48312i","midiNote":74,"note":"D5","velocity":1,"duration":"48i"},{"time":"48312i","midiNote":79,"note":"G5","velocity":1,"duration":"48i"},{"time":"48312i","midiNote":83,"note":"B5","velocity":1,"duration":"48i"},{"time":"48360i","midiNote":48,"note":"C3","velocity":1,"duration":"48i"},{"time":"48360i","midiNote":51,"note":"D#3","velocity":1,"duration":"48i"},{"time":"48360i","midiNote":55,"note":"G3","velocity":1,"duration":"48i"},{"time":"48360i","midiNote":60,"note":"C4","velocity":1,"duration":"48i"},{"time":"48360i","midiNote":72,"note":"C5","velocity":1,"duration":"48i"},{"time":"48360i","midiNote":75,"note":"D#5","velocity":1,"duration":"48i"},{"time":"48360i","midiNote":79,"note":"G5","velocity":1,"duration":"48i"},{"time":"48360i","midiNote":84,"note":"C6","velocity":1,"duration":"48i"},{"time":"48456i","midiNote":31,"note":"G1","velocity":1,"duration":"48i"},{"time":"48456i","midiNote":43,"note":"G2","velocity":1,"duration":"48i"},{"time":"48456i","midiNote":59,"note":"B3","velocity":1,"duration":"48i"},{"time":"48456i","midiNote":62,"note":"D4","velocity":1,"duration":"48i"},{"time":"48456i","midiNote":67,"note":"G4","velocity":1,"duration":"48i"},{"time":"48456i","midiNote":71,"note":"B4","velocity":1,"duration":"48i"},{"time":"48552i","midiNote":36,"note":"C2","velocity":1,"duration":"48i"},{"time":"48552i","midiNote":39,"note":"D#2","velocity":1,"duration":"48i"},{"time":"48552i","midiNote":43,"note":"G2","velocity":1,"duration":"48i"},{"time":"48552i","midiNote":48,"note":"C3","velocity":1,"duration":"48i"},{"time":"48552i","midiNote":60,"note":"C4","velocity":1,"duration":"48i"},{"time":"48552i","midiNote":63,"note":"D#4","velocity":1,"duration":"48i"},{"time":"48552i","midiNote":67,"note":"G4","velocity":1,"duration":"48i"},{"time":"48552i","midiNote":72,"note":"C5","velocity":1,"duration":"48i"}]}