{"header":{"timeSignature":[4,4],"PPQ":48,"tempo":170},"notes":[{"time":"0i","midiNote":55,"note":"G3","velocity":1,"duration":"96i"},{"time":"0i","midiNote":59,"note":"B3","velocity":1,"duration":"96i"},{"time":"0i","midiNote":62,"note":"D4","velocity":1,"duration":"96i"},{"time":"0i","midiNote":74,"note":"D5","velocity":1,"duration":"48i"},{"time":"48i","midiNote":67,"note":"G4","velocity":1,"duration":"24i"},{"time":"72i","midiNote":69,"note":"A4","velocity":1,"duration":"24i"},{"time":"96i","midiNote":57,"note":"A3","velocity":1,"duration":"48i"},{"time":"96i","midiNote":71,"note":"B4","velocity":1,"duration":"24i"},{"time":"120i","midiNote":72,"note":"C5","velocity":1,"duration":"24i"},{"time":"144i","midiNote":59,"note":"B3","velocity":1,"duration":"144i"},{"time":"144i","midiNote":74,"note":"D5","velocity":1,"duration":"48i"},{"time":"192i","midiNote":67,"note":"G4","velocity":1,"duration":"48i"},{"time":"240i","midiNote":67,"note":"G4","velocity":1,"duration":"48i"},{"time":"288i","midiNote":60,"note":"C4","velocity":1,"duration":"144i"},{"time":"288i","midiNote":76,"note":"E5","velocity":1,"duration":"48i"},{"time":"336i","midiNote":72,"note":"C5","velocity":1,"duration":"24i"},{"time":"360i","midiNote":74,"note":"D5","velocity":1,"duration":"24i"},{"time":"384i","midiNote":76,"note":"E5","velocity":1,"duration":"24i"},{"time":"408i","midiNote":78,"note":"F#5","velocity":1,"duration":"24i"},{"time":"432i","midiNote":59,"note":"B3","velocity":1,"duration":"144i"},{"time":"432i","midiNote":79,"note":"G5","velocity":1,"duration":"48i"},{"time":"480i","midiNote":67,"note":"G4","velocity":1,"duration":"48i"},{"time":"528i","midiNote":67,"note":"G4","velocity":1,"duration":"48i"},{"time":"576i","midiNote":57,"note":"A3","velocity":1,"duration":"144i"},{"time":"576i","midiNote":72,"note":"C5","velocity":1,"duration":"48i"},{"time":"624i","midiNote":74,"note":"D5","velocity":1,"duration":"24i"},{"time":"648i","midiNote":72,"note":"C5","velocity":1,"duration":"24i"},{"time":"672i","midiNote":71,"note":"B4","velocity":1,"duration":"24i"},{"time":"696i","midiNote":69,"note":"A4","velocity":1,"duration":"24i"},{"time":"720i","midiNote":55,"note":"G3","velocity":1,"duration":"144i"},{"time":"720i","midiNote":71,"note":"B4","velocity":1,"duration":"48i"},{"time":"768i","midiNote":72,"note":"C5","velocity":1,"duration":"24i"},{"time":"792i","midiNote":71,"note":"B4","velocity":1,"duration":"24i"},{"time":"816i","midiNote":69,"note":"A4","velocity":1,"duration":"24i"},{"time":"840i","midiNote":67,"note":"G4","velocity":1,"duration":"24i"},{"time":"864i","midiNote":62,"note":"D4","velocity":1,"duration":"48i"},{"time":"864i","midiNote":66,"note":"F#4","velocity":1,"duration":"48i"},{"time":"912i","midiNote":59,"note":"B3","velocity":1,"duration":"48i"},{"time":"912i","midiNote":67,"note":"G4","velocity":1,"duration":"24i"},{"time":"936i","midiNote":69,"note":"A4","velocity":1,"duration":"24i"},{"time":"960i","midiNote":55,"note":"G3","velocity":1,"duration":"48i"},{"time":"960i","midiNote":71,"note":"B4","velocity":1,"duration":"24i"},{"time":"984i","midiNote":67,"note":"G4","velocity":1,"duration":"24i"},{"time":"1008i","midiNote":62,"note":"D4","velocity":1,"duration":"48i"},{"time":"1008i","midiNote":71,"note":"B4","velocity":1,"duration":"72i"},{"time":"1056i","midiNote":50,"note":"D3","velocity":1,"duration":"24i"},{"time":"1080i","midiNote":60,"note":"C4","velocity":1,"duration":"24i"},{"time":"1080i","midiNote":69,"note":"A4","velocity":1,"duration":"72i"},{"time":"1104i","midiNote":59,"note":"B3","velocity":1,"duration":"24i"},{"time":"1128i","midiNote":57,"note":"A3","velocity":1,"duration":"24i"},{"time":"1152i","midiNote":59,"note":"B3","velocity":1,"duration":"96i"},{"time":"1152i","midiNote":74,"note":"D5","velocity":1,"duration":"48i"},{"time":"1200i","midiNote":67,"note":"G4","velocity":1,"duration":"24i"},{"time":"1224i","midiNote":69,"note":"A4","velocity":1,"duration":"24i"},{"time":"1248i","midiNote":57,"note":"A3","velocity":1,"duration":"48i"},{"time":"1248i","midiNote":71,"note":"B4","velocity":1,"duration":"24i"},{"time":"1272i","midiNote":72,"note":"C5","velocity":1,"duration":"24i"},{"time":"1296i","midiNote":55,"note":"G3","velocity":1,"duration":"48i"},{"time":"1296i","midiNote":74,"note":"D5","velocity":1,"duration":"48i"},{"time":"1344i","midiNote":59,"note":"B3","velocity":1,"duration":"48i"},{"time":"1344i","midiNote":67,"note":"G4","velocity":1,"duration":"48i"},{"time":"1392i","midiNote":55,"note":"G3","velocity":1,"duration":"48i"},{"time":"1392i","midiNote":67,"note":"G4","velocity":1,"duration":"48i"},{"time":"1440i","midiNote":60,"note":"C4","velocity":1,"duration":"144i"},{"time":"1440i","midiNote":76,"note":"E5","velocity":1,"duration":"48i"},{"time":"1488i","midiNote":72,"note":"C5","velocity":1,"duration":"24i"},{"time":"1512i","midiNote":74,"note":"D5","velocity":1,"duration":"24i"},{"time":"1536i","midiNote":76,"note":"E5","velocity":1,"duration":"24i"},{"time":"1560i","midiNote":78,"note":"F#5","velocity":1,"duration":"24i"},{"time":"1584i","midiNote":59,"note":"B3","velocity":1,"duration":"48i"},{"time":"1584i","midiNote":79,"note":"G5","velocity":1,"duration":"48i"},{"time":"1632i","midiNote":60,"note":"C4","velocity":1,"duration":"24i"},{"time":"1632i","midiNote":67,"note":"G4","velocity":1,"duration":"48i"},{"time":"1656i","midiNote":59,"note":"B3","velocity":1,"duration":"24i"},{"time":"1680i","midiNote":57,"note":"A3","velocity":1,"duration":"24i"},{"time":"1680i","midiNote":67,"note":"G4","velocity":1,"duration":"48i"},{"time":"1704i","midiNote":55,"note":"G3","velocity":1,"duration":"24i"},{"time":"1728i","midiNote":57,"note":"A3","velocity":1,"duration":"96i"},{"time":"1728i","midiNote":72,"note":"C5","velocity":1,"duration":"48i"},{"time":"1776i","midiNote":74,"note":"D5","velocity":1,"duration":"24i"},{"time":"1800i","midiNote":72,"note":"C5","velocity":1,"duration":"24i"},{"time":"1824i","midiNote":54,"note":"F#3","velocity":1,"duration":"48i"},{"time":"1824i","midiNote":71,"note":"B4","velocity":1,"duration":"24i"},{"time":"1848i","midiNote":69,"note":"A4","velocity":1,"duration":"24i"},{"time":"1872i","midiNote":55,"note":"G3","velocity":1,"duration":"96i"},{"time":"1872i","midiNote":71,"note":"B4","velocity":1,"duration":"48i"},{"time":"1920i","midiNote":72,"note":"C5","velocity":1,"duration":"24i"},{"time":"1944i","midiNote":71,"note":"B4","velocity":1,"duration":"24i"},{"time":"1968i","midiNote":59,"note":"B3","velocity":1,"duration":"48i"},{"time":"1968i","midiNote":69,"note":"A4","velocity":1,"duration":"24i"},{"time":"1992i","midiNote":67,"note":"G4","velocity":1,"duration":"24i"},{"time":"2016i","midiNote":60,"note":"C4","velocity":1,"duration":"48i"},{"time":"2016i","midiNote":69,"note":"A4","velocity":1,"duration":"48i"},{"time":"2064i","midiNote":62,"note":"D4","velocity":1,"duration":"48i"},{"time":"2064i","midiNote":71,"note":"B4","velocity":1,"duration":"24i"},{"time":"2088i","midiNote":69,"note":"A4","velocity":1,"duration":"24i"},{"time":"2112i","midiNote":50,"note":"D3","velocity":1,"duration":"48i"},{"time":"2112i","midiNote":67,"note":"G4","velocity":1,"duration":"24i"},{"time":"2136i","midiNote":66,"note":"F#4","velocity":1,"duration":"24i"},{"time":"2160i","midiNote":55,"note":"G3","velocity":1,"duration":"96i"},{"time":"2160i","midiNote":67,"note":"G4","velocity":1,"duration":"144i"},{"time":"2256i","midiNote":43,"note":"G2","velocity":1,"duration":"48i"},{"time":"2304i","midiNote":55,"note":"G3","velocity":1,"duration":"144i"},{"time":"2304i","midiNote":83,"note":"B5","velocity":1,"duration":"48i"},{"time":"2352i","midiNote":79,"note":"G5","velocity":1,"duration":"24i"},{"time":"2376i","midiNote":81,"note":"A5","velocity":1,"duration":"24i"},{"time":"2400i","midiNote":83,"note":"B5","velocity":1,"duration":"24i"},{"time":"2424i","midiNote":79,"note":"G5","velocity":1,"duration":"24i"},{"time":"2448i","midiNote":54,"note":"F#3","velocity":1,"duration":"144i"},{"time":"2448i","midiNote":81,"note":"A5","velocity":1,"duration":"48i"},{"time":"2496i","midiNote":74,"note":"D5","velocity":1,"duration":"24i"},{"time":"2520i","midiNote":76,"note":"E5","velocity":1,"duration":"24i"},{"time":"2544i","midiNote":78,"note":"F#5","velocity":1,"duration":"24i"},{"time":"2568i","midiNote":74,"note":"D5","velocity":1,"duration":"24i"},{"time":"2592i","midiNote":52,"note":"E3","velocity":1,"duration":"48i"},{"time":"2592i","midiNote":79,"note":"G5","velocity":1,"duration":"48i"},{"time":"2640i","midiNote":55,"note":"G3","velocity":1,"duration":"48i"},{"time":"2640i","midiNote":76,"note":"E5","velocity":1,"duration":"24i"},{"time":"2664i","midiNote":78,"note":"F#5","velocity":1,"duration":"24i"},{"time":"2688i","midiNote":52,"note":"E3","velocity":1,"duration":"48i"},{"time":"2688i","midiNote":79,"note":"G5","velocity":1,"duration":"24i"},{"time":"2712i","midiNote":74,"note":"D5","velocity":1,"duration":"24i"},{"time":"2736i","midiNote":57,"note":"A3","velocity":1,"duration":"96i"},{"time":"2736i","midiNote":73,"note":"C#5","velocity":1,"duration":"48i"},{"time":"2784i","midiNote":71,"note":"B4","velocity":1,"duration":"24i"},{"time":"2808i","midiNote":73,"note":"C#5","velocity":1,"duration":"24i"},{"time":"2832i","midiNote":45,"note":"A2","velocity":1,"duration":"48i"},{"time":"2832i","midiNote":69,"note":"A4","velocity":1,"duration":"48i"},{"time":"2880i","midiNote":57,"note":"A3","velocity":1,"duration":"144i"},{"time":"2880i","midiNote":69,"note":"A4","velocity":1,"duration":"24i"},{"time":"2904i","midiNote":71,"note":"B4","velocity":1,"duration":"24i"},{"time":"2928i","midiNote":73,"note":"C#5","velocity":1,"duration":"24i"},{"time":"2952i","midiNote":74,"note":"D5","velocity":1,"duration":"24i"},{"time":"2976i","midiNote":76,"note":"E5","velocity":1,"duration":"24i"},{"time":"3000i","midiNote":78,"note":"F#5","velocity":1,"duration":"24i"},{"time":"3024i","midiNote":59,"note":"B3","velocity":1,"duration":"48i"},{"time":"3024i","midiNote":79,"note":"G5","velocity":1,"duration":"48i"},{"time":"3072i","midiNote":62,"note":"D4","velocity":1,"duration":"48i"},{"time":"3072i","midiNote":78,"note":"F#5","velocity":1,"duration":"48i"},{"time":"3120i","midiNote":61,"note":"C#4","velocity":1,"duration":"48i"},{"time":"3120i","midiNote":76,"note":"E5","velocity":1,"duration":"48i"},{"time":"3168i","midiNote":62,"note":"D4","velocity":1,"duration":"48i"},{"time":"3168i","midiNote":78,"note":"F#5","velocity":1,"duration":"48i"},{"time":"3216i","midiNote":54,"note":"F#3","velocity":1,"duration":"48i"},{"time":"3216i","midiNote":69,"note":"A4","velocity":1,"duration":"48i"},{"time":"3264i","midiNote":57,"note":"A3","velocity":1,"duration":"48i"},{"time":"3264i","midiNote":73,"note":"C#5","velocity":1,"duration":"48i"},{"time":"3312i","midiNote":62,"note":"D4","velocity":1,"duration":"48i"},{"time":"3312i","midiNote":74,"note":"D5","velocity":1,"duration":"144i"},{"time":"3360i","midiNote":50,"note":"D3","velocity":1,"duration":"48i"},{"time":"3408i","midiNote":60,"note":"C4","velocity":1,"duration":"48i"},{"time":"3456i","midiNote":59,"note":"B3","velocity":1,"duration":"96i"},{"time":"3456i","midiNote":74,"note":"D5","velocity":1,"duration":"48i"},{"time":"3504i","midiNote":62,"note":"D4","velocity":1,"duration":"96i"},{"time":"3504i","midiNote":67,"note":"G4","velocity":1,"duration":"24i"},{"time":"3528i","midiNote":66,"note":"F#4","velocity":1,"duration":"24i"},{"time":"3552i","midiNote":59,"note":"B3","velocity":1,"duration":"48i"},{"time":"3552i","midiNote":67,"note":"G4","velocity":1,"duration":"48i"},{"time":"3600i","midiNote":60,"note":"C4","velocity":1,"duration":"96i"},{"time":"3600i","midiNote":76,"note":"E5","velocity":1,"duration":"48i"},{"time":"3648i","midiNote":64,"note":"E4","velocity":1,"duration":"96i"},{"time":"3648i","midiNote":67,"note":"G4","velocity":1,"duration":"24i"},{"time":"3672i","midiNote":66,"note":"F#4","velocity":1,"duration":"24i"},{"time":"3696i","midiNote":60,"note":"C4","velocity":1,"duration":"48i"},{"time":"3696i","midiNote":67,"note":"G4","velocity":1,"duration":"48i"},{"time":"3744i","midiNote":59,"note":"B3","velocity":1,"duration":"48i"},{"time":"3744i","midiNote":74,"note":"D5","velocity":1,"duration":"48i"},{"time":"3792i","midiNote":57,"note":"A3","velocity":1,"duration":"48i"},{"time":"3792i","midiNote":72,"note":"C5","velocity":1,"duration":"48i"},{"time":"3840i","midiNote":55,"note":"G3","velocity":1,"duration":"48i"},{"time":"3840i","midiNote":71,"note":"B4","velocity":1,"duration":"48i"},{"time":"3888i","midiNote":62,"note":"D4","velocity":1,"duration":"96i"},{"time":"3888i","midiNote":69,"note":"A4","velocity":1,"duration":"24i"},{"time":"3912i","midiNote":67,"note":"G4","velocity":1,"duration":"24i"},{"time":"3936i","midiNote":66,"note":"F#4","velocity":1,"duration":"24i"},{"time":"3960i","midiNote":67,"note":"G4","velocity":1,"duration":"24i"},{"time":"3984i","midiNote":69,"note":"A4","velocity":1,"duration":"48i"},{"time":"4032i","midiNote":50,"note":"D3","velocity":1,"duration":"144i"},{"time":"4032i","midiNote":62,"note":"D4","velocity":1,"duration":"24i"},{"time":"4056i","midiNote":64,"note":"E4","velocity":1,"duration":"24i"},{"time":"4080i","midiNote":66,"note":"F#4","velocity":1,"duration":"24i"},{"time":"4104i","midiNote":67,"note":"G4","velocity":1,"duration":"24i"},{"time":"4128i","midiNote":54,"note":"F#3","velocity":1,"duration":"48i"},{"time":"4128i","midiNote":69,"note":"A4","velocity":1,"duration":"24i"},{"time":"4152i","midiNote":71,"note":"B4","velocity":1,"duration":"24i"},{"time":"4176i","midiNote":52,"note":"E3","velocity":1,"duration":"48i"},{"time":"4176i","midiNote":72,"note":"C5","velocity":1,"duration":"48i"},{"time":"4224i","midiNote":55,"note":"G3","velocity":1,"duration":"48i"},{"time":"4224i","midiNote":71,"note":"B4","velocity":1,"duration":"48i"},{"time":"4272i","midiNote":54,"note":"F#3","velocity":1,"duration":"48i"},{"time":"4272i","midiNote":69,"note":"A4","velocity":1,"duration":"48i"},{"time":"4320i","midiNote":55,"note":"G3","velocity":1,"duration":"48i"},{"time":"4320i","midiNote":71,"note":"B4","velocity":1,"duration":"24i"},{"time":"4344i","midiNote":74,"note":"D5","velocity":1,"duration":"24i"},{"time":"4368i","midiNote":47,"note":"B2","velocity":1,"duration":"48i"},{"time":"4368i","midiNote":67,"note":"G4","velocity":1,"duration":"48i"},{"time":"4416i","midiNote":50,"note":"D3","velocity":1,"duration":"48i"},{"time":"4416i","midiNote":66,"note":"F#4","velocity":1,"duration":"48i"},{"time":"4464i","midiNote":55,"note":"G3","velocity":1,"duration":"48i"},{"time":"4464i","midiNote":59,"note":"B3","velocity":1,"duration":"144i"},{"time":"4464i","midiNote":62,"note":"D4","velocity":1,"duration":"144i"},{"time":"4464i","midiNote":67,"note":"G4","velocity":1,"duration":"144i"},{"time":"4512i","midiNote":50,"note":"D3","velocity":1,"duration":"48i"},{"time":"4560i","midiNote":43,"note":"G2","velocity":1,"duration":"48i"}]}
