{
  "header": {
    "tempo": 64,
    "timeSignature": [
      4,
      4
    ]
  },
  "notes": [
    {
      "time": "0i",
      "midiNote": 60,
      "note": "C4",
      "velocity": 1,
      "duration": "96i"
    },
    {
      "time": "12i",
      "midiNote": 64,
      "note": "E4",
      "velocity": 1,
      "duration": "84i"
    },
    {
      "time": "24i",
      "midiNote": 67,
      "note": "G4",
      "velocity": 1,
      "duration": "12i"
    },
    {
      "time": "36i",
      "midiNote": 72,
      "note": "C5",
      "velocity": 1,
      "duration": "12i"
    },
    {
      "time": "48i",
      "midiNote": 76,
      "note": "E5",
      "velocity": 1,
      "duration": "12i"
    },
    {
      "time": "60i",
      "midiNote": 67,
      "note": "G4",
      "velocity": 1,
      "duration": "12i"
    },
    {
      "time": "72i",
      "midiNote": 72,
      "note": "C5",
      "velocity": 1,
      "duration": "12i"
    },
    {
      "time": "84i",
      "midiNote": 76,
      "note": "E5",
      "velocity": 1,
      "duration": "12i"
    },
    {
      "time": "96i",
      "midiNote": 60,
      "note": "C4",
      "velocity": 1,
      "duration": "96i"
    },
    {
      "time": "108i",
      "midiNote": 64,
      "note": "E4",
      "velocity": 1,
      "duration": "84i"
    },
    {
      "time": "120i",
      "midiNote": 67,
      "note": "G4",
      "velocity": 1,
      "duration": "12i"
    },
    {
      "time": "132i",
      "midiNote": 72,
      "note": "C5",
      "velocity": 1,
      "duration": "12i"
    },
    {
      "time": "144i",
      "midiNote": 76,
      "note": "E5",
      "velocity": 1,
      "duration": "12i"
    },
    {
      "time": "156i",
      "midiNote": 67,
      "note": "G4",
      "velocity": 1,
      "duration": "12i"
    },
    {
      "time": "168i",
      "midiNote": 72,
      "note": "C5",
      "velocity": 1,
      "duration": "12i"
    },
    {
      "time": "180i",
      "midiNote": 76,
      "note": "E5",
      "velocity": 1,
      "duration": "12i"
    },
    {
      "time": "192i",
      "midiNote": 60,
      "note": "C4",
      "velocity": 1,
      "duration": "96i"
    },
    {
      "time": "204i",
      "midiNote": 62,
      "note": "D4",
      "velocity": 1,
      "duration": "84i"
    },
    {
      "time": "216i",
      "midiNote": 69,
      "note": "A4",
      "velocity": 1,
      "duration": "12i"
    },
    {
      "time": "228i",
      "midiNote": 74,
      "note": "D5",
      "velocity": 1,
      "duration": "12i"
    },
    {
      "time": "240i",
      "midiNote": 77,
      "note": "F5",
      "velocity": 1,
      "duration": "12i"
    },
    {
      "time": "252i",
      "midiNote": 69,
      "note": "A4",
      "velocity": 1,
      "duration": "12i"
    },
    {
      "time": "264i",
      "midiNote": 74,
      "note": "D5",
      "velocity": 1,
      "duration": "12i"
    },
    {
      "time": "276i",
      "midiNote": 77,
      "note": "F5",
      "velocity": 1,
      "duration": "12i"
    },
    {
      "time": "288i",
      "midiNote": 60,
      "note": "C4",
      "velocity": 1,
      "duration": "96i"
    },
    {
      "time": "300i",
      "midiNote": 62,
      "note": "D4",
      "velocity": 1,
      "duration": "84i"
    },
    {
      "time": "312i",
      "midiNote": 69,
      "note": "A4",
      "velocity": 1,
      "duration": "12i"
    },
    {
      "time": "324i",
      "midiNote": 74,
      "note": "D5",
      "velocity": 1,
      "duration": "12i"
    },
    {
      "time": "336i",
      "midiNote": 77,
      "note": "F5",
      "velocity": 1,
      "duration": "12i"
    },
    {
      "time": "348i",
      "midiNote": 69,
      "note": "A4",
      "velocity": 1,
      "duration": "12i"
    },
    {
      "time": "360i",
      "midiNote": 74,
      "note": "D5",
      "velocity": 1,
      "duration": "12i"
    },
    {
      "time": "372i",
      "midiNote": 77,
      "note": "F5",
      "velocity": 1,
      "duration": "12i"
    },
    {
      "time": "384i",
      "midiNote": 59,
      "note": "B3",
      "velocity": 1,
      "duration": "96i"
    },
    {
      "time": "396i",
      "midiNote": 62,
      "note": "D4",
      "velocity": 1,
      "duration": "84i"
    },
    {
      "time": "408i",
      "midiNote": 67,
      "note": "G4",
      "velocity": 1,
      "duration": "12i"
    },
    {
      "time": "420i",
      "midiNote": 74,
      "note": "D5",
      "velocity": 1,
      "duration": "12i"
    },
    {
      "time": "432i",
      "midiNote": 77,
      "note": "F5",
      "velocity": 1,
      "duration": "12i"
    },
    {
      "time": "444i",
      "midiNote": 67,
      "note": "G4",
      "velocity": 1,
      "duration": "12i"
    },
    {
      "time": "456i",
      "midiNote": 74,
      "note": "D5",
      "velocity": 1,
      "duration": "12i"
    },
    {
      "time": "468i",
      "midiNote": 77,
      "note": "F5",
      "velocity": 1,
      "duration": "12i"
    },
    {
      "time": "480i",
      "midiNote": 59,
      "note": "B3",
      "velocity": 1,
      "duration": "96i"
    },
    {
      "time": "492i",
      "midiNote": 62,
      "note": "D4",
      "velocity": 1,
      "duration": "84i"
    },
    {
      "time": "504i",
      "midiNote": 67,
      "note": "G4",
      "velocity": 1,
      "duration": "12i"
    },
    {
      "time": "516i",
      "midiNote": 74,
      "note": "D5",
      "velocity": 1,
      "duration": "12i"
    },
    {
      "time": "528i",
      "midiNote": 77,
      "note": "F5",
      "velocity": 1,
      "duration": "12i"
    },
    {
      "time": "540i",
      "midiNote": 67,
      "note": "G4",
      "velocity": 1,
      "duration": "12i"
    },
    {
      "time": "552i",
      "midiNote": 74,
      "note": "D5",
      "velocity": 1,
      "duration": "12i"
    },
    {
      "time": "564i",
      "midiNote": 77,
      "note": "F5",
      "velocity": 1,
      "duration": "12i"
    },
    {
      "time": "576i",
      "midiNote": 60,
      "note": "C4",
      "velocity": 1,
      "duration": "96i"
    },
    {
      "time": "588i",
      "midiNote": 64,
      "note": "E4",
      "velocity": 1,
      "duration": "84i"
    },
    {
      "time": "600i",
      "midiNote": 67,
      "note": "G4",
      "velocity": 1,
      "duration": "12i"
    },
    {
      "time": "612i",
      "midiNote": 72,
      "note": "C5",
      "velocity": 1,
      "duration": "12i"
    },
    {
      "time": "624i",
      "midiNote": 76,
      "note": "E5",
      "velocity": 1,
      "duration": "12i"
    },
    {
      "time": "636i",
      "midiNote": 67,
      "note": "G4",
      "velocity": 1,
      "duration": "12i"
    },
    {
      "time": "648i",
      "midiNote": 72,
      "note": "C5",
      "velocity": 1,
      "duration": "12i"
    },
    {
      "time": "660i",
      "midiNote": 76,
      "note": "E5",
      "velocity": 1,
      "duration": "12i"
    },
    {
      "time": "672i",
      "midiNote": 60,
      "note": "C4",
      "velocity": 1,
      "duration": "96i"
    },
    {
      "time": "684i",
      "midiNote": 64,
      "note": "E4",
      "velocity": 1,
      "duration": "84i"
    },
    {
      "time": "696i",
      "midiNote": 67,
      "note": "G4",
      "velocity": 1,
      "duration": "12i"
    },
    {
      "time": "708i",
      "midiNote": 72,
      "note": "C5",
      "velocity": 1,
      "duration": "12i"
    },
    {
      "time": "720i",
      "midiNote": 76,
      "note": "E5",
      "velocity": 1,
      "duration": "12i"
    },
    {
      "time": "732i",
      "midiNote": 67,
      "note": "G4",
      "velocity": 1,
      "duration": "12i"
    },
    {
      "time": "744i",
      "midiNote": 72,
      "note": "C5",
      "velocity": 1,
      "duration": "12i"
    },
    {
      "time": "756i",
      "midiNote": 76,
      "note": "E5",
      "velocity": 1,
      "duration": "12i"
    },
    {
      "time": "768i",
      "midiNote": 60,
      "note": "C4",
      "velocity": 1,
      "duration": "96i"
    },
    {
      "time": "780i",
      "midiNote": 64,
      "note": "E4",
      "velocity": 1,
      "duration": "84i"
    },
    {
      "time": "792i",
      "midiNote": 69,
      "note": "A4",
      "velocity": 1,
      "duration": "12i"
    },
    {
      "time": "804i",
      "midiNote": 76,
      "note": "E5",
      "velocity": 1,
      "duration": "12i"
    },
    {
      "time": "816i",
      "midiNote": 81,
      "note": "A5",
      "velocity": 1,
      "duration": "12i"
    },
    {
      "time": "828i",
      "midiNote": 69,
      "note": "A4",
      "velocity": 1,
      "duration": "12i"
    },
    {
      "time": "840i",
      "midiNote": 76,
      "note": "E5",
      "velocity": 1,
      "duration": "12i"
    },
    {
      "time": "852i",
      "midiNote": 81,
      "note": "A5",
      "velocity": 1,
      "duration": "12i"
    },
    {
      "time": "864i",
      "midiNote": 60,
      "note": "C4",
      "velocity": 1,
      "duration": "96i"
    },
    {
      "time": "876i",
      "midiNote": 64,
      "note": "E4",
      "velocity": 1,
      "duration": "84i"
    },
    {
      "time": "888i",
      "midiNote": 69,
      "note": "A4",
      "velocity": 1,
      "duration": "12i"
    },
    {
      "time": "900i",
      "midiNote": 76,
      "note": "E5",
      "velocity": 1,
      "duration": "12i"
    },
    {
      "time": "912i",
      "midiNote": 81,
      "note": "A5",
      "velocity": 1,
      "duration": "12i"
    },
    {
      "time": "924i",
      "midiNote": 69,
      "note": "A4",
      "velocity": 1,
      "duration": "12i"
    },
    {
      "time": "936i",
      "midiNote": 76,
      "note": "E5",
      "velocity": 1,
      "duration": "12i"
    },
    {
      "time": "948i",
      "midiNote": 81,
      "note": "A5",
      "velocity": 1,
      "duration": "12i"
    },
    {
      "time": "960i",
      "midiNote": 60,
      "note": "C4",
      "velocity": 1,
      "duration": "96i"
    },
    {
      "time": "972i",
      "midiNote": 62,
      "note": "D4",
      "velocity": 1,
      "duration": "84i"
    },
    {
      "time": "984i",
      "midiNote": 66,
      "note": "F#4",
      "velocity": 1,
      "duration": "12i"
    },
    {
      "time": "996i",
      "midiNote": 69,
      "note": "A4",
      "velocity": 1,
      "duration": "12i"
    },
    {
      "time": "1008i",
      "midiNote": 74,
      "note": "D5",
      "velocity": 1,
      "duration": "12i"
    },
    {
      "time": "1020i",
      "midiNote": 66,
      "note": "F#4",
      "velocity": 1,
      "duration": "12i"
    },
    {
      "time": "1032i",
      "midiNote": 69,
      "note": "A4",
      "velocity": 1,
      "duration": "12i"
    },
    {
      "time": "1044i",
      "midiNote": 74,
      "note": "D5",
      "velocity": 1,
      "duration": "12i"
    },
    {
      "time": "1056i",
      "midiNote": 60,
      "note": "C4",
      "velocity": 1,
      "duration": "96i"
    },
    {
      "time": "1068i",
      "midiNote": 62,
      "note": "D4",
      "velocity": 1,
      "duration": "84i"
    },
    {
      "time": "1080i",
      "midiNote": 66,
      "note": "F#4",
      "velocity": 1,
      "duration": "12i"
    },
    {
      "time": "1092i",
      "midiNote": 69,
      "note": "A4",
      "velocity": 1,
      "duration": "12i"
    },
    {
      "time": "1104i",
      "midiNote": 74,
      "note": "D5",
      "velocity": 1,
      "duration": "12i"
    },
    {
      "time": "1116i",
      "midiNote": 66,
      "note": "F#4",
      "velocity": 1,
      "duration": "12i"
    },
    {
      "time": "1128i",
      "midiNote": 69,
      "note": "A4",
      "velocity": 1,
      "duration": "12i"
    },
    {
      "time": "1140i",
      "midiNote": 74,
      "note": "D5",
      "velocity": 1,
      "duration": "12i"
    },
    {
      "time": "1152i",
      "midiNote": 59,
      "note": "B3",
      "velocity": 1,
      "duration": "96i"
    },
    {
      "time": "1164i",
      "midiNote": 62,
      "note": "D4",
      "velocity": 1,
      "duration": "84i"
    },
    {
      "time": "1176i",
      "midiNote": 67,
      "note": "G4",
      "velocity": 1,
      "duration": "12i"
    },
    {
      "time": "1188i",
      "midiNote": 74,
      "note": "D5",
      "velocity": 1,
      "duration": "12i"
    },
    {
      "time": "1200i",
      "midiNote": 79,
      "note": "G5",
      "velocity": 1,
      "duration": "12i"
    },
    {
      "time": "1212i",
      "midiNote": 67,
      "note": "G4",
      "velocity": 1,
      "duration": "12i"
    },
    {
      "time": "1224i",
      "midiNote": 74,
      "note": "D5",
      "velocity": 1,
      "duration": "12i"
    },
    {
      "time": "1236i",
      "midiNote": 79,
      "note": "G5",
      "velocity": 1,
      "duration": "12i"
    },
    {
      "time": "1248i",
      "midiNote": 59,
      "note": "B3",
      "velocity": 1,
      "duration": "96i"
    },
    {
      "time": "1260i",
      "midiNote": 62,
      "note": "D4",
      "velocity": 1,
      "duration": "84i"
    },
    {
      "time": "1272i",
      "midiNote": 67,
      "note": "G4",
      "velocity": 1,
      "duration": "12i"
    },
    {
      "time": "1284i",
      "midiNote": 74,
      "note": "D5",
      "velocity": 1,
      "duration": "12i"
    },
    {
      "time": "1296i",
      "midiNote": 79,
      "note": "G5",
      "velocity": 1,
      "duration": "12i"
    },
    {
      "time": "1308i",
      "midiNote": 67,
      "note": "G4",
      "velocity": 1,
      "duration": "12i"
    },
    {
      "time": "1320i",
      "midiNote": 74,
      "note": "D5",
      "velocity": 1,
      "duration": "12i"
    },
    {
      "time": "1332i",
      "midiNote": 79,
      "note": "G5",
      "velocity": 1,
      "duration": "12i"
    },
    {
      "time": "1344i",
      "midiNote": 59,
      "note": "B3",
      "velocity": 1,
      "duration": "96i"
    },
    {
      "time": "1356i",
      "midiNote": 60,
      "note": "C4",
      "velocity": 1,
      "duration": "84i"
    },
    {
      "time": "1368i",
      "midiNote": 64,
      "note": "E4",
      "velocity": 1,
      "duration": "12i"
    },
    {
      "time": "1380i",
      "midiNote": 67,
      "note": "G4",
      "velocity": 1,
      "duration": "12i"
    },
    {
      "time": "1392i",
      "midiNote": 72,
      "note": "C5",
      "velocity": 1,
      "duration": "12i"
    },
    {
      "time": "1404i",
      "midiNote": 64,
      "note": "E4",
      "velocity": 1,
      "duration": "12i"
    },
    {
      "time": "1416i",
      "midiNote": 67,
      "note": "G4",
      "velocity": 1,
      "duration": "12i"
    },
    {
      "time": "1428i",
      "midiNote": 72,
      "note": "C5",
      "velocity": 1,
      "duration": "12i"
    },
    {
      "time": "1440i",
      "midiNote": 59,
      "note": "B3",
      "velocity": 1,
      "duration": "96i"
    },
    {
      "time": "1452i",
      "midiNote": 60,
      "note": "C4",
      "velocity": 1,
      "duration": "84i"
    },
    {
      "time": "1464i",
      "midiNote": 64,
      "note": "E4",
      "velocity": 1,
      "duration": "12i"
    },
    {
      "time": "1476i",
      "midiNote": 67,
      "note": "G4",
      "velocity": 1,
      "duration": "12i"
    },
    {
      "time": "1488i",
      "midiNote": 72,
      "note": "C5",
      "velocity": 1,
      "duration": "12i"
    },
    {
      "time": "1500i",
      "midiNote": 64,
      "note": "E4",
      "velocity": 1,
      "duration": "12i"
    },
    {
      "time": "1512i",
      "midiNote": 67,
      "note": "G4",
      "velocity": 1,
      "duration": "12i"
    },
    {
      "time": "1524i",
      "midiNote": 72,
      "note": "C5",
      "velocity": 1,
      "duration": "12i"
    },
    {
      "time": "1536i",
      "midiNote": 57,
      "note": "A3",
      "velocity": 1,
      "duration": "96i"
    },
    {
      "time": "1548i",
      "midiNote": 60,
      "note": "C4",
      "velocity": 1,
      "duration": "84i"
    },
    {
      "time": "1560i",
      "midiNote": 64,
      "note": "E4",
      "velocity": 1,
      "duration": "12i"
    },
    {
      "time": "1572i",
      "midiNote": 67,
      "note": "G4",
      "velocity": 1,
      "duration": "12i"
    },
    {
      "time": "1584i",
      "midiNote": 72,
      "note": "C5",
      "velocity": 1,
      "duration": "12i"
    },
    {
      "time": "1596i",
      "midiNote": 64,
      "note": "E4",
      "velocity": 1,
      "duration": "12i"
    },
    {
      "time": "1608i",
      "midiNote": 67,
      "note": "G4",
      "velocity": 1,
      "duration": "12i"
    },
    {
      "time": "1620i",
      "midiNote": 72,
      "note": "C5",
      "velocity": 1,
      "duration": "12i"
    },
    {
      "time": "1632i",
      "midiNote": 57,
      "note": "A3",
      "velocity": 1,
      "duration": "96i"
    },
    {
      "time": "1644i",
      "midiNote": 60,
      "note": "C4",
      "velocity": 1,
      "duration": "84i"
    },
    {
      "time": "1656i",
      "midiNote": 64,
      "note": "E4",
      "velocity": 1,
      "duration": "12i"
    },
    {
      "time": "1668i",
      "midiNote": 67,
      "note": "G4",
      "velocity": 1,
      "duration": "12i"
    },
    {
      "time": "1680i",
      "midiNote": 72,
      "note": "C5",
      "velocity": 1,
      "duration": "12i"
    },
    {
      "time": "1692i",
      "midiNote": 64,
      "note": "E4",
      "velocity": 1,
      "duration": "12i"
    },
    {
      "time": "1704i",
      "midiNote": 67,
      "note": "G4",
      "velocity": 1,
      "duration": "12i"
    },
    {
      "time": "1716i",
      "midiNote": 72,
      "note": "C5",
      "velocity": 1,
      "duration": "12i"
    },
    {
      "time": "1728i",
      "midiNote": 50,
      "note": "D3",
      "velocity": 1,
      "duration": "96i"
    },
    {
      "time": "1740i",
      "midiNote": 57,
      "note": "A3",
      "velocity": 1,
      "duration": "84i"
    },
    {
      "time": "1752i",
      "midiNote": 62,
      "note": "D4",
      "velocity": 1,
      "duration": "12i"
    },
    {
      "time": "1764i",
      "midiNote": 66,
      "note": "F#4",
      "velocity": 1,
      "duration": "12i"
    },
    {
      "time": "1776i",
      "midiNote": 72,
      "note": "C5",
      "velocity": 1,
      "duration": "12i"
    },
    {
      "time": "1788i",
      "midiNote": 62,
      "note": "D4",
      "velocity": 1,
      "duration": "12i"
    },
    {
      "time": "1800i",
      "midiNote": 66,
      "note": "F#4",
      "velocity": 1,
      "duration": "12i"
    },
    {
      "time": "1812i",
      "midiNote": 72,
      "note": "C5",
      "velocity": 1,
      "duration": "12i"
    },
    {
      "time": "1824i",
      "midiNote": 50,
      "note": "D3",
      "velocity": 1,
      "duration": "96i"
    },
    {
      "time": "1836i",
      "midiNote": 57,
      "note": "A3",
      "velocity": 1,
      "duration": "84i"
    },
    {
      "time": "1848i",
      "midiNote": 62,
      "note": "D4",
      "velocity": 1,
      "duration": "12i"
    },
    {
      "time": "1860i",
      "midiNote": 66,
      "note": "F#4",
      "velocity": 1,
      "duration": "12i"
    },
    {
      "time": "1872i",
      "midiNote": 72,
      "note": "C5",
      "velocity": 1,
      "duration": "12i"
    },
    {
      "time": "1884i",
      "midiNote": 62,
      "note": "D4",
      "velocity": 1,
      "duration": "12i"
    },
    {
      "time": "1896i",
      "midiNote": 66,
      "note": "F#4",
      "velocity": 1,
      "duration": "12i"
    },
    {
      "time": "1908i",
      "midiNote": 72,
      "note": "C5",
      "velocity": 1,
      "duration": "12i"
    },
    {
      "time": "1920i",
      "midiNote": 55,
      "note": "G3",
      "velocity": 1,
      "duration": "96i"
    },
    {
      "time": "1932i",
      "midiNote": 59,
      "note": "B3",
      "velocity": 1,
      "duration": "84i"
    },
    {
      "time": "1944i",
      "midiNote": 62,
      "note": "D4",
      "velocity": 1,
      "duration": "12i"
    },
    {
      "time": "1956i",
      "midiNote": 67,
      "note": "G4",
      "velocity": 1,
      "duration": "12i"
    },
    {
      "time": "1968i",
      "midiNote": 71,
      "note": "B4",
      "velocity": 1,
      "duration": "12i"
    },
    {
      "time": "1980i",
      "midiNote": 62,
      "note": "D4",
      "velocity": 1,
      "duration": "12i"
    },
    {
      "time": "1992i",
      "midiNote": 67,
      "note": "G4",
      "velocity": 1,
      "duration": "12i"
    },
    {
      "time": "2004i",
      "midiNote": 71,
      "note": "B4",
      "velocity": 1,
      "duration": "12i"
    },
    {
      "time": "2016i",
      "midiNote": 55,
      "note": "G3",
      "velocity": 1,
      "duration": "96i"
    },
    {
      "time": "2028i",
      "midiNote": 59,
      "note": "B3",
      "velocity": 1,
      "duration": "84i"
    },
    {
      "time": "2040i",
      "midiNote": 62,
      "note": "D4",
      "velocity": 1,
      "duration": "12i"
    },
    {
      "time": "2052i",
      "midiNote": 67,
      "note": "G4",
      "velocity": 1,
      "duration": "12i"
    },
    {
      "time": "2064i",
      "midiNote": 71,
      "note": "B4",
      "velocity": 1,
      "duration": "12i"
    },
    {
      "time": "2076i",
      "midiNote": 62,
      "note": "D4",
      "velocity": 1,
      "duration": "12i"
    },
    {
      "time": "2088i",
      "midiNote": 67,
      "note": "G4",
      "velocity": 1,
      "duration": "12i"
    },
    {
      "time": "2100i",
      "midiNote": 71,
      "note": "B4",
      "velocity": 1,
      "duration": "12i"
    },
    {
      "time": "2112i",
      "midiNote": 55,
      "note": "G3",
      "velocity": 1,
      "duration": "96i"
    },
    {
      "time": "2124i",
      "midiNote": 58,
      "note": "A#3",
      "velocity": 1,
      "duration": "84i"
    },
    {
      "time": "2136i",
      "midiNote": 64,
      "note": "E4",
      "velocity": 1,
      "duration": "12i"
    },
    {
      "time": "2148i",
      "midiNote": 67,
      "note": "G4",
      "velocity": 1,
      "duration": "12i"
    },
    {
      "time": "2160i",
      "midiNote": 73,
      "note": "C#5",
      "velocity": 1,
      "duration": "12i"
    },
    {
      "time": "2172i",
      "midiNote": 64,
      "note": "E4",
      "velocity": 1,
      "duration": "12i"
    },
    {
      "time": "2184i",
      "midiNote": 67,
      "note": "G4",
      "velocity": 1,
      "duration": "12i"
    },
    {
      "time": "2196i",
      "midiNote": 73,
      "note": "C#5",
      "velocity": 1,
      "duration": "12i"
    },
    {
      "time": "2208i",
      "midiNote": 55,
      "note": "G3",
      "velocity": 1,
      "duration": "96i"
    },
    {
      "time": "2220i",
      "midiNote": 58,
      "note": "A#3",
      "velocity": 1,
      "duration": "84i"
    },
    {
      "time": "2232i",
      "midiNote": 64,
      "note": "E4",
      "velocity": 1,
      "duration": "12i"
    },
    {
      "time": "2244i",
      "midiNote": 67,
      "note": "G4",
      "velocity": 1,
      "duration": "12i"
    },
    {
      "time": "2256i",
      "midiNote": 73,
      "note": "C#5",
      "velocity": 1,
      "duration": "12i"
    },
    {
      "time": "2268i",
      "midiNote": 64,
      "note": "E4",
      "velocity": 1,
      "duration": "12i"
    },
    {
      "time": "2280i",
      "midiNote": 67,
      "note": "G4",
      "velocity": 1,
      "duration": "12i"
    },
    {
      "time": "2292i",
      "midiNote": 73,
      "note": "C#5",
      "velocity": 1,
      "duration": "12i"
    },
    {
      "time": "2304i",
      "midiNote": 53,
      "note": "F3",
      "velocity": 1,
      "duration": "96i"
    },
    {
      "time": "2316i",
      "midiNote": 57,
      "note": "A3",
      "velocity": 1,
      "duration": "84i"
    },
    {
      "time": "2328i",
      "midiNote": 62,
      "note": "D4",
      "velocity": 1,
      "duration": "12i"
    },
    {
      "time": "2340i",
      "midiNote": 69,
      "note": "A4",
      "velocity": 1,
      "duration": "12i"
    },
    {
      "time": "2352i",
      "midiNote": 74,
      "note": "D5",
      "velocity": 1,
      "duration": "12i"
    },
    {
      "time": "2364i",
      "midiNote": 62,
      "note": "D4",
      "velocity": 1,
      "duration": "12i"
    },
    {
      "time": "2376i",
      "midiNote": 69,
      "note": "A4",
      "velocity": 1,
      "duration": "12i"
    },
    {
      "time": "2388i",
      "midiNote": 74,
      "note": "D5",
      "velocity": 1,
      "duration": "12i"
    },
    {
      "time": "2400i",
      "midiNote": 53,
      "note": "F3",
      "velocity": 1,
      "duration": "96i"
    },
    {
      "time": "2412i",
      "midiNote": 57,
      "note": "A3",
      "velocity": 1,
      "duration": "84i"
    },
    {
      "time": "2424i",
      "midiNote": 62,
      "note": "D4",
      "velocity": 1,
      "duration": "12i"
    },
    {
      "time": "2436i",
      "midiNote": 69,
      "note": "A4",
      "velocity": 1,
      "duration": "12i"
    },
    {
      "time": "2448i",
      "midiNote": 74,
      "note": "D5",
      "velocity": 1,
      "duration": "12i"
    },
    {
      "time": "2460i",
      "midiNote": 62,
      "note": "D4",
      "velocity": 1,
      "duration": "12i"
    },
    {
      "time": "2472i",
      "midiNote": 69,
      "note": "A4",
      "velocity": 1,
      "duration": "12i"
    },
    {
      "time": "2484i",
      "midiNote": 74,
      "note": "D5",
      "velocity": 1,
      "duration": "12i"
    },
    {
      "time": "2496i",
      "midiNote": 53,
      "note": "F3",
      "velocity": 1,
      "duration": "96i"
    },
    {
      "time": "2508i",
      "midiNote": 56,
      "note": "G#3",
      "velocity": 1,
      "duration": "84i"
    },
    {
      "time": "2520i",
      "midiNote": 62,
      "note": "D4",
      "velocity": 1,
      "duration": "12i"
    },
    {
      "time": "2532i",
      "midiNote": 65,
      "note": "F4",
      "velocity": 1,
      "duration": "12i"
    },
    {
      "time": "2544i",
      "midiNote": 71,
      "note": "B4",
      "velocity": 1,
      "duration": "12i"
    },
    {
      "time": "2556i",
      "midiNote": 62,
      "note": "D4",
      "velocity": 1,
      "duration": "12i"
    },
    {
      "time": "2568i",
      "midiNote": 65,
      "note": "F4",
      "velocity": 1,
      "duration": "12i"
    },
    {
      "time": "2580i",
      "midiNote": 71,
      "note": "B4",
      "velocity": 1,
      "duration": "12i"
    },
    {
      "time": "2592i",
      "midiNote": 53,
      "note": "F3",
      "velocity": 1,
      "duration": "96i"
    },
    {
      "time": "2604i",
      "midiNote": 56,
      "note": "G#3",
      "velocity": 1,
      "duration": "84i"
    },
    {
      "time": "2616i",
      "midiNote": 62,
      "note": "D4",
      "velocity": 1,
      "duration": "12i"
    },
    {
      "time": "2628i",
      "midiNote": 65,
      "note": "F4",
      "velocity": 1,
      "duration": "12i"
    },
    {
      "time": "2640i",
      "midiNote": 71,
      "note": "B4",
      "velocity": 1,
      "duration": "12i"
    },
    {
      "time": "2652i",
      "midiNote": 62,
      "note": "D4",
      "velocity": 1,
      "duration": "12i"
    },
    {
      "time": "2664i",
      "midiNote": 65,
      "note": "F4",
      "velocity": 1,
      "duration": "12i"
    },
    {
      "time": "2676i",
      "midiNote": 71,
      "note": "B4",
      "velocity": 1,
      "duration": "12i"
    },
    {
      "time": "2688i",
      "midiNote": 52,
      "note": "E3",
      "velocity": 1,
      "duration": "96i"
    },
    {
      "time": "2700i",
      "midiNote": 55,
      "note": "G3",
      "velocity": 1,
      "duration": "84i"
    },
    {
      "time": "2712i",
      "midiNote": 60,
      "note": "C4",
      "velocity": 1,
      "duration": "12i"
    },
    {
      "time": "2724i",
      "midiNote": 67,
      "note": "G4",
      "velocity": 1,
      "duration": "12i"
    },
    {
      "time": "2736i",
      "midiNote": 72,
      "note": "C5",
      "velocity": 1,
      "duration": "12i"
    },
    {
      "time": "2748i",
      "midiNote": 60,
      "note": "C4",
      "velocity": 1,
      "duration": "12i"
    },
    {
      "time": "2760i",
      "midiNote": 67,
      "note": "G4",
      "velocity": 1,
      "duration": "12i"
    },
    {
      "time": "2772i",
      "midiNote": 72,
      "note": "C5",
      "velocity": 1,
      "duration": "12i"
    },
    {
      "time": "2784i",
      "midiNote": 52,
      "note": "E3",
      "velocity": 1,
      "duration": "96i"
    },
    {
      "time": "2796i",
      "midiNote": 55,
      "note": "G3",
      "velocity": 1,
      "duration": "84i"
    },
    {
      "time": "2808i",
      "midiNote": 60,
      "note": "C4",
      "velocity": 1,
      "duration": "12i"
    },
    {
      "time": "2820i",
      "midiNote": 67,
      "note": "G4",
      "velocity": 1,
      "duration": "12i"
    },
    {
      "time": "2832i",
      "midiNote": 72,
      "note": "C5",
      "velocity": 1,
      "duration": "12i"
    },
    {
      "time": "2844i",
      "midiNote": 60,
      "note": "C4",
      "velocity": 1,
      "duration": "12i"
    },
    {
      "time": "2856i",
      "midiNote": 67,
      "note": "G4",
      "velocity": 1,
      "duration": "12i"
    },
    {
      "time": "2868i",
      "midiNote": 72,
      "note": "C5",
      "velocity": 1,
      "duration": "12i"
    },
    {
      "time": "2880i",
      "midiNote": 52,
      "note": "E3",
      "velocity": 1,
      "duration": "96i"
    },
    {
      "time": "2892i",
      "midiNote": 53,
      "note": "F3",
      "velocity": 1,
      "duration": "84i"
    },
    {
      "time": "2904i",
      "midiNote": 57,
      "note": "A3",
      "velocity": 1,
      "duration": "12i"
    },
    {
      "time": "2916i",
      "midiNote": 60,
      "note": "C4",
      "velocity": 1,
      "duration": "12i"
    },
    {
      "time": "2928i",
      "midiNote": 65,
      "note": "F4",
      "velocity": 1,
      "duration": "12i"
    },
    {
      "time": "2940i",
      "midiNote": 57,
      "note": "A3",
      "velocity": 1,
      "duration": "12i"
    },
    {
      "time": "2952i",
      "midiNote": 60,
      "note": "C4",
      "velocity": 1,
      "duration": "12i"
    },
    {
      "time": "2964i",
      "midiNote": 65,
      "note": "F4",
      "velocity": 1,
      "duration": "12i"
    },
    {
      "time": "2976i",
      "midiNote": 52,
      "note": "E3",
      "velocity": 1,
      "duration": "96i"
    },
    {
      "time": "2988i",
      "midiNote": 53,
      "note": "F3",
      "velocity": 1,
      "duration": "84i"
    },
    {
      "time": "3000i",
      "midiNote": 57,
      "note": "A3",
      "velocity": 1,
      "duration": "12i"
    },
    {
      "time": "3012i",
      "midiNote": 60,
      "note": "C4",
      "velocity": 1,
      "duration": "12i"
    },
    {
      "time": "3024i",
      "midiNote": 65,
      "note": "F4",
      "velocity": 1,
      "duration": "12i"
    },
    {
      "time": "3036i",
      "midiNote": 57,
      "note": "A3",
      "velocity": 1,
      "duration": "12i"
    },
    {
      "time": "3048i",
      "midiNote": 60,
      "note": "C4",
      "velocity": 1,
      "duration": "12i"
    },
    {
      "time": "3060i",
      "midiNote": 65,
      "note": "F4",
      "velocity": 1,
      "duration": "12i"
    },
    {
      "time": "3072i",
      "midiNote": 50,
      "note": "D3",
      "velocity": 1,
      "duration": "96i"
    },
    {
      "time": "3084i",
      "midiNote": 53,
      "note": "F3",
      "velocity": 1,
      "duration": "84i"
    },
    {
      "time": "3096i",
      "midiNote": 57,
      "note": "A3",
      "velocity": 1,
      "duration": "12i"
    },
    {
      "time": "3108i",
      "midiNote": 60,
      "note": "C4",
      "velocity": 1,
      "duration": "12i"
    },
    {
      "time": "3120i",
      "midiNote": 65,
      "note": "F4",
      "velocity": 1,
      "duration": "12i"
    },
    {
      "time": "3132i",
      "midiNote": 57,
      "note": "A3",
      "velocity": 1,
      "duration": "12i"
    },
    {
      "time": "3144i",
      "midiNote": 60,
      "note": "C4",
      "velocity": 1,
      "duration": "12i"
    },
    {
      "time": "3156i",
      "midiNote": 65,
      "note": "F4",
      "velocity": 1,
      "duration": "12i"
    },
    {
      "time": "3168i",
      "midiNote": 50,
      "note": "D3",
      "velocity": 1,
      "duration": "96i"
    },
    {
      "time": "3180i",
      "midiNote": 53,
      "note": "F3",
      "velocity": 1,
      "duration": "84i"
    },
    {
      "time": "3192i",
      "midiNote": 57,
      "note": "A3",
      "velocity": 1,
      "duration": "12i"
    },
    {
      "time": "3204i",
      "midiNote": 60,
      "note": "C4",
      "velocity": 1,
      "duration": "12i"
    },
    {
      "time": "3216i",
      "midiNote": 65,
      "note": "F4",
      "velocity": 1,
      "duration": "12i"
    },
    {
      "time": "3228i",
      "midiNote": 57,
      "note": "A3",
      "velocity": 1,
      "duration": "12i"
    },
    {
      "time": "3240i",
      "midiNote": 60,
      "note": "C4",
      "velocity": 1,
      "duration": "12i"
    },
    {
      "time": "3252i",
      "midiNote": 65,
      "note": "F4",
      "velocity": 1,
      "duration": "12i"
    },
    {
      "time": "3264i",
      "midiNote": 43,
      "note": "G2",
      "velocity": 1,
      "duration": "96i"
    },
    {
      "time": "3276i",
      "midiNote": 50,
      "note": "D3",
      "velocity": 1,
      "duration": "84i"
    },
    {
      "time": "3288i",
      "midiNote": 55,
      "note": "G3",
      "velocity": 1,
      "duration": "12i"
    },
    {
      "time": "3300i",
      "midiNote": 59,
      "note": "B3",
      "velocity": 1,
      "duration": "12i"
    },
    {
      "time": "3312i",
      "midiNote": 65,
      "note": "F4",
      "velocity": 1,
      "duration": "12i"
    },
    {
      "time": "3324i",
      "midiNote": 55,
      "note": "G3",
      "velocity": 1,
      "duration": "12i"
    },
    {
      "time": "3336i",
      "midiNote": 59,
      "note": "B3",
      "velocity": 1,
      "duration": "12i"
    },
    {
      "time": "3348i",
      "midiNote": 65,
      "note": "F4",
      "velocity": 1,
      "duration": "12i"
    },
    {
      "time": "3360i",
      "midiNote": 43,
      "note": "G2",
      "velocity": 1,
      "duration": "96i"
    },
    {
      "time": "3372i",
      "midiNote": 50,
      "note": "D3",
      "velocity": 1,
      "duration": "84i"
    },
    {
      "time": "3384i",
      "midiNote": 55,
      "note": "G3",
      "velocity": 1,
      "duration": "12i"
    },
    {
      "time": "3396i",
      "midiNote": 59,
      "note": "B3",
      "velocity": 1,
      "duration": "12i"
    },
    {
      "time": "3408i",
      "midiNote": 65,
      "note": "F4",
      "velocity": 1,
      "duration": "12i"
    },
    {
      "time": "3420i",
      "midiNote": 55,
      "note": "G3",
      "velocity": 1,
      "duration": "12i"
    },
    {
      "time": "3432i",
      "midiNote": 59,
      "note": "B3",
      "velocity": 1,
      "duration": "12i"
    },
    {
      "time": "3444i",
      "midiNote": 65,
      "note": "F4",
      "velocity": 1,
      "duration": "12i"
    },
    {
      "time": "3456i",
      "midiNote": 48,
      "note": "C3",
      "velocity": 1,
      "duration": "96i"
    },
    {
      "time": "3468i",
      "midiNote": 52,
      "note": "E3",
      "velocity": 1,
      "duration": "84i"
    },
    {
      "time": "3480i",
      "midiNote": 55,
      "note": "G3",
      "velocity": 1,
      "duration": "12i"
    },
    {
      "time": "3492i",
      "midiNote": 60,
      "note": "C4",
      "velocity": 1,
      "duration": "12i"
    },
    {
      "time": "3504i",
      "midiNote": 64,
      "note": "E4",
      "velocity": 1,
      "duration": "12i"
    },
    {
      "time": "3516i",
      "midiNote": 55,
      "note": "G3",
      "velocity": 1,
      "duration": "12i"
    },
    {
      "time": "3528i",
      "midiNote": 60,
      "note": "C4",
      "velocity": 1,
      "duration": "12i"
    },
    {
      "time": "3540i",
      "midiNote": 64,
      "note": "E4",
      "velocity": 1,
      "duration": "12i"
    },
    {
      "time": "3552i",
      "midiNote": 48,
      "note": "C3",
      "velocity": 1,
      "duration": "96i"
    },
    {
      "time": "3564i",
      "midiNote": 52,
      "note": "E3",
      "velocity": 1,
      "duration": "84i"
    },
    {
      "time": "3576i",
      "midiNote": 55,
      "note": "G3",
      "velocity": 1,
      "duration": "12i"
    },
    {
      "time": "3588i",
      "midiNote": 60,
      "note": "C4",
      "velocity": 1,
      "duration": "12i"
    },
    {
      "time": "3600i",
      "midiNote": 64,
      "note": "E4",
      "velocity": 1,
      "duration": "12i"
    },
    {
      "time": "3612i",
      "midiNote": 55,
      "note": "G3",
      "velocity": 1,
      "duration": "12i"
    },
    {
      "time": "3624i",
      "midiNote": 60,
      "note": "C4",
      "velocity": 1,
      "duration": "12i"
    },
    {
      "time": "3636i",
      "midiNote": 64,
      "note": "E4",
      "velocity": 1,
      "duration": "12i"
    },
    {
      "time": "3648i",
      "midiNote": 48,
      "note": "C3",
      "velocity": 1,
      "duration": "96i"
    },
    {
      "time": "3660i",
      "midiNote": 55,
      "note": "G3",
      "velocity": 1,
      "duration": "84i"
    },
    {
      "time": "3672i",
      "midiNote": 58,
      "note": "A#3",
      "velocity": 1,
      "duration": "12i"
    },
    {
      "time": "3684i",
      "midiNote": 60,
      "note": "C4",
      "velocity": 1,
      "duration": "12i"
    },
    {
      "time": "3696i",
      "midiNote": 64,
      "note": "E4",
      "velocity": 1,
      "duration": "12i"
    },
    {
      "time": "3708i",
      "midiNote": 58,
      "note": "A#3",
      "velocity": 1,
      "duration": "12i"
    },
    {
      "time": "3720i",
      "midiNote": 60,
      "note": "C4",
      "velocity": 1,
      "duration": "12i"
    },
    {
      "time": "3732i",
      "midiNote": 64,
      "note": "E4",
      "velocity": 1,
      "duration": "12i"
    },
    {
      "time": "3744i",
      "midiNote": 48,
      "note": "C3",
      "velocity": 1,
      "duration": "96i"
    },
    {
      "time": "3756i",
      "midiNote": 55,
      "note": "G3",
      "velocity": 1,
      "duration": "84i"
    },
    {
      "time": "3768i",
      "midiNote": 58,
      "note": "A#3",
      "velocity": 1,
      "duration": "12i"
    },
    {
      "time": "3780i",
      "midiNote": 60,
      "note": "C4",
      "velocity": 1,
      "duration": "12i"
    },
    {
      "time": "3792i",
      "midiNote": 64,
      "note": "E4",
      "velocity": 1,
      "duration": "12i"
    },
    {
      "time": "3804i",
      "midiNote": 58,
      "note": "A#3",
      "velocity": 1,
      "duration": "12i"
    },
    {
      "time": "3816i",
      "midiNote": 60,
      "note": "C4",
      "velocity": 1,
      "duration": "12i"
    },
    {
      "time": "3828i",
      "midiNote": 64,
      "note": "E4",
      "velocity": 1,
      "duration": "12i"
    },
    {
      "time": "3840i",
      "midiNote": 41,
      "note": "F2",
      "velocity": 1,
      "duration": "96i"
    },
    {
      "time": "3852i",
      "midiNote": 53,
      "note": "F3",
      "velocity": 1,
      "duration": "84i"
    },
    {
      "time": "3864i",
      "midiNote": 57,
      "note": "A3",
      "velocity": 1,
      "duration": "12i"
    },
    {
      "time": "3876i",
      "midiNote": 60,
      "note": "C4",
      "velocity": 1,
      "duration": "12i"
    },
    {
      "time": "3888i",
      "midiNote": 64,
      "note": "E4",
      "velocity": 1,
      "duration": "12i"
    },
    {
      "time": "3900i",
      "midiNote": 57,
      "note": "A3",
      "velocity": 1,
      "duration": "12i"
    },
    {
      "time": "3912i",
      "midiNote": 60,
      "note": "C4",
      "velocity": 1,
      "duration": "12i"
    },
    {
      "time": "3924i",
      "midiNote": 64,
      "note": "E4",
      "velocity": 1,
      "duration": "12i"
    },
    {
      "time": "3936i",
      "midiNote": 41,
      "note": "F2",
      "velocity": 1,
      "duration": "96i"
    },
    {
      "time": "3948i",
      "midiNote": 53,
      "note": "F3",
      "velocity": 1,
      "duration": "84i"
    },
    {
      "time": "3960i",
      "midiNote": 57,
      "note": "A3",
      "velocity": 1,
      "duration": "12i"
    },
    {
      "time": "3972i",
      "midiNote": 60,
      "note": "C4",
      "velocity": 1,
      "duration": "12i"
    },
    {
      "time": "3984i",
      "midiNote": 64,
      "note": "E4",
      "velocity": 1,
      "duration": "12i"
    },
    {
      "time": "3996i",
      "midiNote": 57,
      "note": "A3",
      "velocity": 1,
      "duration": "12i"
    },
    {
      "time": "4008i",
      "midiNote": 60,
      "note": "C4",
      "velocity": 1,
      "duration": "12i"
    },
    {
      "time": "4020i",
      "midiNote": 64,
      "note": "E4",
      "velocity": 1,
      "duration": "12i"
    },
    {
      "time": "4032i",
      "midiNote": 42,
      "note": "F#2",
      "velocity": 1,
      "duration": "96i"
    },
    {
      "time": "4044i",
      "midiNote": 48,
      "note": "C3",
      "velocity": 1,
      "duration": "84i"
    },
    {
      "time": "4056i",
      "midiNote": 57,
      "note": "A3",
      "velocity": 1,
      "duration": "12i"
    },
    {
      "time": "4068i",
      "midiNote": 60,
      "note": "C4",
      "velocity": 1,
      "duration": "12i"
    },
    {
      "time": "4080i",
      "midiNote": 63,
      "note": "D#4",
      "velocity": 1,
      "duration": "12i"
    },
    {
      "time": "4092i",
      "midiNote": 57,
      "note": "A3",
      "velocity": 1,
      "duration": "12i"
    },
    {
      "time": "4104i",
      "midiNote": 60,
      "note": "C4",
      "velocity": 1,
      "duration": "12i"
    },
    {
      "time": "4116i",
      "midiNote": 63,
      "note": "D#4",
      "velocity": 1,
      "duration": "12i"
    },
    {
      "time": "4128i",
      "midiNote": 42,
      "note": "F#2",
      "velocity": 1,
      "duration": "96i"
    },
    {
      "time": "4140i",
      "midiNote": 48,
      "note": "C3",
      "velocity": 1,
      "duration": "84i"
    },
    {
      "time": "4152i",
      "midiNote": 57,
      "note": "A3",
      "velocity": 1,
      "duration": "12i"
    },
    {
      "time": "4164i",
      "midiNote": 60,
      "note": "C4",
      "velocity": 1,
      "duration": "12i"
    },
    {
      "time": "4176i",
      "midiNote": 63,
      "note": "D#4",
      "velocity": 1,
      "duration": "12i"
    },
    {
      "time": "4188i",
      "midiNote": 57,
      "note": "A3",
      "velocity": 1,
      "duration": "12i"
    },
    {
      "time": "4200i",
      "midiNote": 60,
      "note": "C4",
      "velocity": 1,
      "duration": "12i"
    },
    {
      "time": "4212i",
      "midiNote": 63,
      "note": "D#4",
      "velocity": 1,
      "duration": "12i"
    },
    {
      "time": "4224i",
      "midiNote": 44,
      "note": "G#2",
      "velocity": 1,
      "duration": "96i"
    },
    {
      "time": "4236i",
      "midiNote": 53,
      "note": "F3",
      "velocity": 1,
      "duration": "84i"
    },
    {
      "time": "4248i",
      "midiNote": 59,
      "note": "B3",
      "velocity": 1,
      "duration": "12i"
    },
    {
      "time": "4260i",
      "midiNote": 60,
      "note": "C4",
      "velocity": 1,
      "duration": "12i"
    },
    {
      "time": "4272i",
      "midiNote": 62,
      "note": "D4",
      "velocity": 1,
      "duration": "12i"
    },
    {
      "time": "4284i",
      "midiNote": 59,
      "note": "B3",
      "velocity": 1,
      "duration": "12i"
    },
    {
      "time": "4296i",
      "midiNote": 60,
      "note": "C4",
      "velocity": 1,
      "duration": "12i"
    },
    {
      "time": "4308i",
      "midiNote": 62,
      "note": "D4",
      "velocity": 1,
      "duration": "12i"
    },
    {
      "time": "4320i",
      "midiNote": 44,
      "note": "G#2",
      "velocity": 1,
      "duration": "96i"
    },
    {
      "time": "4332i",
      "midiNote": 53,
      "note": "F3",
      "velocity": 1,
      "duration": "84i"
    },
    {
      "time": "4344i",
      "midiNote": 59,
      "note": "B3",
      "velocity": 1,
      "duration": "12i"
    },
    {
      "time": "4356i",
      "midiNote": 60,
      "note": "C4",
      "velocity": 1,
      "duration": "12i"
    },
    {
      "time": "4368i",
      "midiNote": 62,
      "note": "D4",
      "velocity": 1,
      "duration": "12i"
    },
    {
      "time": "4380i",
      "midiNote": 59,
      "note": "B3",
      "velocity": 1,
      "duration": "12i"
    },
    {
      "time": "4392i",
      "midiNote": 60,
      "note": "C4",
      "velocity": 1,
      "duration": "12i"
    },
    {
      "time": "4404i",
      "midiNote": 62,
      "note": "D4",
      "velocity": 1,
      "duration": "12i"
    },
    {
      "time": "4416i",
      "midiNote": 43,
      "note": "G2",
      "velocity": 1,
      "duration": "96i"
    },
    {
      "time": "4428i",
      "midiNote": 53,
      "note": "F3",
      "velocity": 1,
      "duration": "84i"
    },
    {
      "time": "4440i",
      "midiNote": 55,
      "note": "G3",
      "velocity": 1,
      "duration": "12i"
    },
    {
      "time": "4452i",
      "midiNote": 59,
      "note": "B3",
      "velocity": 1,
      "duration": "12i"
    },
    {
      "time": "4464i",
      "midiNote": 62,
      "note": "D4",
      "velocity": 1,
      "duration": "12i"
    },
    {
      "time": "4476i",
      "midiNote": 55,
      "note": "G3",
      "velocity": 1,
      "duration": "12i"
    },
    {
      "time": "4488i",
      "midiNote": 59,
      "note": "B3",
      "velocity": 1,
      "duration": "12i"
    },
    {
      "time": "4500i",
      "midiNote": 62,
      "note": "D4",
      "velocity": 1,
      "duration": "12i"
    },
    {
      "time": "4512i",
      "midiNote": 43,
      "note": "G2",
      "velocity": 1,
      "duration": "96i"
    },
    {
      "time": "4524i",
      "midiNote": 53,
      "note": "F3",
      "velocity": 1,
      "duration": "84i"
    },
    {
      "time": "4536i",
      "midiNote": 55,
      "note": "G3",
      "velocity": 1,
      "duration": "12i"
    },
    {
      "time": "4548i",
      "midiNote": 59,
      "note": "B3",
      "velocity": 1,
      "duration": "12i"
    },
    {
      "time": "4560i",
      "midiNote": 62,
      "note": "D4",
      "velocity": 1,
      "duration": "12i"
    },
    {
      "time": "4572i",
      "midiNote": 55,
      "note": "G3",
      "velocity": 1,
      "duration": "12i"
    },
    {
      "time": "4584i",
      "midiNote": 59,
      "note": "B3",
      "velocity": 1,
      "duration": "12i"
    },
    {
      "time": "4596i",
      "midiNote": 62,
      "note": "D4",
      "velocity": 1,
      "duration": "12i"
    },
    {
      "time": "4608i",
      "midiNote": 43,
      "note": "G2",
      "velocity": 1,
      "duration": "96i"
    },
    {
      "time": "4620i",
      "midiNote": 52,
      "note": "E3",
      "velocity": 1,
      "duration": "84i"
    },
    {
      "time": "4632i",
      "midiNote": 55,
      "note": "G3",
      "velocity": 1,
      "duration": "12i"
    },
    {
      "time": "4644i",
      "midiNote": 60,
      "note": "C4",
      "velocity": 1,
      "duration": "12i"
    },
    {
      "time": "4656i",
      "midiNote": 64,
      "note": "E4",
      "velocity": 1,
      "duration": "12i"
    },
    {
      "time": "4668i",
      "midiNote": 55,
      "note": "G3",
      "velocity": 1,
      "duration": "12i"
    },
    {
      "time": "4680i",
      "midiNote": 60,
      "note": "C4",
      "velocity": 1,
      "duration": "12i"
    },
    {
      "time": "4692i",
      "midiNote": 64,
      "note": "E4",
      "velocity": 1,
      "duration": "12i"
    },
    {
      "time": "4704i",
      "midiNote": 43,
      "note": "G2",
      "velocity": 1,
      "duration": "96i"
    },
    {
      "time": "4716i",
      "midiNote": 52,
      "note": "E3",
      "velocity": 1,
      "duration": "84i"
    },
    {
      "time": "4728i",
      "midiNote": 55,
      "note": "G3",
      "velocity": 1,
      "duration": "12i"
    },
    {
      "time": "4740i",
      "midiNote": 60,
      "note": "C4",
      "velocity": 1,
      "duration": "12i"
    },
    {
      "time": "4752i",
      "midiNote": 64,
      "note": "E4",
      "velocity": 1,
      "duration": "12i"
    },
    {
      "time": "4764i",
      "midiNote": 55,
      "note": "G3",
      "velocity": 1,
      "duration": "12i"
    },
    {
      "time": "4776i",
      "midiNote": 60,
      "note": "C4",
      "velocity": 1,
      "duration": "12i"
    },
    {
      "time": "4788i",
      "midiNote": 64,
      "note": "E4",
      "velocity": 1,
      "duration": "12i"
    },
    {
      "time": "4800i",
      "midiNote": 43,
      "note": "G2",
      "velocity": 1,
      "duration": "96i"
    },
    {
      "time": "4812i",
      "midiNote": 50,
      "note": "D3",
      "velocity": 1,
      "duration": "84i"
    },
    {
      "time": "4824i",
      "midiNote": 55,
      "note": "G3",
      "velocity": 1,
      "duration": "12i"
    },
    {
      "time": "4836i",
      "midiNote": 60,
      "note": "C4",
      "velocity": 1,
      "duration": "12i"
    },
    {
      "time": "4848i",
      "midiNote": 65,
      "note": "F4",
      "velocity": 1,
      "duration": "12i"
    },
    {
      "time": "4860i",
      "midiNote": 55,
      "note": "G3",
      "velocity": 1,
      "duration": "12i"
    },
    {
      "time": "4872i",
      "midiNote": 60,
      "note": "C4",
      "velocity": 1,
      "duration": "12i"
    },
    {
      "time": "4884i",
      "midiNote": 65,
      "note": "F4",
      "velocity": 1,
      "duration": "12i"
    },
    {
      "time": "4896i",
      "midiNote": 43,
      "note": "G2",
      "velocity": 1,
      "duration": "96i"
    },
    {
      "time": "4908i",
      "midiNote": 50,
      "note": "D3",
      "velocity": 1,
      "duration": "84i"
    },
    {
      "time": "4920i",
      "midiNote": 55,
      "note": "G3",
      "velocity": 1,
      "duration": "12i"
    },
    {
      "time": "4932i",
      "midiNote": 60,
      "note": "C4",
      "velocity": 1,
      "duration": "12i"
    },
    {
      "time": "4944i",
      "midiNote": 65,
      "note": "F4",
      "velocity": 1,
      "duration": "12i"
    },
    {
      "time": "4956i",
      "midiNote": 55,
      "note": "G3",
      "velocity": 1,
      "duration": "12i"
    },
    {
      "time": "4968i",
      "midiNote": 60,
      "note": "C4",
      "velocity": 1,
      "duration": "12i"
    },
    {
      "time": "4980i",
      "midiNote": 65,
      "note": "F4",
      "velocity": 1,
      "duration": "12i"
    },
    {
      "time": "4992i",
      "midiNote": 43,
      "note": "G2",
      "velocity": 1,
      "duration": "96i"
    },
    {
      "time": "5004i",
      "midiNote": 50,
      "note": "D3",
      "velocity": 1,
      "duration": "84i"
    },
    {
      "time": "5016i",
      "midiNote": 55,
      "note": "G3",
      "velocity": 1,
      "duration": "12i"
    },
    {
      "time": "5028i",
      "midiNote": 59,
      "note": "B3",
      "velocity": 1,
      "duration": "12i"
    },
    {
      "time": "5040i",
      "midiNote": 65,
      "note": "F4",
      "velocity": 1,
      "duration": "12i"
    },
    {
      "time": "5052i",
      "midiNote": 55,
      "note": "G3",
      "velocity": 1,
      "duration": "12i"
    },
    {
      "time": "5064i",
      "midiNote": 59,
      "note": "B3",
      "velocity": 1,
      "duration": "12i"
    },
    {
      "time": "5076i",
      "midiNote": 65,
      "note": "F4",
      "velocity": 1,
      "duration": "12i"
    },
    {
      "time": "5088i",
      "midiNote": 43,
      "note": "G2",
      "velocity": 1,
      "duration": "96i"
    },
    {
      "time": "5100i",
      "midiNote": 50,
      "note": "D3",
      "velocity": 1,
      "duration": "84i"
    },
    {
      "time": "5112i",
      "midiNote": 55,
      "note": "G3",
      "velocity": 1,
      "duration": "12i"
    },
    {
      "time": "5124i",
      "midiNote": 59,
      "note": "B3",
      "velocity": 1,
      "duration": "12i"
    },
    {
      "time": "5136i",
      "midiNote": 65,
      "note": "F4",
      "velocity": 1,
      "duration": "12i"
    },
    {
      "time": "5148i",
      "midiNote": 55,
      "note": "G3",
      "velocity": 1,
      "duration": "12i"
    },
    {
      "time": "5160i",
      "midiNote": 59,
      "note": "B3",
      "velocity": 1,
      "duration": "12i"
    },
    {
      "time": "5172i",
      "midiNote": 65,
      "note": "F4",
      "velocity": 1,
      "duration": "12i"
    },
    {
      "time": "5184i",
      "midiNote": 43,
      "note": "G2",
      "velocity": 1,
      "duration": "96i"
    },
    {
      "time": "5196i",
      "midiNote": 51,
      "note": "D#3",
      "velocity": 1,
      "duration": "84i"
    },
    {
      "time": "5208i",
      "midiNote": 57,
      "note": "A3",
      "velocity": 1,
      "duration": "12i"
    },
    {
      "time": "5220i",
      "midiNote": 60,
      "note": "C4",
      "velocity": 1,
      "duration": "12i"
    },
    {
      "time": "5232i",
      "midiNote": 66,
      "note": "F#4",
      "velocity": 1,
      "duration": "12i"
    },
    {
      "time": "5244i",
      "midiNote": 57,
      "note": "A3",
      "velocity": 1,
      "duration": "12i"
    },
    {
      "time": "5256i",
      "midiNote": 60,
      "note": "C4",
      "velocity": 1,
      "duration": "12i"
    },
    {
      "time": "5268i",
      "midiNote": 66,
      "note": "F#4",
      "velocity": 1,
      "duration": "12i"
    },
    {
      "time": "5280i",
      "midiNote": 43,
      "note": "G2",
      "velocity": 1,
      "duration": "96i"
    },
    {
      "time": "5292i",
      "midiNote": 51,
      "note": "D#3",
      "velocity": 1,
      "duration": "84i"
    },
    {
      "time": "5304i",
      "midiNote": 57,
      "note": "A3",
      "velocity": 1,
      "duration": "12i"
    },
    {
      "time": "5316i",
      "midiNote": 60,
      "note": "C4",
      "velocity": 1,
      "duration": "12i"
    },
    {
      "time": "5328i",
      "midiNote": 66,
      "note": "F#4",
      "velocity": 1,
      "duration": "12i"
    },
    {
      "time": "5340i",
      "midiNote": 57,
      "note": "A3",
      "velocity": 1,
      "duration": "12i"
    },
    {
      "time": "5352i",
      "midiNote": 60,
      "note": "C4",
      "velocity": 1,
      "duration": "12i"
    },
    {
      "time": "5364i",
      "midiNote": 66,
      "note": "F#4",
      "velocity": 1,
      "duration": "12i"
    },
    {
      "time": "5376i",
      "midiNote": 43,
      "note": "G2",
      "velocity": 1,
      "duration": "96i"
    },
    {
      "time": "5388i",
      "midiNote": 52,
      "note": "E3",
      "velocity": 1,
      "duration": "84i"
    },
    {
      "time": "5400i",
      "midiNote": 55,
      "note": "G3",
      "velocity": 1,
      "duration": "12i"
    },
    {
      "time": "5412i",
      "midiNote": 60,
      "note": "C4",
      "velocity": 1,
      "duration": "12i"
    },
    {
      "time": "5424i",
      "midiNote": 67,
      "note": "G4",
      "velocity": 1,
      "duration": "12i"
    },
    {
      "time": "5436i",
      "midiNote": 55,
      "note": "G3",
      "velocity": 1,
      "duration": "12i"
    },
    {
      "time": "5448i",
      "midiNote": 60,
      "note": "C4",
      "velocity": 1,
      "duration": "12i"
    },
    {
      "time": "5460i",
      "midiNote": 67,
      "note": "G4",
      "velocity": 1,
      "duration": "12i"
    },
    {
      "time": "5472i",
      "midiNote": 43,
      "note": "G2",
      "velocity": 1,
      "duration": "96i"
    },
    {
      "time": "5484i",
      "midiNote": 52,
      "note": "E3",
      "velocity": 1,
      "duration": "84i"
    },
    {
      "time": "5496i",
      "midiNote": 55,
      "note": "G3",
      "velocity": 1,
      "duration": "12i"
    },
    {
      "time": "5508i",
      "midiNote": 60,
      "note": "C4",
      "velocity": 1,
      "duration": "12i"
    },
    {
      "time": "5520i",
      "midiNote": 67,
      "note": "G4",
      "velocity": 1,
      "duration": "12i"
    },
    {
      "time": "5532i",
      "midiNote": 55,
      "note": "G3",
      "velocity": 1,
      "duration": "12i"
    },
    {
      "time": "5544i",
      "midiNote": 60,
      "note": "C4",
      "velocity": 1,
      "duration": "12i"
    },
    {
      "time": "5556i",
      "midiNote": 67,
      "note": "G4",
      "velocity": 1,
      "duration": "12i"
    },
    {
      "time": "5568i",
      "midiNote": 43,
      "note": "G2",
      "velocity": 1,
      "duration": "96i"
    },
    {
      "time": "5580i",
      "midiNote": 50,
      "note": "D3",
      "velocity": 1,
      "duration": "84i"
    },
    {
      "time": "5592i",
      "midiNote": 55,
      "note": "G3",
      "velocity": 1,
      "duration": "12i"
    },
    {
      "time": "5604i",
      "midiNote": 60,
      "note": "C4",
      "velocity": 1,
      "duration": "12i"
    },
    {
      "time": "5616i",
      "midiNote": 65,
      "note": "F4",
      "velocity": 1,
      "duration": "12i"
    },
    {
      "time": "5628i",
      "midiNote": 55,
      "note": "G3",
      "velocity": 1,
      "duration": "12i"
    },
    {
      "time": "5640i",
      "midiNote": 60,
      "note": "C4",
      "velocity": 1,
      "duration": "12i"
    },
    {
      "time": "5652i",
      "midiNote": 65,
      "note": "F4",
      "velocity": 1,
      "duration": "12i"
    },
    {
      "time": "5664i",
      "midiNote": 43,
      "note": "G2",
      "velocity": 1,
      "duration": "96i"
    },
    {
      "time": "5676i",
      "midiNote": 50,
      "note": "D3",
      "velocity": 1,
      "duration": "84i"
    },
    {
      "time": "5688i",
      "midiNote": 55,
      "note": "G3",
      "velocity": 1,
      "duration": "12i"
    },
    {
      "time": "5700i",
      "midiNote": 60,
      "note": "C4",
      "velocity": 1,
      "duration": "12i"
    },
    {
      "time": "5712i",
      "midiNote": 65,
      "note": "F4",
      "velocity": 1,
      "duration": "12i"
    },
    {
      "time": "5724i",
      "midiNote": 55,
      "note": "G3",
      "velocity": 1,
      "duration": "12i"
    },
    {
      "time": "5736i",
      "midiNote": 60,
      "note": "C4",
      "velocity": 1,
      "duration": "12i"
    },
    {
      "time": "5748i",
      "midiNote": 65,
      "note": "F4",
      "velocity": 1,
      "duration": "12i"
    },
    {
      "time": "5760i",
      "midiNote": 43,
      "note": "G2",
      "velocity": 1,
      "duration": "96i"
    },
    {
      "time": "5772i",
      "midiNote": 50,
      "note": "D3",
      "velocity": 1,
      "duration": "84i"
    },
    {
      "time": "5784i",
      "midiNote": 55,
      "note": "G3",
      "velocity": 1,
      "duration": "12i"
    },
    {
      "time": "5796i",
      "midiNote": 59,
      "note": "B3",
      "velocity": 1,
      "duration": "12i"
    },
    {
      "time": "5808i",
      "midiNote": 65,
      "note": "F4",
      "velocity": 1,
      "duration": "12i"
    },
    {
      "time": "5820i",
      "midiNote": 55,
      "note": "G3",
      "velocity": 1,
      "duration": "12i"
    },
    {
      "time": "5832i",
      "midiNote": 59,
      "note": "B3",
      "velocity": 1,
      "duration": "12i"
    },
    {
      "time": "5844i",
      "midiNote": 65,
      "note": "F4",
      "velocity": 1,
      "duration": "12i"
    },
    {
      "time": "5856i",
      "midiNote": 43,
      "note": "G2",
      "velocity": 1,
      "duration": "96i"
    },
    {
      "time": "5868i",
      "midiNote": 50,
      "note": "D3",
      "velocity": 1,
      "duration": "84i"
    },
    {
      "time": "5880i",
      "midiNote": 55,
      "note": "G3",
      "velocity": 1,
      "duration": "12i"
    },
    {
      "time": "5892i",
      "midiNote": 59,
      "note": "B3",
      "velocity": 1,
      "duration": "12i"
    },
    {
      "time": "5904i",
      "midiNote": 65,
      "note": "F4",
      "velocity": 1,
      "duration": "12i"
    },
    {
      "time": "5916i",
      "midiNote": 55,
      "note": "G3",
      "velocity": 1,
      "duration": "12i"
    },
    {
      "time": "5928i",
      "midiNote": 59,
      "note": "B3",
      "velocity": 1,
      "duration": "12i"
    },
    {
      "time": "5940i",
      "midiNote": 65,
      "note": "F4",
      "velocity": 1,
      "duration": "12i"
    },
    {
      "time": "5952i",
      "midiNote": 36,
      "note": "C2",
      "velocity": 1,
      "duration": "96i"
    },
    {
      "time": "5964i",
      "midiNote": 48,
      "note": "C3",
      "velocity": 1,
      "duration": "84i"
    },
    {
      "time": "5976i",
      "midiNote": 55,
      "note": "G3",
      "velocity": 1,
      "duration": "12i"
    },
    {
      "time": "5988i",
      "midiNote": 58,
      "note": "A#3",
      "velocity": 1,
      "duration": "12i"
    },
    {
      "time": "6000i",
      "midiNote": 64,
      "note": "E4",
      "velocity": 1,
      "duration": "12i"
    },
    {
      "time": "6012i",
      "midiNote": 55,
      "note": "G3",
      "velocity": 1,
      "duration": "12i"
    },
    {
      "time": "6024i",
      "midiNote": 58,
      "note": "A#3",
      "velocity": 1,
      "duration": "12i"
    },
    {
      "time": "6036i",
      "midiNote": 64,
      "note": "E4",
      "velocity": 1,
      "duration": "12i"
    },
    {
      "time": "6048i",
      "midiNote": 36,
      "note": "C2",
      "velocity": 1,
      "duration": "96i"
    },
    {
      "time": "6060i",
      "midiNote": 48,
      "note": "C3",
      "velocity": 1,
      "duration": "84i"
    },
    {
      "time": "6072i",
      "midiNote": 55,
      "note": "G3",
      "velocity": 1,
      "duration": "12i"
    },
    {
      "time": "6084i",
      "midiNote": 58,
      "note": "A#3",
      "velocity": 1,
      "duration": "12i"
    },
    {
      "time": "6096i",
      "midiNote": 64,
      "note": "E4",
      "velocity": 1,
      "duration": "12i"
    },
    {
      "time": "6108i",
      "midiNote": 55,
      "note": "G3",
      "velocity": 1,
      "duration": "12i"
    },
    {
      "time": "6120i",
      "midiNote": 58,
      "note": "A#3",
      "velocity": 1,
      "duration": "12i"
    },
    {
      "time": "6132i",
      "midiNote": 64,
      "note": "E4",
      "velocity": 1,
      "duration": "12i"
    },
    {
      "time": "6144i",
      "midiNote": 36,
      "note": "C2",
      "velocity": 1,
      "duration": "192i"
    },
    {
      "time": "6156i",
      "midiNote": 48,
      "note": "C3",
      "velocity": 1,
      "duration": "180i"
    },
    {
      "time": "6168i",
      "midiNote": 53,
      "note": "F3",
      "velocity": 1,
      "duration": "12i"
    },
    {
      "time": "6180i",
      "midiNote": 57,
      "note": "A3",
      "velocity": 1,
      "duration": "12i"
    },
    {
      "time": "6192i",
      "midiNote": 60,
      "note": "C4",
      "velocity": 1,
      "duration": "12i"
    },
    {
      "time": "6204i",
      "midiNote": 65,
      "note": "F4",
      "velocity": 1,
      "duration": "12i"
    },
    {
      "time": "6216i",
      "midiNote": 60,
      "note": "C4",
      "velocity": 1,
      "duration": "12i"
    },
    {
      "time": "6228i",
      "midiNote": 57,
      "note": "A3",
      "velocity": 1,
      "duration": "12i"
    },
    {
      "time": "6240i",
      "midiNote": 60,
      "note": "C4",
      "velocity": 1,
      "duration": "12i"
    },
    {
      "time": "6252i",
      "midiNote": 57,
      "note": "A3",
      "velocity": 1,
      "duration": "12i"
    },
    {
      "time": "6264i",
      "midiNote": 53,
      "note": "F3",
      "velocity": 1,
      "duration": "12i"
    },
    {
      "time": "6276i",
      "midiNote": 57,
      "note": "A3",
      "velocity": 1,
      "duration": "12i"
    },
    {
      "time": "6288i",
      "midiNote": 53,
      "note": "F3",
      "velocity": 1,
      "duration": "12i"
    },
    {
      "time": "6300i",
      "midiNote": 50,
      "note": "D3",
      "velocity": 1,
      "duration": "12i"
    },
    {
      "time": "6312i",
      "midiNote": 53,
      "note": "F3",
      "velocity": 1,
      "duration": "12i"
    },
    {
      "time": "6324i",
      "midiNote": 50,
      "note": "D3",
      "velocity": 1,
      "duration": "12i"
    },
    {
      "time": "6336i",
      "midiNote": 36,
      "note": "C2",
      "velocity": 1,
      "duration": "192i"
    },
    {
      "time": "6348i",
      "midiNote": 47,
      "note": "B2",
      "velocity": 1,
      "duration": "180i"
    },
    {
      "time": "6360i",
      "midiNote": 67,
      "note": "G4",
      "velocity": 1,
      "duration": "12i"
    },
    {
      "time": "6372i",
      "midiNote": 71,
      "note": "B4",
      "velocity": 1,
      "duration": "12i"
    },
    {
      "time": "6384i",
      "midiNote": 74,
      "note": "D5",
      "velocity": 1,
      "duration": "12i"
    },
    {
      "time": "6396i",
      "midiNote": 77,
      "note": "F5",
      "velocity": 1,
      "duration": "12i"
    },
    {
      "time": "6408i",
      "midiNote": 74,
      "note": "D5",
      "velocity": 1,
      "duration": "12i"
    },
    {
      "time": "6420i",
      "midiNote": 71,
      "note": "B4",
      "velocity": 1,
      "duration": "12i"
    },
    {
      "time": "6432i",
      "midiNote": 74,
      "note": "D5",
      "velocity": 1,
      "duration": "12i"
    },
    {
      "time": "6444i",
      "midiNote": 71,
      "note": "B4",
      "velocity": 1,
      "duration": "12i"
    },
    {
      "time": "6456i",
      "midiNote": 67,
      "note": "G4",
      "velocity": 1,
      "duration": "12i"
    },
    {
      "time": "6468i",
      "midiNote": 71,
      "note": "B4",
      "velocity": 1,
      "duration": "12i"
    },
    {
      "time": "6480i",
      "midiNote": 62,
      "note": "D4",
      "velocity": 1,
      "duration": "12i"
    },
    {
      "time": "6492i",
      "midiNote": 65,
      "note": "F4",
      "velocity": 1,
      "duration": "12i"
    },
    {
      "time": "6504i",
      "midiNote": 64,
      "note": "E4",
      "velocity": 1,
      "duration": "12i"
    },
    {
      "time": "6516i",
      "midiNote": 62,
      "note": "D4",
      "velocity": 1,
      "duration": "12i"
    },
    {
      "time": "6528i",
      "midiNote": 36,
      "note": "C2",
      "velocity": 1,
      "duration": "192i"
    },
    {
      "time": "6528i",
      "midiNote": 48,
      "note": "C3",
      "velocity": 1,
      "duration": "192i"
    },
    {
      "time": "6528i",
      "midiNote": 64,
      "note": "E4",
      "velocity": 1,
      "duration": "192i"
    },
    {
      "time": "6528i",
      "midiNote": 67,
      "note": "G4",
      "velocity": 1,
      "duration": "192i"
    },
    {
      "time": "6528i",
      "midiNote": 72,
      "note": "C5",
      "velocity": 1,
      "duration": "192i"
    }
  ]
}
