{"header":{"timeSignature":[3,4],"PPQ":48,"tempo":89},"notes":[{"time":"0i","midiNote":43,"note":"G2","velocity":1,"duration":"144i"},{"time":"48i","midiNote":59,"note":"B3","velocity":1,"duration":"96i"},{"time":"48i","midiNote":62,"note":"D4","velocity":1,"duration":"96i"},{"time":"48i","midiNote":66,"note":"F#4","velocity":1,"duration":"96i"},{"time":"144i","midiNote":38,"note":"D2","velocity":1,"duration":"144i"},{"time":"192i","midiNote":57,"note":"A3","velocity":1,"duration":"96i"},{"time":"192i","midiNote":61,"note":"C#4","velocity":1,"duration":"96i"},{"time":"192i","midiNote":66,"note":"F#4","velocity":1,"duration":"96i"},{"time":"288i","midiNote":43,"note":"G2","velocity":1,"duration":"144i"},{"time":"336i","midiNote":59,"note":"B3","velocity":1,"duration":"96i"},{"time":"336i","midiNote":62,"note":"D4","velocity":1,"duration":"96i"},{"time":"336i","midiNote":66,"note":"F#4","velocity":1,"duration":"96i"},{"time":"432i","midiNote":38,"note":"D2","velocity":1,"duration":"144i"},{"time":"480i","midiNote":57,"note":"A3","velocity":1,"duration":"96i"},{"time":"480i","midiNote":61,"note":"C#4","velocity":1,"duration":"96i"},{"time":"480i","midiNote":66,"note":"F#4","velocity":1,"duration":"96i"},{"time":"576i","midiNote":43,"note":"G2","velocity":1,"duration":"144i"},{"time":"624i","midiNote":59,"note":"B3","velocity":1,"duration":"96i"},{"time":"624i","midiNote":62,"note":"D4","velocity":1,"duration":"96i"},{"time":"624i","midiNote":66,"note":"F#4","velocity":1,"duration":"96i"},{"time":"624i","midiNote":78,"note":"F#5","velocity":1,"duration":"48i"},{"time":"672i","midiNote":81,"note":"A5","velocity":1,"duration":"48i"},{"time":"720i","midiNote":38,"note":"D2","velocity":1,"duration":"144i"},{"time":"720i","midiNote":79,"note":"G5","velocity":1,"duration":"48i"},{"time":"768i","midiNote":57,"note":"A3","velocity":1,"duration":"96i"},{"time":"768i","midiNote":61,"note":"C#4","velocity":1,"duration":"96i"},{"time":"768i","midiNote":66,"note":"F#4","velocity":1,"duration":"96i"},{"time":"768i","midiNote":78,"note":"F#5","velocity":1,"duration":"48i"},{"time":"816i","midiNote":73,"note":"C#5","velocity":1,"duration":"48i"},{"time":"864i","midiNote":43,"note":"G2","velocity":1,"duration":"144i"},{"time":"864i","midiNote":71,"note":"B4","velocity":1,"duration":"48i"},{"time":"912i","midiNote":59,"note":"B3","velocity":1,"duration":"96i"},{"time":"912i","midiNote":62,"note":"D4","velocity":1,"duration":"96i"},{"time":"912i","midiNote":66,"note":"F#4","velocity":1,"duration":"96i"},{"time":"912i","midiNote":73,"note":"C#5","velocity":1,"duration":"48i"},{"time":"960i","midiNote":74,"note":"D5","velocity":1,"duration":"48i"},{"time":"1008i","midiNote":38,"note":"D2","velocity":1,"duration":"144i"},{"time":"1008i","midiNote":69,"note":"A4","velocity":1,"duration":"144i"},{"time":"1056i","midiNote":57,"note":"A3","velocity":1,"duration":"96i"},{"time":"1056i","midiNote":61,"note":"C#4","velocity":1,"duration":"96i"},{"time":"1056i","midiNote":66,"note":"F#4","velocity":1,"duration":"96i"},{"time":"1152i","midiNote":43,"note":"G2","velocity":1,"duration":"144i"},{"time":"1152i","midiNote":66,"note":"F#4","velocity":1,"duration":"576i"},{"time":"1200i","midiNote":59,"note":"B3","velocity":1,"duration":"96i"},{"time":"1200i","midiNote":62,"note":"D4","velocity":1,"duration":"96i"},{"time":"1296i","midiNote":38,"note":"D2","velocity":1,"duration":"144i"},{"time":"1344i","midiNote":57,"note":"A3","velocity":1,"duration":"96i"},{"time":"1344i","midiNote":61,"note":"C#4","velocity":1,"duration":"96i"},{"time":"1440i","midiNote":43,"note":"G2","velocity":1,"duration":"144i"},{"time":"1488i","midiNote":59,"note":"B3","velocity":1,"duration":"96i"},{"time":"1488i","midiNote":62,"note":"D4","velocity":1,"duration":"96i"},{"time":"1584i","midiNote":38,"note":"D2","velocity":1,"duration":"144i"},{"time":"1632i","midiNote":57,"note":"A3","velocity":1,"duration":"96i"},{"time":"1632i","midiNote":61,"note":"C#4","velocity":1,"duration":"96i"},{"time":"1728i","midiNote":43,"note":"G2","velocity":1,"duration":"144i"},{"time":"1776i","midiNote":59,"note":"B3","velocity":1,"duration":"96i"},{"time":"1776i","midiNote":62,"note":"D4","velocity":1,"duration":"96i"},{"time":"1776i","midiNote":66,"note":"F#4","velocity":1,"duration":"96i"},{"time":"1776i","midiNote":78,"note":"F#5","velocity":1,"duration":"48i"},{"time":"1824i","midiNote":81,"note":"A5","velocity":1,"duration":"48i"},{"time":"1872i","midiNote":38,"note":"D2","velocity":1,"duration":"144i"},{"time":"1872i","midiNote":79,"note":"G5","velocity":1,"duration":"48i"},{"time":"1920i","midiNote":57,"note":"A3","velocity":1,"duration":"96i"},{"time":"1920i","midiNote":61,"note":"C#4","velocity":1,"duration":"96i"},{"time":"1920i","midiNote":66,"note":"F#4","velocity":1,"duration":"96i"},{"time":"1920i","midiNote":78,"note":"F#5","velocity":1,"duration":"48i"},{"time":"1968i","midiNote":73,"note":"C#5","velocity":1,"duration":"48i"},{"time":"2016i","midiNote":43,"note":"G2","velocity":1,"duration":"144i"},{"time":"2016i","midiNote":71,"note":"B4","velocity":1,"duration":"48i"},{"time":"2064i","midiNote":59,"note":"B3","velocity":1,"duration":"96i"},{"time":"2064i","midiNote":62,"note":"D4","velocity":1,"duration":"96i"},{"time":"2064i","midiNote":66,"note":"F#4","velocity":1,"duration":"96i"},{"time":"2064i","midiNote":73,"note":"C#5","velocity":1,"duration":"48i"},{"time":"2112i","midiNote":74,"note":"D5","velocity":1,"duration":"48i"},{"time":"2160i","midiNote":38,"note":"D2","velocity":1,"duration":"144i"},{"time":"2160i","midiNote":69,"note":"A4","velocity":1,"duration":"144i"},{"time":"2208i","midiNote":57,"note":"A3","velocity":1,"duration":"96i"},{"time":"2208i","midiNote":61,"note":"C#4","velocity":1,"duration":"96i"},{"time":"2208i","midiNote":66,"note":"F#4","velocity":1,"duration":"96i"},{"time":"2304i","midiNote":42,"note":"F#2","velocity":1,"duration":"144i"},{"time":"2304i","midiNote":73,"note":"C#5","velocity":1,"duration":"144i"},{"time":"2352i","midiNote":57,"note":"A3","velocity":1,"duration":"96i"},{"time":"2352i","midiNote":61,"note":"C#4","velocity":1,"duration":"96i"},{"time":"2352i","midiNote":66,"note":"F#4","velocity":1,"duration":"96i"},{"time":"2448i","midiNote":35,"note":"B1","velocity":1,"duration":"144i"},{"time":"2448i","midiNote":78,"note":"F#5","velocity":1,"duration":"144i"},{"time":"2496i","midiNote":59,"note":"B3","velocity":1,"duration":"96i"},{"time":"2496i","midiNote":62,"note":"D4","velocity":1,"duration":"96i"},{"time":"2496i","midiNote":66,"note":"F#4","velocity":1,"duration":"96i"},{"time":"2592i","midiNote":40,"note":"E2","velocity":1,"duration":"144i"},{"time":"2592i","midiNote":64,"note":"E4","velocity":1,"duration":"432i"},{"time":"2640i","midiNote":55,"note":"G3","velocity":1,"duration":"96i"},{"time":"2640i","midiNote":59,"note":"B3","velocity":1,"duration":"96i"},{"time":"2736i","midiNote":40,"note":"E2","velocity":1,"duration":"144i"},{"time":"2784i","midiNote":59,"note":"B3","velocity":1,"duration":"96i"},{"time":"2784i","midiNote":62,"note":"D4","velocity":1,"duration":"96i"},{"time":"2784i","midiNote":67,"note":"G4","velocity":1,"duration":"96i"},{"time":"2880i","midiNote":38,"note":"D2","velocity":1,"duration":"144i"},{"time":"2928i","midiNote":53,"note":"F3","velocity":1,"duration":"96i"},{"time":"2928i","midiNote":57,"note":"A3","velocity":1,"duration":"96i"},{"time":"2928i","midiNote":62,"note":"D4","velocity":1,"duration":"96i"},{"time":"3024i","midiNote":33,"note":"A1","velocity":1,"duration":"144i"},{"time":"3024i","midiNote":69,"note":"A4","velocity":1,"duration":"48i"},{"time":"3072i","midiNote":57,"note":"A3","velocity":1,"duration":"96i"},{"time":"3072i","midiNote":60,"note":"C4","velocity":1,"duration":"96i"},{"time":"3072i","midiNote":64,"note":"E4","velocity":1,"duration":"96i"},{"time":"3072i","midiNote":71,"note":"B4","velocity":1,"duration":"48i"},{"time":"3120i","midiNote":72,"note":"C5","velocity":1,"duration":"48i"},{"time":"3168i","midiNote":38,"note":"D2","velocity":1,"duration":"144i"},{"time":"3168i","midiNote":76,"note":"E5","velocity":1,"duration":"48i"},{"time":"3216i","midiNote":55,"note":"G3","velocity":1,"duration":"96i"},{"time":"3216i","midiNote":59,"note":"B3","velocity":1,"duration":"96i"},{"time":"3216i","midiNote":64,"note":"E4","velocity":1,"duration":"96i"},{"time":"3216i","midiNote":74,"note":"D5","velocity":1,"duration":"48i"},{"time":"3264i","midiNote":71,"note":"B4","velocity":1,"duration":"48i"},{"time":"3312i","midiNote":38,"note":"D2","velocity":1,"duration":"144i"},{"time":"3312i","midiNote":74,"note":"D5","velocity":1,"duration":"48i"},{"time":"3360i","midiNote":50,"note":"D3","velocity":1,"duration":"96i"},{"time":"3360i","midiNote":55,"note":"G3","velocity":1,"duration":"96i"},{"time":"3360i","midiNote":59,"note":"B3","velocity":1,"duration":"96i"},{"time":"3360i","midiNote":64,"note":"E4","velocity":1,"duration":"96i"},{"time":"3360i","midiNote":72,"note":"C5","velocity":1,"duration":"48i"},{"time":"3408i","midiNote":71,"note":"B4","velocity":1,"duration":"48i"},{"time":"3456i","midiNote":38,"note":"D2","velocity":1,"duration":"144i"},{"time":"3456i","midiNote":74,"note":"D5","velocity":1,"duration":"240i"},{"time":"3504i","midiNote":48,"note":"C3","velocity":1,"duration":"96i"},{"time":"3504i","midiNote":52,"note":"E3","velocity":1,"duration":"96i"},{"time":"3504i","midiNote":57,"note":"A3","velocity":1,"duration":"96i"},{"time":"3504i","midiNote":62,"note":"D4","velocity":1,"duration":"96i"},{"time":"3600i","midiNote":38,"note":"D2","velocity":1,"duration":"144i"},{"time":"3648i","midiNote":48,"note":"C3","velocity":1,"duration":"96i"},{"time":"3648i","midiNote":54,"note":"F#3","velocity":1,"duration":"96i"},{"time":"3648i","midiNote":57,"note":"A3","velocity":1,"duration":"96i"},{"time":"3648i","midiNote":62,"note":"D4","velocity":1,"duration":"96i"},{"time":"3696i","midiNote":74,"note":"D5","velocity":1,"duration":"48i"},{"time":"3744i","midiNote":38,"note":"D2","velocity":1,"duration":"144i"},{"time":"3744i","midiNote":76,"note":"E5","velocity":1,"duration":"48i"},{"time":"3792i","midiNote":57,"note":"A3","velocity":1,"duration":"96i"},{"time":"3792i","midiNote":60,"note":"C4","velocity":1,"duration":"96i"},{"time":"3792i","midiNote":65,"note":"F4","velocity":1,"duration":"96i"},{"time":"3792i","midiNote":77,"note":"F5","velocity":1,"duration":"48i"},{"time":"3840i","midiNote":79,"note":"G5","velocity":1,"duration":"48i"},{"time":"3888i","midiNote":38,"note":"D2","velocity":1,"duration":"144i"},{"time":"3888i","midiNote":81,"note":"A5","velocity":1,"duration":"48i"},{"time":"3936i","midiNote":57,"note":"A3","velocity":1,"duration":"96i"},{"time":"3936i","midiNote":60,"note":"C4","velocity":1,"duration":"96i"},{"time":"3936i","midiNote":64,"note":"E4","velocity":1,"duration":"96i"},{"time":"3936i","midiNote":72,"note":"C5","velocity":1,"duration":"48i"},{"time":"3984i","midiNote":74,"note":"D5","velocity":1,"duration":"48i"},{"time":"4032i","midiNote":38,"note":"D2","velocity":1,"duration":"144i"},{"time":"4032i","midiNote":76,"note":"E5","velocity":1,"duration":"48i"},{"time":"4080i","midiNote":50,"note":"D3","velocity":1,"duration":"96i"},{"time":"4080i","midiNote":55,"note":"G3","velocity":1,"duration":"96i"},{"time":"4080i","midiNote":59,"note":"B3","velocity":1,"duration":"96i"},{"time":"4080i","midiNote":64,"note":"E4","velocity":1,"duration":"96i"},{"time":"4080i","midiNote":74,"note":"D5","velocity":1,"duration":"48i"},{"time":"4128i","midiNote":71,"note":"B4","velocity":1,"duration":"48i"},{"time":"4176i","midiNote":38,"note":"D2","velocity":1,"duration":"144i"},{"time":"4176i","midiNote":74,"note":"D5","velocity":1,"duration":"240i"},{"time":"4224i","midiNote":48,"note":"C3","velocity":1,"duration":"96i"},{"time":"4224i","midiNote":52,"note":"E3","velocity":1,"duration":"96i"},{"time":"4224i","midiNote":57,"note":"A3","velocity":1,"duration":"96i"},{"time":"4224i","midiNote":62,"note":"D4","velocity":1,"duration":"96i"},{"time":"4320i","midiNote":38,"note":"D2","velocity":1,"duration":"144i"},{"time":"4368i","midiNote":48,"note":"C3","velocity":1,"duration":"96i"},{"time":"4368i","midiNote":54,"note":"F#3","velocity":1,"duration":"96i"},{"time":"4368i","midiNote":57,"note":"A3","velocity":1,"duration":"96i"},{"time":"4368i","midiNote":62,"note":"D4","velocity":1,"duration":"96i"},{"time":"4416i","midiNote":74,"note":"D5","velocity":1,"duration":"48i"},{"time":"4464i","midiNote":40,"note":"E2","velocity":1,"duration":"144i"},{"time":"4464i","midiNote":79,"note":"G5","velocity":1,"duration":"144i"},{"time":"4512i","midiNote":59,"note":"B3","velocity":1,"duration":"96i"},{"time":"4512i","midiNote":64,"note":"E4","velocity":1,"duration":"96i"},{"time":"4512i","midiNote":67,"note":"G4","velocity":1,"duration":"96i"},{"time":"4608i","midiNote":42,"note":"F#2","velocity":1,"duration":"144i"},{"time":"4608i","midiNote":78,"note":"F#5","velocity":1,"duration":"144i"},{"time":"4656i","midiNote":57,"note":"A3","velocity":1,"duration":"96i"},{"time":"4656i","midiNote":61,"note":"C#4","velocity":1,"duration":"96i"},{"time":"4656i","midiNote":66,"note":"F#4","velocity":1,"duration":"96i"},{"time":"4752i","midiNote":35,"note":"B1","velocity":1,"duration":"144i"},{"time":"4752i","midiNote":71,"note":"B4","velocity":1,"duration":"48i"},{"time":"4800i","midiNote":59,"note":"B3","velocity":1,"duration":"96i"},{"time":"4800i","midiNote":62,"note":"D4","velocity":1,"duration":"96i"},{"time":"4800i","midiNote":66,"note":"F#4","velocity":1,"duration":"96i"},{"time":"4800i","midiNote":69,"note":"A4","velocity":1,"duration":"48i"},{"time":"4848i","midiNote":71,"note":"B4","velocity":1,"duration":"48i"},{"time":"4896i","midiNote":40,"note":"E2","velocity":1,"duration":"144i"},{"time":"4896i","midiNote":73,"note":"C#5","velocity":1,"duration":"48i"},{"time":"4944i","midiNote":61,"note":"C#4","velocity":1,"duration":"96i"},{"time":"4944i","midiNote":64,"note":"E4","velocity":1,"duration":"96i"},{"time":"4944i","midiNote":69,"note":"A4","velocity":1,"duration":"96i"},{"time":"4944i","midiNote":74,"note":"D5","velocity":1,"duration":"48i"},{"time":"4992i","midiNote":76,"note":"E5","velocity":1,"duration":"48i"},{"time":"5040i","midiNote":40,"note":"E2","velocity":1,"duration":"144i"},{"time":"5040i","midiNote":73,"note":"C#5","velocity":1,"duration":"48i"},{"time":"5088i","midiNote":57,"note":"A3","velocity":1,"duration":"96i"},{"time":"5088i","midiNote":61,"note":"C#4","velocity":1,"duration":"96i"},{"time":"5088i","midiNote":66,"note":"F#4","velocity":1,"duration":"96i"},{"time":"5088i","midiNote":69,"note":"A4","velocity":1,"duration":"96i"},{"time":"5088i","midiNote":74,"note":"D5","velocity":1,"duration":"48i"},{"time":"5136i","midiNote":76,"note":"E5","velocity":1,"duration":"48i"},{"time":"5184i","midiNote":40,"note":"E2","velocity":1,"duration":"144i"},{"time":"5184i","midiNote":66,"note":"F#4","velocity":1,"duration":"144i"},{"time":"5232i","midiNote":47,"note":"B2","velocity":1,"duration":"48i"},{"time":"5232i","midiNote":57,"note":"A3","velocity":1,"duration":"48i"},{"time":"5232i","midiNote":62,"note":"D4","velocity":1,"duration":"48i"},{"time":"5280i","midiNote":52,"note":"E3","velocity":1,"duration":"48i"},{"time":"5280i","midiNote":59,"note":"B3","velocity":1,"duration":"48i"},{"time":"5280i","midiNote":62,"note":"D4","velocity":1,"duration":"48i"},{"time":"5280i","midiNote":67,"note":"G4","velocity":1,"duration":"48i"},{"time":"5328i","midiNote":45,"note":"A2","velocity":1,"duration":"144i"},{"time":"5328i","midiNote":55,"note":"G3","velocity":1,"duration":"144i"},{"time":"5328i","midiNote":60,"note":"C4","velocity":1,"duration":"144i"},{"time":"5328i","midiNote":64,"note":"E4","velocity":1,"duration":"144i"},{"time":"5328i","midiNote":69,"note":"A4","velocity":1,"duration":"144i"},{"time":"5328i","midiNote":72,"note":"C5","velocity":1,"duration":"144i"},{"time":"5472i","midiNote":38,"note":"D2","velocity":1,"duration":"144i"},{"time":"5472i","midiNote":45,"note":"A2","velocity":1,"duration":"144i"},{"time":"5472i","midiNote":50,"note":"D3","velocity":1,"duration":"144i"},{"time":"5472i","midiNote":62,"note":"D4","velocity":1,"duration":"144i"},{"time":"5472i","midiNote":66,"note":"F#4","velocity":1,"duration":"144i"},{"time":"5472i","midiNote":69,"note":"A4","velocity":1,"duration":"144i"},{"time":"5472i","midiNote":74,"note":"D5","velocity":1,"duration":"144i"},{"time":"5616i","midiNote":40,"note":"E2","velocity":1,"duration":"144i"},{"time":"5616i","midiNote":79,"note":"G5","velocity":1,"duration":"144i"},{"time":"5664i","midiNote":59,"note":"B3","velocity":1,"duration":"96i"},{"time":"5664i","midiNote":64,"note":"E4","velocity":1,"duration":"96i"},{"time":"5664i","midiNote":67,"note":"G4","velocity":1,"duration":"96i"},{"time":"5760i","midiNote":40,"note":"E2","velocity":1,"duration":"144i"},{"time":"5760i","midiNote":77,"note":"F5","velocity":1,"duration":"144i"},{"time":"5808i","midiNote":57,"note":"A3","velocity":1,"duration":"96i"},{"time":"5808i","midiNote":62,"note":"D4","velocity":1,"duration":"96i"},{"time":"5808i","midiNote":65,"note":"F4","velocity":1,"duration":"96i"},{"time":"5808i","midiNote":69,"note":"A4","velocity":1,"duration":"96i"},{"time":"5904i","midiNote":40,"note":"E2","velocity":1,"duration":"144i"},{"time":"5904i","midiNote":71,"note":"B4","velocity":1,"duration":"48i"},{"time":"5952i","midiNote":57,"note":"A3","velocity":1,"duration":"96i"},{"time":"5952i","midiNote":60,"note":"C4","velocity":1,"duration":"96i"},{"time":"5952i","midiNote":65,"note":"F4","velocity":1,"duration":"96i"},{"time":"5952i","midiNote":72,"note":"C5","velocity":1,"duration":"48i"},{"time":"6000i","midiNote":77,"note":"F5","velocity":1,"duration":"48i"},{"time":"6048i","midiNote":40,"note":"E2","velocity":1,"duration":"144i"},{"time":"6048i","midiNote":76,"note":"E5","velocity":1,"duration":"48i"},{"time":"6096i","midiNote":60,"note":"C4","velocity":1,"duration":"96i"},{"time":"6096i","midiNote":64,"note":"E4","velocity":1,"duration":"96i"},{"time":"6096i","midiNote":69,"note":"A4","velocity":1,"duration":"96i"},{"time":"6096i","midiNote":74,"note":"D5","velocity":1,"duration":"48i"},{"time":"6144i","midiNote":72,"note":"C5","velocity":1,"duration":"48i"},{"time":"6192i","midiNote":40,"note":"E2","velocity":1,"duration":"144i"},{"time":"6192i","midiNote":76,"note":"E5","velocity":1,"duration":"48i"},{"time":"6240i","midiNote":57,"note":"A3","velocity":1,"duration":"96i"},{"time":"6240i","midiNote":60,"note":"C4","velocity":1,"duration":"96i"},{"time":"6240i","midiNote":65,"note":"F4","velocity":1,"duration":"96i"},{"time":"6240i","midiNote":69,"note":"A4","velocity":1,"duration":"96i"},{"time":"6240i","midiNote":74,"note":"D5","velocity":1,"duration":"48i"},{"time":"6288i","midiNote":72,"note":"C5","velocity":1,"duration":"48i"},{"time":"6336i","midiNote":40,"note":"E2","velocity":1,"duration":"144i"},{"time":"6336i","midiNote":65,"note":"F4","velocity":1,"duration":"144i"},{"time":"6384i","midiNote":47,"note":"B2","velocity":1,"duration":"48i"},{"time":"6384i","midiNote":57,"note":"A3","velocity":1,"duration":"48i"},{"time":"6384i","midiNote":62,"note":"D4","velocity":1,"duration":"48i"},{"time":"6432i","midiNote":52,"note":"E3","velocity":1,"duration":"48i"},{"time":"6432i","midiNote":59,"note":"B3","velocity":1,"duration":"48i"},{"time":"6432i","midiNote":62,"note":"D4","velocity":1,"duration":"48i"},{"time":"6432i","midiNote":67,"note":"G4","velocity":1,"duration":"48i"},{"time":"6480i","midiNote":45,"note":"A2","velocity":1,"duration":"144i"},{"time":"6480i","midiNote":55,"note":"G3","velocity":1,"duration":"144i"},{"time":"6480i","midiNote":60,"note":"C4","velocity":1,"duration":"144i"},{"time":"6480i","midiNote":64,"note":"E4","velocity":1,"duration":"144i"},{"time":"6480i","midiNote":69,"note":"A4","velocity":1,"duration":"144i"},{"time":"6480i","midiNote":72,"note":"C5","velocity":1,"duration":"144i"},{"time":"6624i","midiNote":38,"note":"D2","velocity":1,"duration":"144i"},{"time":"6624i","midiNote":45,"note":"A2","velocity":1,"duration":"144i"},{"time":"6624i","midiNote":50,"note":"D3","velocity":1,"duration":"144i"},{"time":"6624i","midiNote":62,"note":"D4","velocity":1,"duration":"144i"},{"time":"6624i","midiNote":65,"note":"F4","velocity":1,"duration":"144i"},{"time":"6624i","midiNote":69,"note":"A4","velocity":1,"duration":"144i"},{"time":"6624i","midiNote":74,"note":"D5","velocity":1,"duration":"144i"}]}