{"header":{"timeSignature":[2,4],"PPQ":48,"tempo":120},"notes":[{"time":"0i","midiNote":71,"note":"B4","velocity":1,"duration":"12i"},{"time":"12i","midiNote":69,"note":"A4","velocity":1,"duration":"12i"},{"time":"24i","midiNote":68,"note":"G#4","velocity":1,"duration":"12i"},{"time":"36i","midiNote":69,"note":"A4","velocity":1,"duration":"12i"},{"time":"48i","midiNote":57,"note":"A3","velocity":1,"duration":"24i"},{"time":"48i","midiNote":72,"note":"C5","velocity":1,"duration":"24i"},{"time":"72i","midiNote":60,"note":"C4","velocity":1,"duration":"24i"},{"time":"72i","midiNote":64,"note":"E4","velocity":1,"duration":"24i"},{"time":"96i","midiNote":60,"note":"C4","velocity":1,"duration":"24i"},{"time":"96i","midiNote":64,"note":"E4","velocity":1,"duration":"24i"},{"time":"96i","midiNote":74,"note":"D5","velocity":1,"duration":"12i"},{"time":"108i","midiNote":72,"note":"C5","velocity":1,"duration":"12i"},{"time":"120i","midiNote":60,"note":"C4","velocity":1,"duration":"24i"},{"time":"120i","midiNote":64,"note":"E4","velocity":1,"duration":"24i"},{"time":"120i","midiNote":71,"note":"B4","velocity":1,"duration":"12i"},{"time":"132i","midiNote":72,"note":"C5","velocity":1,"duration":"12i"},{"time":"144i","midiNote":57,"note":"A3","velocity":1,"duration":"24i"},{"time":"144i","midiNote":76,"note":"E5","velocity":1,"duration":"24i"},{"time":"168i","midiNote":60,"note":"C4","velocity":1,"duration":"24i"},{"time":"168i","midiNote":64,"note":"E4","velocity":1,"duration":"24i"},{"time":"192i","midiNote":60,"note":"C4","velocity":1,"duration":"24i"},{"time":"192i","midiNote":64,"note":"E4","velocity":1,"duration":"24i"},{"time":"192i","midiNote":77,"note":"F5","velocity":1,"duration":"12i"},{"time":"204i","midiNote":76,"note":"E5","velocity":1,"duration":"12i"},{"time":"216i","midiNote":60,"note":"C4","velocity":1,"duration":"24i"},{"time":"216i","midiNote":64,"note":"E4","velocity":1,"duration":"24i"},{"time":"216i","midiNote":75,"note":"D#5","velocity":1,"duration":"12i"},{"time":"228i","midiNote":76,"note":"E5","velocity":1,"duration":"12i"},{"time":"240i","midiNote":57,"note":"A3","velocity":1,"duration":"24i"},{"time":"240i","midiNote":83,"note":"B5","velocity":1,"duration":"12i"},{"time":"252i","midiNote":81,"note":"A5","velocity":1,"duration":"12i"},{"time":"264i","midiNote":60,"note":"C4","velocity":1,"duration":"24i"},{"time":"264i","midiNote":64,"note":"E4","velocity":1,"duration":"24i"},{"time":"264i","midiNote":80,"note":"G#5","velocity":1,"duration":"12i"},{"time":"276i","midiNote":81,"note":"A5","velocity":1,"duration":"12i"},{"time":"288i","midiNote":57,"note":"A3","velocity":1,"duration":"24i"},{"time":"288i","midiNote":83,"note":"B5","velocity":1,"duration":"12i"},{"time":"300i","midiNote":81,"note":"A5","velocity":1,"duration":"12i"},{"time":"312i","midiNote":60,"note":"C4","velocity":1,"duration":"24i"},{"time":"312i","midiNote":64,"note":"E4","velocity":1,"duration":"24i"},{"time":"312i","midiNote":80,"note":"G#5","velocity":1,"duration":"12i"},{"time":"324i","midiNote":81,"note":"A5","velocity":1,"duration":"12i"},{"time":"336i","midiNote":57,"note":"A3","velocity":1,"duration":"24i"},{"time":"336i","midiNote":84,"note":"C6","velocity":1,"duration":"48i"},{"time":"360i","midiNote":60,"note":"C4","velocity":1,"duration":"24i"},{"time":"360i","midiNote":64,"note":"E4","velocity":1,"duration":"24i"},{"time":"384i","midiNote":60,"note":"C4","velocity":1,"duration":"24i"},{"time":"384i","midiNote":64,"note":"E4","velocity":1,"duration":"24i"},{"time":"384i","midiNote":81,"note":"A5","velocity":1,"duration":"24i"},{"time":"408i","midiNote":60,"note":"C4","velocity":1,"duration":"24i"},{"time":"408i","midiNote":64,"note":"E4","velocity":1,"duration":"24i"},{"time":"408i","midiNote":84,"note":"C6","velocity":1,"duration":"21i"},{"time":"429i","midiNote":79,"note":"G5","velocity":1,"duration":"2i"},{"time":"431i","midiNote":81,"note":"A5","velocity":1,"duration":"1i"},{"time":"432i","midiNote":52,"note":"E3","velocity":1,"duration":"24i"},{"time":"432i","midiNote":83,"note":"B5","velocity":1,"duration":"24i"},{"time":"456i","midiNote":59,"note":"B3","velocity":1,"duration":"24i"},{"time":"456i","midiNote":64,"note":"E4","velocity":1,"duration":"24i"},{"time":"456i","midiNote":78,"note":"F#5","velocity":1,"duration":"24i"},{"time":"456i","midiNote":81,"note":"A5","velocity":1,"duration":"24i"},{"time":"480i","midiNote":59,"note":"B3","velocity":1,"duration":"24i"},{"time":"480i","midiNote":64,"note":"E4","velocity":1,"duration":"24i"},{"time":"480i","midiNote":76,"note":"E5","velocity":1,"duration":"24i"},{"time":"480i","midiNote":79,"note":"G5","velocity":1,"duration":"24i"},{"time":"504i","midiNote":59,"note":"B3","velocity":1,"duration":"24i"},{"time":"504i","midiNote":64,"note":"E4","velocity":1,"duration":"24i"},{"time":"504i","midiNote":78,"note":"F#5","velocity":1,"duration":"21i"},{"time":"504i","midiNote":81,"note":"A5","velocity":1,"duration":"21i"},{"time":"525i","midiNote":79,"note":"G5","velocity":1,"duration":"2i"},{"time":"527i","midiNote":81,"note":"A5","velocity":1,"duration":"1i"},{"time":"528i","midiNote":52,"note":"E3","velocity":1,"duration":"24i"},{"time":"528i","midiNote":83,"note":"B5","velocity":1,"duration":"24i"},{"time":"552i","midiNote":59,"note":"B3","velocity":1,"duration":"24i"},{"time":"552i","midiNote":64,"note":"E4","velocity":1,"duration":"24i"},{"time":"552i","midiNote":78,"note":"F#5","velocity":1,"duration":"24i"},{"time":"552i","midiNote":81,"note":"A5","velocity":1,"duration":"24i"},{"time":"576i","midiNote":59,"note":"B3","velocity":1,"duration":"24i"},{"time":"576i","midiNote":64,"note":"E4","velocity":1,"duration":"24i"},{"time":"576i","midiNote":76,"note":"E5","velocity":1,"duration":"24i"},{"time":"576i","midiNote":79,"note":"G5","velocity":1,"duration":"24i"},{"time":"600i","midiNote":59,"note":"B3","velocity":1,"duration":"24i"},{"time":"600i","midiNote":64,"note":"E4","velocity":1,"duration":"24i"},{"time":"600i","midiNote":78,"note":"F#5","velocity":1,"duration":"21i"},{"time":"600i","midiNote":81,"note":"A5","velocity":1,"duration":"21i"},{"time":"621i","midiNote":79,"note":"G5","velocity":1,"duration":"2i"},{"time":"623i","midiNote":81,"note":"A5","velocity":1,"duration":"1i"},{"time":"624i","midiNote":52,"note":"E3","velocity":1,"duration":"24i"},{"time":"624i","midiNote":83,"note":"B5","velocity":1,"duration":"24i"},{"time":"648i","midiNote":59,"note":"B3","velocity":1,"duration":"24i"},{"time":"648i","midiNote":64,"note":"E4","velocity":1,"duration":"24i"},{"time":"648i","midiNote":78,"note":"F#5","velocity":1,"duration":"24i"},{"time":"648i","midiNote":81,"note":"A5","velocity":1,"duration":"24i"},{"time":"672i","midiNote":47,"note":"B2","velocity":1,"duration":"24i"},{"time":"672i","midiNote":76,"note":"E5","velocity":1,"duration":"24i"},{"time":"672i","midiNote":79,"note":"G5","velocity":1,"duration":"24i"},{"time":"696i","midiNote":59,"note":"B3","velocity":1,"duration":"24i"},{"time":"696i","midiNote":75,"note":"D#5","velocity":1,"duration":"24i"},{"time":"696i","midiNote":78,"note":"F#5","velocity":1,"duration":"24i"},{"time":"720i","midiNote":52,"note":"E3","velocity":1,"duration":"48i"},{"time":"720i","midiNote":76,"note":"E5","velocity":1,"duration":"48i"},{"time":"768i","midiNote":72,"note":"C5","velocity":1,"duration":"24i"},{"time":"768i","midiNote":76,"note":"E5","velocity":1,"duration":"24i"},{"time":"792i","midiNote":74,"note":"D5","velocity":1,"duration":"24i"},{"time":"792i","midiNote":77,"note":"F5","velocity":1,"duration":"24i"},{"time":"816i","midiNote":48,"note":"C3","velocity":1,"duration":"24i"},{"time":"816i","midiNote":76,"note":"E5","velocity":1,"duration":"24i"},{"time":"816i","midiNote":79,"note":"G5","velocity":1,"duration":"24i"},{"time":"840i","midiNote":60,"note":"C4","velocity":1,"duration":"24i"},{"time":"840i","midiNote":76,"note":"E5","velocity":1,"duration":"24i"},{"time":"840i","midiNote":79,"note":"G5","velocity":1,"duration":"24i"},{"time":"864i","midiNote":52,"note":"E3","velocity":1,"duration":"24i"},{"time":"864i","midiNote":81,"note":"A5","velocity":1,"duration":"12i"},{"time":"876i","midiNote":79,"note":"G5","velocity":1,"duration":"12i"},{"time":"888i","midiNote":64,"note":"E4","velocity":1,"duration":"24i"},{"time":"888i","midiNote":77,"note":"F5","velocity":1,"duration":"12i"},{"time":"900i","midiNote":76,"note":"E5","velocity":1,"duration":"12i"},{"time":"912i","midiNote":55,"note":"G3","velocity":1,"duration":"48i"},{"time":"912i","midiNote":71,"note":"B4","velocity":1,"duration":"24i"},{"time":"912i","midiNote":74,"note":"D5","velocity":1,"duration":"48i"},{"time":"936i","midiNote":67,"note":"G4","velocity":1,"duration":"24i"},{"time":"960i","midiNote":72,"note":"C5","velocity":1,"duration":"24i"},{"time":"960i","midiNote":76,"note":"E5","velocity":1,"duration":"24i"},{"time":"984i","midiNote":74,"note":"D5","velocity":1,"duration":"24i"},{"time":"984i","midiNote":77,"note":"F5","velocity":1,"duration":"24i"},{"time":"1008i","midiNote":48,"note":"C3","velocity":1,"duration":"24i"},{"time":"1008i","midiNote":76,"note":"E5","velocity":1,"duration":"24i"},{"time":"1008i","midiNote":79,"note":"G5","velocity":1,"duration":"24i"},{"time":"1032i","midiNote":60,"note":"C4","velocity":1,"duration":"24i"},{"time":"1032i","midiNote":76,"note":"E5","velocity":1,"duration":"24i"},{"time":"1032i","midiNote":79,"note":"G5","velocity":1,"duration":"24i"},{"time":"1056i","midiNote":52,"note":"E3","velocity":1,"duration":"24i"},{"time":"1056i","midiNote":81,"note":"A5","velocity":1,"duration":"12i"},{"time":"1068i","midiNote":79,"note":"G5","velocity":1,"duration":"12i"},{"time":"1080i","midiNote":64,"note":"E4","velocity":1,"duration":"24i"},{"time":"1080i","midiNote":77,"note":"F5","velocity":1,"duration":"12i"},{"time":"1092i","midiNote":76,"note":"E5","velocity":1,"duration":"12i"},{"time":"1104i","midiNote":55,"note":"G3","velocity":1,"duration":"48i"},{"time":"1104i","midiNote":71,"note":"B4","velocity":1,"duration":"48i"},{"time":"1104i","midiNote":74,"note":"D5","velocity":1,"duration":"48i"},{"time":"1152i","midiNote":69,"note":"A4","velocity":1,"duration":"24i"},{"time":"1152i","midiNote":72,"note":"C5","velocity":1,"duration":"24i"},{"time":"1176i","midiNote":71,"note":"B4","velocity":1,"duration":"24i"},{"time":"1176i","midiNote":74,"note":"D5","velocity":1,"duration":"24i"},{"time":"1200i","midiNote":45,"note":"A2","velocity":1,"duration":"24i"},{"time":"1200i","midiNote":72,"note":"C5","velocity":1,"duration":"24i"},{"time":"1200i","midiNote":76,"note":"E5","velocity":1,"duration":"24i"},{"time":"1224i","midiNote":57,"note":"A3","velocity":1,"duration":"24i"},{"time":"1224i","midiNote":72,"note":"C5","velocity":1,"duration":"24i"},{"time":"1224i","midiNote":76,"note":"E5","velocity":1,"duration":"24i"},{"time":"1248i","midiNote":48,"note":"C3","velocity":1,"duration":"24i"},{"time":"1248i","midiNote":77,"note":"F5","velocity":1,"duration":"12i"},{"time":"1260i","midiNote":76,"note":"E5","velocity":1,"duration":"12i"},{"time":"1272i","midiNote":60,"note":"C4","velocity":1,"duration":"24i"},{"time":"1272i","midiNote":74,"note":"D5","velocity":1,"duration":"12i"},{"time":"1284i","midiNote":72,"note":"C5","velocity":1,"duration":"12i"},{"time":"1296i","midiNote":52,"note":"E3","velocity":1,"duration":"48i"},{"time":"1296i","midiNote":68,"note":"G#4","velocity":1,"duration":"24i"},{"time":"1296i","midiNote":71,"note":"B4","velocity":1,"duration":"48i"},{"time":"1320i","midiNote":64,"note":"E4","velocity":1,"duration":"24i"},{"time":"1344i","midiNote":69,"note":"A4","velocity":1,"duration":"24i"},{"time":"1344i","midiNote":72,"note":"C5","velocity":1,"duration":"24i"},{"time":"1368i","midiNote":71,"note":"B4","velocity":1,"duration":"24i"},{"time":"1368i","midiNote":74,"note":"D5","velocity":1,"duration":"24i"},{"time":"1392i","midiNote":45,"note":"A2","velocity":1,"duration":"24i"},{"time":"1392i","midiNote":72,"note":"C5","velocity":1,"duration":"24i"},{"time":"1392i","midiNote":76,"note":"E5","velocity":1,"duration":"24i"},{"time":"1416i","midiNote":57,"note":"A3","velocity":1,"duration":"24i"},{"time":"1416i","midiNote":72,"note":"C5","velocity":1,"duration":"24i"},{"time":"1416i","midiNote":76,"note":"E5","velocity":1,"duration":"24i"},{"time":"1440i","midiNote":48,"note":"C3","velocity":1,"duration":"24i"},{"time":"1440i","midiNote":77,"note":"F5","velocity":1,"duration":"12i"},{"time":"1452i","midiNote":76,"note":"E5","velocity":1,"duration":"12i"},{"time":"1464i","midiNote":60,"note":"C4","velocity":1,"duration":"24i"},{"time":"1464i","midiNote":74,"note":"D5","velocity":1,"duration":"12i"},{"time":"1476i","midiNote":72,"note":"C5","velocity":1,"duration":"12i"},{"time":"1488i","midiNote":52,"note":"E3","velocity":1,"duration":"48i"},{"time":"1488i","midiNote":68,"note":"G#4","velocity":1,"duration":"48i"},{"time":"1488i","midiNote":71,"note":"B4","velocity":1,"duration":"48i"},{"time":"1536i","midiNote":71,"note":"B4","velocity":1,"duration":"12i"},{"time":"1548i","midiNote":69,"note":"A4","velocity":1,"duration":"12i"},{"time":"1560i","midiNote":68,"note":"G#4","velocity":1,"duration":"12i"},{"time":"1572i","midiNote":69,"note":"A4","velocity":1,"duration":"12i"},{"time":"1584i","midiNote":57,"note":"A3","velocity":1,"duration":"24i"},{"time":"1584i","midiNote":72,"note":"C5","velocity":1,"duration":"24i"},{"time":"1608i","midiNote":60,"note":"C4","velocity":1,"duration":"24i"},{"time":"1608i","midiNote":64,"note":"E4","velocity":1,"duration":"24i"},{"time":"1632i","midiNote":60,"note":"C4","velocity":1,"duration":"24i"},{"time":"1632i","midiNote":64,"note":"E4","velocity":1,"duration":"24i"},{"time":"1632i","midiNote":74,"note":"D5","velocity":1,"duration":"12i"},{"time":"1644i","midiNote":72,"note":"C5","velocity":1,"duration":"12i"},{"time":"1656i","midiNote":60,"note":"C4","velocity":1,"duration":"24i"},{"time":"1656i","midiNote":64,"note":"E4","velocity":1,"duration":"24i"},{"time":"1656i","midiNote":71,"note":"B4","velocity":1,"duration":"12i"},{"time":"1668i","midiNote":72,"note":"C5","velocity":1,"duration":"12i"},{"time":"1680i","midiNote":57,"note":"A3","velocity":1,"duration":"24i"},{"time":"1680i","midiNote":76,"note":"E5","velocity":1,"duration":"24i"},{"time":"1704i","midiNote":60,"note":"C4","velocity":1,"duration":"24i"},{"time":"1704i","midiNote":64,"note":"E4","velocity":1,"duration":"24i"},{"time":"1728i","midiNote":60,"note":"C4","velocity":1,"duration":"24i"},{"time":"1728i","midiNote":64,"note":"E4","velocity":1,"duration":"24i"},{"time":"1728i","midiNote":77,"note":"F5","velocity":1,"duration":"12i"},{"time":"1740i","midiNote":76,"note":"E5","velocity":1,"duration":"12i"},{"time":"1752i","midiNote":60,"note":"C4","velocity":1,"duration":"24i"},{"time":"1752i","midiNote":64,"note":"E4","velocity":1,"duration":"24i"},{"time":"1752i","midiNote":75,"note":"D#5","velocity":1,"duration":"12i"},{"time":"1764i","midiNote":76,"note":"E5","velocity":1,"duration":"12i"},{"time":"1776i","midiNote":57,"note":"A3","velocity":1,"duration":"24i"},{"time":"1776i","midiNote":83,"note":"B5","velocity":1,"duration":"12i"},{"time":"1788i","midiNote":81,"note":"A5","velocity":1,"duration":"12i"},{"time":"1800i","midiNote":60,"note":"C4","velocity":1,"duration":"24i"},{"time":"1800i","midiNote":64,"note":"E4","velocity":1,"duration":"24i"},{"time":"1800i","midiNote":80,"note":"G#5","velocity":1,"duration":"12i"},{"time":"1812i","midiNote":81,"note":"A5","velocity":1,"duration":"12i"},{"time":"1824i","midiNote":57,"note":"A3","velocity":1,"duration":"24i"},{"time":"1824i","midiNote":83,"note":"B5","velocity":1,"duration":"12i"},{"time":"1836i","midiNote":81,"note":"A5","velocity":1,"duration":"12i"},{"time":"1848i","midiNote":60,"note":"C4","velocity":1,"duration":"24i"},{"time":"1848i","midiNote":64,"note":"E4","velocity":1,"duration":"24i"},{"time":"1848i","midiNote":80,"note":"G#5","velocity":1,"duration":"12i"},{"time":"1860i","midiNote":81,"note":"A5","velocity":1,"duration":"12i"},{"time":"1872i","midiNote":53,"note":"F3","velocity":1,"duration":"24i"},{"time":"1872i","midiNote":84,"note":"C6","velocity":1,"duration":"24i"},{"time":"1896i","midiNote":57,"note":"A3","velocity":1,"duration":"24i"},{"time":"1896i","midiNote":63,"note":"D#4","velocity":1,"duration":"24i"},{"time":"1920i","midiNote":57,"note":"A3","velocity":1,"duration":"24i"},{"time":"1920i","midiNote":63,"note":"D#4","velocity":1,"duration":"24i"},{"time":"1920i","midiNote":81,"note":"A5","velocity":1,"duration":"24i"},{"time":"1944i","midiNote":57,"note":"A3","velocity":1,"duration":"24i"},{"time":"1944i","midiNote":63,"note":"D#4","velocity":1,"duration":"24i"},{"time":"1944i","midiNote":83,"note":"B5","velocity":1,"duration":"24i"},{"time":"1968i","midiNote":52,"note":"E3","velocity":1,"duration":"24i"},{"time":"1968i","midiNote":84,"note":"C6","velocity":1,"duration":"24i"},{"time":"1992i","midiNote":57,"note":"A3","velocity":1,"duration":"24i"},{"time":"1992i","midiNote":64,"note":"E4","velocity":1,"duration":"24i"},{"time":"1992i","midiNote":83,"note":"B5","velocity":1,"duration":"24i"},{"time":"2016i","midiNote":50,"note":"D3","velocity":1,"duration":"24i"},{"time":"2016i","midiNote":81,"note":"A5","velocity":1,"duration":"24i"},{"time":"2040i","midiNote":53,"note":"F3","velocity":1,"duration":"24i"},{"time":"2040i","midiNote":59,"note":"B3","velocity":1,"duration":"24i"},{"time":"2040i","midiNote":80,"note":"G#5","velocity":1,"duration":"24i"},{"time":"2064i","midiNote":48,"note":"C3","velocity":1,"duration":"24i"},{"time":"2064i","midiNote":81,"note":"A5","velocity":1,"duration":"24i"},{"time":"2088i","midiNote":52,"note":"E3","velocity":1,"duration":"24i"},{"time":"2088i","midiNote":57,"note":"A3","velocity":1,"duration":"24i"},{"time":"2088i","midiNote":76,"note":"E5","velocity":1,"duration":"24i"},{"time":"2112i","midiNote":50,"note":"D3","velocity":1,"duration":"24i"},{"time":"2112i","midiNote":77,"note":"F5","velocity":1,"duration":"24i"},{"time":"2136i","midiNote":53,"note":"F3","velocity":1,"duration":"24i"},{"time":"2136i","midiNote":59,"note":"B3","velocity":1,"duration":"24i"},{"time":"2136i","midiNote":74,"note":"D5","velocity":1,"duration":"24i"},{"time":"2160i","midiNote":52,"note":"E3","velocity":1,"duration":"24i"},{"time":"2160i","midiNote":57,"note":"A3","velocity":1,"duration":"24i"},{"time":"2160i","midiNote":72,"note":"C5","velocity":1,"duration":"48i"},{"time":"2184i","midiNote":52,"note":"E3","velocity":1,"duration":"24i"},{"time":"2184i","midiNote":57,"note":"A3","velocity":1,"duration":"24i"},{"time":"2208i","midiNote":52,"note":"E3","velocity":1,"duration":"24i"},{"time":"2208i","midiNote":56,"note":"G#3","velocity":1,"duration":"24i"},{"time":"2208i","midiNote":71,"note":"B4","velocity":1,"duration":"36i"},{"time":"2232i","midiNote":52,"note":"E3","velocity":1,"duration":"24i"},{"time":"2232i","midiNote":56,"note":"G#3","velocity":1,"duration":"24i"},{"time":"2244i","midiNote":69,"note":"A4","velocity":1,"duration":"6i"},{"time":"2250i","midiNote":71,"note":"B4","velocity":1,"duration":"6i"},{"time":"2256i","midiNote":45,"note":"A2","velocity":1,"duration":"44i"},{"time":"2256i","midiNote":57,"note":"A3","velocity":1,"duration":"44i"},{"time":"2256i","midiNote":69,"note":"A4","velocity":1,"duration":"48i"},{"time":"2304i","midiNote":69,"note":"A4","velocity":1,"duration":"24i"},{"time":"2304i","midiNote":81,"note":"A5","velocity":1,"duration":"24i"},{"time":"2328i","midiNote":71,"note":"B4","velocity":1,"duration":"24i"},{"time":"2328i","midiNote":83,"note":"B5","velocity":1,"duration":"24i"},{"time":"2348i","midiNote":45,"note":"A2","velocity":1,"duration":"2i"},{"time":"2349i","midiNote":49,"note":"C#3","velocity":1,"duration":"2i"},{"time":"2351i","midiNote":52,"note":"E3","velocity":1,"duration":"1i"},{"time":"2352i","midiNote":57,"note":"A3","velocity":1,"duration":"24i"},{"time":"2352i","midiNote":73,"note":"C#5","velocity":1,"duration":"48i"},{"time":"2352i","midiNote":85,"note":"C#6","velocity":1,"duration":"48i"},{"time":"2376i","midiNote":57,"note":"A3","velocity":1,"duration":"24i"},{"time":"2400i","midiNote":57,"note":"A3","velocity":1,"duration":"24i"},{"time":"2400i","midiNote":69,"note":"A4","velocity":1,"duration":"24i"},{"time":"2400i","midiNote":81,"note":"A5","velocity":1,"duration":"24i"},{"time":"2424i","midiNote":57,"note":"A3","velocity":1,"duration":"20i"},{"time":"2424i","midiNote":71,"note":"B4","velocity":1,"duration":"24i"},{"time":"2424i","midiNote":83,"note":"B5","velocity":1,"duration":"24i"},{"time":"2444i","midiNote":45,"note":"A2","velocity":1,"duration":"2i"},{"time":"2445i","midiNote":49,"note":"C#3","velocity":1,"duration":"2i"},{"time":"2447i","midiNote":52,"note":"E3","velocity":1,"duration":"1i"},{"time":"2448i","midiNote":57,"note":"A3","velocity":1,"duration":"24i"},{"time":"2448i","midiNote":73,"note":"C#5","velocity":1,"duration":"24i"},{"time":"2448i","midiNote":85,"note":"C#6","velocity":1,"duration":"24i"},{"time":"2472i","midiNote":57,"note":"A3","velocity":1,"duration":"24i"},{"time":"2472i","midiNote":71,"note":"B4","velocity":1,"duration":"24i"},{"time":"2472i","midiNote":83,"note":"B5","velocity":1,"duration":"24i"},{"time":"2496i","midiNote":57,"note":"A3","velocity":1,"duration":"24i"},{"time":"2496i","midiNote":69,"note":"A4","velocity":1,"duration":"24i"},{"time":"2496i","midiNote":81,"note":"A5","velocity":1,"duration":"24i"},{"time":"2520i","midiNote":57,"note":"A3","velocity":1,"duration":"20i"},{"time":"2520i","midiNote":68,"note":"G#4","velocity":1,"duration":"24i"},{"time":"2520i","midiNote":80,"note":"G#5","velocity":1,"duration":"24i"},{"time":"2540i","midiNote":38,"note":"D2","velocity":1,"duration":"2i"},{"time":"2541i","midiNote":42,"note":"F#2","velocity":1,"duration":"2i"},{"time":"2543i","midiNote":45,"note":"A2","velocity":1,"duration":"1i"},{"time":"2544i","midiNote":50,"note":"D3","velocity":1,"duration":"24i"},{"time":"2544i","midiNote":66,"note":"F#4","velocity":1,"duration":"24i"},{"time":"2544i","midiNote":78,"note":"F#5","velocity":1,"duration":"24i"},{"time":"2568i","midiNote":50,"note":"D3","velocity":1,"duration":"20i"},{"time":"2568i","midiNote":68,"note":"G#4","velocity":1,"duration":"24i"},{"time":"2568i","midiNote":80,"note":"G#5","velocity":1,"duration":"24i"},{"time":"2588i","midiNote":39,"note":"D#2","velocity":1,"duration":"2i"},{"time":"2589i","midiNote":42,"note":"F#2","velocity":1,"duration":"2i"},{"time":"2591i","midiNote":45,"note":"A2","velocity":1,"duration":"1i"},{"time":"2592i","midiNote":51,"note":"D#3","velocity":1,"duration":"24i"},{"time":"2592i","midiNote":69,"note":"A4","velocity":1,"duration":"24i"},{"time":"2592i","midiNote":81,"note":"A5","velocity":1,"duration":"24i"},{"time":"2616i","midiNote":51,"note":"D#3","velocity":1,"duration":"20i"},{"time":"2616i","midiNote":71,"note":"B4","velocity":1,"duration":"24i"},{"time":"2616i","midiNote":83,"note":"B5","velocity":1,"duration":"24i"},{"time":"2636i","midiNote":40,"note":"E2","velocity":1,"duration":"2i"},{"time":"2637i","midiNote":44,"note":"G#2","velocity":1,"duration":"2i"},{"time":"2639i","midiNote":47,"note":"B2","velocity":1,"duration":"1i"},{"time":"2640i","midiNote":52,"note":"E3","velocity":1,"duration":"24i"},{"time":"2640i","midiNote":68,"note":"G#4","velocity":1,"duration":"24i"},{"time":"2640i","midiNote":80,"note":"G#5","velocity":1,"duration":"24i"},{"time":"2664i","midiNote":52,"note":"E3","velocity":1,"duration":"24i"},{"time":"2664i","midiNote":64,"note":"E4","velocity":1,"duration":"24i"},{"time":"2664i","midiNote":76,"note":"E5","velocity":1,"duration":"24i"},{"time":"2688i","midiNote":52,"note":"E3","velocity":1,"duration":"24i"},{"time":"2688i","midiNote":69,"note":"A4","velocity":1,"duration":"24i"},{"time":"2688i","midiNote":81,"note":"A5","velocity":1,"duration":"24i"},{"time":"2712i","midiNote":52,"note":"E3","velocity":1,"duration":"20i"},{"time":"2712i","midiNote":71,"note":"B4","velocity":1,"duration":"24i"},{"time":"2712i","midiNote":83,"note":"B5","velocity":1,"duration":"24i"},{"time":"2732i","midiNote":45,"note":"A2","velocity":1,"duration":"2i"},{"time":"2733i","midiNote":49,"note":"C#3","velocity":1,"duration":"2i"},{"time":"2735i","midiNote":52,"note":"E3","velocity":1,"duration":"1i"},{"time":"2736i","midiNote":57,"note":"A3","velocity":1,"duration":"24i"},{"time":"2736i","midiNote":73,"note":"C#5","velocity":1,"duration":"48i"},{"time":"2736i","midiNote":85,"note":"C#6","velocity":1,"duration":"48i"},{"time":"2760i","midiNote":57,"note":"A3","velocity":1,"duration":"24i"},{"time":"2784i","midiNote":57,"note":"A3","velocity":1,"duration":"24i"},{"time":"2784i","midiNote":69,"note":"A4","velocity":1,"duration":"24i"},{"time":"2784i","midiNote":81,"note":"A5","velocity":1,"duration":"24i"},{"time":"2808i","midiNote":57,"note":"A3","velocity":1,"duration":"20i"},{"time":"2808i","midiNote":71,"note":"B4","velocity":1,"duration":"24i"},{"time":"2808i","midiNote":83,"note":"B5","velocity":1,"duration":"24i"},{"time":"2828i","midiNote":45,"note":"A2","velocity":1,"duration":"2i"},{"time":"2829i","midiNote":49,"note":"C#3","velocity":1,"duration":"2i"},{"time":"2831i","midiNote":52,"note":"E3","velocity":1,"duration":"1i"},{"time":"2832i","midiNote":57,"note":"A3","velocity":1,"duration":"24i"},{"time":"2832i","midiNote":73,"note":"C#5","velocity":1,"duration":"24i"},{"time":"2832i","midiNote":85,"note":"C#6","velocity":1,"duration":"24i"},{"time":"2856i","midiNote":57,"note":"A3","velocity":1,"duration":"24i"},{"time":"2856i","midiNote":71,"note":"B4","velocity":1,"duration":"24i"},{"time":"2856i","midiNote":83,"note":"B5","velocity":1,"duration":"24i"},{"time":"2880i","midiNote":57,"note":"A3","velocity":1,"duration":"24i"},{"time":"2880i","midiNote":69,"note":"A4","velocity":1,"duration":"24i"},{"time":"2880i","midiNote":81,"note":"A5","velocity":1,"duration":"24i"},{"time":"2904i","midiNote":57,"note":"A3","velocity":1,"duration":"20i"},{"time":"2904i","midiNote":68,"note":"G#4","velocity":1,"duration":"24i"},{"time":"2904i","midiNote":80,"note":"G#5","velocity":1,"duration":"24i"},{"time":"2924i","midiNote":38,"note":"D2","velocity":1,"duration":"2i"},{"time":"2925i","midiNote":42,"note":"F#2","velocity":1,"duration":"2i"},{"time":"2927i","midiNote":45,"note":"A2","velocity":1,"duration":"1i"},{"time":"2928i","midiNote":50,"note":"D3","velocity":1,"duration":"24i"},{"time":"2928i","midiNote":66,"note":"F#4","velocity":1,"duration":"24i"},{"time":"2928i","midiNote":78,"note":"F#5","velocity":1,"duration":"24i"},{"time":"2952i","midiNote":50,"note":"D3","velocity":1,"duration":"20i"},{"time":"2952i","midiNote":71,"note":"B4","velocity":1,"duration":"24i"},{"time":"2952i","midiNote":83,"note":"B5","velocity":1,"duration":"24i"},{"time":"2972i","midiNote":40,"note":"E2","velocity":1,"duration":"2i"},{"time":"2973i","midiNote":44,"note":"G#2","velocity":1,"duration":"2i"},{"time":"2975i","midiNote":47,"note":"B2","velocity":1,"duration":"1i"},{"time":"2976i","midiNote":52,"note":"E3","velocity":1,"duration":"24i"},{"time":"2976i","midiNote":68,"note":"G#4","velocity":1,"duration":"24i"},{"time":"2976i","midiNote":80,"note":"G#5","velocity":1,"duration":"24i"},{"time":"3000i","midiNote":52,"note":"E3","velocity":1,"duration":"24i"},{"time":"3000i","midiNote":64,"note":"E4","velocity":1,"duration":"24i"},{"time":"3000i","midiNote":76,"note":"E5","velocity":1,"duration":"24i"},{"time":"3024i","midiNote":45,"note":"A2","velocity":1,"duration":"48i"},{"time":"3024i","midiNote":69,"note":"A4","velocity":1,"duration":"48i"},{"time":"3024i","midiNote":81,"note":"A5","velocity":1,"duration":"48i"},{"time":"3072i","midiNote":85,"note":"C#6","velocity":1,"duration":"12i"},{"time":"3084i","midiNote":86,"note":"D6","velocity":1,"duration":"12i"},{"time":"3096i","midiNote":85,"note":"C#6","velocity":1,"duration":"12i"},{"time":"3108i","midiNote":83,"note":"B5","velocity":1,"duration":"12i"},{"time":"3120i","midiNote":54,"note":"F#3","velocity":1,"duration":"24i"},{"time":"3120i","midiNote":81,"note":"A5","velocity":1,"duration":"12i"},{"time":"3132i","midiNote":83,"note":"B5","velocity":1,"duration":"12i"},{"time":"3144i","midiNote":57,"note":"A3","velocity":1,"duration":"24i"},{"time":"3144i","midiNote":61,"note":"C#4","velocity":1,"duration":"24i"},{"time":"3144i","midiNote":81,"note":"A5","velocity":1,"duration":"12i"},{"time":"3156i","midiNote":80,"note":"G#5","velocity":1,"duration":"12i"},{"time":"3168i","midiNote":57,"note":"A3","velocity":1,"duration":"24i"},{"time":"3168i","midiNote":61,"note":"C#4","velocity":1,"duration":"24i"},{"time":"3168i","midiNote":78,"note":"F#5","velocity":1,"duration":"12i"},{"time":"3180i","midiNote":81,"note":"A5","velocity":1,"duration":"12i"},{"time":"3192i","midiNote":57,"note":"A3","velocity":1,"duration":"24i"},{"time":"3192i","midiNote":61,"note":"C#4","velocity":1,"duration":"24i"},{"time":"3192i","midiNote":80,"note":"G#5","velocity":1,"duration":"12i"},{"time":"3204i","midiNote":78,"note":"F#5","velocity":1,"duration":"12i"},{"time":"3216i","midiNote":56,"note":"G#3","velocity":1,"duration":"24i"},{"time":"3216i","midiNote":77,"note":"F5","velocity":1,"duration":"12i"},{"time":"3228i","midiNote":78,"note":"F#5","velocity":1,"duration":"12i"},{"time":"3240i","midiNote":59,"note":"B3","velocity":1,"duration":"24i"},{"time":"3240i","midiNote":61,"note":"C#4","velocity":1,"duration":"24i"},{"time":"3240i","midiNote":80,"note":"G#5","velocity":1,"duration":"12i"},{"time":"3252i","midiNote":77,"note":"F5","velocity":1,"duration":"12i"},{"time":"3264i","midiNote":59,"note":"B3","velocity":1,"duration":"24i"},{"time":"3264i","midiNote":61,"note":"C#4","velocity":1,"duration":"24i"},{"time":"3264i","midiNote":73,"note":"C#5","velocity":1,"duration":"12i"},{"time":"3276i","midiNote":75,"note":"D#5","velocity":1,"duration":"12i"},{"time":"3288i","midiNote":59,"note":"B3","velocity":1,"duration":"24i"},{"time":"3288i","midiNote":61,"note":"C#4","velocity":1,"duration":"24i"},{"time":"3288i","midiNote":77,"note":"F5","velocity":1,"duration":"12i"},{"time":"3300i","midiNote":73,"note":"C#5","velocity":1,"duration":"12i"},{"time":"3312i","midiNote":54,"note":"F#3","velocity":1,"duration":"24i"},{"time":"3312i","midiNote":78,"note":"F#5","velocity":1,"duration":"12i"},{"time":"3324i","midiNote":77,"note":"F5","velocity":1,"duration":"12i"},{"time":"3336i","midiNote":57,"note":"A3","velocity":1,"duration":"24i"},{"time":"3336i","midiNote":61,"note":"C#4","velocity":1,"duration":"24i"},{"time":"3336i","midiNote":78,"note":"F#5","velocity":1,"duration":"12i"},{"time":"3348i","midiNote":80,"note":"G#5","velocity":1,"duration":"12i"},{"time":"3360i","midiNote":57,"note":"A3","velocity":1,"duration":"24i"},{"time":"3360i","midiNote":61,"note":"C#4","velocity":1,"duration":"24i"},{"time":"3360i","midiNote":81,"note":"A5","velocity":1,"duration":"12i"},{"time":"3372i","midiNote":80,"note":"G#5","velocity":1,"duration":"12i"},{"time":"3384i","midiNote":57,"note":"A3","velocity":1,"duration":"24i"},{"time":"3384i","midiNote":61,"note":"C#4","velocity":1,"duration":"24i"},{"time":"3384i","midiNote":81,"note":"A5","velocity":1,"duration":"12i"},{"time":"3396i","midiNote":83,"note":"B5","velocity":1,"duration":"12i"},{"time":"3408i","midiNote":53,"note":"F3","velocity":1,"duration":"24i"},{"time":"3408i","midiNote":85,"note":"C#6","velocity":1,"duration":"12i"},{"time":"3420i","midiNote":84,"note":"C6","velocity":1,"duration":"12i"},{"time":"3432i","midiNote":56,"note":"G#3","velocity":1,"duration":"24i"},{"time":"3432i","midiNote":61,"note":"C#4","velocity":1,"duration":"24i"},{"time":"3432i","midiNote":85,"note":"C#6","velocity":1,"duration":"12i"},{"time":"3444i","midiNote":84,"note":"C6","velocity":1,"duration":"12i"},{"time":"3456i","midiNote":56,"note":"G#3","velocity":1,"duration":"24i"},{"time":"3456i","midiNote":61,"note":"C#4","velocity":1,"duration":"24i"},{"time":"3456i","midiNote":85,"note":"C#6","velocity":1,"duration":"12i"},{"time":"3468i","midiNote":86,"note":"D6","velocity":1,"duration":"12i"},{"time":"3480i","midiNote":56,"note":"G#3","velocity":1,"duration":"24i"},{"time":"3480i","midiNote":61,"note":"C#4","velocity":1,"duration":"24i"},{"time":"3480i","midiNote":85,"note":"C#6","velocity":1,"duration":"12i"},{"time":"3492i","midiNote":83,"note":"B5","velocity":1,"duration":"12i"},{"time":"3504i","midiNote":54,"note":"F#3","velocity":1,"duration":"24i"},{"time":"3504i","midiNote":81,"note":"A5","velocity":1,"duration":"12i"},{"time":"3516i","midiNote":83,"note":"B5","velocity":1,"duration":"12i"},{"time":"3528i","midiNote":57,"note":"A3","velocity":1,"duration":"24i"},{"time":"3528i","midiNote":61,"note":"C#4","velocity":1,"duration":"24i"},{"time":"3528i","midiNote":81,"note":"A5","velocity":1,"duration":"12i"},{"time":"3540i","midiNote":80,"note":"G#5","velocity":1,"duration":"12i"},{"time":"3552i","midiNote":57,"note":"A3","velocity":1,"duration":"24i"},{"time":"3552i","midiNote":61,"note":"C#4","velocity":1,"duration":"24i"},{"time":"3552i","midiNote":78,"note":"F#5","velocity":1,"duration":"12i"},{"time":"3564i","midiNote":81,"note":"A5","velocity":1,"duration":"12i"},{"time":"3576i","midiNote":57,"note":"A3","velocity":1,"duration":"24i"},{"time":"3576i","midiNote":61,"note":"C#4","velocity":1,"duration":"24i"},{"time":"3576i","midiNote":80,"note":"G#5","velocity":1,"duration":"12i"},{"time":"3588i","midiNote":78,"note":"F#5","velocity":1,"duration":"12i"},{"time":"3600i","midiNote":56,"note":"G#3","velocity":1,"duration":"24i"},{"time":"3600i","midiNote":76,"note":"E5","velocity":1,"duration":"12i"},{"time":"3612i","midiNote":78,"note":"F#5","velocity":1,"duration":"12i"},{"time":"3624i","midiNote":61,"note":"C#4","velocity":1,"duration":"24i"},{"time":"3624i","midiNote":64,"note":"E4","velocity":1,"duration":"24i"},{"time":"3624i","midiNote":80,"note":"G#5","velocity":1,"duration":"12i"},{"time":"3636i","midiNote":76,"note":"E5","velocity":1,"duration":"12i"},{"time":"3648i","midiNote":61,"note":"C#4","velocity":1,"duration":"24i"},{"time":"3648i","midiNote":64,"note":"E4","velocity":1,"duration":"24i"},{"time":"3648i","midiNote":73,"note":"C#5","velocity":1,"duration":"12i"},{"time":"3660i","midiNote":75,"note":"D#5","velocity":1,"duration":"12i"},{"time":"3672i","midiNote":61,"note":"C#4","velocity":1,"duration":"24i"},{"time":"3672i","midiNote":64,"note":"E4","velocity":1,"duration":"24i"},{"time":"3672i","midiNote":76,"note":"E5","velocity":1,"duration":"12i"},{"time":"3684i","midiNote":73,"note":"C#5","velocity":1,"duration":"12i"},{"time":"3696i","midiNote":56,"note":"G#3","velocity":1,"duration":"24i"},{"time":"3696i","midiNote":75,"note":"D#5","velocity":1,"duration":"12i"},{"time":"3708i","midiNote":76,"note":"E5","velocity":1,"duration":"12i"},{"time":"3720i","midiNote":63,"note":"D#4","velocity":1,"duration":"24i"},{"time":"3720i","midiNote":66,"note":"F#4","velocity":1,"duration":"24i"},{"time":"3720i","midiNote":78,"note":"F#5","velocity":1,"duration":"12i"},{"time":"3732i","midiNote":75,"note":"D#5","velocity":1,"duration":"12i"},{"time":"3744i","midiNote":63,"note":"D#4","velocity":1,"duration":"24i"},{"time":"3744i","midiNote":66,"note":"F#4","velocity":1,"duration":"24i"},{"time":"3744i","midiNote":72,"note":"C5","velocity":1,"duration":"12i"},{"time":"3756i","midiNote":73,"note":"C#5","velocity":1,"duration":"12i"},{"time":"3768i","midiNote":63,"note":"D#4","velocity":1,"duration":"24i"},{"time":"3768i","midiNote":66,"note":"F#4","velocity":1,"duration":"24i"},{"time":"3768i","midiNote":75,"note":"D#5","velocity":1,"duration":"12i"},{"time":"3780i","midiNote":72,"note":"C5","velocity":1,"duration":"12i"},{"time":"3792i","midiNote":61,"note":"C#4","velocity":1,"duration":"48i"},{"time":"3792i","midiNote":64,"note":"E4","velocity":1,"duration":"48i"},{"time":"3792i","midiNote":73,"note":"C#5","velocity":1,"duration":"48i"},{"time":"3840i","midiNote":76,"note":"E5","velocity":1,"duration":"12i"},{"time":"3852i","midiNote":74,"note":"D5","velocity":1,"duration":"12i"},{"time":"3864i","midiNote":73,"note":"C#5","velocity":1,"duration":"12i"},{"time":"3876i","midiNote":71,"note":"B4","velocity":1,"duration":"12i"},{"time":"3888i","midiNote":57,"note":"A3","velocity":1,"duration":"24i"},{"time":"3888i","midiNote":69,"note":"A4","velocity":1,"duration":"12i"},{"time":"3900i","midiNote":71,"note":"B4","velocity":1,"duration":"12i"},{"time":"3912i","midiNote":61,"note":"C#4","velocity":1,"duration":"24i"},{"time":"3912i","midiNote":64,"note":"E4","velocity":1,"duration":"24i"},{"time":"3912i","midiNote":73,"note":"C#5","velocity":1,"duration":"12i"},{"time":"3924i","midiNote":74,"note":"D5","velocity":1,"duration":"12i"},{"time":"3936i","midiNote":61,"note":"C#4","velocity":1,"duration":"24i"},{"time":"3936i","midiNote":64,"note":"E4","velocity":1,"duration":"24i"},{"time":"3936i","midiNote":76,"note":"E5","velocity":1,"duration":"12i"},{"time":"3948i","midiNote":78,"note":"F#5","velocity":1,"duration":"12i"},{"time":"3960i","midiNote":61,"note":"C#4","velocity":1,"duration":"24i"},{"time":"3960i","midiNote":64,"note":"E4","velocity":1,"duration":"24i"},{"time":"3960i","midiNote":80,"note":"G#5","velocity":1,"duration":"12i"},{"time":"3972i","midiNote":81,"note":"A5","velocity":1,"duration":"12i"},{"time":"3984i","midiNote":59,"note":"B3","velocity":1,"duration":"24i"},{"time":"3984i","midiNote":81,"note":"A5","velocity":1,"duration":"12i"},{"time":"3996i","midiNote":80,"note":"G#5","velocity":1,"duration":"12i"},{"time":"4008i","midiNote":62,"note":"D4","velocity":1,"duration":"24i"},{"time":"4008i","midiNote":64,"note":"E4","velocity":1,"duration":"24i"},{"time":"4008i","midiNote":78,"note":"F#5","velocity":1,"duration":"12i"},{"time":"4020i","midiNote":76,"note":"E5","velocity":1,"duration":"12i"},{"time":"4032i","midiNote":56,"note":"G#3","velocity":1,"duration":"24i"},{"time":"4032i","midiNote":76,"note":"E5","velocity":1,"duration":"12i"},{"time":"4044i","midiNote":74,"note":"D5","velocity":1,"duration":"12i"},{"time":"4056i","midiNote":62,"note":"D4","velocity":1,"duration":"24i"},{"time":"4056i","midiNote":64,"note":"E4","velocity":1,"duration":"24i"},{"time":"4056i","midiNote":73,"note":"C#5","velocity":1,"duration":"12i"},{"time":"4068i","midiNote":71,"note":"B4","velocity":1,"duration":"12i"},{"time":"4080i","midiNote":57,"note":"A3","velocity":1,"duration":"24i"},{"time":"4080i","midiNote":69,"note":"A4","velocity":1,"duration":"12i"},{"time":"4092i","midiNote":71,"note":"B4","velocity":1,"duration":"12i"},{"time":"4104i","midiNote":61,"note":"C#4","velocity":1,"duration":"24i"},{"time":"4104i","midiNote":64,"note":"E4","velocity":1,"duration":"24i"},{"time":"4104i","midiNote":73,"note":"C#5","velocity":1,"duration":"12i"},{"time":"4116i","midiNote":74,"note":"D5","velocity":1,"duration":"12i"},{"time":"4128i","midiNote":61,"note":"C#4","velocity":1,"duration":"24i"},{"time":"4128i","midiNote":64,"note":"E4","velocity":1,"duration":"24i"},{"time":"4128i","midiNote":76,"note":"E5","velocity":1,"duration":"12i"},{"time":"4140i","midiNote":78,"note":"F#5","velocity":1,"duration":"12i"},{"time":"4152i","midiNote":61,"note":"C#4","velocity":1,"duration":"24i"},{"time":"4152i","midiNote":64,"note":"E4","velocity":1,"duration":"24i"},{"time":"4152i","midiNote":80,"note":"G#5","velocity":1,"duration":"12i"},{"time":"4164i","midiNote":81,"note":"A5","velocity":1,"duration":"12i"},{"time":"4176i","midiNote":52,"note":"E3","velocity":1,"duration":"24i"},{"time":"4176i","midiNote":82,"note":"A#5","velocity":1,"duration":"24i"},{"time":"4200i","midiNote":56,"note":"G#3","velocity":1,"duration":"24i"},{"time":"4200i","midiNote":62,"note":"D4","velocity":1,"duration":"24i"},{"time":"4200i","midiNote":83,"note":"B5","velocity":1,"duration":"24i"},{"time":"4224i","midiNote":56,"note":"G#3","velocity":1,"duration":"24i"},{"time":"4224i","midiNote":62,"note":"D4","velocity":1,"duration":"24i"},{"time":"4224i","midiNote":76,"note":"E5","velocity":1,"duration":"12i"},{"time":"4236i","midiNote":74,"note":"D5","velocity":1,"duration":"12i"},{"time":"4248i","midiNote":56,"note":"G#3","velocity":1,"duration":"24i"},{"time":"4248i","midiNote":62,"note":"D4","velocity":1,"duration":"24i"},{"time":"4248i","midiNote":73,"note":"C#5","velocity":1,"duration":"12i"},{"time":"4260i","midiNote":71,"note":"B4","velocity":1,"duration":"12i"},{"time":"4272i","midiNote":57,"note":"A3","velocity":1,"duration":"24i"},{"time":"4272i","midiNote":69,"note":"A4","velocity":1,"duration":"12i"},{"time":"4284i","midiNote":71,"note":"B4","velocity":1,"duration":"12i"},{"time":"4296i","midiNote":61,"note":"C#4","velocity":1,"duration":"24i"},{"time":"4296i","midiNote":64,"note":"E4","velocity":1,"duration":"24i"},{"time":"4296i","midiNote":73,"note":"C#5","velocity":1,"duration":"12i"},{"time":"4308i","midiNote":74,"note":"D5","velocity":1,"duration":"12i"},{"time":"4320i","midiNote":61,"note":"C#4","velocity":1,"duration":"24i"},{"time":"4320i","midiNote":64,"note":"E4","velocity":1,"duration":"24i"},{"time":"4320i","midiNote":76,"note":"E5","velocity":1,"duration":"12i"},{"time":"4332i","midiNote":78,"note":"F#5","velocity":1,"duration":"12i"},{"time":"4344i","midiNote":61,"note":"C#4","velocity":1,"duration":"24i"},{"time":"4344i","midiNote":64,"note":"E4","velocity":1,"duration":"24i"},{"time":"4344i","midiNote":80,"note":"G#5","velocity":1,"duration":"12i"},{"time":"4356i","midiNote":81,"note":"A5","velocity":1,"duration":"12i"},{"time":"4368i","midiNote":59,"note":"B3","velocity":1,"duration":"24i"},{"time":"4368i","midiNote":81,"note":"A5","velocity":1,"duration":"12i"},{"time":"4380i","midiNote":80,"note":"G#5","velocity":1,"duration":"12i"},{"time":"4392i","midiNote":62,"note":"D4","velocity":1,"duration":"24i"},{"time":"4392i","midiNote":64,"note":"E4","velocity":1,"duration":"24i"},{"time":"4392i","midiNote":78,"note":"F#5","velocity":1,"duration":"12i"},{"time":"4404i","midiNote":76,"note":"E5","velocity":1,"duration":"12i"},{"time":"4416i","midiNote":56,"note":"G#3","velocity":1,"duration":"24i"},{"time":"4416i","midiNote":76,"note":"E5","velocity":1,"duration":"12i"},{"time":"4428i","midiNote":74,"note":"D5","velocity":1,"duration":"12i"},{"time":"4440i","midiNote":62,"note":"D4","velocity":1,"duration":"24i"},{"time":"4440i","midiNote":64,"note":"E4","velocity":1,"duration":"24i"},{"time":"4440i","midiNote":73,"note":"C#5","velocity":1,"duration":"12i"},{"time":"4452i","midiNote":71,"note":"B4","velocity":1,"duration":"12i"},{"time":"4464i","midiNote":57,"note":"A3","velocity":1,"duration":"24i"},{"time":"4464i","midiNote":73,"note":"C#5","velocity":1,"duration":"12i"},{"time":"4476i","midiNote":76,"note":"E5","velocity":1,"duration":"12i"},{"time":"4488i","midiNote":54,"note":"F#3","velocity":1,"duration":"24i"},{"time":"4488i","midiNote":69,"note":"A4","velocity":1,"duration":"12i"},{"time":"4500i","midiNote":73,"note":"C#5","velocity":1,"duration":"12i"},{"time":"4512i","midiNote":50,"note":"D3","velocity":1,"duration":"24i"},{"time":"4512i","midiNote":71,"note":"B4","velocity":1,"duration":"12i"},{"time":"4524i","midiNote":74,"note":"D5","velocity":1,"duration":"12i"},{"time":"4536i","midiNote":52,"note":"E3","velocity":1,"duration":"24i"},{"time":"4536i","midiNote":68,"note":"G#4","velocity":1,"duration":"12i"},{"time":"4548i","midiNote":71,"note":"B4","velocity":1,"duration":"12i"},{"time":"4560i","midiNote":45,"note":"A2","velocity":1,"duration":"24i"},{"time":"4560i","midiNote":69,"note":"A4","velocity":1,"duration":"48i"},{"time":"4584i","midiNote":57,"note":"A3","velocity":1,"duration":"24i"},{"time":"4608i","midiNote":85,"note":"C#6","velocity":1,"duration":"12i"},{"time":"4620i","midiNote":86,"note":"D6","velocity":1,"duration":"12i"},{"time":"4632i","midiNote":85,"note":"C#6","velocity":1,"duration":"12i"},{"time":"4644i","midiNote":83,"note":"B5","velocity":1,"duration":"12i"},{"time":"4656i","midiNote":54,"note":"F#3","velocity":1,"duration":"24i"},{"time":"4656i","midiNote":81,"note":"A5","velocity":1,"duration":"12i"},{"time":"4668i","midiNote":83,"note":"B5","velocity":1,"duration":"12i"},{"time":"4680i","midiNote":57,"note":"A3","velocity":1,"duration":"24i"},{"time":"4680i","midiNote":61,"note":"C#4","velocity":1,"duration":"24i"},{"time":"4680i","midiNote":81,"note":"A5","velocity":1,"duration":"12i"},{"time":"4692i","midiNote":80,"note":"G#5","velocity":1,"duration":"12i"},{"time":"4704i","midiNote":57,"note":"A3","velocity":1,"duration":"24i"},{"time":"4704i","midiNote":61,"note":"C#4","velocity":1,"duration":"24i"},{"time":"4704i","midiNote":78,"note":"F#5","velocity":1,"duration":"12i"},{"time":"4716i","midiNote":81,"note":"A5","velocity":1,"duration":"12i"},{"time":"4728i","midiNote":57,"note":"A3","velocity":1,"duration":"24i"},{"time":"4728i","midiNote":61,"note":"C#4","velocity":1,"duration":"24i"},{"time":"4728i","midiNote":80,"note":"G#5","velocity":1,"duration":"12i"},{"time":"4740i","midiNote":78,"note":"F#5","velocity":1,"duration":"12i"},{"time":"4752i","midiNote":56,"note":"G#3","velocity":1,"duration":"24i"},{"time":"4752i","midiNote":77,"note":"F5","velocity":1,"duration":"12i"},{"time":"4764i","midiNote":78,"note":"F#5","velocity":1,"duration":"12i"},{"time":"4776i","midiNote":59,"note":"B3","velocity":1,"duration":"24i"},{"time":"4776i","midiNote":61,"note":"C#4","velocity":1,"duration":"24i"},{"time":"4776i","midiNote":80,"note":"G#5","velocity":1,"duration":"12i"},{"time":"4788i","midiNote":77,"note":"F5","velocity":1,"duration":"12i"},{"time":"4800i","midiNote":59,"note":"B3","velocity":1,"duration":"24i"},{"time":"4800i","midiNote":61,"note":"C#4","velocity":1,"duration":"24i"},{"time":"4800i","midiNote":73,"note":"C#5","velocity":1,"duration":"12i"},{"time":"4812i","midiNote":75,"note":"D#5","velocity":1,"duration":"12i"},{"time":"4824i","midiNote":59,"note":"B3","velocity":1,"duration":"24i"},{"time":"4824i","midiNote":61,"note":"C#4","velocity":1,"duration":"24i"},{"time":"4824i","midiNote":77,"note":"F5","velocity":1,"duration":"12i"},{"time":"4836i","midiNote":73,"note":"C#5","velocity":1,"duration":"12i"},{"time":"4848i","midiNote":54,"note":"F#3","velocity":1,"duration":"24i"},{"time":"4848i","midiNote":78,"note":"F#5","velocity":1,"duration":"12i"},{"time":"4860i","midiNote":77,"note":"F5","velocity":1,"duration":"12i"},{"time":"4872i","midiNote":57,"note":"A3","velocity":1,"duration":"24i"},{"time":"4872i","midiNote":61,"note":"C#4","velocity":1,"duration":"24i"},{"time":"4872i","midiNote":78,"note":"F#5","velocity":1,"duration":"12i"},{"time":"4884i","midiNote":80,"note":"G#5","velocity":1,"duration":"12i"},{"time":"4896i","midiNote":57,"note":"A3","velocity":1,"duration":"24i"},{"time":"4896i","midiNote":61,"note":"C#4","velocity":1,"duration":"24i"},{"time":"4896i","midiNote":81,"note":"A5","velocity":1,"duration":"12i"},{"time":"4908i","midiNote":80,"note":"G#5","velocity":1,"duration":"12i"},{"time":"4920i","midiNote":57,"note":"A3","velocity":1,"duration":"24i"},{"time":"4920i","midiNote":61,"note":"C#4","velocity":1,"duration":"24i"},{"time":"4920i","midiNote":81,"note":"A5","velocity":1,"duration":"12i"},{"time":"4932i","midiNote":83,"note":"B5","velocity":1,"duration":"12i"},{"time":"4944i","midiNote":49,"note":"C#3","velocity":1,"duration":"24i"},{"time":"4944i","midiNote":85,"note":"C#6","velocity":1,"duration":"12i"},{"time":"4956i","midiNote":84,"note":"C6","velocity":1,"duration":"12i"},{"time":"4968i","midiNote":56,"note":"G#3","velocity":1,"duration":"24i"},{"time":"4968i","midiNote":61,"note":"C#4","velocity":1,"duration":"24i"},{"time":"4968i","midiNote":85,"note":"C#6","velocity":1,"duration":"12i"},{"time":"4980i","midiNote":84,"note":"C6","velocity":1,"duration":"12i"},{"time":"4992i","midiNote":55,"note":"G3","velocity":1,"duration":"24i"},{"time":"4992i","midiNote":61,"note":"C#4","velocity":1,"duration":"24i"},{"time":"4992i","midiNote":85,"note":"C#6","velocity":1,"duration":"12i"},{"time":"5004i","midiNote":84,"note":"C6","velocity":1,"duration":"12i"},{"time":"5016i","midiNote":54,"note":"F#3","velocity":1,"duration":"24i"},{"time":"5016i","midiNote":61,"note":"C#4","velocity":1,"duration":"24i"},{"time":"5016i","midiNote":85,"note":"C#6","velocity":1,"duration":"12i"},{"time":"5028i","midiNote":82,"note":"A#5","velocity":1,"duration":"12i"},{"time":"5040i","midiNote":47,"note":"B2","velocity":1,"duration":"24i"},{"time":"5040i","midiNote":86,"note":"D6","velocity":1,"duration":"12i"},{"time":"5052i","midiNote":85,"note":"C#6","velocity":1,"duration":"12i"},{"time":"5064i","midiNote":54,"note":"F#3","velocity":1,"duration":"24i"},{"time":"5064i","midiNote":59,"note":"B3","velocity":1,"duration":"24i"},{"time":"5064i","midiNote":86,"note":"D6","velocity":1,"duration":"12i"},{"time":"5076i","midiNote":85,"note":"C#6","velocity":1,"duration":"12i"},{"time":"5088i","midiNote":54,"note":"F#3","velocity":1,"duration":"24i"},{"time":"5088i","midiNote":59,"note":"B3","velocity":1,"duration":"24i"},{"time":"5088i","midiNote":86,"note":"D6","velocity":1,"duration":"12i"},{"time":"5100i","midiNote":85,"note":"C#6","velocity":1,"duration":"12i"},{"time":"5112i","midiNote":54,"note":"F#3","velocity":1,"duration":"24i"},{"time":"5112i","midiNote":59,"note":"B3","velocity":1,"duration":"24i"},{"time":"5112i","midiNote":86,"note":"D6","velocity":1,"duration":"12i"},{"time":"5124i","midiNote":85,"note":"C#6","velocity":1,"duration":"12i"},{"time":"5136i","midiNote":47,"note":"B2","velocity":1,"duration":"24i"},{"time":"5136i","midiNote":86,"note":"D6","velocity":1,"duration":"12i"},{"time":"5148i","midiNote":85,"note":"C#6","velocity":1,"duration":"12i"},{"time":"5160i","midiNote":56,"note":"G#3","velocity":1,"duration":"24i"},{"time":"5160i","midiNote":59,"note":"B3","velocity":1,"duration":"24i"},{"time":"5160i","midiNote":83,"note":"B5","velocity":1,"duration":"12i"},{"time":"5172i","midiNote":81,"note":"A5","velocity":1,"duration":"12i"},{"time":"5184i","midiNote":56,"note":"G#3","velocity":1,"duration":"24i"},{"time":"5184i","midiNote":59,"note":"B3","velocity":1,"duration":"24i"},{"time":"5184i","midiNote":80,"note":"G#5","velocity":1,"duration":"12i"},{"time":"5196i","midiNote":81,"note":"A5","velocity":1,"duration":"12i"},{"time":"5208i","midiNote":56,"note":"G#3","velocity":1,"duration":"24i"},{"time":"5208i","midiNote":59,"note":"B3","velocity":1,"duration":"24i"},{"time":"5208i","midiNote":83,"note":"B5","velocity":1,"duration":"12i"},{"time":"5220i","midiNote":80,"note":"G#5","velocity":1,"duration":"12i"},{"time":"5232i","midiNote":49,"note":"C#3","velocity":1,"duration":"24i"},{"time":"5232i","midiNote":81,"note":"A5","velocity":1,"duration":"12i"},{"time":"5244i","midiNote":83,"note":"B5","velocity":1,"duration":"12i"},{"time":"5256i","midiNote":54,"note":"F#3","velocity":1,"duration":"24i"},{"time":"5256i","midiNote":57,"note":"A3","velocity":1,"duration":"24i"},{"time":"5256i","midiNote":85,"note":"C#6","velocity":1,"duration":"12i"},{"time":"5268i","midiNote":78,"note":"F#5","velocity":1,"duration":"12i"},{"time":"5280i","midiNote":49,"note":"C#3","velocity":1,"duration":"24i"},{"time":"5280i","midiNote":77,"note":"F5","velocity":1,"duration":"12i"},{"time":"5292i","midiNote":78,"note":"F#5","velocity":1,"duration":"12i"},{"time":"5304i","midiNote":56,"note":"G#3","velocity":1,"duration":"24i"},{"time":"5304i","midiNote":59,"note":"B3","velocity":1,"duration":"24i"},{"time":"5304i","midiNote":80,"note":"G#5","velocity":1,"duration":"12i"},{"time":"5316i","midiNote":77,"note":"F5","velocity":1,"duration":"12i"},{"time":"5328i","midiNote":54,"note":"F#3","velocity":1,"duration":"44i"},{"time":"5328i","midiNote":57,"note":"A3","velocity":1,"duration":"44i"},{"time":"5328i","midiNote":78,"note":"F#5","velocity":1,"duration":"48i"},{"time":"5376i","midiNote":69,"note":"A4","velocity":1,"duration":"24i"},{"time":"5376i","midiNote":81,"note":"A5","velocity":1,"duration":"24i"},{"time":"5400i","midiNote":71,"note":"B4","velocity":1,"duration":"24i"},{"time":"5400i","midiNote":83,"note":"B5","velocity":1,"duration":"24i"},{"time":"5420i","midiNote":45,"note":"A2","velocity":1,"duration":"2i"},{"time":"5421i","midiNote":49,"note":"C#3","velocity":1,"duration":"2i"},{"time":"5423i","midiNote":52,"note":"E3","velocity":1,"duration":"1i"},{"time":"5424i","midiNote":57,"note":"A3","velocity":1,"duration":"24i"},{"time":"5424i","midiNote":73,"note":"C#5","velocity":1,"duration":"48i"},{"time":"5424i","midiNote":85,"note":"C#6","velocity":1,"duration":"48i"},{"time":"5448i","midiNote":57,"note":"A3","velocity":1,"duration":"24i"},{"time":"5472i","midiNote":57,"note":"A3","velocity":1,"duration":"24i"},{"time":"5472i","midiNote":69,"note":"A4","velocity":1,"duration":"24i"},{"time":"5472i","midiNote":81,"note":"A5","velocity":1,"duration":"24i"},{"time":"5496i","midiNote":57,"note":"A3","velocity":1,"duration":"20i"},{"time":"5496i","midiNote":71,"note":"B4","velocity":1,"duration":"24i"},{"time":"5496i","midiNote":83,"note":"B5","velocity":1,"duration":"24i"},{"time":"5516i","midiNote":45,"note":"A2","velocity":1,"duration":"2i"},{"time":"5517i","midiNote":49,"note":"C#3","velocity":1,"duration":"2i"},{"time":"5519i","midiNote":52,"note":"E3","velocity":1,"duration":"1i"},{"time":"5520i","midiNote":57,"note":"A3","velocity":1,"duration":"24i"},{"time":"5520i","midiNote":73,"note":"C#5","velocity":1,"duration":"24i"},{"time":"5520i","midiNote":85,"note":"C#6","velocity":1,"duration":"24i"},{"time":"5544i","midiNote":57,"note":"A3","velocity":1,"duration":"24i"},{"time":"5544i","midiNote":71,"note":"B4","velocity":1,"duration":"24i"},{"time":"5544i","midiNote":83,"note":"B5","velocity":1,"duration":"24i"},{"time":"5568i","midiNote":57,"note":"A3","velocity":1,"duration":"24i"},{"time":"5568i","midiNote":69,"note":"A4","velocity":1,"duration":"24i"},{"time":"5568i","midiNote":81,"note":"A5","velocity":1,"duration":"24i"},{"time":"5592i","midiNote":57,"note":"A3","velocity":1,"duration":"20i"},{"time":"5592i","midiNote":68,"note":"G#4","velocity":1,"duration":"24i"},{"time":"5592i","midiNote":80,"note":"G#5","velocity":1,"duration":"24i"},{"time":"5612i","midiNote":38,"note":"D2","velocity":1,"duration":"2i"},{"time":"5613i","midiNote":42,"note":"F#2","velocity":1,"duration":"2i"},{"time":"5615i","midiNote":45,"note":"A2","velocity":1,"duration":"1i"},{"time":"5616i","midiNote":50,"note":"D3","velocity":1,"duration":"24i"},{"time":"5616i","midiNote":66,"note":"F#4","velocity":1,"duration":"24i"},{"time":"5616i","midiNote":78,"note":"F#5","velocity":1,"duration":"24i"},{"time":"5640i","midiNote":50,"note":"D3","velocity":1,"duration":"20i"},{"time":"5640i","midiNote":68,"note":"G#4","velocity":1,"duration":"24i"},{"time":"5640i","midiNote":80,"note":"G#5","velocity":1,"duration":"24i"},{"time":"5660i","midiNote":39,"note":"D#2","velocity":1,"duration":"2i"},{"time":"5661i","midiNote":42,"note":"F#2","velocity":1,"duration":"2i"},{"time":"5663i","midiNote":45,"note":"A2","velocity":1,"duration":"1i"},{"time":"5664i","midiNote":51,"note":"D#3","velocity":1,"duration":"24i"},{"time":"5664i","midiNote":69,"note":"A4","velocity":1,"duration":"24i"},{"time":"5664i","midiNote":81,"note":"A5","velocity":1,"duration":"24i"},{"time":"5688i","midiNote":51,"note":"D#3","velocity":1,"duration":"20i"},{"time":"5688i","midiNote":71,"note":"B4","velocity":1,"duration":"24i"},{"time":"5688i","midiNote":83,"note":"B5","velocity":1,"duration":"24i"},{"time":"5708i","midiNote":40,"note":"E2","velocity":1,"duration":"2i"},{"time":"5709i","midiNote":44,"note":"G#2","velocity":1,"duration":"2i"},{"time":"5711i","midiNote":47,"note":"B2","velocity":1,"duration":"1i"},{"time":"5712i","midiNote":52,"note":"E3","velocity":1,"duration":"24i"},{"time":"5712i","midiNote":68,"note":"G#4","velocity":1,"duration":"24i"},{"time":"5712i","midiNote":80,"note":"G#5","velocity":1,"duration":"24i"},{"time":"5736i","midiNote":52,"note":"E3","velocity":1,"duration":"24i"},{"time":"5736i","midiNote":64,"note":"E4","velocity":1,"duration":"24i"},{"time":"5736i","midiNote":76,"note":"E5","velocity":1,"duration":"24i"},{"time":"5760i","midiNote":52,"note":"E3","velocity":1,"duration":"24i"},{"time":"5760i","midiNote":69,"note":"A4","velocity":1,"duration":"24i"},{"time":"5760i","midiNote":81,"note":"A5","velocity":1,"duration":"24i"},{"time":"5784i","midiNote":52,"note":"E3","velocity":1,"duration":"20i"},{"time":"5784i","midiNote":71,"note":"B4","velocity":1,"duration":"24i"},{"time":"5784i","midiNote":83,"note":"B5","velocity":1,"duration":"24i"},{"time":"5804i","midiNote":45,"note":"A2","velocity":1,"duration":"2i"},{"time":"5805i","midiNote":49,"note":"C#3","velocity":1,"duration":"2i"},{"time":"5807i","midiNote":52,"note":"E3","velocity":1,"duration":"1i"},{"time":"5808i","midiNote":57,"note":"A3","velocity":1,"duration":"24i"},{"time":"5808i","midiNote":73,"note":"C#5","velocity":1,"duration":"48i"},{"time":"5808i","midiNote":85,"note":"C#6","velocity":1,"duration":"48i"},{"time":"5832i","midiNote":57,"note":"A3","velocity":1,"duration":"24i"},{"time":"5856i","midiNote":57,"note":"A3","velocity":1,"duration":"24i"},{"time":"5856i","midiNote":69,"note":"A4","velocity":1,"duration":"24i"},{"time":"5856i","midiNote":81,"note":"A5","velocity":1,"duration":"24i"},{"time":"5880i","midiNote":57,"note":"A3","velocity":1,"duration":"20i"},{"time":"5880i","midiNote":71,"note":"B4","velocity":1,"duration":"24i"},{"time":"5880i","midiNote":83,"note":"B5","velocity":1,"duration":"24i"},{"time":"5900i","midiNote":45,"note":"A2","velocity":1,"duration":"2i"},{"time":"5901i","midiNote":49,"note":"C#3","velocity":1,"duration":"2i"},{"time":"5903i","midiNote":52,"note":"E3","velocity":1,"duration":"1i"},{"time":"5904i","midiNote":57,"note":"A3","velocity":1,"duration":"24i"},{"time":"5904i","midiNote":73,"note":"C#5","velocity":1,"duration":"24i"},{"time":"5904i","midiNote":85,"note":"C#6","velocity":1,"duration":"24i"},{"time":"5928i","midiNote":57,"note":"A3","velocity":1,"duration":"24i"},{"time":"5928i","midiNote":71,"note":"B4","velocity":1,"duration":"24i"},{"time":"5928i","midiNote":83,"note":"B5","velocity":1,"duration":"24i"},{"time":"5952i","midiNote":57,"note":"A3","velocity":1,"duration":"24i"},{"time":"5952i","midiNote":69,"note":"A4","velocity":1,"duration":"24i"},{"time":"5952i","midiNote":81,"note":"A5","velocity":1,"duration":"24i"},{"time":"5976i","midiNote":57,"note":"A3","velocity":1,"duration":"20i"},{"time":"5976i","midiNote":68,"note":"G#4","velocity":1,"duration":"24i"},{"time":"5976i","midiNote":80,"note":"G#5","velocity":1,"duration":"24i"},{"time":"5996i","midiNote":38,"note":"D2","velocity":1,"duration":"2i"},{"time":"5997i","midiNote":42,"note":"F#2","velocity":1,"duration":"2i"},{"time":"5999i","midiNote":45,"note":"A2","velocity":1,"duration":"1i"},{"time":"6000i","midiNote":50,"note":"D3","velocity":1,"duration":"24i"},{"time":"6000i","midiNote":66,"note":"F#4","velocity":1,"duration":"24i"},{"time":"6000i","midiNote":78,"note":"F#5","velocity":1,"duration":"24i"},{"time":"6024i","midiNote":50,"note":"D3","velocity":1,"duration":"20i"},{"time":"6024i","midiNote":71,"note":"B4","velocity":1,"duration":"24i"},{"time":"6024i","midiNote":83,"note":"B5","velocity":1,"duration":"24i"},{"time":"6044i","midiNote":40,"note":"E2","velocity":1,"duration":"2i"},{"time":"6045i","midiNote":44,"note":"G#2","velocity":1,"duration":"2i"},{"time":"6047i","midiNote":47,"note":"B2","velocity":1,"duration":"1i"},{"time":"6048i","midiNote":52,"note":"E3","velocity":1,"duration":"24i"},{"time":"6048i","midiNote":68,"note":"G#4","velocity":1,"duration":"24i"},{"time":"6048i","midiNote":80,"note":"G#5","velocity":1,"duration":"24i"},{"time":"6072i","midiNote":52,"note":"E3","velocity":1,"duration":"24i"},{"time":"6072i","midiNote":64,"note":"E4","velocity":1,"duration":"24i"},{"time":"6072i","midiNote":76,"note":"E5","velocity":1,"duration":"24i"},{"time":"6096i","midiNote":45,"note":"A2","velocity":1,"duration":"48i"},{"time":"6096i","midiNote":69,"note":"A4","velocity":1,"duration":"48i"},{"time":"6096i","midiNote":81,"note":"A5","velocity":1,"duration":"48i"},{"time":"6144i","midiNote":71,"note":"B4","velocity":1,"duration":"12i"},{"time":"6156i","midiNote":69,"note":"A4","velocity":1,"duration":"12i"},{"time":"6168i","midiNote":68,"note":"G#4","velocity":1,"duration":"12i"},{"time":"6180i","midiNote":69,"note":"A4","velocity":1,"duration":"12i"},{"time":"6192i","midiNote":57,"note":"A3","velocity":1,"duration":"24i"},{"time":"6192i","midiNote":72,"note":"C5","velocity":1,"duration":"24i"},{"time":"6216i","midiNote":60,"note":"C4","velocity":1,"duration":"24i"},{"time":"6216i","midiNote":64,"note":"E4","velocity":1,"duration":"24i"},{"time":"6240i","midiNote":60,"note":"C4","velocity":1,"duration":"24i"},{"time":"6240i","midiNote":64,"note":"E4","velocity":1,"duration":"24i"},{"time":"6240i","midiNote":74,"note":"D5","velocity":1,"duration":"12i"},{"time":"6252i","midiNote":72,"note":"C5","velocity":1,"duration":"12i"},{"time":"6264i","midiNote":60,"note":"C4","velocity":1,"duration":"24i"},{"time":"6264i","midiNote":64,"note":"E4","velocity":1,"duration":"24i"},{"time":"6264i","midiNote":71,"note":"B4","velocity":1,"duration":"12i"},{"time":"6276i","midiNote":72,"note":"C5","velocity":1,"duration":"12i"},{"time":"6288i","midiNote":57,"note":"A3","velocity":1,"duration":"24i"},{"time":"6288i","midiNote":76,"note":"E5","velocity":1,"duration":"24i"},{"time":"6312i","midiNote":60,"note":"C4","velocity":1,"duration":"24i"},{"time":"6312i","midiNote":64,"note":"E4","velocity":1,"duration":"24i"},{"time":"6336i","midiNote":60,"note":"C4","velocity":1,"duration":"24i"},{"time":"6336i","midiNote":64,"note":"E4","velocity":1,"duration":"24i"},{"time":"6336i","midiNote":77,"note":"F5","velocity":1,"duration":"12i"},{"time":"6348i","midiNote":76,"note":"E5","velocity":1,"duration":"12i"},{"time":"6360i","midiNote":60,"note":"C4","velocity":1,"duration":"24i"},{"time":"6360i","midiNote":64,"note":"E4","velocity":1,"duration":"24i"},{"time":"6360i","midiNote":75,"note":"D#5","velocity":1,"duration":"12i"},{"time":"6372i","midiNote":76,"note":"E5","velocity":1,"duration":"12i"},{"time":"6384i","midiNote":57,"note":"A3","velocity":1,"duration":"24i"},{"time":"6384i","midiNote":83,"note":"B5","velocity":1,"duration":"12i"},{"time":"6396i","midiNote":81,"note":"A5","velocity":1,"duration":"12i"},{"time":"6408i","midiNote":60,"note":"C4","velocity":1,"duration":"24i"},{"time":"6408i","midiNote":64,"note":"E4","velocity":1,"duration":"24i"},{"time":"6408i","midiNote":80,"note":"G#5","velocity":1,"duration":"12i"},{"time":"6420i","midiNote":81,"note":"A5","velocity":1,"duration":"12i"},{"time":"6432i","midiNote":57,"note":"A3","velocity":1,"duration":"24i"},{"time":"6432i","midiNote":83,"note":"B5","velocity":1,"duration":"12i"},{"time":"6444i","midiNote":81,"note":"A5","velocity":1,"duration":"12i"},{"time":"6456i","midiNote":60,"note":"C4","velocity":1,"duration":"24i"},{"time":"6456i","midiNote":64,"note":"E4","velocity":1,"duration":"24i"},{"time":"6456i","midiNote":80,"note":"G#5","velocity":1,"duration":"12i"},{"time":"6468i","midiNote":81,"note":"A5","velocity":1,"duration":"12i"},{"time":"6480i","midiNote":57,"note":"A3","velocity":1,"duration":"24i"},{"time":"6480i","midiNote":84,"note":"C6","velocity":1,"duration":"48i"},{"time":"6504i","midiNote":60,"note":"C4","velocity":1,"duration":"24i"},{"time":"6504i","midiNote":64,"note":"E4","velocity":1,"duration":"24i"},{"time":"6528i","midiNote":60,"note":"C4","velocity":1,"duration":"24i"},{"time":"6528i","midiNote":64,"note":"E4","velocity":1,"duration":"24i"},{"time":"6528i","midiNote":81,"note":"A5","velocity":1,"duration":"24i"},{"time":"6552i","midiNote":60,"note":"C4","velocity":1,"duration":"24i"},{"time":"6552i","midiNote":64,"note":"E4","velocity":1,"duration":"24i"},{"time":"6552i","midiNote":84,"note":"C6","velocity":1,"duration":"21i"},{"time":"6573i","midiNote":79,"note":"G5","velocity":1,"duration":"2i"},{"time":"6575i","midiNote":81,"note":"A5","velocity":1,"duration":"1i"},{"time":"6576i","midiNote":52,"note":"E3","velocity":1,"duration":"24i"},{"time":"6576i","midiNote":83,"note":"B5","velocity":1,"duration":"24i"},{"time":"6600i","midiNote":59,"note":"B3","velocity":1,"duration":"24i"},{"time":"6600i","midiNote":64,"note":"E4","velocity":1,"duration":"24i"},{"time":"6600i","midiNote":78,"note":"F#5","velocity":1,"duration":"24i"},{"time":"6600i","midiNote":81,"note":"A5","velocity":1,"duration":"24i"},{"time":"6624i","midiNote":59,"note":"B3","velocity":1,"duration":"24i"},{"time":"6624i","midiNote":64,"note":"E4","velocity":1,"duration":"24i"},{"time":"6624i","midiNote":76,"note":"E5","velocity":1,"duration":"24i"},{"time":"6624i","midiNote":79,"note":"G5","velocity":1,"duration":"24i"},{"time":"6648i","midiNote":59,"note":"B3","velocity":1,"duration":"24i"},{"time":"6648i","midiNote":64,"note":"E4","velocity":1,"duration":"24i"},{"time":"6648i","midiNote":78,"note":"F#5","velocity":1,"duration":"21i"},{"time":"6648i","midiNote":81,"note":"A5","velocity":1,"duration":"21i"},{"time":"6669i","midiNote":79,"note":"G5","velocity":1,"duration":"2i"},{"time":"6671i","midiNote":81,"note":"A5","velocity":1,"duration":"1i"},{"time":"6672i","midiNote":52,"note":"E3","velocity":1,"duration":"24i"},{"time":"6672i","midiNote":83,"note":"B5","velocity":1,"duration":"24i"},{"time":"6696i","midiNote":59,"note":"B3","velocity":1,"duration":"24i"},{"time":"6696i","midiNote":64,"note":"E4","velocity":1,"duration":"24i"},{"time":"6696i","midiNote":78,"note":"F#5","velocity":1,"duration":"24i"},{"time":"6696i","midiNote":81,"note":"A5","velocity":1,"duration":"24i"},{"time":"6720i","midiNote":59,"note":"B3","velocity":1,"duration":"24i"},{"time":"6720i","midiNote":64,"note":"E4","velocity":1,"duration":"24i"},{"time":"6720i","midiNote":76,"note":"E5","velocity":1,"duration":"24i"},{"time":"6720i","midiNote":79,"note":"G5","velocity":1,"duration":"24i"},{"time":"6744i","midiNote":59,"note":"B3","velocity":1,"duration":"24i"},{"time":"6744i","midiNote":64,"note":"E4","velocity":1,"duration":"24i"},{"time":"6744i","midiNote":78,"note":"F#5","velocity":1,"duration":"21i"},{"time":"6744i","midiNote":81,"note":"A5","velocity":1,"duration":"21i"},{"time":"6765i","midiNote":79,"note":"G5","velocity":1,"duration":"2i"},{"time":"6767i","midiNote":81,"note":"A5","velocity":1,"duration":"1i"},{"time":"6768i","midiNote":52,"note":"E3","velocity":1,"duration":"24i"},{"time":"6768i","midiNote":83,"note":"B5","velocity":1,"duration":"24i"},{"time":"6792i","midiNote":59,"note":"B3","velocity":1,"duration":"24i"},{"time":"6792i","midiNote":64,"note":"E4","velocity":1,"duration":"24i"},{"time":"6792i","midiNote":78,"note":"F#5","velocity":1,"duration":"24i"},{"time":"6792i","midiNote":81,"note":"A5","velocity":1,"duration":"24i"},{"time":"6816i","midiNote":47,"note":"B2","velocity":1,"duration":"24i"},{"time":"6816i","midiNote":76,"note":"E5","velocity":1,"duration":"24i"},{"time":"6816i","midiNote":79,"note":"G5","velocity":1,"duration":"24i"},{"time":"6840i","midiNote":59,"note":"B3","velocity":1,"duration":"24i"},{"time":"6840i","midiNote":75,"note":"D#5","velocity":1,"duration":"24i"},{"time":"6840i","midiNote":78,"note":"F#5","velocity":1,"duration":"24i"},{"time":"6864i","midiNote":52,"note":"E3","velocity":1,"duration":"48i"},{"time":"6864i","midiNote":76,"note":"E5","velocity":1,"duration":"48i"},{"time":"6912i","midiNote":72,"note":"C5","velocity":1,"duration":"24i"},{"time":"6912i","midiNote":76,"note":"E5","velocity":1,"duration":"24i"},{"time":"6936i","midiNote":74,"note":"D5","velocity":1,"duration":"24i"},{"time":"6936i","midiNote":77,"note":"F5","velocity":1,"duration":"24i"},{"time":"6960i","midiNote":48,"note":"C3","velocity":1,"duration":"24i"},{"time":"6960i","midiNote":76,"note":"E5","velocity":1,"duration":"24i"},{"time":"6960i","midiNote":79,"note":"G5","velocity":1,"duration":"24i"},{"time":"6984i","midiNote":60,"note":"C4","velocity":1,"duration":"24i"},{"time":"6984i","midiNote":76,"note":"E5","velocity":1,"duration":"24i"},{"time":"6984i","midiNote":79,"note":"G5","velocity":1,"duration":"24i"},{"time":"7008i","midiNote":52,"note":"E3","velocity":1,"duration":"24i"},{"time":"7008i","midiNote":81,"note":"A5","velocity":1,"duration":"12i"},{"time":"7020i","midiNote":79,"note":"G5","velocity":1,"duration":"12i"},{"time":"7032i","midiNote":64,"note":"E4","velocity":1,"duration":"24i"},{"time":"7032i","midiNote":77,"note":"F5","velocity":1,"duration":"12i"},{"time":"7044i","midiNote":76,"note":"E5","velocity":1,"duration":"12i"},{"time":"7056i","midiNote":55,"note":"G3","velocity":1,"duration":"48i"},{"time":"7056i","midiNote":71,"note":"B4","velocity":1,"duration":"24i"},{"time":"7056i","midiNote":74,"note":"D5","velocity":1,"duration":"48i"},{"time":"7080i","midiNote":67,"note":"G4","velocity":1,"duration":"24i"},{"time":"7104i","midiNote":72,"note":"C5","velocity":1,"duration":"24i"},{"time":"7104i","midiNote":76,"note":"E5","velocity":1,"duration":"24i"},{"time":"7128i","midiNote":74,"note":"D5","velocity":1,"duration":"24i"},{"time":"7128i","midiNote":77,"note":"F5","velocity":1,"duration":"24i"},{"time":"7152i","midiNote":48,"note":"C3","velocity":1,"duration":"24i"},{"time":"7152i","midiNote":76,"note":"E5","velocity":1,"duration":"24i"},{"time":"7152i","midiNote":79,"note":"G5","velocity":1,"duration":"24i"},{"time":"7176i","midiNote":60,"note":"C4","velocity":1,"duration":"24i"},{"time":"7176i","midiNote":76,"note":"E5","velocity":1,"duration":"24i"},{"time":"7176i","midiNote":79,"note":"G5","velocity":1,"duration":"24i"},{"time":"7200i","midiNote":52,"note":"E3","velocity":1,"duration":"24i"},{"time":"7200i","midiNote":81,"note":"A5","velocity":1,"duration":"12i"},{"time":"7212i","midiNote":79,"note":"G5","velocity":1,"duration":"12i"},{"time":"7224i","midiNote":64,"note":"E4","velocity":1,"duration":"24i"},{"time":"7224i","midiNote":77,"note":"F5","velocity":1,"duration":"12i"},{"time":"7236i","midiNote":76,"note":"E5","velocity":1,"duration":"12i"},{"time":"7248i","midiNote":55,"note":"G3","velocity":1,"duration":"48i"},{"time":"7248i","midiNote":71,"note":"B4","velocity":1,"duration":"48i"},{"time":"7248i","midiNote":74,"note":"D5","velocity":1,"duration":"48i"},{"time":"7296i","midiNote":69,"note":"A4","velocity":1,"duration":"24i"},{"time":"7296i","midiNote":72,"note":"C5","velocity":1,"duration":"24i"},{"time":"7320i","midiNote":71,"note":"B4","velocity":1,"duration":"24i"},{"time":"7320i","midiNote":74,"note":"D5","velocity":1,"duration":"24i"},{"time":"7344i","midiNote":45,"note":"A2","velocity":1,"duration":"24i"},{"time":"7344i","midiNote":72,"note":"C5","velocity":1,"duration":"24i"},{"time":"7344i","midiNote":76,"note":"E5","velocity":1,"duration":"24i"},{"time":"7368i","midiNote":57,"note":"A3","velocity":1,"duration":"24i"},{"time":"7368i","midiNote":72,"note":"C5","velocity":1,"duration":"24i"},{"time":"7368i","midiNote":76,"note":"E5","velocity":1,"duration":"24i"},{"time":"7392i","midiNote":48,"note":"C3","velocity":1,"duration":"24i"},{"time":"7392i","midiNote":77,"note":"F5","velocity":1,"duration":"12i"},{"time":"7404i","midiNote":76,"note":"E5","velocity":1,"duration":"12i"},{"time":"7416i","midiNote":60,"note":"C4","velocity":1,"duration":"24i"},{"time":"7416i","midiNote":74,"note":"D5","velocity":1,"duration":"12i"},{"time":"7428i","midiNote":72,"note":"C5","velocity":1,"duration":"12i"},{"time":"7440i","midiNote":52,"note":"E3","velocity":1,"duration":"48i"},{"time":"7440i","midiNote":68,"note":"G#4","velocity":1,"duration":"24i"},{"time":"7440i","midiNote":71,"note":"B4","velocity":1,"duration":"48i"},{"time":"7464i","midiNote":64,"note":"E4","velocity":1,"duration":"24i"},{"time":"7488i","midiNote":69,"note":"A4","velocity":1,"duration":"24i"},{"time":"7488i","midiNote":72,"note":"C5","velocity":1,"duration":"24i"},{"time":"7512i","midiNote":71,"note":"B4","velocity":1,"duration":"24i"},{"time":"7512i","midiNote":74,"note":"D5","velocity":1,"duration":"24i"},{"time":"7536i","midiNote":45,"note":"A2","velocity":1,"duration":"24i"},{"time":"7536i","midiNote":72,"note":"C5","velocity":1,"duration":"24i"},{"time":"7536i","midiNote":76,"note":"E5","velocity":1,"duration":"24i"},{"time":"7560i","midiNote":57,"note":"A3","velocity":1,"duration":"24i"},{"time":"7560i","midiNote":72,"note":"C5","velocity":1,"duration":"24i"},{"time":"7560i","midiNote":76,"note":"E5","velocity":1,"duration":"24i"},{"time":"7584i","midiNote":48,"note":"C3","velocity":1,"duration":"24i"},{"time":"7584i","midiNote":77,"note":"F5","velocity":1,"duration":"12i"},{"time":"7596i","midiNote":76,"note":"E5","velocity":1,"duration":"12i"},{"time":"7608i","midiNote":60,"note":"C4","velocity":1,"duration":"24i"},{"time":"7608i","midiNote":74,"note":"D5","velocity":1,"duration":"12i"},{"time":"7620i","midiNote":72,"note":"C5","velocity":1,"duration":"12i"},{"time":"7632i","midiNote":52,"note":"E3","velocity":1,"duration":"48i"},{"time":"7632i","midiNote":68,"note":"G#4","velocity":1,"duration":"48i"},{"time":"7632i","midiNote":71,"note":"B4","velocity":1,"duration":"48i"},{"time":"7680i","midiNote":71,"note":"B4","velocity":1,"duration":"12i"},{"time":"7692i","midiNote":69,"note":"A4","velocity":1,"duration":"12i"},{"time":"7704i","midiNote":68,"note":"G#4","velocity":1,"duration":"12i"},{"time":"7716i","midiNote":69,"note":"A4","velocity":1,"duration":"12i"},{"time":"7728i","midiNote":57,"note":"A3","velocity":1,"duration":"24i"},{"time":"7728i","midiNote":72,"note":"C5","velocity":1,"duration":"24i"},{"time":"7752i","midiNote":60,"note":"C4","velocity":1,"duration":"24i"},{"time":"7752i","midiNote":64,"note":"E4","velocity":1,"duration":"24i"},{"time":"7776i","midiNote":60,"note":"C4","velocity":1,"duration":"24i"},{"time":"7776i","midiNote":64,"note":"E4","velocity":1,"duration":"24i"},{"time":"7776i","midiNote":74,"note":"D5","velocity":1,"duration":"12i"},{"time":"7788i","midiNote":72,"note":"C5","velocity":1,"duration":"12i"},{"time":"7800i","midiNote":60,"note":"C4","velocity":1,"duration":"24i"},{"time":"7800i","midiNote":64,"note":"E4","velocity":1,"duration":"24i"},{"time":"7800i","midiNote":71,"note":"B4","velocity":1,"duration":"12i"},{"time":"7812i","midiNote":72,"note":"C5","velocity":1,"duration":"12i"},{"time":"7824i","midiNote":57,"note":"A3","velocity":1,"duration":"24i"},{"time":"7824i","midiNote":76,"note":"E5","velocity":1,"duration":"24i"},{"time":"7848i","midiNote":60,"note":"C4","velocity":1,"duration":"24i"},{"time":"7848i","midiNote":64,"note":"E4","velocity":1,"duration":"24i"},{"time":"7872i","midiNote":60,"note":"C4","velocity":1,"duration":"24i"},{"time":"7872i","midiNote":64,"note":"E4","velocity":1,"duration":"24i"},{"time":"7872i","midiNote":77,"note":"F5","velocity":1,"duration":"12i"},{"time":"7884i","midiNote":76,"note":"E5","velocity":1,"duration":"12i"},{"time":"7896i","midiNote":60,"note":"C4","velocity":1,"duration":"24i"},{"time":"7896i","midiNote":64,"note":"E4","velocity":1,"duration":"24i"},{"time":"7896i","midiNote":75,"note":"D#5","velocity":1,"duration":"12i"},{"time":"7908i","midiNote":76,"note":"E5","velocity":1,"duration":"12i"},{"time":"7920i","midiNote":57,"note":"A3","velocity":1,"duration":"24i"},{"time":"7920i","midiNote":83,"note":"B5","velocity":1,"duration":"12i"},{"time":"7932i","midiNote":81,"note":"A5","velocity":1,"duration":"12i"},{"time":"7944i","midiNote":60,"note":"C4","velocity":1,"duration":"24i"},{"time":"7944i","midiNote":64,"note":"E4","velocity":1,"duration":"24i"},{"time":"7944i","midiNote":80,"note":"G#5","velocity":1,"duration":"12i"},{"time":"7956i","midiNote":81,"note":"A5","velocity":1,"duration":"12i"},{"time":"7968i","midiNote":57,"note":"A3","velocity":1,"duration":"24i"},{"time":"7968i","midiNote":83,"note":"B5","velocity":1,"duration":"12i"},{"time":"7980i","midiNote":81,"note":"A5","velocity":1,"duration":"12i"},{"time":"7992i","midiNote":60,"note":"C4","velocity":1,"duration":"24i"},{"time":"7992i","midiNote":64,"note":"E4","velocity":1,"duration":"24i"},{"time":"7992i","midiNote":80,"note":"G#5","velocity":1,"duration":"12i"},{"time":"8004i","midiNote":81,"note":"A5","velocity":1,"duration":"12i"},{"time":"8016i","midiNote":53,"note":"F3","velocity":1,"duration":"24i"},{"time":"8016i","midiNote":84,"note":"C6","velocity":1,"duration":"24i"},{"time":"8040i","midiNote":57,"note":"A3","velocity":1,"duration":"24i"},{"time":"8040i","midiNote":63,"note":"D#4","velocity":1,"duration":"24i"},{"time":"8064i","midiNote":57,"note":"A3","velocity":1,"duration":"24i"},{"time":"8064i","midiNote":63,"note":"D#4","velocity":1,"duration":"24i"},{"time":"8064i","midiNote":81,"note":"A5","velocity":1,"duration":"24i"},{"time":"8088i","midiNote":57,"note":"A3","velocity":1,"duration":"24i"},{"time":"8088i","midiNote":63,"note":"D#4","velocity":1,"duration":"24i"},{"time":"8088i","midiNote":83,"note":"B5","velocity":1,"duration":"24i"},{"time":"8112i","midiNote":52,"note":"E3","velocity":1,"duration":"24i"},{"time":"8112i","midiNote":84,"note":"C6","velocity":1,"duration":"24i"},{"time":"8136i","midiNote":57,"note":"A3","velocity":1,"duration":"24i"},{"time":"8136i","midiNote":64,"note":"E4","velocity":1,"duration":"24i"},{"time":"8136i","midiNote":83,"note":"B5","velocity":1,"duration":"24i"},{"time":"8160i","midiNote":50,"note":"D3","velocity":1,"duration":"24i"},{"time":"8160i","midiNote":81,"note":"A5","velocity":1,"duration":"24i"},{"time":"8184i","midiNote":53,"note":"F3","velocity":1,"duration":"24i"},{"time":"8184i","midiNote":59,"note":"B3","velocity":1,"duration":"24i"},{"time":"8184i","midiNote":80,"note":"G#5","velocity":1,"duration":"24i"},{"time":"8208i","midiNote":48,"note":"C3","velocity":1,"duration":"24i"},{"time":"8208i","midiNote":81,"note":"A5","velocity":1,"duration":"24i"},{"time":"8232i","midiNote":52,"note":"E3","velocity":1,"duration":"24i"},{"time":"8232i","midiNote":57,"note":"A3","velocity":1,"duration":"24i"},{"time":"8232i","midiNote":76,"note":"E5","velocity":1,"duration":"24i"},{"time":"8256i","midiNote":50,"note":"D3","velocity":1,"duration":"24i"},{"time":"8256i","midiNote":77,"note":"F5","velocity":1,"duration":"24i"},{"time":"8280i","midiNote":53,"note":"F3","velocity":1,"duration":"24i"},{"time":"8280i","midiNote":59,"note":"B3","velocity":1,"duration":"24i"},{"time":"8280i","midiNote":74,"note":"D5","velocity":1,"duration":"24i"},{"time":"8304i","midiNote":52,"note":"E3","velocity":1,"duration":"24i"},{"time":"8304i","midiNote":57,"note":"A3","velocity":1,"duration":"24i"},{"time":"8304i","midiNote":72,"note":"C5","velocity":1,"duration":"48i"},{"time":"8328i","midiNote":52,"note":"E3","velocity":1,"duration":"24i"},{"time":"8328i","midiNote":57,"note":"A3","velocity":1,"duration":"24i"},{"time":"8352i","midiNote":52,"note":"E3","velocity":1,"duration":"24i"},{"time":"8352i","midiNote":56,"note":"G#3","velocity":1,"duration":"24i"},{"time":"8352i","midiNote":71,"note":"B4","velocity":1,"duration":"36i"},{"time":"8376i","midiNote":52,"note":"E3","velocity":1,"duration":"24i"},{"time":"8376i","midiNote":56,"note":"G#3","velocity":1,"duration":"24i"},{"time":"8388i","midiNote":69,"note":"A4","velocity":1,"duration":"6i"},{"time":"8394i","midiNote":71,"note":"B4","velocity":1,"duration":"6i"},{"time":"8400i","midiNote":45,"note":"A2","velocity":1,"duration":"44i"},{"time":"8400i","midiNote":57,"note":"A3","velocity":1,"duration":"44i"},{"time":"8400i","midiNote":69,"note":"A4","velocity":1,"duration":"48i"},{"time":"8448i","midiNote":69,"note":"A4","velocity":1,"duration":"12i"},{"time":"8460i","midiNote":81,"note":"A5","velocity":1,"duration":"12i"},{"time":"8472i","midiNote":71,"note":"B4","velocity":1,"duration":"12i"},{"time":"8484i","midiNote":83,"note":"B5","velocity":1,"duration":"12i"},{"time":"8492i","midiNote":45,"note":"A2","velocity":1,"duration":"2i"},{"time":"8493i","midiNote":49,"note":"C#3","velocity":1,"duration":"2i"},{"time":"8495i","midiNote":52,"note":"E3","velocity":1,"duration":"1i"},{"time":"8496i","midiNote":57,"note":"A3","velocity":1,"duration":"24i"},{"time":"8496i","midiNote":73,"note":"C#5","velocity":1,"duration":"12i"},{"time":"8508i","midiNote":85,"note":"C#6","velocity":1,"duration":"12i"},{"time":"8520i","midiNote":57,"note":"A3","velocity":1,"duration":"24i"},{"time":"8544i","midiNote":57,"note":"A3","velocity":1,"duration":"24i"},{"time":"8544i","midiNote":69,"note":"A4","velocity":1,"duration":"12i"},{"time":"8556i","midiNote":81,"note":"A5","velocity":1,"duration":"12i"},{"time":"8568i","midiNote":57,"note":"A3","velocity":1,"duration":"20i"},{"time":"8568i","midiNote":71,"note":"B4","velocity":1,"duration":"12i"},{"time":"8580i","midiNote":83,"note":"B5","velocity":1,"duration":"12i"},{"time":"8588i","midiNote":45,"note":"A2","velocity":1,"duration":"2i"},{"time":"8589i","midiNote":49,"note":"C#3","velocity":1,"duration":"2i"},{"time":"8591i","midiNote":52,"note":"E3","velocity":1,"duration":"1i"},{"time":"8592i","midiNote":57,"note":"A3","velocity":1,"duration":"24i"},{"time":"8592i","midiNote":73,"note":"C#5","velocity":1,"duration":"12i"},{"time":"8604i","midiNote":85,"note":"C#6","velocity":1,"duration":"12i"},{"time":"8616i","midiNote":57,"note":"A3","velocity":1,"duration":"24i"},{"time":"8616i","midiNote":71,"note":"B4","velocity":1,"duration":"12i"},{"time":"8628i","midiNote":83,"note":"B5","velocity":1,"duration":"12i"},{"time":"8640i","midiNote":57,"note":"A3","velocity":1,"duration":"24i"},{"time":"8640i","midiNote":69,"note":"A4","velocity":1,"duration":"12i"},{"time":"8652i","midiNote":81,"note":"A5","velocity":1,"duration":"12i"},{"time":"8664i","midiNote":57,"note":"A3","velocity":1,"duration":"20i"},{"time":"8664i","midiNote":68,"note":"G#4","velocity":1,"duration":"12i"},{"time":"8676i","midiNote":80,"note":"G#5","velocity":1,"duration":"12i"},{"time":"8684i","midiNote":38,"note":"D2","velocity":1,"duration":"2i"},{"time":"8685i","midiNote":42,"note":"F#2","velocity":1,"duration":"2i"},{"time":"8687i","midiNote":45,"note":"A2","velocity":1,"duration":"1i"},{"time":"8688i","midiNote":50,"note":"D3","velocity":1,"duration":"24i"},{"time":"8688i","midiNote":66,"note":"F#4","velocity":1,"duration":"12i"},{"time":"8700i","midiNote":78,"note":"F#5","velocity":1,"duration":"12i"},{"time":"8712i","midiNote":50,"note":"D3","velocity":1,"duration":"20i"},{"time":"8712i","midiNote":68,"note":"G#4","velocity":1,"duration":"12i"},{"time":"8724i","midiNote":80,"note":"G#5","velocity":1,"duration":"12i"},{"time":"8732i","midiNote":39,"note":"D#2","velocity":1,"duration":"2i"},{"time":"8733i","midiNote":42,"note":"F#2","velocity":1,"duration":"2i"},{"time":"8735i","midiNote":45,"note":"A2","velocity":1,"duration":"1i"},{"time":"8736i","midiNote":51,"note":"D#3","velocity":1,"duration":"24i"},{"time":"8736i","midiNote":69,"note":"A4","velocity":1,"duration":"12i"},{"time":"8748i","midiNote":81,"note":"A5","velocity":1,"duration":"12i"},{"time":"8760i","midiNote":51,"note":"D#3","velocity":1,"duration":"20i"},{"time":"8760i","midiNote":71,"note":"B4","velocity":1,"duration":"12i"},{"time":"8772i","midiNote":83,"note":"B5","velocity":1,"duration":"12i"},{"time":"8780i","midiNote":40,"note":"E2","velocity":1,"duration":"2i"},{"time":"8781i","midiNote":44,"note":"G#2","velocity":1,"duration":"2i"},{"time":"8783i","midiNote":47,"note":"B2","velocity":1,"duration":"1i"},{"time":"8784i","midiNote":52,"note":"E3","velocity":1,"duration":"24i"},{"time":"8784i","midiNote":68,"note":"G#4","velocity":1,"duration":"12i"},{"time":"8796i","midiNote":80,"note":"G#5","velocity":1,"duration":"12i"},{"time":"8808i","midiNote":52,"note":"E3","velocity":1,"duration":"24i"},{"time":"8808i","midiNote":64,"note":"E4","velocity":1,"duration":"12i"},{"time":"8820i","midiNote":76,"note":"E5","velocity":1,"duration":"12i"},{"time":"8832i","midiNote":52,"note":"E3","velocity":1,"duration":"24i"},{"time":"8832i","midiNote":69,"note":"A4","velocity":1,"duration":"12i"},{"time":"8844i","midiNote":81,"note":"A5","velocity":1,"duration":"12i"},{"time":"8856i","midiNote":52,"note":"E3","velocity":1,"duration":"20i"},{"time":"8856i","midiNote":71,"note":"B4","velocity":1,"duration":"12i"},{"time":"8868i","midiNote":83,"note":"B5","velocity":1,"duration":"12i"},{"time":"8876i","midiNote":45,"note":"A2","velocity":1,"duration":"2i"},{"time":"8877i","midiNote":49,"note":"C#3","velocity":1,"duration":"2i"},{"time":"8879i","midiNote":52,"note":"E3","velocity":1,"duration":"1i"},{"time":"8880i","midiNote":57,"note":"A3","velocity":1,"duration":"24i"},{"time":"8880i","midiNote":73,"note":"C#5","velocity":1,"duration":"12i"},{"time":"8892i","midiNote":85,"note":"C#6","velocity":1,"duration":"12i"},{"time":"8904i","midiNote":57,"note":"A3","velocity":1,"duration":"24i"},{"time":"8928i","midiNote":57,"note":"A3","velocity":1,"duration":"24i"},{"time":"8928i","midiNote":69,"note":"A4","velocity":1,"duration":"12i"},{"time":"8940i","midiNote":81,"note":"A5","velocity":1,"duration":"12i"},{"time":"8952i","midiNote":57,"note":"A3","velocity":1,"duration":"20i"},{"time":"8952i","midiNote":71,"note":"B4","velocity":1,"duration":"12i"},{"time":"8964i","midiNote":83,"note":"B5","velocity":1,"duration":"12i"},{"time":"8972i","midiNote":45,"note":"A2","velocity":1,"duration":"2i"},{"time":"8973i","midiNote":49,"note":"C#3","velocity":1,"duration":"2i"},{"time":"8975i","midiNote":52,"note":"E3","velocity":1,"duration":"1i"},{"time":"8976i","midiNote":57,"note":"A3","velocity":1,"duration":"24i"},{"time":"8976i","midiNote":73,"note":"C#5","velocity":1,"duration":"12i"},{"time":"8988i","midiNote":85,"note":"C#6","velocity":1,"duration":"12i"},{"time":"9000i","midiNote":57,"note":"A3","velocity":1,"duration":"24i"},{"time":"9000i","midiNote":71,"note":"B4","velocity":1,"duration":"12i"},{"time":"9012i","midiNote":83,"note":"B5","velocity":1,"duration":"12i"},{"time":"9024i","midiNote":57,"note":"A3","velocity":1,"duration":"24i"},{"time":"9024i","midiNote":69,"note":"A4","velocity":1,"duration":"12i"},{"time":"9036i","midiNote":81,"note":"A5","velocity":1,"duration":"12i"},{"time":"9048i","midiNote":57,"note":"A3","velocity":1,"duration":"20i"},{"time":"9048i","midiNote":68,"note":"G#4","velocity":1,"duration":"12i"},{"time":"9060i","midiNote":80,"note":"G#5","velocity":1,"duration":"12i"},{"time":"9068i","midiNote":38,"note":"D2","velocity":1,"duration":"2i"},{"time":"9069i","midiNote":42,"note":"F#2","velocity":1,"duration":"2i"},{"time":"9071i","midiNote":45,"note":"A2","velocity":1,"duration":"1i"},{"time":"9072i","midiNote":50,"note":"D3","velocity":1,"duration":"24i"},{"time":"9072i","midiNote":66,"note":"F#4","velocity":1,"duration":"12i"},{"time":"9084i","midiNote":78,"note":"F#5","velocity":1,"duration":"12i"},{"time":"9096i","midiNote":50,"note":"D3","velocity":1,"duration":"20i"},{"time":"9096i","midiNote":71,"note":"B4","velocity":1,"duration":"12i"},{"time":"9108i","midiNote":83,"note":"B5","velocity":1,"duration":"12i"},{"time":"9116i","midiNote":40,"note":"E2","velocity":1,"duration":"2i"},{"time":"9117i","midiNote":44,"note":"G#2","velocity":1,"duration":"2i"},{"time":"9119i","midiNote":47,"note":"B2","velocity":1,"duration":"1i"},{"time":"9120i","midiNote":52,"note":"E3","velocity":1,"duration":"24i"},{"time":"9120i","midiNote":68,"note":"G#4","velocity":1,"duration":"12i"},{"time":"9132i","midiNote":80,"note":"G#5","velocity":1,"duration":"12i"},{"time":"9144i","midiNote":52,"note":"E3","velocity":1,"duration":"24i"},{"time":"9144i","midiNote":64,"note":"E4","velocity":1,"duration":"12i"},{"time":"9156i","midiNote":76,"note":"E5","velocity":1,"duration":"12i"},{"time":"9168i","midiNote":45,"note":"A2","velocity":1,"duration":"44i"},{"time":"9168i","midiNote":69,"note":"A4","velocity":1,"duration":"48i"},{"time":"9168i","midiNote":81,"note":"A5","velocity":1,"duration":"48i"},{"time":"9212i","midiNote":45,"note":"A2","velocity":1,"duration":"2i"},{"time":"9213i","midiNote":49,"note":"C#3","velocity":1,"duration":"2i"},{"time":"9215i","midiNote":52,"note":"E3","velocity":1,"duration":"1i"},{"time":"9216i","midiNote":57,"note":"A3","velocity":1,"duration":"24i"},{"time":"9216i","midiNote":69,"note":"A4","velocity":1,"duration":"48i"},{"time":"9216i","midiNote":81,"note":"A5","velocity":1,"duration":"48i"},{"time":"9240i","midiNote":57,"note":"A3","velocity":1,"duration":"24i"},{"time":"9264i","midiNote":57,"note":"A3","velocity":1,"duration":"24i"},{"time":"9264i","midiNote":73,"note":"C#5","velocity":1,"duration":"48i"},{"time":"9264i","midiNote":85,"note":"C#6","velocity":1,"duration":"36i"},{"time":"9288i","midiNote":57,"note":"A3","velocity":1,"duration":"20i"},{"time":"9300i","midiNote":85,"note":"C#6","velocity":1,"duration":"12i"},{"time":"9308i","midiNote":45,"note":"A2","velocity":1,"duration":"2i"},{"time":"9309i","midiNote":49,"note":"C#3","velocity":1,"duration":"2i"},{"time":"9311i","midiNote":52,"note":"E3","velocity":1,"duration":"1i"},{"time":"9312i","midiNote":57,"note":"A3","velocity":1,"duration":"24i"},{"time":"9312i","midiNote":73,"note":"C#5","velocity":1,"duration":"48i"},{"time":"9312i","midiNote":76,"note":"E5","velocity":1,"duration":"48i"},{"time":"9312i","midiNote":81,"note":"A5","velocity":1,"duration":"48i"},{"time":"9312i","midiNote":85,"note":"C#6","velocity":1,"duration":"96i"},{"time":"9336i","midiNote":57,"note":"A3","velocity":1,"duration":"24i"},{"time":"9360i","midiNote":57,"note":"A3","velocity":1,"duration":"24i"},{"time":"9384i","midiNote":57,"note":"A3","velocity":1,"duration":"20i"},{"time":"9404i","midiNote":45,"note":"A2","velocity":1,"duration":"2i"},{"time":"9405i","midiNote":49,"note":"C#3","velocity":1,"duration":"2i"},{"time":"9407i","midiNote":52,"note":"E3","velocity":1,"duration":"1i"},{"time":"9408i","midiNote":57,"note":"A3","velocity":1,"duration":"24i"},{"time":"9408i","midiNote":73,"note":"C#5","velocity":1,"duration":"48i"},{"time":"9408i","midiNote":76,"note":"E5","velocity":1,"duration":"48i"},{"time":"9408i","midiNote":81,"note":"A5","velocity":1,"duration":"48i"},{"time":"9408i","midiNote":85,"note":"C#6","velocity":1,"duration":"96i"},{"time":"9432i","midiNote":57,"note":"A3","velocity":1,"duration":"24i"},{"time":"9456i","midiNote":57,"note":"A3","velocity":1,"duration":"24i"},{"time":"9480i","midiNote":57,"note":"A3","velocity":1,"duration":"20i"},{"time":"9500i","midiNote":45,"note":"A2","velocity":1,"duration":"2i"},{"time":"9501i","midiNote":49,"note":"C#3","velocity":1,"duration":"2i"},{"time":"9503i","midiNote":52,"note":"E3","velocity":1,"duration":"1i"},{"time":"9504i","midiNote":57,"note":"A3","velocity":1,"duration":"24i"},{"time":"9504i","midiNote":86,"note":"D6","velocity":1,"duration":"12i"},{"time":"9516i","midiNote":85,"note":"C#6","velocity":1,"duration":"12i"},{"time":"9528i","midiNote":57,"note":"A3","velocity":1,"duration":"24i"},{"time":"9528i","midiNote":83,"note":"B5","velocity":1,"duration":"12i"},{"time":"9540i","midiNote":85,"note":"C#6","velocity":1,"duration":"12i"},{"time":"9552i","midiNote":57,"note":"A3","velocity":1,"duration":"24i"},{"time":"9552i","midiNote":86,"note":"D6","velocity":1,"duration":"12i"},{"time":"9564i","midiNote":85,"note":"C#6","velocity":1,"duration":"12i"},{"time":"9576i","midiNote":57,"note":"A3","velocity":1,"duration":"20i"},{"time":"9576i","midiNote":83,"note":"B5","velocity":1,"duration":"12i"},{"time":"9588i","midiNote":85,"note":"C#6","velocity":1,"duration":"12i"},{"time":"9596i","midiNote":38,"note":"D2","velocity":1,"duration":"2i"},{"time":"9597i","midiNote":42,"note":"F#2","velocity":1,"duration":"2i"},{"time":"9599i","midiNote":45,"note":"A2","velocity":1,"duration":"1i"},{"time":"9600i","midiNote":50,"note":"D3","velocity":1,"duration":"24i"},{"time":"9600i","midiNote":78,"note":"F#5","velocity":1,"duration":"91i"},{"time":"9600i","midiNote":81,"note":"A5","velocity":1,"duration":"91i"},{"time":"9600i","midiNote":86,"note":"D6","velocity":1,"duration":"91i"},{"time":"9624i","midiNote":50,"note":"D3","velocity":1,"duration":"24i"},{"time":"9648i","midiNote":50,"note":"D3","velocity":1,"duration":"24i"},{"time":"9672i","midiNote":50,"note":"D3","velocity":1,"duration":"20i"},{"time":"9691i","midiNote":86,"note":"D6","velocity":1,"duration":"5i"},{"time":"9692i","midiNote":45,"note":"A2","velocity":1,"duration":"2i"},{"time":"9693i","midiNote":49,"note":"C#3","velocity":1,"duration":"2i"},{"time":"9695i","midiNote":52,"note":"E3","velocity":1,"duration":"1i"},{"time":"9696i","midiNote":57,"note":"A3","velocity":1,"duration":"24i"},{"time":"9696i","midiNote":76,"note":"E5","velocity":1,"duration":"19i"},{"time":"9696i","midiNote":81,"note":"A5","velocity":1,"duration":"19i"},{"time":"9696i","midiNote":85,"note":"C#6","velocity":1,"duration":"19i"},{"time":"9715i","midiNote":86,"note":"D6","velocity":1,"duration":"5i"},{"time":"9720i","midiNote":57,"note":"A3","velocity":1,"duration":"24i"},{"time":"9720i","midiNote":76,"note":"E5","velocity":1,"duration":"19i"},{"time":"9720i","midiNote":81,"note":"A5","velocity":1,"duration":"19i"},{"time":"9720i","midiNote":85,"note":"C#6","velocity":1,"duration":"19i"},{"time":"9739i","midiNote":86,"note":"D6","velocity":1,"duration":"5i"},{"time":"9744i","midiNote":57,"note":"A3","velocity":1,"duration":"24i"},{"time":"9744i","midiNote":76,"note":"E5","velocity":1,"duration":"19i"},{"time":"9744i","midiNote":81,"note":"A5","velocity":1,"duration":"19i"},{"time":"9744i","midiNote":85,"note":"C#6","velocity":1,"duration":"19i"},{"time":"9763i","midiNote":86,"note":"D6","velocity":1,"duration":"5i"},{"time":"9768i","midiNote":57,"note":"A3","velocity":1,"duration":"20i"},{"time":"9768i","midiNote":76,"note":"E5","velocity":1,"duration":"24i"},{"time":"9768i","midiNote":81,"note":"A5","velocity":1,"duration":"24i"},{"time":"9768i","midiNote":85,"note":"C#6","velocity":1,"duration":"24i"},{"time":"9788i","midiNote":40,"note":"E2","velocity":1,"duration":"2i"},{"time":"9789i","midiNote":44,"note":"G#2","velocity":1,"duration":"2i"},{"time":"9791i","midiNote":47,"note":"B2","velocity":1,"duration":"1i"},{"time":"9792i","midiNote":52,"note":"E3","velocity":1,"duration":"24i"},{"time":"9792i","midiNote":76,"note":"E5","velocity":1,"duration":"96i"},{"time":"9792i","midiNote":80,"note":"G#5","velocity":1,"duration":"96i"},{"time":"9792i","midiNote":83,"note":"B5","velocity":1,"duration":"72i"},{"time":"9816i","midiNote":52,"note":"E3","velocity":1,"duration":"24i"},{"time":"9840i","midiNote":52,"note":"E3","velocity":1,"duration":"24i"},{"time":"9864i","midiNote":52,"note":"E3","velocity":1,"duration":"20i"},{"time":"9864i","midiNote":88,"note":"E6","velocity":1,"duration":"24i"},{"time":"9884i","midiNote":45,"note":"A2","velocity":1,"duration":"2i"},{"time":"9885i","midiNote":49,"note":"C#3","velocity":1,"duration":"2i"},{"time":"9887i","midiNote":52,"note":"E3","velocity":1,"duration":"1i"},{"time":"9888i","midiNote":57,"note":"A3","velocity":1,"duration":"24i"},{"time":"9888i","midiNote":73,"note":"C#5","velocity":1,"duration":"48i"},{"time":"9888i","midiNote":76,"note":"E5","velocity":1,"duration":"48i"},{"time":"9888i","midiNote":81,"note":"A5","velocity":1,"duration":"48i"},{"time":"9888i","midiNote":85,"note":"C#6","velocity":1,"duration":"96i"},{"time":"9912i","midiNote":57,"note":"A3","velocity":1,"duration":"24i"},{"time":"9936i","midiNote":57,"note":"A3","velocity":1,"duration":"24i"},{"time":"9960i","midiNote":57,"note":"A3","velocity":1,"duration":"20i"},{"time":"9980i","midiNote":45,"note":"A2","velocity":1,"duration":"2i"},{"time":"9981i","midiNote":49,"note":"C#3","velocity":1,"duration":"2i"},{"time":"9983i","midiNote":52,"note":"E3","velocity":1,"duration":"1i"},{"time":"9984i","midiNote":57,"note":"A3","velocity":1,"duration":"24i"},{"time":"9984i","midiNote":73,"note":"C#5","velocity":1,"duration":"48i"},{"time":"9984i","midiNote":76,"note":"E5","velocity":1,"duration":"48i"},{"time":"9984i","midiNote":81,"note":"A5","velocity":1,"duration":"48i"},{"time":"9984i","midiNote":85,"note":"C#6","velocity":1,"duration":"96i"},{"time":"10008i","midiNote":57,"note":"A3","velocity":1,"duration":"24i"},{"time":"10032i","midiNote":57,"note":"A3","velocity":1,"duration":"24i"},{"time":"10056i","midiNote":57,"note":"A3","velocity":1,"duration":"20i"},{"time":"10076i","midiNote":45,"note":"A2","velocity":1,"duration":"2i"},{"time":"10077i","midiNote":49,"note":"C#3","velocity":1,"duration":"2i"},{"time":"10079i","midiNote":52,"note":"E3","velocity":1,"duration":"1i"},{"time":"10080i","midiNote":57,"note":"A3","velocity":1,"duration":"24i"},{"time":"10080i","midiNote":86,"note":"D6","velocity":1,"duration":"12i"},{"time":"10092i","midiNote":85,"note":"C#6","velocity":1,"duration":"12i"},{"time":"10104i","midiNote":57,"note":"A3","velocity":1,"duration":"24i"},{"time":"10104i","midiNote":83,"note":"B5","velocity":1,"duration":"12i"},{"time":"10116i","midiNote":85,"note":"C#6","velocity":1,"duration":"12i"},{"time":"10128i","midiNote":57,"note":"A3","velocity":1,"duration":"24i"},{"time":"10128i","midiNote":86,"note":"D6","velocity":1,"duration":"12i"},{"time":"10140i","midiNote":85,"note":"C#6","velocity":1,"duration":"12i"},{"time":"10152i","midiNote":57,"note":"A3","velocity":1,"duration":"20i"},{"time":"10152i","midiNote":83,"note":"B5","velocity":1,"duration":"12i"},{"time":"10164i","midiNote":85,"note":"C#6","velocity":1,"duration":"12i"},{"time":"10172i","midiNote":38,"note":"D2","velocity":1,"duration":"2i"},{"time":"10173i","midiNote":42,"note":"F#2","velocity":1,"duration":"2i"},{"time":"10175i","midiNote":45,"note":"A2","velocity":1,"duration":"1i"},{"time":"10176i","midiNote":50,"note":"D3","velocity":1,"duration":"24i"},{"time":"10176i","midiNote":78,"note":"F#5","velocity":1,"duration":"91i"},{"time":"10176i","midiNote":81,"note":"A5","velocity":1,"duration":"91i"},{"time":"10176i","midiNote":86,"note":"D6","velocity":1,"duration":"91i"},{"time":"10200i","midiNote":50,"note":"D3","velocity":1,"duration":"24i"},{"time":"10224i","midiNote":50,"note":"D3","velocity":1,"duration":"24i"},{"time":"10248i","midiNote":50,"note":"D3","velocity":1,"duration":"20i"},{"time":"10267i","midiNote":86,"note":"D6","velocity":1,"duration":"5i"},{"time":"10268i","midiNote":45,"note":"A2","velocity":1,"duration":"2i"},{"time":"10269i","midiNote":49,"note":"C#3","velocity":1,"duration":"2i"},{"time":"10271i","midiNote":52,"note":"E3","velocity":1,"duration":"1i"},{"time":"10272i","midiNote":57,"note":"A3","velocity":1,"duration":"24i"},{"time":"10272i","midiNote":76,"note":"E5","velocity":1,"duration":"91i"},{"time":"10272i","midiNote":81,"note":"A5","velocity":1,"duration":"91i"},{"time":"10272i","midiNote":85,"note":"C#6","velocity":1,"duration":"91i"},{"time":"10296i","midiNote":57,"note":"A3","velocity":1,"duration":"24i"},{"time":"10320i","midiNote":57,"note":"A3","velocity":1,"duration":"24i"},{"time":"10344i","midiNote":57,"note":"A3","velocity":1,"duration":"20i"},{"time":"10363i","midiNote":85,"note":"C#6","velocity":1,"duration":"5i"},{"time":"10364i","midiNote":40,"note":"E2","velocity":1,"duration":"2i"},{"time":"10365i","midiNote":44,"note":"G#2","velocity":1,"duration":"2i"},{"time":"10367i","midiNote":47,"note":"B2","velocity":1,"duration":"1i"},{"time":"10368i","midiNote":52,"note":"E3","velocity":1,"duration":"24i"},{"time":"10368i","midiNote":76,"note":"E5","velocity":1,"duration":"19i"},{"time":"10368i","midiNote":80,"note":"G#5","velocity":1,"duration":"19i"},{"time":"10368i","midiNote":83,"note":"B5","velocity":1,"duration":"19i"},{"time":"10387i","midiNote":85,"note":"C#6","velocity":1,"duration":"5i"},{"time":"10392i","midiNote":52,"note":"E3","velocity":1,"duration":"24i"},{"time":"10392i","midiNote":76,"note":"E5","velocity":1,"duration":"19i"},{"time":"10392i","midiNote":80,"note":"G#5","velocity":1,"duration":"19i"},{"time":"10392i","midiNote":83,"note":"B5","velocity":1,"duration":"19i"},{"time":"10411i","midiNote":85,"note":"C#6","velocity":1,"duration":"5i"},{"time":"10416i","midiNote":52,"note":"E3","velocity":1,"duration":"24i"},{"time":"10416i","midiNote":76,"note":"E5","velocity":1,"duration":"19i"},{"time":"10416i","midiNote":80,"note":"G#5","velocity":1,"duration":"19i"},{"time":"10416i","midiNote":83,"note":"B5","velocity":1,"duration":"19i"},{"time":"10435i","midiNote":85,"note":"C#6","velocity":1,"duration":"5i"},{"time":"10440i","midiNote":52,"note":"E3","velocity":1,"duration":"24i"},{"time":"10440i","midiNote":76,"note":"E5","velocity":1,"duration":"24i"},{"time":"10440i","midiNote":80,"note":"G#5","velocity":1,"duration":"24i"},{"time":"10440i","midiNote":83,"note":"B5","velocity":1,"duration":"24i"},{"time":"10464i","midiNote":57,"note":"A3","velocity":1,"duration":"12i"},{"time":"10464i","midiNote":81,"note":"A5","velocity":1,"duration":"45i"},{"time":"10476i","midiNote":64,"note":"E4","velocity":1,"duration":"12i"},{"time":"10488i","midiNote":61,"note":"C#4","velocity":1,"duration":"12i"},{"time":"10500i","midiNote":64,"note":"E4","velocity":1,"duration":"12i"},{"time":"10509i","midiNote":76,"note":"E5","velocity":1,"duration":"2i"},{"time":"10511i","midiNote":81,"note":"A5","velocity":1,"duration":"1i"},{"time":"10512i","midiNote":57,"note":"A3","velocity":1,"duration":"12i"},{"time":"10512i","midiNote":85,"note":"C#6","velocity":1,"duration":"36i"},{"time":"10524i","midiNote":64,"note":"E4","velocity":1,"duration":"12i"},{"time":"10536i","midiNote":61,"note":"C#4","velocity":1,"duration":"12i"},{"time":"10548i","midiNote":64,"note":"E4","velocity":1,"duration":"12i"},{"time":"10548i","midiNote":85,"note":"C#6","velocity":1,"duration":"9i"},{"time":"10557i","midiNote":76,"note":"E5","velocity":1,"duration":"2i"},{"time":"10559i","midiNote":81,"note":"A5","velocity":1,"duration":"1i"},{"time":"10560i","midiNote":57,"note":"A3","velocity":1,"duration":"12i"},{"time":"10560i","midiNote":85,"note":"C#6","velocity":1,"duration":"93i"},{"time":"10572i","midiNote":64,"note":"E4","velocity":1,"duration":"12i"},{"time":"10584i","midiNote":61,"note":"C#4","velocity":1,"duration":"12i"},{"time":"10596i","midiNote":64,"note":"E4","velocity":1,"duration":"12i"},{"time":"10608i","midiNote":57,"note":"A3","velocity":1,"duration":"12i"},{"time":"10620i","midiNote":64,"note":"E4","velocity":1,"duration":"12i"},{"time":"10632i","midiNote":61,"note":"C#4","velocity":1,"duration":"12i"},{"time":"10644i","midiNote":64,"note":"E4","velocity":1,"duration":"12i"},{"time":"10653i","midiNote":76,"note":"E5","velocity":1,"duration":"2i"},{"time":"10655i","midiNote":81,"note":"A5","velocity":1,"duration":"1i"},{"time":"10656i","midiNote":57,"note":"A3","velocity":1,"duration":"12i"},{"time":"10656i","midiNote":85,"note":"C#6","velocity":1,"duration":"96i"},{"time":"10668i","midiNote":64,"note":"E4","velocity":1,"duration":"12i"},{"time":"10680i","midiNote":61,"note":"C#4","velocity":1,"duration":"12i"},{"time":"10692i","midiNote":64,"note":"E4","velocity":1,"duration":"12i"},{"time":"10704i","midiNote":57,"note":"A3","velocity":1,"duration":"12i"},{"time":"10716i","midiNote":64,"note":"E4","velocity":1,"duration":"12i"},{"time":"10728i","midiNote":61,"note":"C#4","velocity":1,"duration":"12i"},{"time":"10740i","midiNote":64,"note":"E4","velocity":1,"duration":"12i"},{"time":"10752i","midiNote":57,"note":"A3","velocity":1,"duration":"12i"},{"time":"10752i","midiNote":86,"note":"D6","velocity":1,"duration":"12i"},{"time":"10764i","midiNote":64,"note":"E4","velocity":1,"duration":"12i"},{"time":"10764i","midiNote":85,"note":"C#6","velocity":1,"duration":"12i"},{"time":"10776i","midiNote":61,"note":"C#4","velocity":1,"duration":"12i"},{"time":"10776i","midiNote":83,"note":"B5","velocity":1,"duration":"12i"},{"time":"10788i","midiNote":64,"note":"E4","velocity":1,"duration":"12i"},{"time":"10788i","midiNote":85,"note":"C#6","velocity":1,"duration":"12i"},{"time":"10800i","midiNote":57,"note":"A3","velocity":1,"duration":"12i"},{"time":"10800i","midiNote":86,"note":"D6","velocity":1,"duration":"12i"},{"time":"10812i","midiNote":64,"note":"E4","velocity":1,"duration":"12i"},{"time":"10812i","midiNote":85,"note":"C#6","velocity":1,"duration":"12i"},{"time":"10824i","midiNote":61,"note":"C#4","velocity":1,"duration":"12i"},{"time":"10824i","midiNote":83,"note":"B5","velocity":1,"duration":"12i"},{"time":"10836i","midiNote":64,"note":"E4","velocity":1,"duration":"12i"},{"time":"10836i","midiNote":85,"note":"C#6","velocity":1,"duration":"12i"},{"time":"10848i","midiNote":57,"note":"A3","velocity":1,"duration":"12i"},{"time":"10848i","midiNote":86,"note":"D6","velocity":1,"duration":"91i"},{"time":"10860i","midiNote":66,"note":"F#4","velocity":1,"duration":"12i"},{"time":"10872i","midiNote":62,"note":"D4","velocity":1,"duration":"12i"},{"time":"10884i","midiNote":66,"note":"F#4","velocity":1,"duration":"12i"},{"time":"10896i","midiNote":57,"note":"A3","velocity":1,"duration":"12i"},{"time":"10908i","midiNote":66,"note":"F#4","velocity":1,"duration":"12i"},{"time":"10920i","midiNote":62,"note":"D4","velocity":1,"duration":"12i"},{"time":"10932i","midiNote":66,"note":"F#4","velocity":1,"duration":"12i"},{"time":"10939i","midiNote":86,"note":"D6","velocity":1,"duration":"5i"},{"time":"10944i","midiNote":57,"note":"A3","velocity":1,"duration":"12i"},{"time":"10944i","midiNote":85,"note":"C#6","velocity":1,"duration":"19i"},{"time":"10956i","midiNote":64,"note":"E4","velocity":1,"duration":"12i"},{"time":"10963i","midiNote":86,"note":"D6","velocity":1,"duration":"5i"},{"time":"10968i","midiNote":61,"note":"C#4","velocity":1,"duration":"12i"},{"time":"10968i","midiNote":85,"note":"C#6","velocity":1,"duration":"19i"},{"time":"10980i","midiNote":64,"note":"E4","velocity":1,"duration":"12i"},{"time":"10987i","midiNote":86,"note":"D6","velocity":1,"duration":"5i"},{"time":"10992i","midiNote":57,"note":"A3","velocity":1,"duration":"12i"},{"time":"10992i","midiNote":85,"note":"C#6","velocity":1,"duration":"19i"},{"time":"11004i","midiNote":64,"note":"E4","velocity":1,"duration":"12i"},{"time":"11011i","midiNote":86,"note":"D6","velocity":1,"duration":"5i"},{"time":"11016i","midiNote":61,"note":"C#4","velocity":1,"duration":"12i"},{"time":"11016i","midiNote":85,"note":"C#6","velocity":1,"duration":"24i"},{"time":"11028i","midiNote":64,"note":"E4","velocity":1,"duration":"12i"},{"time":"11040i","midiNote":52,"note":"E3","velocity":1,"duration":"12i"},{"time":"11040i","midiNote":83,"note":"B5","velocity":1,"duration":"72i"},{"time":"11052i","midiNote":64,"note":"E4","velocity":1,"duration":"12i"},{"time":"11064i","midiNote":56,"note":"G#3","velocity":1,"duration":"12i"},{"time":"11076i","midiNote":64,"note":"E4","velocity":1,"duration":"12i"},{"time":"11088i","midiNote":52,"note":"E3","velocity":1,"duration":"12i"},{"time":"11100i","midiNote":64,"note":"E4","velocity":1,"duration":"12i"},{"time":"11112i","midiNote":56,"note":"G#3","velocity":1,"duration":"12i"},{"time":"11112i","midiNote":88,"note":"E6","velocity":1,"duration":"24i"},{"time":"11124i","midiNote":64,"note":"E4","velocity":1,"duration":"8i"},{"time":"11132i","midiNote":45,"note":"A2","velocity":1,"duration":"2i"},{"time":"11133i","midiNote":49,"note":"C#3","velocity":1,"duration":"2i"},{"time":"11135i","midiNote":52,"note":"E3","velocity":1,"duration":"1i"},{"time":"11136i","midiNote":57,"note":"A3","velocity":1,"duration":"24i"},{"time":"11136i","midiNote":73,"note":"C#5","velocity":1,"duration":"48i"},{"time":"11136i","midiNote":76,"note":"E5","velocity":1,"duration":"48i"},{"time":"11136i","midiNote":81,"note":"A5","velocity":1,"duration":"48i"},{"time":"11136i","midiNote":85,"note":"C#6","velocity":1,"duration":"96i"},{"time":"11160i","midiNote":57,"note":"A3","velocity":1,"duration":"24i"},{"time":"11184i","midiNote":57,"note":"A3","velocity":1,"duration":"24i"},{"time":"11208i","midiNote":57,"note":"A3","velocity":1,"duration":"20i"},{"time":"11228i","midiNote":45,"note":"A2","velocity":1,"duration":"2i"},{"time":"11229i","midiNote":49,"note":"C#3","velocity":1,"duration":"2i"},{"time":"11231i","midiNote":52,"note":"E3","velocity":1,"duration":"1i"},{"time":"11232i","midiNote":57,"note":"A3","velocity":1,"duration":"24i"},{"time":"11232i","midiNote":73,"note":"C#5","velocity":1,"duration":"48i"},{"time":"11232i","midiNote":76,"note":"E5","velocity":1,"duration":"48i"},{"time":"11232i","midiNote":81,"note":"A5","velocity":1,"duration":"48i"},{"time":"11232i","midiNote":85,"note":"C#6","velocity":1,"duration":"96i"},{"time":"11256i","midiNote":57,"note":"A3","velocity":1,"duration":"24i"},{"time":"11280i","midiNote":57,"note":"A3","velocity":1,"duration":"24i"},{"time":"11304i","midiNote":57,"note":"A3","velocity":1,"duration":"20i"},{"time":"11324i","midiNote":45,"note":"A2","velocity":1,"duration":"2i"},{"time":"11325i","midiNote":49,"note":"C#3","velocity":1,"duration":"2i"},{"time":"11327i","midiNote":52,"note":"E3","velocity":1,"duration":"1i"},{"time":"11328i","midiNote":57,"note":"A3","velocity":1,"duration":"24i"},{"time":"11328i","midiNote":86,"note":"D6","velocity":1,"duration":"12i"},{"time":"11340i","midiNote":85,"note":"C#6","velocity":1,"duration":"12i"},{"time":"11352i","midiNote":57,"note":"A3","velocity":1,"duration":"24i"},{"time":"11352i","midiNote":83,"note":"B5","velocity":1,"duration":"12i"},{"time":"11364i","midiNote":85,"note":"C#6","velocity":1,"duration":"12i"},{"time":"11376i","midiNote":57,"note":"A3","velocity":1,"duration":"24i"},{"time":"11376i","midiNote":86,"note":"D6","velocity":1,"duration":"12i"},{"time":"11388i","midiNote":85,"note":"C#6","velocity":1,"duration":"12i"},{"time":"11400i","midiNote":57,"note":"A3","velocity":1,"duration":"20i"},{"time":"11400i","midiNote":83,"note":"B5","velocity":1,"duration":"12i"},{"time":"11412i","midiNote":85,"note":"C#6","velocity":1,"duration":"12i"},{"time":"11420i","midiNote":38,"note":"D2","velocity":1,"duration":"2i"},{"time":"11421i","midiNote":42,"note":"F#2","velocity":1,"duration":"2i"},{"time":"11423i","midiNote":45,"note":"A2","velocity":1,"duration":"1i"},{"time":"11424i","midiNote":50,"note":"D3","velocity":1,"duration":"24i"},{"time":"11424i","midiNote":78,"note":"F#5","velocity":1,"duration":"91i"},{"time":"11424i","midiNote":81,"note":"A5","velocity":1,"duration":"91i"},{"time":"11424i","midiNote":86,"note":"D6","velocity":1,"duration":"91i"},{"time":"11448i","midiNote":50,"note":"D3","velocity":1,"duration":"24i"},{"time":"11472i","midiNote":50,"note":"D3","velocity":1,"duration":"24i"},{"time":"11496i","midiNote":50,"note":"D3","velocity":1,"duration":"20i"},{"time":"11515i","midiNote":86,"note":"D6","velocity":1,"duration":"5i"},{"time":"11516i","midiNote":45,"note":"A2","velocity":1,"duration":"2i"},{"time":"11517i","midiNote":49,"note":"C#3","velocity":1,"duration":"2i"},{"time":"11519i","midiNote":52,"note":"E3","velocity":1,"duration":"1i"},{"time":"11520i","midiNote":57,"note":"A3","velocity":1,"duration":"24i"},{"time":"11520i","midiNote":76,"note":"E5","velocity":1,"duration":"91i"},{"time":"11520i","midiNote":81,"note":"A5","velocity":1,"duration":"91i"},{"time":"11520i","midiNote":85,"note":"C#6","velocity":1,"duration":"91i"},{"time":"11544i","midiNote":57,"note":"A3","velocity":1,"duration":"24i"},{"time":"11568i","midiNote":57,"note":"A3","velocity":1,"duration":"24i"},{"time":"11592i","midiNote":57,"note":"A3","velocity":1,"duration":"20i"},{"time":"11611i","midiNote":85,"note":"C#6","velocity":1,"duration":"5i"},{"time":"11612i","midiNote":40,"note":"E2","velocity":1,"duration":"2i"},{"time":"11613i","midiNote":44,"note":"G#2","velocity":1,"duration":"2i"},{"time":"11615i","midiNote":47,"note":"B2","velocity":1,"duration":"1i"},{"time":"11616i","midiNote":52,"note":"E3","velocity":1,"duration":"24i"},{"time":"11616i","midiNote":76,"note":"E5","velocity":1,"duration":"19i"},{"time":"11616i","midiNote":80,"note":"G#5","velocity":1,"duration":"19i"},{"time":"11616i","midiNote":83,"note":"B5","velocity":1,"duration":"19i"},{"time":"11635i","midiNote":85,"note":"C#6","velocity":1,"duration":"5i"},{"time":"11640i","midiNote":52,"note":"E3","velocity":1,"duration":"24i"},{"time":"11640i","midiNote":76,"note":"E5","velocity":1,"duration":"19i"},{"time":"11640i","midiNote":80,"note":"G#5","velocity":1,"duration":"19i"},{"time":"11640i","midiNote":83,"note":"B5","velocity":1,"duration":"19i"},{"time":"11659i","midiNote":85,"note":"C#6","velocity":1,"duration":"5i"},{"time":"11664i","midiNote":52,"note":"E3","velocity":1,"duration":"24i"},{"time":"11664i","midiNote":76,"note":"E5","velocity":1,"duration":"19i"},{"time":"11664i","midiNote":80,"note":"G#5","velocity":1,"duration":"19i"},{"time":"11664i","midiNote":83,"note":"B5","velocity":1,"duration":"19i"},{"time":"11683i","midiNote":85,"note":"C#6","velocity":1,"duration":"5i"},{"time":"11688i","midiNote":52,"note":"E3","velocity":1,"duration":"20i"},{"time":"11688i","midiNote":76,"note":"E5","velocity":1,"duration":"24i"},{"time":"11688i","midiNote":80,"note":"G#5","velocity":1,"duration":"24i"},{"time":"11688i","midiNote":83,"note":"B5","velocity":1,"duration":"24i"},{"time":"11708i","midiNote":45,"note":"A2","velocity":1,"duration":"2i"},{"time":"11709i","midiNote":49,"note":"C#3","velocity":1,"duration":"2i"},{"time":"11711i","midiNote":52,"note":"E3","velocity":1,"duration":"1i"},{"time":"11712i","midiNote":57,"note":"A3","velocity":1,"duration":"24i"},{"time":"11712i","midiNote":69,"note":"A4","velocity":1,"duration":"72i"},{"time":"11712i","midiNote":73,"note":"C#5","velocity":1,"duration":"72i"},{"time":"11712i","midiNote":76,"note":"E5","velocity":1,"duration":"72i"},{"time":"11712i","midiNote":81,"note":"A5","velocity":1,"duration":"72i"},{"time":"11736i","midiNote":57,"note":"A3","velocity":1,"duration":"24i"},{"time":"11760i","midiNote":57,"note":"A3","velocity":1,"duration":"24i"},{"time":"11784i","midiNote":57,"note":"A3","velocity":1,"duration":"20i"},{"time":"11784i","midiNote":73,"note":"C#5","velocity":1,"duration":"24i"},{"time":"11784i","midiNote":85,"note":"C#6","velocity":1,"duration":"24i"},{"time":"11804i","midiNote":45,"note":"A2","velocity":1,"duration":"2i"},{"time":"11805i","midiNote":49,"note":"C#3","velocity":1,"duration":"2i"},{"time":"11807i","midiNote":52,"note":"E3","velocity":1,"duration":"1i"},{"time":"11808i","midiNote":57,"note":"A3","velocity":1,"duration":"24i"},{"time":"11808i","midiNote":69,"note":"A4","velocity":1,"duration":"72i"},{"time":"11808i","midiNote":81,"note":"A5","velocity":1,"duration":"72i"},{"time":"11832i","midiNote":57,"note":"A3","velocity":1,"duration":"24i"},{"time":"11856i","midiNote":57,"note":"A3","velocity":1,"duration":"24i"},{"time":"11880i","midiNote":57,"note":"A3","velocity":1,"duration":"20i"},{"time":"11880i","midiNote":76,"note":"E5","velocity":1,"duration":"24i"},{"time":"11880i","midiNote":88,"note":"E6","velocity":1,"duration":"24i"},{"time":"11900i","midiNote":45,"note":"A2","velocity":1,"duration":"2i"},{"time":"11901i","midiNote":49,"note":"C#3","velocity":1,"duration":"2i"},{"time":"11903i","midiNote":52,"note":"E3","velocity":1,"duration":"1i"},{"time":"11904i","midiNote":57,"note":"A3","velocity":1,"duration":"24i"},{"time":"11904i","midiNote":69,"note":"A4","velocity":1,"duration":"72i"},{"time":"11904i","midiNote":81,"note":"A5","velocity":1,"duration":"72i"},{"time":"11928i","midiNote":57,"note":"A3","velocity":1,"duration":"24i"},{"time":"11952i","midiNote":57,"note":"A3","velocity":1,"duration":"24i"},{"time":"11976i","midiNote":57,"note":"A3","velocity":1,"duration":"20i"},{"time":"11976i","midiNote":73,"note":"C#5","velocity":1,"duration":"24i"},{"time":"11976i","midiNote":85,"note":"C#6","velocity":1,"duration":"24i"},{"time":"11996i","midiNote":45,"note":"A2","velocity":1,"duration":"2i"},{"time":"11997i","midiNote":49,"note":"C#3","velocity":1,"duration":"2i"},{"time":"11999i","midiNote":52,"note":"E3","velocity":1,"duration":"1i"},{"time":"12000i","midiNote":57,"note":"A3","velocity":1,"duration":"24i"},{"time":"12000i","midiNote":69,"note":"A4","velocity":1,"duration":"24i"},{"time":"12000i","midiNote":81,"note":"A5","velocity":1,"duration":"24i"},{"time":"12024i","midiNote":57,"note":"A3","velocity":1,"duration":"20i"},{"time":"12024i","midiNote":73,"note":"C#5","velocity":1,"duration":"24i"},{"time":"12024i","midiNote":85,"note":"C#6","velocity":1,"duration":"24i"},{"time":"12044i","midiNote":45,"note":"A2","velocity":1,"duration":"2i"},{"time":"12045i","midiNote":49,"note":"C#3","velocity":1,"duration":"2i"},{"time":"12047i","midiNote":52,"note":"E3","velocity":1,"duration":"1i"},{"time":"12048i","midiNote":57,"note":"A3","velocity":1,"duration":"24i"},{"time":"12048i","midiNote":69,"note":"A4","velocity":1,"duration":"24i"},{"time":"12048i","midiNote":81,"note":"A5","velocity":1,"duration":"24i"},{"time":"12072i","midiNote":57,"note":"A3","velocity":1,"duration":"24i"},{"time":"12072i","midiNote":76,"note":"E5","velocity":1,"duration":"24i"},{"time":"12072i","midiNote":88,"note":"E6","velocity":1,"duration":"24i"},{"time":"12096i","midiNote":45,"note":"A2","velocity":1,"duration":"48i"},{"time":"12096i","midiNote":69,"note":"A4","velocity":1,"duration":"48i"},{"time":"12096i","midiNote":81,"note":"A5","velocity":1,"duration":"48i"},{"time":"12144i","midiNote":45,"note":"A2","velocity":1,"duration":"48i"},{"time":"12144i","midiNote":49,"note":"C#3","velocity":1,"duration":"48i"},{"time":"12144i","midiNote":52,"note":"E3","velocity":1,"duration":"48i"},{"time":"12144i","midiNote":57,"note":"A3","velocity":1,"duration":"48i"},{"time":"12144i","midiNote":69,"note":"A4","velocity":1,"duration":"48i"},{"time":"12144i","midiNote":73,"note":"C#5","velocity":1,"duration":"48i"},{"time":"12144i","midiNote":76,"note":"E5","velocity":1,"duration":"48i"},{"time":"12144i","midiNote":81,"note":"A5","velocity":1,"duration":"48i"},{"time":"12192i","midiNote":45,"note":"A2","velocity":1,"duration":"48i"},{"time":"12192i","midiNote":49,"note":"C#3","velocity":1,"duration":"48i"},{"time":"12192i","midiNote":52,"note":"E3","velocity":1,"duration":"48i"},{"time":"12192i","midiNote":57,"note":"A3","velocity":1,"duration":"48i"},{"time":"12192i","midiNote":69,"note":"A4","velocity":1,"duration":"48i"},{"time":"12192i","midiNote":73,"note":"C#5","velocity":1,"duration":"48i"},{"time":"12192i","midiNote":76,"note":"E5","velocity":1,"duration":"48i"},{"time":"12192i","midiNote":81,"note":"A5","velocity":1,"duration":"48i"}]}